<svg width="15" height="13" viewBox="0 0 15 13" fill="#22242A" xmlns="http://www.w3.org/2000/svg">
<path d="M7.5424 12.1482C7.4124 12.2882 7.2424 12.3582 7.0624 12.3582C6.9024 12.3582 6.7524 12.3082 6.6224 12.1882L0.582403 6.69817C0.272404 6.41817 0.272404 5.93817 0.582403 5.65817L6.6224 0.168174C6.8924 -0.0718255 7.3024 -0.0518256 7.5424 0.208174C7.7824 0.478174 7.7724 0.888175 7.5024 1.12817L2.66676 5.52817H13.5624C13.9214 5.52817 14.2124 5.81919 14.2124 6.17817C14.2124 6.53716 13.9214 6.82817 13.5624 6.82817H2.66676L7.5024 11.2282C7.7624 11.4682 7.7824 11.8782 7.5424 12.1482Z" fill="#0062FF"/>
</svg>
