<svg width="24" height="24" viewBox="0 0 24 24" fill="#0062FF" xmlns="http://www.w3.org/2000/svg">
<path d="M9.2652 6.17828C8.89059 5.77246 8.9159 5.1398 9.32172 4.7652C9.72754 4.39059 10.3602 4.4159 10.7348 4.82172L9.2652 6.17828ZM16 12L16.7348 11.3217C17.0884 11.7048 17.0884 12.2952 16.7348 12.6783L16 12ZM10.7348 19.1783C10.3602 19.5841 9.72754 19.6094 9.32172 19.2348C8.9159 18.8602 8.89059 18.2275 9.2652 17.8217L10.7348 19.1783ZM10.7348 4.82172L16.7348 11.3217L15.2652 12.6783L9.2652 6.17828L10.7348 4.82172ZM16.7348 12.6783L10.7348 19.1783L9.2652 17.8217L15.2652 11.3217L16.7348 12.6783Z" fill="inherit"/>
</svg>
