<svg width="24" height="24" viewBox="0 0 24 24" fill="#22242A" xmlns="http://www.w3.org/2000/svg">
<path d="M20.3238 4.64979H14.4487C14.0755 4.64979 13.7734 4.34733 13.7734 3.97411C13.7734 3.60129 14.0755 3.29883 14.4487 3.29883H20.3238C20.6967 3.29883 20.9991 3.60129 20.9991 3.97411C20.9991 4.34733 20.6967 4.64979 20.3238 4.64979Z" fill="#2F3441"/>
<path d="M20.3248 12.6906H11.7768C11.4036 12.6906 11.1016 12.3879 11.1016 12.0151C11.1016 11.6423 11.4036 11.3398 11.7768 11.3398H20.3248C20.6972 11.3398 21 11.6423 21 12.0151C21 12.3879 20.6972 12.6906 20.3248 12.6906Z" fill="#2F3441"/>
<path d="M20.3248 16.7119H11.7768C11.4036 16.7119 11.1016 16.4098 11.1016 16.0366C11.1016 15.6638 11.4036 15.3613 11.7768 15.3613H20.3248C20.6972 15.3613 21 15.6638 21 16.0366C21 16.4098 20.6972 16.7119 20.3248 16.7119Z" fill="#2F3441"/>
<path d="M20.3248 20.7314H11.7768C11.4036 20.7314 11.1016 20.4294 11.1016 20.0561C11.1016 19.6833 11.4036 19.3809 11.7768 19.3809H20.3248C20.6972 19.3809 21 19.6833 21 20.0561C21 20.4292 20.6972 20.7314 20.3248 20.7314Z" fill="#2F3441"/>
<path d="M20.3238 8.66932H15.7847C15.4114 8.66932 15.1094 8.36686 15.1094 7.99364C15.1094 7.62082 15.4114 7.31836 15.7847 7.31836H20.3238C20.6966 7.31836 20.999 7.62082 20.999 7.99364C20.999 8.36686 20.6966 8.66932 20.3238 8.66932Z" fill="#2F3441"/>
<path d="M8.10309 20.9722C7.63666 20.9722 7.25879 20.5943 7.25879 20.1279V4.0943C7.25879 3.62787 7.63666 3.25 8.10309 3.25C8.56911 3.25 8.94698 3.62787 8.94698 4.0943V20.1279C8.94698 20.5943 8.56911 20.9722 8.10309 20.9722Z" fill="#2F3441"/>
<path d="M12.361 8.94639C12.1455 8.94639 11.9292 8.8639 11.764 8.69912L7.5061 4.44083C7.17635 4.11107 7.17635 3.57692 7.5061 3.24716C7.83586 2.91781 8.37042 2.91741 8.70017 3.24716L12.9581 7.50566C13.2874 7.83541 13.2874 8.36957 12.9577 8.69932C12.7931 8.8639 12.5772 8.94639 12.361 8.94639Z" fill="#2F3441"/>
<path d="M3.8444 8.94639C3.62807 8.94639 3.41194 8.8639 3.24696 8.69912C2.91761 8.36937 2.91761 7.83521 3.24737 7.50546L7.50606 3.24716C7.83541 2.91781 8.36997 2.91741 8.69973 3.24716C9.02948 3.57692 9.02948 4.11107 8.69973 4.44083L4.44103 8.69912C4.27646 8.8639 4.05992 8.94639 3.8444 8.94639Z" fill="#2F3441"/>
</svg>
