<svg width="12" height="18" viewBox="0 0 12 18" fill="#22242A" xmlns="http://www.w3.org/2000/svg">
    <path d="M4.99977 1C4.99977 0.447714 5.44749 2.39336e-07 5.99977 2.15195e-07C6.55206 1.91053e-07 6.99977 0.447714 6.99977 1L4.99977 1ZM5.99977 17L6.72642 17.687C6.53753 17.8868 6.27472 18 5.99977 18C5.72483 18 5.46202 17.8868 5.27313 17.687L5.99977 17ZM10.1962 11.1059C10.5756 10.7046 11.2085 10.6868 11.6099 11.0663C12.0112 11.4457 12.0289 12.0786 11.6495 12.4799L10.1962 11.1059ZM0.350052 12.4799C-0.0293743 12.0786 -0.0116293 11.4457 0.389686 11.0663C0.791003 10.6868 1.42392 10.7046 1.80334 11.1059L0.350052 12.4799ZM6.99977 1L6.99977 17L4.99977 17L4.99977 1L6.99977 1ZM5.27313 16.313L10.1962 11.1059L11.6495 12.4799L6.72642 17.687L5.27313 16.313ZM5.27313 17.687L0.350052 12.4799L1.80334 11.1059L6.72642 16.313L5.27313 17.687Z" fill="#ACB6C3"/>
</svg>
