<svg width="24" height="24" viewBox="0 0 24 24" fill="#22242A" xmlns="http://www.w3.org/2000/svg">
<path d="M6.29196 13.9317L6.70868 12.9594C6.70868 12.9594 7.48259 13.1181 8.60377 14.1004C9.72494 15.0827 10.0028 16.6305 10.0028 16.6305C10.0028 16.6305 10.2196 15.4771 10.4989 14.785C10.7297 14.2128 11.2331 13.386 11.2331 13.386C11.2331 13.386 10.3739 12.2882 9.67533 11.7489C8.97796 11.2105 7.70087 10.6575 7.70087 10.6575L8.10767 9.70501L4 10.4492L6.29196 13.9317Z" fill="#9E9E9E"/>
<path d="M11.0683 6.52228H9.99669L12.3184 3L14.6501 6.52589H13.5587V10.0346C13.5587 10.0346 13.158 10.3731 12.9237 10.62C12.667 10.8904 12.3184 11.3642 12.3184 11.3642C12.3184 11.3642 11.9712 10.9293 11.7231 10.6399C11.4751 10.3505 11.0683 10.0346 11.0683 10.0346V6.52228Z" fill="#9E9E9E"/>
<path d="M14.4158 21H11.9353C11.9353 21 11.7763 18.6646 12.104 17.2793C12.473 15.7191 13.0657 14.5795 14.1181 13.3701C15.0798 12.2649 16.9459 11.5147 16.9459 11.5147L16.549 10.5721L20.6368 11.3162L18.3449 14.7889L17.9282 13.8165C17.9282 13.8165 15.7354 14.4912 14.9417 16.5649C14.1479 18.6386 14.4158 21 14.4158 21Z" fill="#9E9E9E"/>
</svg>
