<svg width="24" height="25" viewBox="0 0 24 25" fill="none" xmlns="http://www.w3.org/2000/svg">
<path d="M12.65 14.6401C12.65 14.2811 12.359 13.9901 12 13.9901C11.641 13.9901 11.35 14.2811 11.35 14.6401V16.3566C11.35 16.7156 11.641 17.0066 12 17.0066C12.359 17.0066 12.65 16.7156 12.65 16.3566V14.6401Z" fill="#626F84"/>
<path fill-rule="evenodd" clip-rule="evenodd" d="M8.0156 8.08265L8.01561 9.99837H8C6.34315 9.99837 5 11.3415 5 12.9984V17.9984C5 19.6552 6.34315 20.9984 8 20.9984H16C17.6569 20.9984 19 19.6552 19 17.9984V12.9984C19 11.3415 17.6569 9.99837 16 9.99837H15.9602L15.9602 8.08264C15.9602 5.8888 14.1817 4.11035 11.9879 4.11035C9.79406 4.11035 8.0156 5.88881 8.0156 8.08265ZM11.9879 5.44035C10.5286 5.44035 9.3456 6.62335 9.3456 8.08265L9.34561 9.99837H14.6302L14.6302 8.08264C14.6302 6.62334 13.4472 5.44035 11.9879 5.44035ZM16 11.2984H8C7.06112 11.2984 6.3 12.0595 6.3 12.9984V17.9984C6.3 18.9373 7.06112 19.6984 8 19.6984H16C16.9389 19.6984 17.7 18.9373 17.7 17.9984V12.9984C17.7 12.0595 16.9389 11.2984 16 11.2984Z" fill="#626F84"/>
</svg>
