<svg width="16" height="16" viewBox="0 0 16 16" fill="#26A644" xmlns="http://www.w3.org/2000/svg">
<path d="M3.49933 12.7521C3.50092 12.7194 3.49564 12.6866 3.48382 12.656C3.47201 12.6254 3.45392 12.5976 3.43071 12.5744C3.40751 12.5512 3.37971 12.5331 3.3491 12.5213C3.31849 12.5095 3.28574 12.5042 3.25296 12.5058C1.03641 12.6223 -0.462348 9.27847 2.84673 8.24742C4.26059 8.64792 6.01728 8.5639 7.7166 8.28825C7.39192 10.2885 7.40568 11.9229 7.75767 13.1602C6.72675 16.4696 3.38283 14.965 3.49933 12.7521ZM12.5057 3.25304C12.5041 3.28583 12.5093 3.31862 12.5211 3.34927C12.5328 3.37993 12.5509 3.40777 12.5742 3.43099C12.5974 3.45421 12.6252 3.4723 12.6559 3.48409C12.6865 3.49587 12.7193 3.50109 12.7521 3.49941C14.9629 3.38297 16.4732 6.72522 13.158 7.75788C11.918 7.40705 10.2823 7.39319 8.28853 7.71659C8.61284 5.71809 8.59884 4.08427 8.2473 2.84667C9.2779 -0.461058 12.6225 1.03557 12.5057 3.25304ZM13.0964 8.22799C16.4955 9.23727 14.9722 12.6223 12.7521 12.5058C12.7193 12.5041 12.6865 12.5093 12.6558 12.521C12.6252 12.5328 12.5973 12.5509 12.5741 12.5741C12.5509 12.5974 12.5328 12.6252 12.521 12.6559C12.5092 12.6866 12.504 12.7194 12.5058 12.7522C12.6185 14.8929 9.52357 16.347 8.37378 13.5152C7.8801 12.2993 7.82231 10.4659 8.2053 8.20532C10.2406 7.85985 11.8846 7.86764 13.0964 8.22799ZM3.25296 3.49938C3.28577 3.50108 3.31856 3.49588 3.34922 3.4841C3.37988 3.47232 3.40773 3.45423 3.43096 3.43101C3.45418 3.40778 3.47227 3.37993 3.48405 3.34927C3.49583 3.31861 3.50103 3.28581 3.49933 3.25301C3.3419 0.26234 9.34159 -1.30092 7.79979 7.79986C-1.2827 9.3416 0.254061 3.34104 3.25296 3.49938Z" fill="#26A644"/>
</svg>
