<svg width="24" height="25" viewBox="0 0 24 25" fill="none" xmlns="http://www.w3.org/2000/svg">
<path fill-rule="evenodd" clip-rule="evenodd" d="M19.0004 17.4569C19.0004 16.0537 17.8628 14.9161 16.4595 14.9161C15.0562 14.9161 13.9187 16.0537 13.9187 17.4569C13.9187 18.8602 15.0563 19.9978 16.4595 19.9978C17.8628 19.9978 19.0004 18.8602 19.0004 17.4569ZM16.4595 21.2978C18.5808 21.2978 20.3004 19.5782 20.3004 17.4569C20.3004 15.3357 18.5808 13.6161 16.4595 13.6161C14.3383 13.6161 12.6187 15.3357 12.6187 17.4569C12.6187 19.5782 14.3383 21.2978 16.4595 21.2978Z" fill="#626F84"/>
<path fill-rule="evenodd" clip-rule="evenodd" d="M16.4596 6.6804L14.188 10.6977H18.7311L16.4596 6.6804ZM12.4658 11.1024C12.2396 11.5024 12.5286 11.9977 12.9881 11.9977L19.931 11.9977C20.3905 11.9977 20.6795 11.5024 20.4533 11.1024L16.9818 4.96289C16.7521 4.55664 16.167 4.55664 15.9373 4.96288L12.4658 11.1024Z" fill="#626F84"/>
<path fill-rule="evenodd" clip-rule="evenodd" d="M7.48604 15.0838L5.05675 17.5131L7.48604 19.9424L9.91534 17.5131L7.48604 15.0838ZM7.91031 13.6696C7.67599 13.4353 7.29609 13.4353 7.06178 13.6696L3.64253 17.0888C3.40822 17.3231 3.40822 17.703 3.64253 17.9373L7.06178 21.3566C7.29609 21.5909 7.67599 21.5909 7.91031 21.3566L11.3295 17.9373C11.5639 17.703 11.5639 17.3231 11.3295 17.0888L7.91031 13.6696Z" fill="#626F84"/>
<path fill-rule="evenodd" clip-rule="evenodd" d="M5.0004 5.9977L5.0004 10.6977L9.7004 10.6977L9.7004 5.9977L5.0004 5.9977ZM4.3004 4.6977C3.96902 4.6977 3.7004 4.96633 3.7004 5.2977L3.7004 11.3977C3.7004 11.7291 3.96903 11.9977 4.3004 11.9977L10.4004 11.9977C10.7318 11.9977 11.0004 11.7291 11.0004 11.3977L11.0004 5.2977C11.0004 4.96633 10.7318 4.6977 10.4004 4.6977L4.3004 4.6977Z" fill="#626F84"/>
</svg>
