<svg width="24" height="24" viewBox="0 0 24 24" fill="none" xmlns="http://www.w3.org/2000/svg">
<path d="M12.6182 16.459C12.6182 14.3378 14.3378 12.6181 16.459 12.6181C18.5803 12.6181 20.2999 14.3378 20.2999 16.459C20.2999 18.5802 18.5803 20.2998 16.459 20.2998C14.3378 20.2998 12.6182 18.5802 12.6182 16.459Z" fill="#626F84"/>
<path d="M12.9876 10.9998C12.5281 10.9998 12.2392 10.5045 12.4653 10.1045L15.9368 3.96496C16.1665 3.55872 16.7517 3.55872 16.9814 3.96496L20.4528 10.1045C20.679 10.5045 20.39 10.9998 19.9305 10.9998L12.9876 10.9998Z" fill="#626F84"/>
<path d="M7.06129 12.6716C7.2956 12.4373 7.6755 12.4373 7.90982 12.6716L11.3291 16.0909C11.5634 16.3252 11.5634 16.7051 11.3291 16.9394L7.90982 20.3587C7.6755 20.593 7.2956 20.593 7.06129 20.3587L3.64204 16.9394C3.40773 16.7051 3.40773 16.3252 3.64204 16.0909L7.06129 12.6716Z" fill="#626F84"/>
<path d="M3.69992 4.29977C3.69992 3.9684 3.96855 3.69977 4.29992 3.69977L10.3999 3.69977C10.7313 3.69977 10.9999 3.9684 10.9999 4.29977L10.9999 10.3998C10.9999 10.7311 10.7313 10.9998 10.3999 10.9998L4.29992 10.9998C3.96855 10.9998 3.69992 10.7311 3.69992 10.3998L3.69992 4.29977Z" fill="#626F84"/>
</svg>
