<svg width="24" height="24" viewBox="0 0 24 24" fill="none" xmlns="http://www.w3.org/2000/svg">
<path fill-rule="evenodd" clip-rule="evenodd" d="M5 7C5 5.34314 6.34315 4 8 4H16C17.6569 4 19 5.34315 19 7V17C19 18.6568 17.6569 20 16 20H8C6.34315 20 5 18.6568 5 17V7ZM6.30145 17.0709C6.33862 17.9769 7.08487 18.7 8 18.7H16C16.9389 18.7 17.7 17.9389 17.7 17V14.9216C17.2168 15.2545 16.6312 15.4494 16 15.4494H7.85585C6.99949 15.4494 6.30527 16.1436 6.30527 17C6.30527 17.024 6.30398 17.0476 6.30145 17.0709ZM8.6451 9.61702H15.3548C15.6179 9.70022 15.8086 9.94628 15.8086 10.2369C15.8086 10.5959 15.5176 10.8869 15.1586 10.8869H8.84131C8.48232 10.8869 8.19131 10.5959 8.19131 10.2369C8.19131 9.94628 8.38201 9.70022 8.6451 9.61702ZM8.84131 6.99435C8.48232 6.99435 8.19131 7.28536 8.19131 7.64435C8.19131 8.00333 8.48232 8.29435 8.84131 8.29435H15.1586C15.5176 8.29435 15.8086 8.00333 15.8086 7.64435C15.8086 7.28536 15.5176 6.99435 15.1586 6.99435L8.84131 6.99435Z" fill="#626F84"/>
</svg>
