<svg width="24" height="24" viewBox="0 0 24 24" fill="none" xmlns="http://www.w3.org/2000/svg">
<path d="M8.19131 7.64435C8.19131 7.28536 8.48232 6.99435 8.84131 6.99435L15.1586 6.99435C15.5176 6.99435 15.8086 7.28536 15.8086 7.64435C15.8086 8.00333 15.5176 8.29435 15.1586 8.29435H8.84131C8.48232 8.29435 8.19131 8.00333 8.19131 7.64435Z" fill="#626F84"/>
<path d="M8.84131 9.58688C8.48232 9.58688 8.19131 9.87789 8.19131 10.2369C8.19131 10.5959 8.48232 10.8869 8.84131 10.8869H15.1586C15.5176 10.8869 15.8086 10.5959 15.8086 10.2369C15.8086 9.87789 15.5176 9.58688 15.1586 9.58688H8.84131Z" fill="#626F84"/>
<path fill-rule="evenodd" clip-rule="evenodd" d="M8 4C6.34315 4 5 5.34314 5 7V15.4468L5.0023 15.4494H5V17C5 18.6568 6.34315 20 8 20H16C17.6569 20 19 18.6568 19 17V7C19 5.34315 17.6569 4 16 4H8ZM6.3 7C6.3 6.06111 7.06111 5.3 8 5.3H16C16.9389 5.3 17.7 6.06112 17.7 7V12.4494C17.7 13.3883 16.9389 14.1494 16 14.1494H7.85585C7.2818 14.1494 6.74737 14.3191 6.3 14.6111V7ZM17.7 14.9216C17.2168 15.2545 16.6312 15.4494 16 15.4494H7.85585C6.99949 15.4494 6.30527 16.1436 6.30527 17C6.30527 17.024 6.30398 17.0476 6.30145 17.0709C6.33863 17.9769 7.08487 18.7 8 18.7H16C16.9389 18.7 17.7 17.9388 17.7 17V14.9216Z" fill="#626F84"/>
</svg>
