<svg width="18" height="18" viewBox="0 0 18 18" fill="#22242A" xmlns="http://www.w3.org/2000/svg">
<path d="M15.364 2.63603C13.6641 0.936172 11.4041 0 9.00014 0C6.59619 0 4.33589 0.936172 2.63603 2.63603C0.936172 4.33589 0 6.59605 0 9C0 11.4039 0.936172 13.6641 2.63603 15.364C4.33589 17.0638 6.59605 18 9 18C11.4039 18 13.6641 17.0638 15.364 15.364C17.0638 13.6641 18 11.4039 18 9C18 6.59605 17.0638 4.33589 15.364 2.63603ZM15.9519 12.8432H13.3178C13.6707 11.8091 13.8833 10.6894 13.9329 9.52734H16.9273C16.8486 10.7238 16.5039 11.8485 15.9519 12.8432ZM9 16.8673C7.87747 16.1993 6.94652 15.164 6.2769 13.8978H11.7231C11.0535 15.164 10.1225 16.1993 9 16.8673ZM5.80023 12.8432C5.41241 11.8257 5.17731 10.7022 5.12292 9.52734H12.8771C12.8227 10.7022 12.5874 11.8257 12.1996 12.8432H5.80023ZM1.07268 9.52734H4.06714C4.11671 10.6894 4.3293 11.8091 4.68224 12.8432H2.04813C1.49606 11.8485 1.15137 10.7238 1.07268 9.52734ZM2.04813 5.15685H4.68224C4.3293 6.19093 4.11671 7.31058 4.06714 8.47266H1.07268C1.15137 7.27625 1.49606 6.15152 2.04813 5.15685ZM9 1.13269C10.1225 1.80066 11.0535 2.83598 11.7231 4.10216H6.2769C6.94652 2.83598 7.87747 1.80066 9 1.13269ZM12.1998 5.15685C12.5876 6.17432 12.8227 7.29781 12.8771 8.47266H5.12292C5.17731 7.29781 5.41255 6.17432 5.80037 5.15685H12.1998ZM16.9273 8.47266H13.9329C13.8833 7.31058 13.6707 6.19093 13.3178 5.15685H15.9519C16.5039 6.15152 16.8486 7.27625 16.9273 8.47266ZM12.8955 4.10216C12.3942 3.01945 11.7274 2.06268 10.9267 1.29144C12.6645 1.72595 14.1777 2.73381 15.252 4.10216H12.8955ZM7.07327 1.29144C6.27264 2.06268 5.60577 3.01945 5.10452 4.10216H2.74796C3.82228 2.73381 5.33551 1.72595 7.07327 1.29144ZM5.10452 13.8978C5.60577 14.9805 6.27264 15.9373 7.07327 16.7086C5.33551 16.274 3.82228 15.2662 2.74796 13.8978H5.10452ZM10.9267 16.7086C11.7274 15.9373 12.3942 14.9804 12.8955 13.8978H15.252C14.1777 15.2662 12.6645 16.274 10.9267 16.7086Z" fill="#2F3441"/>
</svg>
