<svg width="24" height="25" viewBox="0 0 24 25" fill="none" xmlns="http://www.w3.org/2000/svg">
<path fill-rule="evenodd" clip-rule="evenodd" d="M8.88002 13.6482C8.13104 13.6482 7.53002 14.2493 7.53002 14.9982V16.3182C7.53002 17.0672 8.13104 17.6682 8.88002 17.6682H11.2C11.949 17.6682 12.55 17.0672 12.55 16.3182V14.9982C12.55 14.2493 11.949 13.6482 11.2 13.6482H8.88002ZM8.83002 14.9982C8.83002 14.9794 8.83633 14.9687 8.84339 14.9616C8.85046 14.9546 8.86122 14.9482 8.88002 14.9482H11.2C11.2188 14.9482 11.2296 14.9546 11.2367 14.9616C11.2437 14.9687 11.25 14.9794 11.25 14.9982V16.3182C11.25 16.3371 11.2437 16.3478 11.2367 16.3549C11.2296 16.3619 11.2188 16.3682 11.2 16.3682H8.88002C8.86122 16.3682 8.85046 16.3619 8.84339 16.3549C8.83633 16.3478 8.83002 16.3371 8.83002 16.3182V14.9982Z" fill="#626F84"/>
<path fill-rule="evenodd" clip-rule="evenodd" d="M8.78998 3.59824C8.78998 3.23926 8.49896 2.94824 8.13998 2.94824C7.78099 2.94824 7.48998 3.23926 7.48998 3.59824V4.98825H7C5.34 4.98825 4 6.32825 4 7.98825V18.1182C4 19.7782 5.34 21.1182 7 21.1182H17C18.66 21.1182 20 19.7782 20 18.1182V7.98825C20 6.32825 18.65 4.98825 17 4.98825H16.5V3.59824C16.5 3.23926 16.209 2.94824 15.85 2.94824C15.491 2.94824 15.2 3.23926 15.2 3.59824V4.98825H12.65V3.59824C12.65 3.23926 12.359 2.94824 12 2.94824C11.641 2.94824 11.35 3.23926 11.35 3.59824V4.98825H8.78998V3.59824ZM7.48998 6.28825V7.85824C7.48998 8.21723 7.78099 8.50824 8.13998 8.50824C8.49896 8.50824 8.78998 8.21723 8.78998 7.85824V6.28825H11.35V7.85824C11.35 8.21723 11.641 8.50824 12 8.50824C12.359 8.50824 12.65 8.21723 12.65 7.85824V6.28825H15.2V7.85824C15.2 8.21723 15.491 8.50824 15.85 8.50824C16.209 8.50824 16.5 8.21723 16.5 7.85824V6.28825H17C17.94 6.28825 18.7 7.04825 18.7 7.98825V10.3483H5.3V7.98825C5.3 7.04825 6.06 6.28825 7 6.28825H7.48998ZM5.3 11.6483H18.7V18.1182C18.7 19.0582 17.94 19.8182 17 19.8182H7C6.06 19.8182 5.3 19.0582 5.3 18.1182V11.6483Z" fill="#626F84"/>
</svg>
