<svg width="24" height="25" viewBox="0 0 24 25" fill="none" xmlns="http://www.w3.org/2000/svg">
<path fill-rule="evenodd" clip-rule="evenodd" d="M16.0143 15.9733V18.9874C16.0143 20.6501 14.6664 21.998 13.0036 21.998H10.9965C9.33374 21.998 7.98581 20.6501 7.98581 18.9874V15.9732C6.37843 14.7573 5.33984 12.8291 5.33984 10.6582C5.33984 6.97992 8.32172 3.99805 12 3.99805C15.6784 3.99805 18.6602 6.97992 18.6602 10.6582C18.6602 12.8291 17.6217 14.7573 16.0143 15.9733ZM9.29044 16.2627H14.7096V18.9874C14.7096 19.9296 13.9458 20.6934 13.0036 20.6934H10.9965C10.0543 20.6934 9.29044 19.9296 9.29044 18.9874V16.2627ZM8.77288 14.9328L8.80633 14.9581H9.9816V11.2437H9.21335C8.85309 11.2437 8.56104 10.9517 8.56104 10.5914C8.56104 10.2312 8.85309 9.93911 9.21335 9.93911H14.8313C15.1916 9.93911 15.4836 10.2312 15.4836 10.5914C15.4836 10.9517 15.1916 11.2437 14.8313 11.2437H14.063V14.9581H15.1938L15.2272 14.9328C16.5227 13.9528 17.3556 12.403 17.3556 10.6582C17.3556 7.70045 14.9579 5.30267 12 5.30267C9.04224 5.30267 6.64447 7.70045 6.64447 10.6582C6.64447 12.403 7.47743 13.9528 8.77288 14.9328ZM12.7584 14.9581V11.2437H11.2862V14.9581H12.7584Z" fill="#626F84"/>
</svg>
