<svg width="24" height="25" viewBox="0 0 24 25" fill="none" xmlns="http://www.w3.org/2000/svg">
<path fill-rule="evenodd" clip-rule="evenodd" d="M19.0276 19.6957V11.9895C19.0276 10.9125 18.1546 10.0395 17.0776 10.0395C16.0007 10.0395 15.1276 10.9125 15.1276 11.9895L15.1276 19.6957H13.9496V16.552C13.9496 15.475 13.0766 14.602 11.9996 14.602C10.9227 14.602 10.0496 15.475 10.0496 16.552V19.6957H8.87148L8.87148 13.9895C8.87148 12.9125 7.99844 12.0395 6.92148 12.0395C5.84453 12.0395 4.97148 12.9125 4.97148 13.9895L4.97148 19.6957H3.9332C3.57422 19.6957 3.2832 19.9867 3.2832 20.3457C3.2832 20.7047 3.57422 20.9957 3.9332 20.9957H5.921C5.92116 20.9957 5.92084 20.9957 5.921 20.9957H7.92148C7.92171 20.9957 7.92126 20.9957 7.92148 20.9957H10.9987C10.999 20.9957 10.9984 20.9957 10.9987 20.9957H12.9996C12.9999 20.9957 13.0003 20.9957 13.0006 20.9957H16.0764C16.0768 20.9957 16.0772 20.9957 16.0776 20.9957H18.0776C18.078 20.9957 18.0785 20.9957 18.0789 20.9957H20.066C20.425 20.9957 20.716 20.7047 20.716 20.3457C20.716 19.9867 20.425 19.6957 20.066 19.6957H19.0276ZM17.7276 19.6957V11.9895C17.7276 11.6305 17.4366 11.3395 17.0776 11.3395C16.7186 11.3395 16.4276 11.6305 16.4276 11.9895V19.6957H17.7276ZM6.27148 19.6957L6.27148 13.9895C6.27148 13.6305 6.5625 13.3395 6.92148 13.3395C7.28047 13.3395 7.57148 13.6305 7.57148 13.9895V19.6957H6.27148ZM11.3496 19.6957H12.6496V16.552C12.6496 16.193 12.3586 15.902 11.9996 15.902C11.6406 15.902 11.3496 16.193 11.3496 16.552V19.6957Z" fill="#626F84"/>
<path fill-rule="evenodd" clip-rule="evenodd" d="M19.0776 6.68945C19.0776 7.79402 18.1822 8.68945 17.0776 8.68945C16.7414 8.68945 16.4247 8.60651 16.1466 8.45999L13.8601 10.5792C13.8544 10.5647 13.8485 10.5503 13.8424 10.536C13.9436 10.7752 13.9996 11.0383 13.9996 11.3145C13.9996 12.419 13.1042 13.3145 11.9996 13.3145C10.895 13.3145 9.9996 12.419 9.9996 11.3145C9.9996 11.2494 10.0027 11.1851 10.0088 11.1217L8.25456 10.1804C7.90075 10.497 7.43359 10.6895 6.92148 10.6895C5.81691 10.6895 4.92148 9.79402 4.92148 8.68945C4.92148 7.58488 5.81691 6.68945 6.92148 6.68945C8.02604 6.68945 8.92148 7.58488 8.92148 8.68945C8.92148 8.81113 8.91061 8.93027 8.8898 9.04595L10.5498 9.9367C10.5174 9.97077 10.4862 10.006 10.4563 10.0423C10.8231 9.59777 11.3783 9.31445 11.9996 9.31445C12.37 9.31445 12.7168 9.41513 13.0143 9.5906C13.0143 9.5906 13.0143 9.5906 13.0143 9.5906L15.2549 7.51392C15.141 7.26253 15.0776 6.9834 15.0776 6.68945C15.0776 5.58488 15.973 4.68945 17.0776 4.68945C18.1822 4.68945 19.0776 5.58488 19.0776 6.68945ZM17.7776 6.68945C17.7776 7.07605 17.4642 7.38945 17.0776 7.38945C16.691 7.38945 16.3776 7.07605 16.3776 6.68945C16.3776 6.30285 16.691 5.98945 17.0776 5.98945C17.4642 5.98945 17.7776 6.30285 17.7776 6.68945ZM7.62148 8.68945C7.62148 9.07605 7.30807 9.38945 6.92148 9.38945C6.53488 9.38945 6.22148 9.07605 6.22148 8.68945C6.22148 8.30285 6.53488 7.98945 6.92148 7.98945C7.30807 7.98945 7.62148 8.30285 7.62148 8.68945ZM11.9996 12.0145C12.3862 12.0145 12.6996 11.7011 12.6996 11.3145C12.6996 10.9279 12.3862 10.6145 11.9996 10.6145C11.613 10.6145 11.2996 10.9279 11.2996 11.3145C11.2996 11.7011 11.613 12.0145 11.9996 12.0145Z" fill="#626F84"/>
</svg>
