<svg width="24" height="24" viewBox="0 0 24 24" fill="none" xmlns="http://www.w3.org/2000/svg">
<path d="M19.0781 5.68188C19.0781 6.78645 18.1827 7.68188 17.0781 7.68188C16.7419 7.68188 16.4251 7.59895 16.147 7.45241L13.8606 9.57157C13.9506 9.79918 14.0001 10.0473 14.0001 10.3069C14.0001 11.4115 13.1047 12.3069 12.0001 12.3069C10.8955 12.3069 10.0001 11.4115 10.0001 10.3069C10.0001 10.2419 10.0032 10.1776 10.0093 10.1141L8.25505 9.17284C7.90124 9.4894 7.43408 9.68188 6.92196 9.68188C5.81739 9.68188 4.92196 8.78645 4.92196 7.68188C4.92196 6.57732 5.81739 5.68188 6.92196 5.68188C8.02653 5.68188 8.92196 6.57732 8.92196 7.68188C8.92196 7.80356 8.91109 7.92269 8.89028 8.03837L10.5503 8.92913C10.9147 8.54583 11.4295 8.30688 12.0001 8.30688C12.3704 8.30688 12.7173 8.40755 13.0148 8.58302L15.2554 6.50634C15.1415 6.25495 15.0781 5.97582 15.0781 5.68188C15.0781 4.57732 15.9735 3.68188 17.0781 3.68188C18.1827 3.68188 19.0781 4.57732 19.0781 5.68188Z" fill="#626F84"/>
<path d="M18.7306 10.6819V18.6881H20.0665C20.4255 18.6881 20.7165 18.9791 20.7165 19.3381C20.7165 19.6971 20.4255 19.9881 20.0665 19.9881H17.7904L17.7806 19.9882H16.3806L16.3708 19.9881H12.7105L12.7007 19.9882H11.2995L11.2897 19.9881H7.62797L7.61817 19.9882H6.21817L6.20836 19.9881H3.93369C3.57471 19.9881 3.28369 19.6971 3.28369 19.3381C3.28369 18.9791 3.57471 18.6881 3.93369 18.6881H5.26817L5.26817 12.6819C5.26817 11.7706 6.0069 11.0319 6.91817 11.0319C7.82943 11.0319 8.56816 11.7706 8.56816 12.6819L8.56817 18.6881H10.3495V15.245C10.3495 14.3334 11.0885 13.5944 12.0001 13.5944C12.9117 13.5944 13.6507 14.3334 13.6507 15.245V18.6881H15.4306V10.6819C15.4306 9.77064 16.1694 9.03191 17.0806 9.03191C17.9919 9.03191 18.7306 9.77064 18.7306 10.6819Z" fill="#626F84"/>
</svg>
