<svg width="24" height="24" viewBox="0 0 24 24" fill="none" xmlns="http://www.w3.org/2000/svg">
<path d="M9.81101 3.83172C9.18573 2.95522 7.9684 2.75136 7.09167 3.37632L5.88323 4.23773C5.22053 4.71013 4.66495 5.44773 4.62038 6.38075C4.54229 8.01538 4.87712 11.1656 7.64535 15.046C10.4001 18.9075 13.2973 20.3107 14.8931 20.8117C15.8145 21.101 16.732 20.8201 17.424 20.3268L18.5895 19.496C19.4667 18.8707 19.6707 17.6526 19.0451 16.7757L17.5868 14.7315C16.9614 13.8548 15.7436 13.6511 14.8669 14.2766L13.8546 14.9987C13.8524 15.0003 13.8488 15.0023 13.8488 15.0023C13.3272 14.6112 12.3165 13.7604 11.3755 12.4414C10.4345 11.1223 9.95908 9.88979 9.75897 9.26934C9.75897 9.26934 9.76208 9.26656 9.76426 9.26501L10.7765 8.54286C11.6533 7.91741 11.857 6.69966 11.2315 5.82293L9.81101 3.83172Z" fill="#626F84"/>
</svg>
