<svg width="24" height="25" viewBox="0 0 24 25" fill="none" xmlns="http://www.w3.org/2000/svg">
<path fill-rule="evenodd" clip-rule="evenodd" d="M18.0003 9.99764L21.0003 12.9976C21.2718 13.2324 21.3016 13.6429 21.0668 13.9145C20.832 14.186 20.4216 14.2158 20.15 13.981L19.0003 12.8313V20.6977C19.0003 21.4156 18.4182 21.9977 17.7003 21.9977H14.4996C13.7816 21.9977 13.1996 21.4155 13.1996 20.6975L13.2003 15.2977H10.8003V20.6977C10.8003 21.4156 10.2182 21.9977 9.50028 21.9977L6.30028 21.9977C5.5823 21.9977 5.00027 21.4156 5.00027 20.6977V12.8313L3.85053 13.981C3.57898 14.2158 3.1685 14.186 2.93371 13.9145C2.69891 13.6429 2.72871 13.2324 3.00027 12.9976L6.00028 9.99764L11.081 4.91689C11.5887 4.40921 12.4118 4.40921 12.9195 4.91689L18.0003 9.99764ZM17.7003 20.6977H14.5003V15.2977C14.5003 14.5797 13.9182 13.9977 13.2003 13.9977H10.8003C10.0823 13.9977 9.50027 14.5797 9.50027 15.2977V20.6977H6.30027V11.5361L12.0003 5.83613L17.7003 11.5361V20.6977Z" fill="#626F84"/>
</svg>
