<svg width="24" height="24" viewBox="0 0 24 24" fill="none" xmlns="http://www.w3.org/2000/svg">
<path d="M8.78998 2.59998C8.78998 2.241 8.49897 1.94998 8.13998 1.94998C7.781 1.94998 7.48998 2.241 7.48998 2.59998V3.98999H7C5.34 3.98999 4 5.32999 4 6.98999V8.64999C4 9.03999 4.31 9.34999 4.7 9.34999H19.3C19.69 9.34999 20 9.03999 20 8.64999V6.98999C20 5.32999 18.65 3.98999 17 3.98999H16.5V2.59998C16.5 2.241 16.209 1.94998 15.85 1.94998C15.491 1.94998 15.2 2.241 15.2 2.59998V3.98999H12.65V2.59998C12.65 2.241 12.359 1.94998 12 1.94998C11.641 1.94998 11.35 2.241 11.35 2.59998V3.98999H8.78998V2.59998Z" fill="#626F84"/>
<path fill-rule="evenodd" clip-rule="evenodd" d="M4.7 10.65H19.3C19.68 10.65 20 10.96 20 11.35V17.12C20 18.78 18.66 20.12 17 20.12H7C5.34 20.12 4 18.78 4 17.12V11.35C4 10.96 4.31 10.65 4.7 10.65ZM10.42 16.52C10.81 16.52 11.12 16.21 11.12 15.82V14.5C11.12 14.11 10.81 13.8 10.42 13.8H8.09999C7.70999 13.8 7.39999 14.11 7.39999 14.5V15.82C7.39999 16.21 7.70999 16.52 8.09999 16.52H10.42Z" fill="#626F84"/>
</svg>
