<svg width="24" height="24" viewBox="0 0 24 24" fill="none" xmlns="http://www.w3.org/2000/svg">
<path d="M11.0805 3.91924C11.5882 3.41156 12.4113 3.41156 12.919 3.91924L20.9998 12C21.2713 12.2348 21.3011 12.6453 21.0663 12.9168C20.8316 13.1884 20.4211 13.2182 20.1495 12.9834L18.9998 11.8337V19.7C18.9998 20.418 18.4178 21 17.6998 21H14.6998C14.3132 21 13.9998 20.6866 13.9998 20.3V15.3C13.9998 14.582 13.4178 14 12.6998 14H11.2998C10.5818 14 9.99979 14.582 9.99979 15.3V20.3C9.99979 20.6866 9.68639 21 9.29979 21H6.29979C5.58182 21 4.99979 20.418 4.99979 19.7V11.8336L3.85004 12.9834C3.57849 13.2182 3.16801 13.1884 2.93322 12.9168C2.69843 12.6453 2.72823 12.2348 2.99978 12L5.99979 9L11.0805 3.91924Z" fill="#626F84"/>
</svg>
