<svg width="24" height="24" viewBox="0 0 24 24" fill="none" xmlns="http://www.w3.org/2000/svg">
<path fill-rule="evenodd" clip-rule="evenodd" d="M2.7174 10.2408C1.78237 9.76145 1.7729 8.42837 2.70102 7.93574L10.5935 3.74656C11.4731 3.27971 12.527 3.27971 13.4065 3.74656L21.299 7.93574C21.6791 8.13747 21.9019 8.48015 21.9684 8.84742C21.9889 8.91072 22 8.97828 22 9.04844L22.0282 15.3469C22.0282 15.7059 21.7371 15.9969 21.3782 15.9969C21.0192 15.9969 20.7282 15.7059 20.7282 15.3469L20.7067 10.5361L18.63 11.6008V15.8656C18.63 16.7696 18.2294 17.627 17.5361 18.207C14.3204 20.8971 9.63954 20.8971 6.42393 18.207C5.73061 17.627 5.33 16.7696 5.33 15.8656V11.5803L2.7174 10.2408ZM3.3105 9.08402L11.203 4.89483C11.7014 4.63029 12.2986 4.63029 12.797 4.89483L20.6895 9.08402L12.7756 13.1415C12.2887 13.3911 11.7114 13.3911 11.2244 13.1415L3.3105 9.08402ZM6.63 12.2468V15.8656C6.63 16.3846 6.86001 16.8769 7.25808 17.2099C9.99092 19.4962 13.9691 19.4962 16.7019 17.2099C17.1 16.8769 17.33 16.3846 17.33 15.8656V12.2674L13.3687 14.2983C12.5094 14.7388 11.4906 14.7388 10.6313 14.2983L6.63 12.2468Z" fill="#626F84"/>
</svg>
