<svg width="24" height="24" viewBox="0 0 24 24" fill="none" xmlns="http://www.w3.org/2000/svg">
<path fill-rule="evenodd" clip-rule="evenodd" d="M18.6189 3.34691L20.6534 5.38145L18.6189 7.41599L16.5843 5.38145L18.6189 3.34691ZM17.7797 2.34759C18.2432 1.88414 18.9946 1.88414 19.458 2.34759L21.6527 4.5423C22.1162 5.00575 22.1162 5.75715 21.6527 6.2206L19.458 8.41531C18.9946 8.87877 18.2432 8.87877 17.7797 8.41531L15.585 6.2206C15.1215 5.75715 15.1215 5.00575 15.585 4.5423L17.7797 2.34759ZM7.10625 3.68144L3.70625 3.68144L3.70625 7.08144H7.10625V3.68144ZM18.6188 16.9266C17.68 16.9266 16.9188 17.6877 16.9188 18.6266C16.9188 19.5655 17.68 20.3266 18.6188 20.3266C19.5577 20.3266 20.3188 19.5655 20.3188 18.6266C20.3188 17.6877 19.5577 16.9266 18.6188 16.9266ZM2.40625 3.68144C2.40625 2.96347 2.98828 2.38144 3.70625 2.38144H7.10625C7.82422 2.38144 8.40625 2.96347 8.40625 3.68144V7.08144C8.40625 7.79941 7.82422 8.38144 7.10625 8.38144H3.70625C2.98828 8.38144 2.40625 7.79941 2.40625 7.08144V3.68144ZM18.6188 15.6266C16.962 15.6266 15.6188 16.9698 15.6188 18.6266C15.6188 20.2835 16.962 21.6266 18.6188 21.6266C20.2757 21.6266 21.6188 20.2835 21.6188 18.6266C21.6188 16.9698 20.2757 15.6266 18.6188 15.6266Z" fill="#626F84"/>
<path d="M18.6188 10.0586C18.9778 10.0586 19.2688 10.3496 19.2688 10.7086V13.6722C19.2688 14.0311 18.9778 14.3222 18.6188 14.3222C18.2598 14.3222 17.9688 14.0311 17.9688 13.6722V10.7086C17.9688 10.3496 18.2598 10.0586 18.6188 10.0586Z" fill="#626F84"/>
<path d="M10.3573 4.73141C9.99832 4.73141 9.70731 5.02243 9.70731 5.38141C9.70731 5.7404 9.99832 6.03141 10.3573 6.03141H13.2878C13.6468 6.03141 13.9378 5.7404 13.9378 5.38141C13.9378 5.02243 13.6468 4.73141 13.2878 4.73141H10.3573Z" fill="#626F84"/>
<path d="M11.7402 17.9585L10.2272 16.4965C9.9734 16.2426 9.9734 15.8311 10.2272 15.5772C10.4811 15.3234 10.8926 15.3234 11.1465 15.5772L14.1224 18.1489C14.3763 18.4027 14.3763 18.8142 14.1224 19.0681L11.1543 21.6319C10.9004 21.8857 10.4889 21.8857 10.235 21.6319C9.98121 21.3781 9.98121 20.9665 10.235 20.7127L11.7393 19.2594H8.41186C6.39603 19.2594 4.76187 17.6252 4.76187 15.6094V10.332C4.76187 9.97305 5.05288 9.68203 5.41187 9.68203C5.77085 9.68203 6.06187 9.97305 6.06187 10.332V15.6094C6.06187 16.9072 7.114 17.9594 8.41186 17.9594L11.7402 17.9585Z" fill="#626F84"/>
</svg>
