<svg width="18" height="18" viewBox="0 0 18 18" fill="#D11F00" xmlns="http://www.w3.org/2000/svg">
<path d="M8 4.75C8 4.33579 8.33579 4 8.75 4C9.16421 4 9.5 4.33579 9.5 4.75V11.25C9.5 11.6642 9.16421 12 8.75 12C8.33579 12 8 11.6642 8 11.25V4.75Z" fill="#D11F00"/>
<path d="M9.5 13.75C9.5 14.1642 9.16421 14.5 8.75 14.5C8.33579 14.5 8 14.1642 8 13.75C8 13.3358 8.33579 13 8.75 13C9.16421 13 9.5 13.3358 9.5 13.75Z" fill="#D11F00"/>
<path fill-rule="evenodd" clip-rule="evenodd" d="M9 18C13.9706 18 18 13.9706 18 9C18 4.02944 13.9706 0 9 0C4.02944 0 0 4.02944 0 9C0 13.9706 4.02944 18 9 18ZM9 16.5358C4.83808 16.5358 1.46417 13.1619 1.46417 9C1.46417 4.83808 4.83808 1.46417 9 1.46417C13.1619 1.46417 16.5358 4.83808 16.5358 9C16.5358 13.1619 13.1619 16.5358 9 16.5358Z" fill="#D11F00"/>
</svg>
