<svg width="20" height="20" viewBox="0 0 20 20" fill="#22242A" xmlns="http://www.w3.org/2000/svg">
<path fill-rule="evenodd" clip-rule="evenodd" d="M10.1461 16.8029C7.67131 19.2778 4.61135 18.353 2.95885 16.6867C1.30381 15.0241 0.24665 12.5603 3.15255 9.64973L10.4977 2.30461C11.9116 0.890679 13.7953 1.35411 14.74 2.30486C15.6821 3.25309 16.5077 4.77972 14.7174 6.57004L7.39514 13.8923C7.15834 14.13 6.25706 15.0352 5.43372 14.2118C4.41002 13.1881 5.19644 12.5603 5.62737 12.1246L10.1438 7.60816C10.339 7.4129 10.339 7.09631 10.1438 6.90105L9.79259 6.54987C9.6207 6.37797 9.34201 6.37797 9.17011 6.54986L4.6114 11.1086C3.43122 12.2945 3.27181 14.0328 4.45199 15.22C5.6309 16.4059 7.28569 16.1263 8.46841 14.9404L15.8006 7.60816C17.6621 5.70414 17.6823 3.13564 15.8006 1.2442C13.924 -0.64473 10.8535 -0.167454 9.43701 1.24395L2.01225 8.66879C-0.583641 11.2783 -0.711926 15.1508 1.88396 17.7616C4.48112 20.3724 8.69279 20.3912 11.2899 17.7804L18.9721 10.0713C19.1668 9.87596 19.1665 9.55985 18.9715 9.36483L18.6315 9.02477C18.4362 8.82951 18.1196 8.82948 17.9243 9.02474L10.1461 16.8029Z" fill="#2F3441"/>
</svg>
