<svg width="16" height="16" viewBox="0 0 16 16" fill="none" xmlns="http://www.w3.org/2000/svg">
<path fill-rule="evenodd" clip-rule="evenodd" d="M0 8C0 3.58172 3.58172 0 8 0C12.4183 0 16 3.58172 16 8C16 12.4183 12.4183 16 8 16C3.58172 16 0 12.4183 0 8ZM11.5556 4.51625C11.7812 4.74188 11.7812 5.10771 11.5556 5.33335L8.81712 8.00003L11.4838 10.7385C11.7094 10.9641 11.7094 11.3299 11.4838 11.5556C11.2581 11.7812 10.8923 11.7812 10.6667 11.5556L8.00002 8.81713L5.33335 11.5556C5.10771 11.7812 4.74188 11.7812 4.51625 11.5556C4.29061 11.3299 4.29061 10.9641 4.51625 10.7385L7.18292 8.00003L4.51622 5.33335C4.29058 5.10771 4.29059 4.74189 4.51622 4.51625C4.74186 4.29061 5.10769 4.29061 5.33332 4.51625L8.00002 7.18293L10.7385 4.51625C10.9641 4.29061 11.3299 4.29061 11.5556 4.51625Z" fill="#D92020"/>
</svg>
