<svg width="16" height="16" viewBox="0 0 16 16" fill="#22242A" xmlns="http://www.w3.org/2000/svg">
<path d="M14.9992 7.66925C14.9933 7.57964 14.9654 7.49045 14.9161 7.40814L12.2914 3.03312C12.186 2.85735 11.9963 2.74997 11.7912 2.74997H4.20878C4.00373 2.74997 3.81405 2.85735 3.70869 3.03309L1.08398 7.40812C1.0346 7.49042 1.00673 7.57953 1.00083 7.66914C0.998967 7.68248 1.00083 12.0834 1.00083 12.0834C1.0008 12.7268 1.52427 13.25 2.16734 13.25H13.8327C14.4758 13.25 14.9992 12.7268 14.9992 12.0834C14.9992 12.0834 15.0011 7.68259 14.9992 7.66925ZM12.0829 7.41667C11.4398 7.41667 10.9163 7.9399 10.9163 8.58336C10.9163 8.90492 10.6549 9.16668 10.3331 9.16668H5.66695C5.34514 9.16668 5.08368 8.90492 5.08368 8.58336C5.08368 7.93993 4.5602 7.41667 3.91713 7.41667H2.43928L4.53912 3.91665H11.4609L13.5607 7.41667H12.0829Z" />
</svg>
