<svg width="24" height="24" viewBox="0 0 24 24" fill="#22242A" xmlns="http://www.w3.org/2000/svg">
<path d="M21 17.25C21 16.8358 20.6642 16.5 20.25 16.5H3.75C3.33579 16.5 3 16.8358 3 17.25C3 17.6642 3.33579 18 3.75 18H20.25C20.6642 18 21 17.6642 21 17.25Z" fill="#2F3441"/>
<path d="M21 12.75C21 12.3358 20.6642 12 20.25 12H3.75C3.33579 12 3 12.3358 3 12.75C3 13.1642 3.33579 13.5 3.75 13.5H20.25C20.6642 13.5 21 13.1642 21 12.75Z" fill="#2F3441"/>
<path d="M21 7.75C21 7.33579 20.6642 7 20.25 7H3.75C3.33579 7 3 7.33579 3 7.75C3 8.16421 3.33579 8.5 3.75 8.5H20.25C20.6642 8.5 21 8.16421 21 7.75Z" fill="#2F3441"/>
</svg>
