<svg width="24" height="24" viewBox="0 0 24 24" fill="none" xmlns="http://www.w3.org/2000/svg">
<circle fill-opacity="0" cx="17" cy="16" r="4.25" stroke="#D11F00" fill="none" stroke-width="1.5"/>
<path fill-rule="evenodd" clip-rule="evenodd" d="M20 11.2572V6C20 5.46957 19.7893 4.96089 19.4142 4.58582C19.0391 4.21074 18.5304 4 18 4H16V3V2.49997C16 2.22383 15.7761 2 15.5 2H15C14.7239 2 14.5 2.22383 14.5 2.49997V3V4H7.5V3V2.49997C7.5 2.22383 7.27614 2 7 2H6.5C6.22386 2 6 2.22383 6 2.49997V3V4H4C3.46957 4 2.96089 4.21074 2.58582 4.58582C2.21074 4.96089 2 5.46957 2 6V18C2 18.5304 2.21074 19.0391 2.58582 19.4142C2.96089 19.7893 3.46957 20 4 20H13.3369C12.7645 19.5969 12.2724 19.0873 11.8895 18.5H4C3.72386 18.5 3.5 18.2761 3.5 18V6C3.5 5.72386 3.72386 5.5 4 5.5H18C18.2761 5.5 18.5 5.72386 18.5 6V10.3749C19.0482 10.589 19.5537 10.8886 20 11.2572Z" fill="#2F3441"/>
<line x1="13.5958" y1="12.6501" x2="20.818" y2="18.7612" stroke="#D11F00" stroke-width="1.5"/>
<path fill-rule="evenodd" clip-rule="evenodd" d="M8.60053 11.7457C8.72312 11.8297 8.81541 11.874 8.87802 11.874C9.01079 11.8722 9.07843 11.7986 9.07843 11.6513L8.79076 10.5051L15.8858 10.5051L15.887 9.46772L8.81302 9.46771L9.07856 8.38732C9.0773 8.22714 9.01091 8.14844 8.87814 8.14844C8.81541 8.14844 8.72689 8.19043 8.61361 8.27542L6.19043 10.0273C7.50304 10.9599 8.30633 11.5345 8.60053 11.7457ZM11 13.4946H6.19244L6.19106 14.5323H11V13.4946Z" fill="#2F3441"/>
</svg>
