<svg width="24" height="24" viewBox="0 0 24 24" fill="#22242A" xmlns="http://www.w3.org/2000/svg">
<path fill-rule="evenodd" clip-rule="evenodd" d="M19 21H5C4.46957 21 3.96089 20.7893 3.58582 20.4142C3.21074 20.0391 3 19.5304 3 19V7C3 6.46957 3.21074 5.96089 3.58582 5.58582C3.96089 5.21074 4.46957 5 5 5H7V4C7 3.88731 7 3.68983 7 3.49997C7 3.22383 7.22386 3 7.5 3H8C8.27614 3 8.5 3.22383 8.5 3.49997C8.5 3.68983 8.5 3.88731 8.5 4V5H15.5V4C15.5 3.88731 15.5 3.68983 15.5 3.49997C15.5 3.22383 15.7239 3 16 3H16.5C16.7761 3 17 3.22383 17 3.49997C17 3.68983 17 3.88731 17 4V5H19C19.5304 5 20.0391 5.21074 20.4142 5.58582C20.7893 5.96089 21 6.46957 21 7V19C21 19.5304 20.7893 20.0391 20.4142 20.4142C20.0391 20.7893 19.5304 21 19 21ZM19.5 7C19.5 6.72386 19.2761 6.5 19 6.5H5C4.72386 6.5 4.5 6.72386 4.5 7V19C4.5 19.2761 4.72386 19.5 5 19.5H19C19.2761 19.5 19.5 19.2761 19.5 19V7Z" fill="#2F3441"/>
<path d="M9.87769 12.8738C9.81508 12.8738 9.72279 12.8294 9.60021 12.7454C9.306 12.5342 8.50272 11.9596 7.1901 11.0271L9.61328 9.27518C9.72656 9.19019 9.81508 9.14819 9.87782 9.14819C10.0106 9.14819 10.077 9.2269 10.0782 9.38708L9.81269 10.4675L16.8867 10.4675L16.8855 11.5049L9.79044 11.5049L10.0781 12.651C10.0781 12.7984 10.0105 12.8719 9.87769 12.8738ZM14.1993 16.8518C14.262 16.8518 14.3523 16.8094 14.4662 16.7248L16.8855 14.9722C15.5742 14.0392 14.7708 13.465 14.4795 13.2538C14.3555 13.1704 14.2621 13.1264 14.1993 13.1264C14.0667 13.1278 14.0014 13.2003 14.0014 13.3478L14.2894 14.4943L7.19211 14.4943L7.19073 15.5321L14.2654 15.5321L14.0014 16.6129C14.0014 16.7729 14.0669 16.8518 14.1993 16.8518Z" fill="#2F3441"/>
</svg>
