<svg width="53" height="51" viewBox="0 0 53 51" fill="#ACB6C3" xmlns="http://www.w3.org/2000/svg">
<path fill-rule="evenodd" clip-rule="evenodd" d="M39.2102 5.46672H33.8427C32.3605 5.46672 31.1589 6.69049 31.1589 8.20008V13.6668C31.1589 15.1764 32.3605 16.4002 33.8427 16.4002H39.2102C40.6924 16.4002 41.894 15.1764 41.894 13.6668V8.20008C41.894 6.69049 40.6924 5.46672 39.2102 5.46672ZM33.8427 13.6668V8.20008H39.2102V13.6668H33.8427Z" fill="#ACB6C3"/>
<path fill-rule="evenodd" clip-rule="evenodd" d="M9.68874 8.49969V6.8334C9.68874 3.05942 12.6927 0 16.3982 0H40.5521C44.2576 0 47.2615 3.05942 47.2615 6.8334V31.4337C47.2615 33.3584 46.4802 35.0974 45.2229 36.3393L52.3932 43.6217C52.5105 43.7417 52.5458 43.92 52.4818 44.0758C52.4186 44.2317 52.2684 44.3333 52.1027 44.3333H46.9999L49.1932 49.1583C49.2399 49.2608 49.2432 49.3775 49.2038 49.4825C49.1644 49.5875 49.084 49.6716 48.9823 49.7158L46.1105 50.9658C46.0579 50.9892 46.003 51 45.9488 51C45.7938 51 45.6453 50.91 45.5763 50.7583L43.3897 45.9467L40.1126 50.0141C40.0026 50.15 39.8196 50.2025 39.6572 50.1425C39.4939 50.0833 39.3848 49.9258 39.3848 49.75V39.891C38.4858 41.0406 37.2279 41.8889 35.7641 42.2616L13.9518 47.8152C10.2646 48.683 6.64772 46.4128 5.81025 42.7167L0.173222 17.8382C-0.649307 14.208 1.5348 10.5758 5.08355 9.67226L9.68874 8.49969ZM37.2221 38.2671H16.3982C12.6927 38.2671 9.68874 35.2076 9.68874 31.4337V11.3172L5.73446 12.324C3.60521 12.8662 2.29475 15.0455 2.78826 17.2236L8.42529 42.1021C8.92774 44.3195 11.0977 45.6815 13.3242 45.1578L35.1132 39.6099C35.9578 39.3948 36.6878 38.9165 37.2221 38.2671ZM39.3848 35.5337H16.3982C14.1749 35.5337 12.3725 33.6981 12.3725 31.4337V26.533L19.0819 19.6996L28.8682 29.6667C29.3205 30.1273 30.0292 30.1988 30.5614 29.8374L37.6974 24.9922L44.5442 31.9656C44.4224 32.9229 43.9764 33.7766 43.3221 34.4088L40.0855 31.1217C39.9681 31.0025 39.7918 30.9675 39.6383 31.0317C39.4848 31.0959 39.3848 31.2484 39.3848 31.4167V35.5337ZM44.5778 6.8334V28.1342L38.8172 22.2672C38.3649 21.8065 37.6562 21.7351 37.124 22.0964L29.988 26.9417L20.0308 16.8005C19.5068 16.2667 18.6571 16.2667 18.1331 16.8005L12.3725 22.6675V6.8334C12.3725 4.56901 14.1749 2.73336 16.3982 2.73336H40.5521C42.7754 2.73336 44.5778 4.56901 44.5778 6.8334Z" fill="#ACB6C3"/>
</svg>
