<svg width="24" height="24" viewBox="0 0 24 24" fill="#B4B4B4" xmlns="http://www.w3.org/2000/svg">
<path fill-rule="evenodd" clip-rule="evenodd" d="M12.9929 12L17.7941 7.19869C18.0687 6.92415 18.0687 6.48039 17.7941 6.20585C17.5196 5.9313 17.0751 5.9313 16.8013 6.20585L12 11.0072L7.19877 6.20585C6.92423 5.9313 6.48047 5.9313 6.20593 6.20585C5.9314 6.48039 5.9314 6.92415 6.20593 7.19869L11.0072 12L6.20593 16.8014C5.9314 17.0759 5.9314 17.5197 6.20593 17.7942C6.34285 17.9311 6.5226 17.9999 6.70235 17.9999C6.8821 17.9999 7.06185 17.9311 7.19877 17.7942L12 12.9929L16.8013 17.7942C16.9382 17.9311 17.118 17.9999 17.2977 17.9999C17.4775 17.9999 17.6572 17.9311 17.7941 17.7942C18.0687 17.5197 18.0687 17.0759 17.7941 16.8014L12.9929 12Z" fill="#B4B4B4"/>
</svg>
