<svg width="24" height="24" viewBox="0 0 24 24" fill="#22242A" xmlns="http://www.w3.org/2000/svg">
<path d="M4.34287 4.40572C3.8253 4.40572 3.40572 4.8253 3.40572 5.34287V14.7143C3.40572 15.2319 3.8253 15.6515 4.34287 15.6515H13.7143L17.4629 19.4001V15.6515H19.3372C19.8548 15.6515 20.2744 15.2319 20.2744 14.7143V5.34287C20.2744 4.8253 19.8548 4.40572 19.3372 4.40572H4.34287ZM18.8686 17.0572V19.4001C18.8686 21.0699 17.7065 21.518 16.5258 20.3372L12.7772 17.0572H4.34287C2.79015 17.0572 2 16.2671 2 14.7143V5.34287C2 3.79015 2.79015 3 4.34287 3H19.3372C20.8899 3 21.6801 3.79015 21.6801 5.34287V14.7143C21.6801 16.2671 20.4214 17.0572 18.8686 17.0572ZM5.28001 8.59146C5.28001 8.8676 5.50387 9.09146 5.78001 9.09146H17.9001C18.1762 9.09146 18.4001 8.8676 18.4001 8.59146V8.15431C18.4001 7.89552 18.1903 7.68574 17.9315 7.68574H5.74859C5.4898 7.68574 5.28001 7.89552 5.28001 8.15431V8.59146ZM5.28001 11.9029C5.28001 12.1617 5.4898 12.3715 5.74859 12.3715H13.2458C13.5045 12.3715 13.7143 12.1617 13.7143 11.9029V11.4657C13.7143 11.1896 13.4905 10.9657 13.2143 10.9657H5.78001C5.50387 10.9657 5.28001 11.1896 5.28001 11.4657V11.9029Z" fill="#2F3441"/>
</svg>
