<svg width="16" height="16" fill="#22242A" viewBox="0 0 16 16" xmlns="http://www.w3.org/2000/svg">
<g clip-path="url(#clip0)">
<path d="M15.8045 0.195506C15.6145 0.0048492 15.3291 -0.051151 15.0805 0.0495056L0.413757 6.04953C0.139755 6.16219 -0.027589 6.44153 0.00375491 6.73619C0.0344113 7.03085 0.255756 7.26953 0.547101 7.32285L7.42647 8.57351L8.67782 15.4529C8.73048 15.7442 8.96917 15.9655 9.26382 15.9969C9.28717 15.9989 9.31048 16.0002 9.33317 16.0002C9.60117 16.0002 9.84717 15.8382 9.95051 15.5856L15.9505 0.918853C16.0518 0.670821 15.9945 0.385507 15.8045 0.195506Z" />
</g>
<defs>
<clipPath id="clip0">
<path d="M0 0H16V16H0V0Z" />
</clipPath>
</defs>
</svg>
