<svg width="13" height="18" viewBox="0 0 13 18" fill="#0024A0" xmlns="http://www.w3.org/2000/svg">
<path d="M3.5 4.75C3.08579 4.75 2.75 5.08579 2.75 5.5C2.75 5.91421 3.08579 6.25 3.5 6.25H9.56667C9.98088 6.25 10.3167 5.91421 10.3167 5.5C10.3167 5.08579 9.98088 4.75 9.56667 4.75H3.5Z" fill="#0024A0"/>
<path d="M3.5 7.75C3.08579 7.75 2.75 8.08579 2.75 8.5C2.75 8.91421 3.08579 9.25 3.5 9.25H9.56667C9.98088 9.25 10.3167 8.91421 10.3167 8.5C10.3167 8.08579 9.98088 7.75 9.56667 7.75H3.5Z" fill="#0024A0"/>
<path d="M3.5 10.75C3.08579 10.75 2.75 11.0858 2.75 11.5C2.75 11.9142 3.08579 12.25 3.5 12.25H7.54444C7.95866 12.25 8.29445 11.9142 8.29445 11.5C8.29445 11.0858 7.95866 10.75 7.54444 10.75H3.5Z" fill="#0024A0"/>
<path fill-rule="evenodd" clip-rule="evenodd" d="M0 3C0 1.34315 1.34315 0 3 0H10C11.6569 0 13 1.34315 13 3V15C13 16.6569 11.6569 18 10 18H3C1.34315 18 0 16.6569 0 15V3ZM1.5 3C1.5 2 2 1.5 3 1.5H10C11 1.5 11.5 2 11.5 3V15C11.5 16 11 16.5 10 16.5H3C2 16.5 1.5 16 1.5 15V3Z" fill="#0024A0"/>
</svg>
