<svg width="24" height="24" viewBox="0 0 24 24" fill="#22242A" xmlns="http://www.w3.org/2000/svg">
<path d="M18.007 9C18.007 10.1046 17.1115 11 16.007 11C14.9024 11 14.007 10.1046 14.007 9C14.007 7.89543 14.9024 7 16.007 7C17.1115 7 18.007 7.89543 18.007 9Z" fill="#7B7E86"/>
<path d="M16.007 18C17.1115 18 18.007 17.1046 18.007 16C18.007 14.8954 17.1115 14 16.007 14C14.9024 14 14.007 14.8954 14.007 16C14.007 17.1046 14.9024 18 16.007 18Z" fill="#7B7E86"/>
<path d="M10 9C10 10.1046 9.10457 11 8 11C6.89543 11 6 10.1046 6 9C6 7.89543 6.89543 7 8 7C9.10457 7 10 7.89543 10 9Z" fill="#7B7E86"/>
<path d="M8 18C9.10457 18 10 17.1046 10 16C10 14.8954 9.10457 14 8 14C6.89543 14 6 14.8954 6 16C6 17.1046 6.89543 18 8 18Z" fill="#7B7E86"/>
</svg>
