<svg width="24" height="24" viewBox="0 0 24 24" fill="#7E7E7E" xmlns="http://www.w3.org/2000/svg">
<g clip-path="url(#clip0)">
<path fill-rule="evenodd" clip-rule="evenodd" d="M16.0452 3.88394C16.5529 3.37625 17.376 3.37625 17.8837 3.88393L19.5808 5.58099C20.0884 6.08867 20.0884 6.91179 19.5808 7.41947L9.10841 17.8918C8.71083 18.2894 8.20952 18.5673 7.66166 18.6937L5.93056 19.0932C4.99446 19.3092 4.15551 18.4702 4.37153 17.5341L4.77102 15.803C4.89745 15.2552 5.17529 14.7539 5.57287 14.3563L16.0452 3.88394ZM16.9645 4.80317L18.6615 6.50023L17.0404 8.12137L15.3433 6.42431L16.9645 4.80317ZM14.4241 7.34355L6.49211 15.2755C6.26682 15.5008 6.10937 15.7849 6.03773 16.0954L5.63824 17.8265L7.36934 17.427C7.6798 17.3553 7.96387 17.1979 8.18917 16.9726L16.1211 9.04061L14.4241 7.34355Z" fill="#7E7E7E"/>
</g>
<defs>
<clipPath id="clip0">
<rect width="24" height="24" fill="white"/>
</clipPath>
</defs>
</svg>
