<svg width="24" height="24" viewBox="0 0 24 24" fill="#22242A" xmlns="http://www.w3.org/2000/svg">
<path d="M5.95487 21.0002H19.7269C20.7462 21.0002 21.5725 20.1738 21.5725 19.1545C21.5725 18.8532 21.4988 18.5565 21.3577 18.2902L20.0622 15.8458C19.9074 15.5536 19.545 15.4422 19.2527 15.5969C18.9602 15.7518 18.8487 16.1144 19.0037 16.4068L20.2981 18.8491C20.3476 18.9426 20.3736 19.0469 20.3736 19.1527C20.3736 19.5109 20.0832 19.8012 19.7251 19.8012H17.7265L18.3493 12.3271H5.05176L5.95487 21.0002ZM17.057 13.5261L16.5275 19.8012H7.02927L6.37529 13.5261H17.057Z" fill="#2F3441"/>
<path d="M15.9671 7.17301C15.9671 4.86851 14.0986 3 11.7941 3C9.48961 3 7.62109 4.86851 7.62109 7.17301C7.62109 9.47751 9.48961 11.346 11.7941 11.346C14.0986 11.346 15.9671 9.47751 15.9671 7.17301ZM8.80448 7.17301C8.80448 5.52249 10.1436 4.18339 11.7941 4.18339C13.4446 4.18339 14.7837 5.52249 14.7837 7.17301C14.7837 8.82353 13.4446 10.1626 11.7941 10.1626C10.1436 10.1626 8.80448 8.82353 8.80448 7.17301Z" fill="#2F3441"/>
<path d="M4.56857 16.4226C4.72369 16.1299 4.61208 15.7669 4.31933 15.6119C4.02715 15.4572 3.6649 15.5682 3.50954 15.86L2.21634 18.289C2.07429 18.5558 2 18.8534 2 19.1557V19.6841C2 20.4108 2.58908 20.9999 3.31574 20.9999H4.03979C4.36658 20.9999 4.63149 20.7349 4.63149 20.4082C4.63149 20.0814 4.36658 19.8165 4.03979 19.8165H3.84743C3.48929 19.8165 3.19896 19.5261 3.19896 19.168C3.19896 19.0621 3.22488 18.9579 3.27446 18.8643L4.56857 16.4226Z" fill="#2F3441"/>
<path d="M11.6385 17.1387C11.9824 17.1387 12.2613 16.8599 12.2613 16.5159C12.2613 16.1719 11.9824 15.8931 11.6385 15.8931C11.2945 15.8931 11.0156 16.1719 11.0156 16.5159C11.0156 16.8599 11.2945 17.1387 11.6385 17.1387Z" fill="#2F3441"/>
</svg>
