<svg width="24" height="24" viewBox="0 0 24 24" fill="#7B7E86" xmlns="http://www.w3.org/2000/svg">
<path fill-rule="evenodd" clip-rule="evenodd" d="M18.5977 5.334C18.595 5.33426 18.5882 5.33525 18.5769 5.34021L5.40443 11.0967C5.38968 11.1031 5.38361 11.1085 5.38205 11.1099C5.38032 11.1116 5.37872 11.1142 5.37872 11.1142C5.37665 11.1182 5.37243 11.1305 5.37486 11.1492C5.3773 11.1679 5.38451 11.1787 5.38753 11.182C5.38753 11.182 5.38975 11.1841 5.39184 11.1852C5.39373 11.1863 5.40096 11.1899 5.41686 11.1923L10.6582 11.9861C11.3721 12.0942 11.9324 12.6582 12.0398 13.3767L12.8285 18.6525C12.8309 18.6685 12.8345 18.6758 12.8355 18.6777C12.8366 18.6798 12.8387 18.682 12.8387 18.682C12.842 18.685 12.8527 18.6923 12.8713 18.6947C12.8899 18.6972 12.9021 18.6929 12.906 18.6909C12.906 18.6909 12.9087 18.6893 12.9103 18.6875C12.9117 18.6859 12.9171 18.6798 12.9235 18.665L18.6424 5.4062C18.6474 5.39478 18.6484 5.38798 18.6486 5.38527C18.6489 5.38235 18.6487 5.38005 18.6482 5.37764C18.647 5.37211 18.6427 5.36158 18.632 5.35075C18.6212 5.33992 18.6108 5.33562 18.6053 5.33442C18.6029 5.33389 18.6006 5.33372 18.5977 5.334ZM18.0609 4.14386C19.1807 3.65447 20.3172 4.79841 19.831 5.92561L14.112 19.1844C13.5737 20.4324 11.7483 20.1919 11.5472 18.8465L10.7585 13.5708C10.7357 13.4184 10.6169 13.2987 10.4654 13.2758L5.22407 12.482C3.88747 12.2796 3.64857 10.4421 4.8884 9.90031L18.0609 4.14386Z" fill="#7B7E86"/>
</svg>
