<svg width="24" height="24" viewBox="0 0 24 24" fill="#22242A" xmlns="http://www.w3.org/2000/svg">
<path fill-rule="evenodd" clip-rule="evenodd" d="M5 6.80276C5 6.15927 5.49904 5.45922 6.88921 4.87184C8.22864 4.30589 10.086 4 12 4C13.914 4 15.7714 4.3059 17.1108 4.87186C18.5009 5.45925 19 6.15931 19 6.80283V6.83251V6.86213V6.8917V6.9212V6.95065V6.98004V7.00937V7.03865V7.06787V7.09703V7.12613V7.15518V7.18417V7.2131V7.24197V7.27079V7.29955V7.32825V7.3569V7.38549V7.41403V7.4425V7.47093V7.49929V7.5276V7.55586V7.58405V7.6122V7.64028V7.66831V7.69629V7.72421V7.75207V7.77988V7.80764V7.83534V7.86298V7.89057V7.9181V7.94558V7.97301V8.00038V8.0277V8.05496V8.08217V8.10932V8.13642V8.16347V8.19046V8.2174V8.24428V8.27111V8.29789V8.32462V8.35129V8.3779V8.40447V8.43098V8.45744V8.48384V8.5102V8.5365V8.56275V8.58894V8.61508V8.64118V8.66721V8.6932V8.71914V8.74502V8.77085V8.79663V8.82236V8.84803V8.87366V8.89923V8.92475V8.95022V8.97564V9.00101V9.02633V9.05159V9.07681V9.10197V9.12709V9.15215V9.17717V9.20213V9.22705V9.25191V9.27672V9.30149V9.3262V9.35087V9.37548V9.40005V9.42456V9.44903V9.47345V9.49781V9.52213V9.5464V9.57062V9.5948V9.61892V9.64299V9.66702V9.691V9.71493V9.73881V9.76264V9.78643V9.81017V9.83386V9.8575V9.88109V9.90464V9.92814V9.95159V9.97499V9.99835V10.0217V10.0449V10.0681V10.0913V10.1144V10.1375V10.1605V10.1835V10.2065V10.2293V10.2522V10.275V10.2977V10.3105H17.5C16.9477 10.3105 16.5 10.7583 16.5 11.3105V15.8892C16.5 16.4415 16.9477 16.8892 17.5 16.8892H18.7275C18.6364 16.9934 18.5157 17.1148 18.3558 17.2529C17.8368 17.7013 17.0902 18.1651 16.2445 18.5886C15.4061 19.0085 14.5113 19.3685 13.7232 19.6215C12.9053 19.884 12.2981 20 12 20C11.4477 20 11 20.4477 11 21C11 21.5523 11.4477 22 12 22C12.6249 22 13.4793 21.8003 14.3345 21.5258C15.2195 21.2417 16.2093 20.843 17.1401 20.3769C18.0636 19.9144 18.9709 19.3646 19.6634 18.7663C20.2992 18.2169 21 17.4177 21 16.4366V16.4246V16.4127V16.4007V16.3887V16.3767V16.3647V16.3527V16.3407V16.3286V16.3166V16.3045V16.2924V16.2803V16.2682V16.2561V16.244V16.2319V16.2197V16.2075V16.1954V16.1832V16.171V16.1587V16.1465V16.1343V16.122V16.1097V16.0975V16.0852V16.0728V16.0605V16.0482V16.0358V16.0235V16.0111V15.9987V15.9863V15.9738V15.9614V15.9489V15.9365V15.924V15.9115V15.899V15.8892V15.8864V15.8739V15.8613V15.8488V15.8362V15.8236V15.8109V15.7983V15.7856V15.773V15.7603V15.7476V15.7349V15.7221V15.7094V15.6966V15.6838V15.671V15.6582V15.6453V15.6325V15.6196V15.6067V15.5938V15.5809V15.568V15.555V15.542V15.529V15.516V15.503V15.49V15.4769V15.4638V15.4507V15.4376V15.4244V15.4113V15.3981V15.3849V15.3717V15.3585V15.3452V15.332V15.3187V15.3054V15.292V15.2787V15.2653V15.2519V15.2385V15.2251V15.2116V15.1982V15.1847V15.1712V15.1576V15.1441V15.1305V15.1169V15.1033V15.0897V15.076V15.0624V15.0487V15.035V15.0212V15.0075V14.9937V14.9799V14.9661V14.9522V14.9384V14.9245V14.9106V14.8966V14.8827V14.8687V14.8547V14.8407V14.8266V14.8126V14.7985V14.7844V14.7702V14.7561V14.7419V14.7277V14.7135V14.6992V14.6849V14.6706V14.6563V14.642V14.6276V14.6132V14.5988V14.5844V14.5699V14.5554V14.5409V14.5264V14.5118V14.4972V14.4826V14.468V14.4533V14.4386V14.4239V14.4092V14.3944V14.3796V14.3648V14.3499V14.3351V14.3202V14.3053V14.2903V14.2754V14.2604V14.2454V14.2303V14.2152V14.2001V14.185V14.1698V14.1547V14.1395V14.1242V14.109V14.0937V14.0784V14.063V14.0476V14.0323V14.0168V14.0014V13.9859V13.9704V13.9548V13.9393V13.9237V13.9081V13.8924V13.8767V13.861V13.8453V13.8295V13.8137V13.7979V13.7821V13.7662V13.7503V13.7343V13.7184V13.7024V13.6864V13.6703V13.6542V13.6381V13.6219V13.6058V13.5896V13.5733V13.5571V13.5408V13.5244V13.5081V13.4917V13.4753V13.4588V13.4423V13.4258V13.4093V13.3927V13.3761V13.3595V13.3428V13.3261V13.3094V13.2926V13.2758V13.259V13.2421V13.2252V13.2083V13.1914V13.1744V13.1574V13.1403V13.1232V13.1061V13.0889V13.0718V13.0545V13.0373V13.02V13.0027V12.9853V12.968V12.9505V12.9331V12.9156V12.8981V12.8805V12.8629V12.8453V12.8277V12.81V12.7923V12.7745V12.7567V12.7389V12.721V12.7031V12.6852V12.6672V12.6492V12.6312V12.6131V12.595V12.5768V12.5587V12.5405V12.5222V12.5039V12.4856V12.4672V12.4488V12.4304V12.4119V12.3934V12.3749V12.3563V12.3377V12.319V12.3004V12.2816V12.2629V12.2441V12.2252V12.2064V12.1874V12.1685V12.1495V12.1305V12.1114V12.0923V12.0732V12.054V12.0348V12.0155V11.9963V11.9769V11.9576V11.9381V11.9187V11.8992V11.8797V11.8601V11.8405V11.8209V11.8012V11.7815V11.7617V11.7419V11.7221V11.7022V11.6823V11.6623V11.6423V11.6223V11.6022V11.5821V11.5619V11.5417V11.5215V11.5012V11.4809V11.4605V11.4401V11.4197V11.3992V11.3787V11.3581V11.3375V11.3169V11.3105V11.2962V11.2754V11.2547V11.2338V11.213V11.1921V11.1711V11.1501V11.1291V11.108V11.0869V11.0658V11.0446V11.0233V11.002V10.9807V10.9593V10.9379V10.9165V10.895V10.8734V10.8518V10.8302V10.8085V10.7868V10.7651V10.7433V10.7214V10.6995V10.6776V10.6556V10.6336V10.6115V10.5894V10.5672V10.545V10.5227V10.5004V10.4781V10.4557V10.4333V10.4108V10.3883V10.3657V10.3431V10.3204V10.2977V10.275V10.2522V10.2293V10.2065V10.1835V10.1605V10.1375V10.1144V10.0913V10.0681V10.0449V10.0217V9.99835V9.97499V9.95159V9.92814V9.90464V9.88109V9.8575V9.83386V9.81017V9.78643V9.76264V9.73881V9.71493V9.691V9.66702V9.64299V9.61892V9.5948V9.57062V9.5464V9.52213V9.49781V9.47345V9.44903V9.42456V9.40005V9.37548V9.35087V9.3262V9.30149V9.27672V9.25191V9.22705V9.20213V9.17717V9.15215V9.12709V9.10197V9.07681V9.05159V9.02633V9.00101V8.97564V8.95022V8.92475V8.89923V8.87366V8.84803V8.82236V8.79663V8.77085V8.74502V8.71914V8.6932V8.66721V8.64118V8.61508V8.58894V8.56275V8.5365V8.5102V8.48384V8.45744V8.43098V8.40447V8.3779V8.35129V8.32462V8.29789V8.27111V8.24428V8.2174V8.19046V8.16347V8.13642V8.10932V8.08217V8.05496V8.0277V8.00038V7.97301V7.94558V7.9181V7.89057V7.86298V7.83534V7.80764V7.77988V7.75207V7.72421V7.69629V7.66831V7.64028V7.6122V7.58405V7.55586V7.5276V7.49929V7.47093V7.4425V7.41403V7.38549V7.3569V7.32825V7.29955V7.27079V7.24197V7.2131V7.18417V7.15518V7.12613V7.09703V7.06787V7.03865V7.00937V6.98004V6.95065V6.9212V6.8917V6.86213V6.83251V6.80283C21 4.91113 19.4991 3.70978 17.8892 3.02956C16.2286 2.32791 14.086 2 12 2C9.91398 2 7.77136 2.3279 6.11079 3.02954C4.50096 3.70974 3 4.91107 3 6.80276V6.83245V6.86209V6.89169V6.92124V6.95075V6.98021V7.00963V7.039V7.06833V7.09762V7.12686V7.15605V7.1852V7.2143V7.24336V7.27238V7.30134V7.33027V7.35914V7.38797V7.41676V7.4455V7.4742V7.50284V7.53145V7.56001V7.58852V7.61698V7.6454V7.67378V7.7021V7.73039V7.75862V7.78681V7.81495V7.84305V7.8711V7.8991V7.92706V7.95497V7.98284V8.01065V8.03842V8.06615V8.09383V8.12146V8.14904V8.17658V8.20407V8.23151V8.2589V8.28625V8.31355V8.34081V8.36801V8.39517V8.42228V8.44935V8.47636V8.50333V8.53025V8.55713V8.58395V8.61073V8.63746V8.66414V8.69078V8.71736V8.7439V8.77039V8.79683V8.82322V8.84957V8.87587V8.90211V8.92831V8.95447V8.98057V9.00662V9.03263V9.05858V9.08449V9.11035V9.13616V9.16192V9.18764V9.2133V9.23891V9.26448V9.29V9.31546V9.34088V9.36625V9.39157V9.41684V9.44206V9.46723V9.49235V9.51742V9.54244V9.56741V9.59233V9.6172V9.64203V9.6668V9.69152V9.71619V9.74081V9.76538V9.7899V9.81438V9.8388V9.86317V9.88749V9.91175V9.93597V9.96014V9.98426V10.0083V10.0323V10.0563V10.0802V10.1041V10.1279V10.1517V10.1754V10.199V10.2226V10.2462V10.2697V10.2931V10.3165V10.3399V10.3632V10.3864V10.4096V10.4328V10.4559V10.4789V10.5019V10.5248V10.5477V10.5706V10.5933V10.6161V10.6388V10.6614V10.6839V10.7065V10.7289V10.7514V10.7737V10.796V10.8183V10.8405V10.8626V10.8847V10.9068V10.9288V10.9507V10.9726V10.9944V11.0162V11.038V11.0596V11.0813V11.1028V11.1243V11.1458V11.1672V11.1886V11.2099V11.2311V11.2523V11.2735V11.2945V11.3105V11.3156V11.3366V11.3575V11.3784V11.3992V11.4199V11.4407V11.4613V11.4819V11.5025V11.5229V11.5434V11.5638V11.5841V11.6044V11.6246V11.6448V11.6649V11.6849V11.7049V11.7249V11.7448V11.7646V11.7844V11.8041V11.8238V11.8434V11.863V11.8825V11.9019V11.9213V11.9407V11.9599V11.9792V11.9983V12.0175V12.0365V12.0555V12.0745V12.0934V12.1122V12.131V12.1497V12.1684V12.187V12.2056V12.2241V12.2425V12.2609V12.2792V12.2975V12.3157V12.3339V12.352V12.3701V12.3881V12.406V12.4239V12.4417V12.4595V12.4772V12.4948V12.5124V12.53V12.5474V12.5649V12.5822V12.5995V12.6168V12.634V12.6511V12.6682V12.6852V12.7022V12.7191V12.7359V12.7527V12.7695V12.7861V12.8028V12.8193V12.8358V12.8523V12.8686V12.885V12.9012V12.9175V12.9336V12.9497V12.9657V12.9817V12.9976V13.0135V13.0293V13.045V13.0607V13.0763V13.0919V13.1074V13.1228V13.1382V13.1536V13.1688V13.184V13.1992V13.2143V13.2293V13.2443V13.2592V13.2741V13.2888V13.3036V13.3183V13.3329V13.3474V13.3619V13.3764V13.3907V13.405V13.4193V13.4335V13.4476V13.4617V13.4757V13.4897V13.5036V13.5174V13.5312V13.5449V13.5585V13.5721V13.5857V13.5991V13.6125V13.6259V13.6392V13.6524V13.6656V13.6787V13.6917V13.7047V13.7176V13.7305V13.7432V13.756V13.7687V13.7813V13.7938V13.8063V13.8187V13.8311V13.8434V13.8557V13.8678V13.88V13.892V13.904V13.9159V13.9278V13.9396V13.9514V13.963V13.9747V13.9862V13.9977V14.0091V14.0205V14.0318V14.0431V14.0543V14.0654V14.0764V14.0874V14.0984V14.1092V14.12V14.1308V14.1415V14.1521V14.1626V14.1731V14.1835V14.1939V14.2042V14.2144V14.2246V14.2347V14.2448V14.2547V14.2647V14.2745V14.2843V14.294V14.3037V14.3133V14.3228V14.3323V14.3417V14.351V14.3603V14.3695V14.3787V14.3878V14.3968V14.4057V14.4146V14.4234V14.4322V14.4409V14.4495V14.4581V14.4666V14.475V14.4834V14.4917V14.4999V14.5081V14.5162V14.5243V14.5322V14.5402V14.548V14.5558V14.5635V14.5712V14.5787V14.5863V14.5937V14.6011V14.6084V14.6157V14.6229V14.63V14.6371V14.644V14.651V14.6578V14.6646V14.6714V14.678V14.6846V14.6911V14.6976V14.704V14.7103V14.7166V14.7228V14.7289V14.735V14.7409V14.7469V14.7527V14.7585V14.7642V14.7699V14.7755V14.781V14.7865V14.7919V14.7972V14.8024V14.8076V14.8127V14.8178V14.8228V14.8277V14.8325V14.8373V14.842V14.8467V14.8512V14.8557V14.8602V14.8645V14.8688V14.8731V14.8772V14.8813V14.8854V14.8893V14.8932V14.897V14.9008V14.9045V14.9081V14.9116V14.9151V14.9185V14.9219V14.9251V14.9283V14.9315V14.9345V14.9375V14.9405V14.9433V14.9461V14.9488V14.9515V14.954V14.9565V14.959V14.9613V14.9636V14.9659V14.968V14.9701V14.9721V14.9741V14.976V14.9778V14.9795V14.9812V14.9828V14.9843V14.9858V14.9871V14.9885V14.9897V14.9909V14.992V14.993V14.994V14.9949V14.9957V14.9964V14.9971V14.9977V14.9983V14.9987V14.9991V14.9994V14.9997V14.9999V15V15V15.8892C3 16.4415 3.44772 16.8892 4 16.8892H6.5C7.05228 16.8892 7.5 16.4415 7.5 15.8892V11.3105C7.5 10.7583 7.05228 10.3105 6.5 10.3105H5V10.2931V10.2697V10.2462V10.2226V10.199V10.1754V10.1517V10.1279V10.1041V10.0802V10.0563V10.0323V10.0083V9.98426V9.96014V9.93597V9.91175V9.88749V9.86317V9.8388V9.81438V9.7899V9.76538V9.74081V9.71619V9.69152V9.6668V9.64203V9.6172V9.59233V9.56741V9.54244V9.51742V9.49235V9.46723V9.44206V9.41684V9.39157V9.36625V9.34088V9.31546V9.29V9.26448V9.23891V9.2133V9.18764V9.16192V9.13616V9.11035V9.08449V9.05858V9.03263V9.00662V8.98057V8.95447V8.92831V8.90211V8.87587V8.84957V8.82322V8.79683V8.77039V8.7439V8.71736V8.69078V8.66414V8.63746V8.61073V8.58395V8.55713V8.53025V8.50333V8.47636V8.44935V8.42228V8.39517V8.36801V8.34081V8.31355V8.28625V8.2589V8.23151V8.20407V8.17658V8.14904V8.12146V8.09383V8.06615V8.03842V8.01065V7.98284V7.95497V7.92706V7.8991V7.8711V7.84305V7.81495V7.78681V7.75862V7.73039V7.7021V7.67378V7.6454V7.61698V7.58852V7.56001V7.53145V7.50284V7.4742V7.4455V7.41676V7.38797V7.35914V7.33027V7.30134V7.27238V7.24336V7.2143V7.1852V7.15605V7.12686V7.09762V7.06833V7.039V7.00963V6.98021V6.95075V6.92124V6.89169V6.86209V6.83245V6.80276ZM5 12.3105V12.3157V12.3339V12.352V12.3701V12.3881V12.406V12.4239V12.4417V12.4595V12.4772V12.4948V12.5124V12.53V12.5474V12.5649V12.5822V12.5995V12.6168V12.634V12.6511V12.6682V12.6852V12.7022V12.7191V12.7359V12.7527V12.7695V12.7861V12.8028V12.8193V12.8358V12.8523V12.8686V12.885V12.9012V12.9175V12.9336V12.9497V12.9657V12.9817V12.9976V13.0135V13.0293V13.045V13.0607V13.0763V13.0919V13.1074V13.1228V13.1382V13.1536V13.1688V13.184V13.1992V13.2143V13.2293V13.2443V13.2592V13.2741V13.2888V13.3036V13.3183V13.3329V13.3474V13.3619V13.3764V13.3907V13.405V13.4193V13.4335V13.4476V13.4617V13.4757V13.4897V13.5036V13.5174V13.5312V13.5449V13.5585V13.5721V13.5857V13.5991V13.6125V13.6259V13.6392V13.6524V13.6656V13.6787V13.6917V13.7047V13.7176V13.7305V13.7432V13.756V13.7687V13.7813V13.7938V13.8063V13.8187V13.8311V13.8434V13.8557V13.8678V13.88V13.892V13.904V13.9159V13.9278V13.9396V13.9514V13.963V13.9747V13.9862V13.9977V14.0091V14.0205V14.0318V14.0431V14.0543V14.0654V14.0764V14.0874V14.0984V14.1092V14.12V14.1308V14.1415V14.1521V14.1626V14.1731V14.1835V14.1939V14.2042V14.2144V14.2246V14.2347V14.2448V14.2547V14.2647V14.2745V14.2843V14.294V14.3037V14.3133V14.3228V14.3323V14.3417V14.351V14.3603V14.3695V14.3787V14.3878V14.3968V14.4057V14.4146V14.4234V14.4322V14.4409V14.4495V14.4581V14.4666V14.475V14.4834V14.4917V14.4999V14.5081V14.5162V14.5243V14.5322V14.5402V14.548V14.5558V14.5635V14.5712V14.5787V14.5863V14.5937V14.6011V14.6084V14.6157V14.6229V14.63V14.6371V14.644V14.651V14.6578V14.6646V14.6714V14.678V14.6846V14.6911V14.6976V14.704V14.7103V14.7166V14.7228V14.7289V14.735V14.7409V14.7469V14.7527V14.7585V14.7642V14.7699V14.7755V14.781V14.7865V14.7919V14.7972V14.8024V14.8076V14.8127V14.8178V14.8228V14.8277V14.8325V14.8373V14.842V14.8467V14.8512V14.8557V14.8602V14.8645V14.8688V14.8731V14.8772V14.8813V14.8854V14.8892H5.5V12.3105H5ZM19 14.8892V14.8827V14.8687V14.8547V14.8407V14.8266V14.8126V14.7985V14.7844V14.7702V14.7561V14.7419V14.7277V14.7135V14.6992V14.6849V14.6706V14.6563V14.642V14.6276V14.6132V14.5988V14.5844V14.5699V14.5554V14.5409V14.5264V14.5118V14.4972V14.4826V14.468V14.4533V14.4386V14.4239V14.4092V14.3944V14.3796V14.3648V14.3499V14.3351V14.3202V14.3053V14.2903V14.2754V14.2604V14.2454V14.2303V14.2152V14.2001V14.185V14.1698V14.1547V14.1395V14.1242V14.109V14.0937V14.0784V14.063V14.0476V14.0323V14.0168V14.0014V13.9859V13.9704V13.9548V13.9393V13.9237V13.9081V13.8924V13.8767V13.861V13.8453V13.8295V13.8137V13.7979V13.7821V13.7662V13.7503V13.7343V13.7184V13.7024V13.6864V13.6703V13.6542V13.6381V13.6219V13.6058V13.5896V13.5733V13.5571V13.5408V13.5244V13.5081V13.4917V13.4753V13.4588V13.4423V13.4258V13.4093V13.3927V13.3761V13.3595V13.3428V13.3261V13.3094V13.2926V13.2758V13.259V13.2421V13.2252V13.2083V13.1914V13.1744V13.1574V13.1403V13.1232V13.1061V13.0889V13.0718V13.0545V13.0373V13.02V13.0027V12.9853V12.968V12.9505V12.9331V12.9156V12.8981V12.8805V12.8629V12.8453V12.8277V12.81V12.7923V12.7745V12.7567V12.7389V12.721V12.7031V12.6852V12.6672V12.6492V12.6312V12.6131V12.595V12.5768V12.5587V12.5405V12.5222V12.5039V12.4856V12.4672V12.4488V12.4304V12.4119V12.3934V12.3749V12.3563V12.3377V12.319V12.3105H18.5V14.8892H19Z" />
</svg>
