<svg width="24" height="24" viewBox="0 0 24 24" fill="#2F3441" xmlns="http://www.w3.org/2000/svg">
<path fill-rule="evenodd" clip-rule="evenodd" d="M18.0003 9.00008L21.0003 12.0001C21.2718 12.2349 21.3016 12.6454 21.0668 12.9169C20.832 13.1885 20.4216 13.2183 20.15 12.9835L19.0003 11.8337V19.7001C19.0003 20.4181 18.4182 21.0001 17.7003 21.0001H14.4996C13.7816 21.0001 13.1996 20.418 13.1996 19.6999L13.2003 14.3001H10.8003V19.7001C10.8003 20.4181 10.2182 21.0001 9.50028 21.0001L6.30028 21.0001C5.5823 21.0001 5.00027 20.4181 5.00027 19.7001V11.8337L3.85053 12.9835C3.57898 13.2183 3.1685 13.1885 2.93371 12.9169C2.69891 12.6454 2.72871 12.2349 3.00027 12.0001L6.00028 9.00008L11.081 3.91933C11.5887 3.41165 12.4118 3.41165 12.9195 3.91934L18.0003 9.00008ZM17.7003 19.7001H14.5003V14.3001C14.5003 13.5821 13.9182 13.0001 13.2003 13.0001H10.8003C10.0823 13.0001 9.50027 13.5821 9.50027 14.3001V19.7001H6.30027V10.5386L12.0003 4.83857L17.7003 10.5386V19.7001Z" />
</svg>
