<svg width="12" height="16" viewBox="0 0 12 16" fill="#00A5FF" xmlns="http://www.w3.org/2000/svg">
    <path d="M3.19188 9.75752C3.29131 9.7156 3.40057 9.69243 3.51523 9.69243C3.97581 9.69243 4.34918 10.0663 4.34918 10.5276V13.0331C4.34918 13.4941 4.72726 13.8682 5.18677 13.8682H6.8571C7.31744 13.8682 7.69227 13.4941 7.69227 13.0331H4.35161V11.3628H5.18677V8.0221H4.35161C3.89036 8.0221 3.51644 7.64818 3.51644 7.18693C3.51644 6.72568 3.89036 6.35177 4.35161 6.35177H7.69227C8.15351 6.35177 8.52743 6.72568 8.52743 7.18693C8.52743 7.64818 8.15351 8.0221 7.69227 8.0221H6.8571V11.3628H7.69227V10.5276C7.69227 10.0663 8.06685 9.69243 8.52743 9.69243C8.64936 9.69243 8.75669 9.71863 8.86109 9.76573C9.47874 8.95779 10.1994 7.72157 10.1994 6.35177C10.2002 5.26856 9.35774 2.17594 6.02194 2.17594V2.16298C6.01751 2.16729 6.01305 2.17161 6.00857 2.17594C2.66791 2.17594 1.84611 5.26856 1.84611 6.35177C1.84611 7.71695 2.56919 8.94944 3.19188 9.75752ZM2.68128 11.7069C1.95748 10.976 0.175781 8.91606 0.175781 6.35177C0.175781 4.09098 1.83275 0.505615 6.00857 0.505615C6.01305 0.510047 6.01751 0.514465 6.02194 0.518871V0.505615C10.1917 0.505615 11.8681 4.09098 11.8681 6.35177C11.8681 8.96024 10.054 11.0468 9.3626 11.7435V13.0331C9.3626 14.4144 8.23729 15.5386 6.8571 15.5386H5.18677C3.80741 15.5386 2.68128 14.4144 2.68128 13.0331V11.7069Z" fill="#00A5FF"/>
</svg>
