<svg width="24" height="24" viewBox="0 0 24 24" fill="none" xmlns="http://www.w3.org/2000/svg">
<path d="M9.0098 15.6303H9.41626C10.5195 15.6013 11.2453 17.2852 12.0873 17.2852H18.6487C19.4616 17.2852 19.6358 16.0658 19.6068 15.5432C19.6068 15.5432 20.6229 15.0787 20.1584 13.2206C20.2165 13.1915 20.7391 12.698 20.7391 11.7399C20.7391 10.7818 20.1874 10.3173 20.1874 10.3173C20.1874 10.3173 20.7391 9.70758 20.7391 8.80756C20.7391 7.90755 19.9552 7.41399 19.1423 7.41399H16.7325C14.6422 7.41399 14.8164 6.28171 14.8164 6.28171C14.8164 6.28171 14.5841 3.34939 13.8293 1.98484C12.9002 0.300939 11.0421 0.852564 11.7389 3.05906C12.2615 4.6849 9.90982 7.12366 9.03883 7.93658M8.22591 6.83379H3.84195C3.02903 6.83379 3 7.44348 3 8.22737V15.2823C3 16.0372 3.02903 16.6759 3.84195 16.6759H8.22591C9.03883 16.6759 9.06787 16.0662 9.06787 15.2823V8.22737C9.06787 7.47251 9.03883 6.83379 8.22591 6.83379Z" stroke="inherit" stroke-width="1.5"/>
</svg>
