<svg width="24" height="24" viewBox="0 0 24 24" fill="#7B7E86" xmlns="http://www.w3.org/2000/svg">
<path d="M12.0127 4.50303C14.0239 2.49183 17.2847 2.49183 19.2959 4.50303C21.3071 6.51423 21.3071 9.77503 19.2959 11.7862L16.9554 14.1267C16.7015 14.3806 16.29 14.3806 16.0361 14.1267C15.7823 13.8729 15.7823 13.4613 16.0361 13.2075L18.3766 10.867C19.8802 9.36347 19.8802 6.92579 18.3766 5.42227C16.8731 3.91875 14.4354 3.91875 12.9319 5.42227L10.5914 7.76278C10.3376 8.01662 9.926 8.01662 9.67216 7.76278C9.41832 7.50894 9.41832 7.09738 9.67216 6.84354L12.0127 4.50303Z" fill="#7B7E86"/>
<path d="M11.8626 19.2194C9.85145 21.2306 6.59064 21.2306 4.57944 19.2194C2.56824 17.2082 2.56825 13.9474 4.57945 11.9362L6.84372 9.67197C7.09756 9.41813 7.50912 9.41813 7.76296 9.67197C8.0168 9.92581 8.0168 10.3374 7.76296 10.5912L5.49868 12.8555C3.99516 14.359 3.99516 16.7967 5.49868 18.3002C7.0022 19.8037 9.43989 19.8037 10.9434 18.3002L13.2077 16.0359C13.4615 15.7821 13.8731 15.7821 14.1269 16.0359C14.3808 16.2898 14.3808 16.7013 14.1269 16.9552L11.8626 19.2194Z" fill="#7B7E86"/>
<path d="M14.4805 10.2377C14.7343 9.98382 14.7343 9.57226 14.4805 9.31842C14.2266 9.06458 13.8151 9.06458 13.5612 9.31842L9.31859 13.5611C9.06475 13.8149 9.06475 14.2265 9.31859 14.4803C9.57243 14.7341 9.98399 14.7341 10.2378 14.4803L14.4805 10.2377Z" fill="#7B7E86"/>
</svg>
