<svg xmlns="http://www.w3.org/2000/svg" width="24" height="24" fill="#22242A" viewBox="0 0 24 24">
    <path fill="#262C40" fill-rule="nonzero" d="M13 16.719v2.279a1 1 0 0 1-2 0v-2.279a1.99 1.99 0 0 1-1-1.723 2 2 0 1 1 4 0c0 .739-.405 1.377-1 1.723zM8 8.003a4.005 4.005 0 0 1 4-4.002c2.206 0 4 1.795 4 4.002v1.99H8v-1.99zm11 1.99h-1v-1.99A6.008 6.008 0 0 0 12 2C8.691 2 6 4.693 6 8.003v1.99H5a1.5 1.5 0 0 0-1.5 1.501v10.005A1.5 1.5 0 0 0 5 23h14a1.5 1.5 0 0 0 1.5-1.501V11.494A1.5 1.5 0 0 0 19 9.993z"/>
</svg>
