<svg width="32" height="32" viewBox="0 0 32 32" fill="#22242A" xmlns="http://www.w3.org/2000/svg">
<path d="M10.4475 9.88818C10.447 9.88818 10.4465 9.88818 10.4461 9.88818C10.2948 9.88818 10.1525 9.94717 10.045 10.0544C9.93632 10.1628 9.87646 10.3071 9.87646 10.4607V19.0461C9.87646 19.3609 10.1336 19.6177 10.4497 19.6185C11.7824 19.6217 14.0152 19.8994 15.5555 21.5113V12.5265C15.5555 12.4198 15.5283 12.3195 15.4768 12.2366C14.2126 10.2006 11.7832 9.89131 10.4475 9.88818Z" />
<path d="M22.1236 19.0461V10.4607C22.1236 10.3071 22.0637 10.1628 21.9551 10.0544C21.8476 9.94717 21.7051 9.88818 21.554 9.88818C21.5535 9.88818 21.553 9.88818 21.5526 9.88818C20.2169 9.89136 17.7875 10.2007 16.5232 12.2366C16.4718 12.3196 16.4446 12.4199 16.4446 12.5266V21.5113C17.9849 19.8994 20.2177 19.6217 21.5504 19.6185C21.8664 19.6177 22.1236 19.3609 22.1236 19.0461Z" />
<path d="M23.4277 11.8682H23.0126V19.0462C23.0126 19.85 22.3577 20.5054 21.5526 20.5074C20.4222 20.5101 18.5583 20.7312 17.2383 21.9805C19.5213 21.4215 21.928 21.7849 23.2996 22.0975C23.4708 22.1365 23.6478 22.0962 23.785 21.9868C23.9217 21.8777 24.0002 21.7147 24.0002 21.5396V12.4406C24.0002 12.125 23.7434 11.8682 23.4277 11.8682Z" />
<path d="M8.98759 19.0462V11.8682H8.57245C8.25686 11.8682 8 12.125 8 12.4406V21.5395C8 21.7146 8.07844 21.8776 8.21517 21.9867C8.35227 22.096 8.52908 22.1364 8.70061 22.0973C10.0722 21.7847 12.4789 21.4214 14.7618 21.9804C13.4418 20.7311 11.578 20.5101 10.4476 20.5074C9.64256 20.5054 8.98759 19.85 8.98759 19.0462Z" />
</svg>
