<svg width="24" height="24" viewBox="0 0 24 24" fill="#22242A" xmlns="http://www.w3.org/2000/svg">
<path d="M19.5866 7.94058C19.6692 8.08011 21.3437 11.1214 19.615 14.7209C19.5323 14.9173 19.3359 15 19.1395 15C19.0569 15 19 14.9716 18.9173 14.9432C18.6667 14.8321 18.5555 14.4961 18.6667 14.2455C20.1731 11.1473 18.7493 8.52459 18.6951 8.41345C18.5556 8.16282 18.6383 7.85531 18.8915 7.71578C19.1421 7.60464 19.447 7.68735 19.5866 7.94058ZM22.2662 5.28942C22.1266 5.03878 21.8191 4.95348 21.5685 5.09302C21.3179 5.23255 21.2326 5.54006 21.3721 5.79069C21.4006 5.84752 24.2455 10.9535 21.3437 16.8966C21.2326 17.1473 21.3153 17.4548 21.5943 17.5943C21.677 17.6227 21.7339 17.6511 21.8166 17.6511C22.0129 17.6511 22.1783 17.54 22.292 17.3721C25.3928 10.9535 22.3773 5.51162 22.2662 5.28942ZM16.323 3.94831V18.9612V18.9896C16.2946 19.5194 15.9328 19.7442 15.5969 19.7442C15.3747 19.7442 15.1499 19.6331 14.8708 19.4367L10.5452 15.9768H8.84237V19.2971C8.84237 20.2455 8.08783 21 7.13952 21H5.63308C4.68477 21 3.93023 20.2455 3.93023 19.2971V15.9768H2.67442C1.75454 15.9768 1 15.2222 1 14.3023V8.24548C1 7.32557 1.75454 6.57107 2.67442 6.57107H10.5711L14.7571 3.19381C14.7855 3.16537 14.8398 3.13698 14.8682 3.1111C14.925 3.08267 15.1757 3 15.4263 3C15.9587 3 16.323 3.39017 16.323 3.94831ZM2.64858 14.9431H4.43409H8.31267H10.2093V7.60464H2.64858C2.31264 7.60464 2.00773 7.88371 2.00773 8.24548V14.3023C2.03361 14.6641 2.31268 14.9431 2.64858 14.9431ZM7.81136 15.9768H4.9638V19.2971C4.9638 19.6589 5.2713 19.9664 5.63304 19.9664H7.13949C7.50126 19.9664 7.80873 19.6589 7.80873 19.2971V15.9768H7.81136ZM15.2894 4.08784L11.2429 7.32557V15.1964L15.2894 18.4341V4.08784Z" fill="black"/>
</svg>
