<svg width="24" height="24" viewBox="0 0 24 24" fill="#22242A" xmlns="http://www.w3.org/2000/svg">
<path fill-rule="evenodd" clip-rule="evenodd" d="M6.03846 21H17.8077C18.3813 21 18.8462 20.5351 18.8462 19.9615V4.03846C18.8462 3.46488 18.3813 3 17.8077 3H6.03846C5.46488 3 5 3.46488 5 4.03846V19.9615C5 20.5351 5.46488 21 6.03846 21ZM14.2787 19.2706H13.8338V16.4983H15.3825V16.8815H14.2787V17.7479H15.313V18.1328H14.2787V19.2706ZM11.6846 19.2706H10.9172V16.4983H11.7652C12.2021 16.4983 12.5417 16.6173 12.7847 16.8548C13.0273 17.0926 13.1485 17.427 13.1485 17.858C13.1485 18.3156 13.0228 18.6655 12.7715 18.9075C12.5198 19.1498 12.1578 19.2706 11.6846 19.2706ZM8.90462 19.2706H8.456V16.4983H9.24627C9.58896 16.4983 9.84581 16.5692 10.0168 16.7108C10.1875 16.8524 10.273 17.0611 10.273 17.3367C10.273 17.626 10.1792 17.8479 9.99154 18.0023C9.80358 18.1563 9.53669 18.2335 9.19019 18.2335H8.90462V19.2706ZM17.8077 3.69231C17.9988 3.69231 18.1538 3.84738 18.1538 4.03846V14.7692H5.69231V4.03846C5.69231 3.84738 5.84738 3.69231 6.03846 3.69231H17.8077ZM15.3846 11.3077H8.46154C8.27046 11.3077 8.11539 11.4628 8.11539 11.6538C8.11539 11.8449 8.27046 12 8.46154 12H15.3846C15.5757 12 15.7308 11.8449 15.7308 11.6538C15.7308 11.4628 15.5757 11.3077 15.3846 11.3077ZM12.9615 9.57692H15.3846C15.5757 9.57692 15.7308 9.42185 15.7308 9.23077C15.7308 9.03969 15.5757 8.88462 15.3846 8.88462H12.9615C12.7705 8.88462 12.6154 9.03969 12.6154 9.23077C12.6154 9.42185 12.7705 9.57692 12.9615 9.57692ZM12.9615 7.15385H15.3846C15.5757 7.15385 15.7308 6.99877 15.7308 6.80769C15.7308 6.61662 15.5757 6.46154 15.3846 6.46154H12.9615C12.7705 6.46154 12.6154 6.61662 12.6154 6.80769C12.6154 6.99877 12.7705 7.15385 12.9615 7.15385ZM9.64989 17.7309C9.75754 17.6503 9.81119 17.5236 9.81119 17.3519C9.81119 17.1923 9.76308 17.0736 9.66685 16.9953C9.57027 16.9168 9.42039 16.8777 9.21615 16.8777H8.90462V17.8524H9.14312C9.37331 17.8524 9.54223 17.8119 9.64989 17.7309ZM11.6846 18.8895C12.3454 18.8895 12.6756 18.551 12.6756 17.8732C12.6756 17.2093 12.3686 16.8777 11.7542 16.8777H11.3658V18.8895H11.6846Z" />
<path fill-rule="evenodd" clip-rule="evenodd" d="M8.46154 6.46154H10.8846C11.0757 6.46154 11.2308 6.61662 11.2308 6.80769V9.23077C11.2308 9.42185 11.0757 9.57692 10.8846 9.57692H8.46154C8.27046 9.57692 8.11539 9.42185 8.11539 9.23077V6.80769C8.11539 6.61662 8.27046 6.46154 8.46154 6.46154ZM10.5385 8.88462H8.80769V7.15385H10.5385V8.88462Z" />
</svg>
