<svg width="24" height="24" viewBox="0 0 24 24" fill="#7B7E86" xmlns="http://www.w3.org/2000/svg">
<path fill-rule="evenodd" clip-rule="evenodd" d="M9.82765 3C7.16261 3 5.09129 5.32002 5.3922 7.96802L5.65424 10.274C5.89544 12.3966 7.69141 14 9.82765 14C11.9639 14 13.7599 12.3966 14.0011 10.274L14.2631 7.96803C14.564 5.32002 12.4927 3 9.82765 3ZM12.7094 10.1272L12.9714 7.82124C13.1847 5.94439 11.7166 4.3 9.82765 4.3C7.93872 4.3 6.47061 5.94439 6.68389 7.82124L6.94593 10.1272C7.11248 11.5928 8.35258 12.7 9.82765 12.7C11.3027 12.7 12.5428 11.5928 12.7094 10.1272Z" fill="#7B7E86"/>
<path fill-rule="evenodd" clip-rule="evenodd" d="M7.97402 15C5.16182 15 2.72694 16.9532 2.11689 19.6984L2.01695 20.1481C1.91981 20.5853 2.25246 21 2.70028 21H16.955C17.4028 21 17.7355 20.5853 17.6384 20.1481L17.5384 19.6984C16.9284 16.9532 14.4935 15 11.6813 15H7.97402ZM16.198 19.7C15.6229 17.6982 13.7872 16.3 11.6813 16.3H7.97402C5.86815 16.3 4.03238 17.6982 3.45729 19.7H16.198Z" fill="#7B7E86"/>
<path d="M14.1723 14C13.7922 14 13.6567 13.5382 13.8947 13.2419C13.9416 13.1835 13.9873 13.1241 14.0319 13.0638C14.196 12.8415 14.4473 12.7003 14.7187 12.6484C15.9438 12.4144 16.9086 11.4076 17.0541 10.1272L17.3161 7.82124C17.497 6.22931 16.4683 4.80463 14.9991 4.40876C14.6467 4.31378 14.3183 4.12676 14.0889 3.84284C14.0392 3.78144 13.9884 3.72105 13.9363 3.66173C13.7152 3.40992 13.8373 3 14.1723 3C16.8374 3 18.9087 5.32002 18.6078 7.96803L18.3458 10.274C18.1046 12.3966 16.3086 14 14.1723 14Z" fill="#7B7E86"/>
<path d="M19.3143 21C18.9716 21 18.7274 20.6484 18.7236 20.3058C18.7202 19.9919 18.9448 19.7 19.2587 19.7H20.5427C20.1057 18.1788 18.9407 17.0062 17.4824 16.5308C17.2738 16.4628 17.0977 16.3644 16.9626 16.1914C16.5991 15.726 16.9161 15.0365 17.4889 15.1804C19.65 15.7232 21.382 17.4437 21.8831 19.6984L21.983 20.1481C22.0802 20.5853 21.7475 21 21.2997 21H19.3143Z" fill="#7B7E86"/>
</svg>
