<svg width="16" height="16" viewBox="0 0 16 16" fill="none" xmlns="http://www.w3.org/2000/svg">
<path d="M8.43177 3.33177C8.43177 3.09245 8.23776 2.89844 7.99844 2.89844C7.75911 2.89844 7.5651 3.09245 7.5651 3.33177L7.5651 7.5651H3.33177C3.09245 7.5651 2.89844 7.75911 2.89844 7.99844C2.89844 8.23776 3.09245 8.43177 3.33177 8.43177H7.5651V12.6651C7.5651 12.9044 7.75911 13.0984 7.99844 13.0984C8.23776 13.0984 8.43177 12.9044 8.43177 12.6651V8.43177H12.6651C12.9044 8.43177 13.0984 8.23776 13.0984 7.99844C13.0984 7.75911 12.9044 7.5651 12.6651 7.5651H8.43177V3.33177Z" fill="#0D69F2"/>
</svg>
