<svg width="16" height="16" viewBox="0 0 16 16" fill="#7B7E86" xmlns="http://www.w3.org/2000/svg">
<path fill-rule="evenodd" clip-rule="evenodd" d="M2 8C2 4.68629 4.68629 2 8 2C11.3137 2 14 4.68629 14 8C14 11.3137 11.3137 14 8 14C4.68629 14 2 11.3137 2 8ZM7.54967 9.08826C7.54967 9.32826 7.743 9.52159 7.983 9.52159C8.223 9.52159 8.41634 9.32826 8.41634 9.08159C8.41634 8.88159 8.443 8.74826 8.51634 8.56159C8.60967 8.34159 8.79634 8.14159 8.99634 7.93492L8.99942 7.93172C9.3253 7.59254 9.68996 7.213 9.783 6.60159C9.86967 6.02159 9.62967 5.42159 9.14967 5.04159C8.65634 4.64826 8.003 4.56159 7.403 4.79492C6.61634 5.10826 6.16967 5.78826 6.20967 6.62826C6.21634 6.86826 6.42967 7.04826 6.663 7.04159C6.903 7.02826 7.08967 6.82826 7.07634 6.58826C7.05634 6.26159 7.163 5.82159 7.723 5.60159C8.03634 5.48159 8.35634 5.52159 8.60967 5.72159C8.84967 5.90826 8.96967 6.19492 8.92967 6.47493C8.87725 6.80913 8.65091 7.04671 8.38994 7.32064L8.37634 7.33492C8.13634 7.58159 7.86967 7.86159 7.71634 8.24159C7.59634 8.52826 7.54967 8.77492 7.54967 9.08826ZM8.56667 10.9C8.56667 11.213 8.31296 11.4667 8 11.4667C7.68704 11.4667 7.43333 11.213 7.43333 10.9C7.43333 10.587 7.68704 10.3333 8 10.3333C8.31296 10.3333 8.56667 10.587 8.56667 10.9Z" fill="#7B7E86"/>
</svg>
