<svg width="24" height="24" viewBox="0 0 24 24" fill="#0062FF" xmlns="http://www.w3.org/2000/svg">
<path fill-rule="evenodd" clip-rule="evenodd" d="M12 24C18.6274 24 24 18.6274 24 12C24 5.37258 18.6274 0 12 0C5.37258 0 0 5.37258 0 12C0 18.6274 5.37258 24 12 24ZM19.9004 13.1107C18.3724 15.7708 15.4073 20 12 20C8.59269 20 5.62762 15.7708 4.09961 13.1107C3.65819 12.3422 4.41201 11.4886 5.26089 11.7431C7.15797 12.3121 9.88839 13 12 13C14.1116 13 16.842 12.3121 18.7391 11.7431C19.588 11.4886 20.3418 12.3422 19.9004 13.1107Z" fill="#0062FF"/>
</svg>
