<svg width="24" height="24" viewBox="0 0 24 24" fill="#FF8D64" xmlns="http://www.w3.org/2000/svg">
<path fill-rule="evenodd" clip-rule="evenodd" d="M12 24C18.6274 24 24 18.6274 24 12C24 5.37258 18.6274 0 12 0C5.37258 0 0 5.37258 0 12C0 18.6274 5.37258 24 12 24ZM5.62753 17.5065C7.25688 16.2544 9.51039 15 12 15C14.4896 15 16.7431 16.2544 18.3725 17.5065C19.1778 18.1254 18.5189 19.1791 17.5383 18.9146C15.7953 18.4447 13.6977 18 12 18C10.3023 18 8.20467 18.4447 6.46166 18.9146C5.48105 19.1791 4.82223 18.1254 5.62753 17.5065Z" fill="#FF8D64"/>
</svg>
