<svg width="24" height="24" viewBox="0 0 24 24" fill="#D92020" xmlns="http://www.w3.org/2000/svg">
<path fill-rule="evenodd" clip-rule="evenodd" d="M24 12C24 18.6274 18.6274 24 12 24C5.37256 24 0 18.6274 0 12C0 5.37256 5.37256 0 12 0C18.6274 0 24 5.37256 24 12ZM10.1215 11.1216C9.73096 11.5122 8.4646 10.8789 7.29309 9.70752C6.12146 8.53564 5.48828 7.26953 5.87878 6.87891C6.26941 6.48828 7.53564 7.12158 8.70728 8.29297C9.87878 9.46484 10.512 10.731 10.1215 11.1216ZM15.1217 8.29297C13.9501 9.46484 13.3169 10.731 13.7075 11.1216C14.098 11.5122 15.3644 10.8789 16.5359 9.70703C17.7075 8.53564 18.3407 7.26953 17.9501 6.87891C17.5596 6.48828 16.2932 7.12158 15.1217 8.29297Z" fill="#D92020"/>
</svg>
