<svg width="24" height="24" viewBox="0 0 24 24" fill="#128238" xmlns="http://www.w3.org/2000/svg">
<path fill-rule="evenodd" clip-rule="evenodd" d="M12 24C18.6274 24 24 18.6274 24 12C24 5.37258 18.6274 0 12 0C5.37258 0 0 5.37258 0 12C0 18.6274 5.37258 24 12 24ZM12 22C14.7614 22 17 19.3137 17 16C17 12.6863 14.7614 10 12 10C9.23858 10 7 12.6863 7 16C7 19.3137 9.23858 22 12 22ZM9 6C9 7.10457 8.10457 8 7 8C5.89543 8 5 7.10457 5 6C5 4.89543 5.89543 4 7 4C8.10457 4 9 4.89543 9 6ZM17 8C18.1046 8 19 7.10457 19 6C19 4.89543 18.1046 4 17 4C15.8954 4 15 4.89543 15 6C15 7.10457 15.8954 8 17 8Z" fill="#128238"/>
</svg>
