<svg width="18" height="19" viewBox="0 0 18 19" fill="#7E7E7E" xmlns="http://www.w3.org/2000/svg">
<path fill-rule="evenodd" clip-rule="evenodd" d="M9.64997 0.67002C9.64997 0.311035 9.35896 0.0200195 8.99998 0.0200195C8.64099 0.0200195 8.34998 0.311035 8.34998 0.67002V2.65015H1.32993C0.970947 2.65015 0.679932 2.94116 0.679932 3.30015C0.679932 3.65913 0.970947 3.95015 1.32993 3.95015H2.02256L2.77994 15.4401C2.87994 17.0201 4.18994 18.2501 5.76994 18.2501H12.1299C13.7099 18.2501 15.0299 17.0201 15.1199 15.4401L15.8958 3.95015H16.6799C17.0389 3.95015 17.3299 3.65913 17.3299 3.30015C17.3299 2.94116 17.0389 2.65015 16.6799 2.65015H9.64997V0.67002ZM4.07994 15.3501L3.37766 3.95015H14.5422L13.8399 15.3601C13.7799 16.2501 13.0399 16.9501 12.1399 16.9501H5.77994C4.87994 16.9501 4.13994 16.2501 4.07994 15.3501ZM5.99998 9.71231C5.99998 9.8923 6.06998 10.0623 6.20998 10.1923C6.47998 10.4323 6.88998 10.4123 7.12998 10.1523L8.52998 8.31666L8.52998 14.2123C8.52998 14.5713 8.821 14.8623 9.17998 14.8623C9.53897 14.8623 9.82998 14.5713 9.82998 14.2123L9.82998 8.31666L11.23 10.1523C11.47 10.4223 11.88 10.4323 12.15 10.1923C12.41 9.9523 12.43 9.5423 12.19 9.27231L9.69998 6.23231C9.41998 5.92231 8.93998 5.92231 8.65998 6.23231L6.16998 9.27231C6.04998 9.4023 5.99998 9.5523 5.99998 9.71231Z" fill="#7E7E7E"/>
</svg>
