<svg width="24" height="24" viewBox="0 0 24 24" fill="#0B43DA" xmlns="http://www.w3.org/2000/svg">
<path d="M12 3C13.78 3 15.5201 3.52784 17.0001 4.51677C18.4802 5.50571 19.6337 6.91131 20.3149 8.55585C20.9961 10.2004 21.1743 12.01 20.8271 13.7558C20.4798 15.5016 19.6226 17.1053 18.364 18.364C17.1053 19.6226 15.5016 20.4798 13.7558 20.8271C12.01 21.1743 10.2004 20.9961 8.55585 20.3149C6.91131 19.6337 5.50571 18.4802 4.51677 17.0001C3.52784 15.5201 3 13.78 3 12C3 11.8011 3.07902 11.6103 3.21967 11.4697C3.36032 11.329 3.55109 11.25 3.75 11.25C3.94891 11.25 4.13968 11.329 4.28033 11.4697C4.42098 11.6103 4.5 11.8011 4.5 12C4.5 13.4834 4.93987 14.9334 5.76398 16.1668C6.58809 17.4001 7.75943 18.3614 9.12987 18.9291C10.5003 19.4968 12.0083 19.6453 13.4632 19.3559C14.918 19.0665 16.2544 18.3522 17.3033 17.3033C18.3522 16.2544 19.0665 14.918 19.3559 13.4632C19.6453 12.0083 19.4968 10.5003 18.9291 9.12987C18.3614 7.75943 17.4001 6.58809 16.1668 5.76398C14.9334 4.93987 13.4834 4.5 12 4.5C9.828 4.5 7.9575 5.355 6.2025 7.5H7.5C7.67554 7.49994 7.84554 7.56146 7.98039 7.67383C8.11524 7.78621 8.2064 7.94233 8.238 8.115L8.25 8.25C8.25006 8.42554 8.18854 8.59554 8.07617 8.73039C7.96379 8.86524 7.80767 8.9564 7.635 8.988L7.5 9H4.5C4.32446 9.00006 4.15446 8.93854 4.01961 8.82617C3.88476 8.71379 3.7936 8.55767 3.762 8.385L3.75 8.25V5.25C3.74965 5.06258 3.81949 4.88182 3.94576 4.74332C4.07203 4.60483 4.24558 4.51862 4.43223 4.50169C4.61889 4.48475 4.80511 4.53832 4.95425 4.65183C5.10338 4.76534 5.20461 4.93058 5.238 5.115L5.25 5.25V6.3C7.242 3.9855 9.4695 3 12 3ZM11.25 7.5C11.4255 7.49994 11.5955 7.56146 11.7304 7.67383C11.8652 7.78621 11.9564 7.94233 11.988 8.115L12 8.25V12.4395L14.781 15.219C14.905 15.3433 14.9815 15.5071 14.9971 15.682C15.0127 15.8569 14.9665 16.0317 14.8665 16.176L14.781 16.281C14.6567 16.405 14.4929 16.4815 14.318 16.4971C14.1431 16.5127 13.9683 16.4665 13.824 16.3665L13.719 16.281L10.719 13.281C10.6073 13.1691 10.5338 13.0247 10.509 12.8685L10.5 12.75V8.25C10.5 8.05109 10.579 7.86032 10.7197 7.71967C10.8603 7.57902 11.0511 7.5 11.25 7.5Z" fill="#0B43DA"/>
</svg>
