<svg width="16" height="16" viewBox="0 0 16 16" fill="#7B7E86" xmlns="http://www.w3.org/2000/svg">
<path d="M10.6845 1.83062C8.24366 -0.610205 4.27104 -0.610205 1.83022 1.83062C-0.610073 4.27197 -0.610073 8.24406 1.83022 10.6854C4.00384 12.8585 7.38913 13.0913 9.82837 11.3944C9.87969 11.6373 9.99716 11.869 10.1861 12.0579L13.7407 15.6126C14.2587 16.1295 15.0957 16.1295 15.6111 15.6126C16.1286 15.0951 16.1286 14.258 15.6111 13.7421L12.0565 10.1864C11.8686 9.99914 11.6364 9.88115 11.3935 9.82982C13.0914 7.39006 12.8586 4.00529 10.6845 1.83062ZM9.56222 9.56315C7.73994 11.3854 4.77423 11.3854 2.95248 9.56315C1.13125 7.74086 1.13125 4.77569 2.95248 2.9534C4.77423 1.13165 7.73994 1.13165 9.56222 2.9534C11.3845 4.77569 11.3845 7.74086 9.56222 9.56315Z" fill="#7B7E86"/>
</svg>
