<svg width="32" height="32" viewBox="0 0 32 32" fill="#22242A" xmlns="http://www.w3.org/2000/svg">
<path d="M20.5792 18.9497H19.721L19.4168 18.6564C20.4814 17.418 21.1224 15.8102 21.1224 14.0612C21.1224 10.1612 17.9611 7 14.0612 7C10.1612 7 7 10.1612 7 14.0612C7 17.9611 10.1612 21.1224 14.0612 21.1224C15.8102 21.1224 17.418 20.4814 18.6564 19.4168L18.9497 19.721V20.5792L24.3814 26L26 24.3814L20.5792 18.9497ZM14.0612 18.9497C11.3562 18.9497 9.17267 16.7662 9.17267 14.0612C9.17267 11.3562 11.3562 9.17267 14.0612 9.17267C16.7662 9.17267 18.9497 11.3562 18.9497 14.0612C18.9497 16.7662 16.7662 18.9497 14.0612 18.9497Z" />
</svg>
