<svg width="24" height="24" viewBox="0 0 24 24" fill="#0024A0" xmlns="http://www.w3.org/2000/svg">
<path fill-rule="evenodd" clip-rule="evenodd" d="M7.7 3H14.45L19.4 7.95V12H18.05V9.3H13.1V4.35H8.15C7.15589 4.35 6.35 5.15589 6.35 6.15V17.85C6.35 18.8441 7.15589 19.65 8.15 19.65H10V21H7.7C6.20883 21 5 19.7912 5 18.3V5.7C5 4.20883 6.20883 3 7.7 3ZM14.45 4.8L17.6 7.95H14.45V4.8Z" fill="#0024A0"/>
<path fill-rule="evenodd" clip-rule="evenodd" d="M11.0295 13.0297C12.4026 11.6568 14.6373 11.6568 16.0103 13.0297C17.2333 14.2529 17.3643 16.1568 16.4092 17.5292C16.5458 17.5581 16.6764 17.6244 16.7821 17.7298L18.7817 19.7298C19.0728 20.02 19.0728 20.4908 18.7817 20.7819C18.4918 21.0727 18.0209 21.0727 17.7295 20.7819L15.7299 18.7825C15.6237 18.6762 15.5576 18.5459 15.5287 18.4093C14.1566 19.3637 12.2523 19.2328 11.0295 18.0104C9.65682 16.6372 9.65682 14.4029 11.0295 13.0297ZM11.6609 17.3792C12.6856 18.4042 14.3539 18.4042 15.379 17.3792C16.4041 16.3542 16.4041 14.6863 15.379 13.6613C14.3539 12.6365 12.6856 12.6365 11.6609 13.6613C10.6364 14.6863 10.6364 16.3542 11.6609 17.3792Z" fill="#0024A0"/>
</svg>
