<svg width="32" height="32" viewBox="0 0 32 32" fill="#22242A" xmlns="http://www.w3.org/2000/svg">
<path d="M27.1772 11.9574C26.6645 9.91288 25.3469 8.6586 23.3675 8.16316C21.4656 7.68653 19.9095 8.77148 18.1924 9.37354C19.4147 9.83135 20.6428 10.2703 20.1897 12.0326C20.0466 12.5908 19.6412 12.9545 19.1225 13.0987C18.5144 13.2618 17.0835 12.7099 17.0835 12.7099C17.1908 12.804 20.2016 15.068 21.1615 16.04C22.9442 17.8462 21.6345 19.2552 20.9727 19.1047C20.9727 19.1047 21.495 20.3814 20.72 21.0713C20.2192 21.5165 19.6432 21.3205 19.6432 21.3205C19.6432 22.5058 18.5664 22.9323 17.7393 22.7755C17.4591 22.7316 17.1252 22.5058 17.1252 22.5058C17.1252 22.5058 17.0358 22.7442 17.012 22.9323C16.9464 23.4779 17.2564 23.9106 17.6559 23.9796C18.3474 24.105 18.8244 23.6159 18.8244 23.6159C18.8244 23.6159 25.2157 17.6392 25.5079 17.3821C27.1116 15.946 27.7138 14.0896 27.1772 11.9574Z" />
<path d="M15.7445 21.6277C15.7445 21.6214 15.7386 21.6214 15.7386 21.6152C15.7326 21.6089 15.7326 21.6089 15.7266 21.6026C15.7266 21.6026 15.7266 21.6026 15.7207 21.5964C15.6789 21.5336 15.6253 21.4709 15.5657 21.4208C15.5478 21.4019 15.5239 21.3831 15.5001 21.3643C14.9516 20.9128 14.415 20.4487 13.8784 19.9846L12.1733 18.4983C12.1375 18.4669 12.1136 18.4293 12.0898 18.3917C12.0182 18.2537 12.0242 18.0844 12.1256 17.9527C12.2567 17.7896 12.4833 17.7645 12.6443 17.9025L13.9499 19.0439L14.5461 19.5582L14.7966 19.7714L17.4079 22.0228C17.4616 22.073 17.5212 22.1106 17.5868 22.1357C17.7001 22.1921 17.8253 22.2235 17.9564 22.2235C18.4334 22.2235 18.8209 21.8159 18.8209 21.3141C18.8209 21.0758 18.7315 20.8563 18.5884 20.6995L13.4789 16.366C13.3597 16.2657 13.3418 16.0838 13.4372 15.9584C13.5326 15.8329 13.7055 15.8141 13.8247 15.9145L19.2144 20.4863C19.2204 20.4926 19.2264 20.4989 19.2323 20.5051C19.274 20.5177 19.3158 20.5365 19.3575 20.5428C19.4171 20.5553 19.4768 20.5616 19.5364 20.5616C20.0133 20.5616 20.4009 20.1539 20.4009 19.6522C20.4009 19.4327 20.3293 19.2383 20.2041 19.0815C20.2041 19.0815 20.2041 19.0815 20.1982 19.0753L14.9754 14.6477C14.8562 14.5473 14.8383 14.3654 14.9337 14.24C15.0291 14.1146 15.202 14.0958 15.3212 14.1961L20.0193 18.0718C20.0491 18.1032 20.0789 18.1283 20.1147 18.1471C20.2399 18.2349 20.383 18.2788 20.544 18.2788C20.8421 18.2788 21.1044 18.1032 21.2356 17.8398C21.2952 17.7896 21.325 17.6893 21.325 17.5074C21.325 17.5011 21.325 17.5011 21.325 17.4949C21.325 17.4886 21.325 17.4761 21.325 17.4698C21.325 17.4635 21.325 17.4572 21.325 17.451C21.325 17.1813 21.1998 16.943 21.015 16.7925C20.9673 16.7423 20.9136 16.6984 20.86 16.6482C19.8047 15.7702 18.7554 14.8797 17.706 13.9954L15.351 11.9635C14.9158 11.5747 14.8085 11.2423 15.0291 10.9162C15.2497 10.9789 15.4106 11.0228 15.5657 11.0792C16.5554 11.4367 17.5391 11.813 18.5348 12.1516C19.2502 12.3962 19.8762 11.882 19.6616 11.2109C19.5722 10.9287 19.2502 10.6465 18.97 10.5399C17.4735 9.95038 15.9651 9.41104 14.4508 8.8717C13.5922 8.59576 12.7396 8.18185 11.8632 8.07524C9.59169 7.7993 7.56459 9.1351 6.71798 11.3113C5.90118 13.4122 6.47354 15.8267 8.19061 17.3444C8.35158 17.4886 8.51852 17.6328 8.68546 17.7708L14.3732 22.7127C14.5342 22.9133 14.7667 23.0388 15.035 23.0388C15.512 23.0388 15.8995 22.6311 15.8995 22.1294C15.8995 22.0792 15.8936 22.0353 15.8876 21.9852C15.8638 21.866 15.822 21.7406 15.7445 21.6277Z" />
</svg>
