<svg width="20" height="21" viewBox="0 0 20 21" fill="#22242A" xmlns="http://www.w3.org/2000/svg">
<path d="M17.9189 12.5071L17.2142 13.2166L17.2249 13.2272L17.2359 13.2375L17.9189 12.5071ZM17.9158 12.504L18.8249 12.0874L18.7401 11.9024L18.5898 11.7653L17.9158 12.504ZM18.1333 13.893L18.9975 14.3963L19.0045 14.384L18.1333 13.893ZM16.8464 16.1025L15.9822 15.5991L15.9759 15.6103L16.8464 16.1025ZM15.5242 16.6102L15.2254 17.5645L15.2275 17.5652L15.5242 16.6102ZM14.0153 16.1378L14.3141 15.1835L13.8158 15.0274L13.403 15.3472L14.0153 16.1378ZM12.3727 17.0851L11.9986 16.1577L11.513 16.3536L11.3974 16.8643L12.3727 17.0851ZM12.0247 18.6225L11.0493 18.4017L11.049 18.4033L12.0247 18.6225ZM7.25495 18.621L8.23078 18.4024L8.23021 18.3999L7.25495 18.621ZM6.90677 17.0851L7.88203 16.864L7.76632 16.3536L7.28097 16.1577L6.90677 17.0851ZM5.26432 16.1378L5.87597 15.3466L5.46317 15.0275L4.96526 15.1835L5.26432 16.1378ZM3.75697 16.6102L4.051 17.566L4.05603 17.5644L3.75697 16.6102ZM2.43089 16.0979L3.30165 15.6061L3.29502 15.5947L2.43089 16.0979ZM1.14934 13.8975L0.278531 14.3893L0.285218 14.4008L1.14934 13.8975ZM1.36077 12.5071L0.686629 11.7684L0.677973 11.7765L1.36077 12.5071ZM2.52534 11.4443L3.19943 12.1829L3.58085 11.8348L3.51787 11.3223L2.52534 11.4443ZM2.52603 9.55572L3.5183 9.67981L3.58255 9.16604L3.20008 8.81704L2.52603 9.55572ZM1.36464 8.49596L0.682403 9.22717L0.69059 9.23464L1.36464 8.49596ZM1.14713 7.10619L0.282923 6.60287L0.276299 6.61461L1.14713 7.10619ZM2.43394 4.8967L3.29815 5.40001L3.30495 5.38795L2.43394 4.8967ZM3.75545 4.38982L4.05424 3.43549L4.05034 3.43429L3.75545 4.38982ZM5.26432 4.86223L4.96553 5.81655L5.46331 5.9724L5.87597 5.65336L5.26432 4.86223ZM6.90677 3.91493L7.28097 4.84228L7.76644 4.64639L7.88207 4.13581L6.90677 3.91493ZM7.25495 2.37753L8.23026 2.59841L8.23064 2.5967L7.25495 2.37753ZM12.0247 2.37822L11.0489 2.59711L11.0494 2.59911L12.0247 2.37822ZM12.3727 3.91493L11.3974 4.13582L11.5131 4.64644L11.9986 4.84231L12.3727 3.91493ZM14.0153 4.86223L13.4037 5.65336L13.8165 5.97251L14.3144 5.81646L14.0153 4.86223ZM15.5227 4.38982L15.2268 3.43458L15.2236 3.43558L15.5227 4.38982ZM16.8487 4.90123L15.9784 5.39379L15.9846 5.40448L16.8487 4.90123ZM18.1303 7.10179L19.0014 6.61055L18.9944 6.59854L18.1303 7.10179ZM17.9189 8.49294L18.593 9.23164L18.6018 9.22342L17.9189 8.49294ZM16.7543 9.55572L16.0802 8.81708L15.6988 9.16517L15.7618 9.67769L16.7543 9.55572ZM16.7543 11.4443L15.7618 11.3223L15.6988 11.8349L16.0803 12.183L16.7543 11.4443ZM18.6235 11.7975C18.5713 11.7456 18.5236 11.7106 18.5206 11.7083C18.5013 11.6937 18.5297 11.7149 18.5478 11.7297C18.5963 11.7691 18.732 11.8847 18.8249 12.0874L17.0067 12.9207C17.1003 13.1249 17.2371 13.2416 17.2867 13.2819C17.3055 13.2972 17.3345 13.3188 17.3157 13.3046C17.3132 13.3027 17.266 13.2681 17.2142 13.2166L18.6235 11.7975ZM19.0045 14.384C19.4888 13.5248 19.3225 12.4504 18.6018 11.7766L17.2359 13.2375C17.2837 13.2822 17.2928 13.3476 17.2622 13.4019L19.0045 14.384ZM17.7105 16.6058L18.9974 14.3963L17.2692 13.3897L15.9823 15.5992L17.7105 16.6058ZM15.2275 17.5652C16.1701 17.858 17.2224 17.4693 17.7169 16.5946L15.9759 15.6103C15.9703 15.6202 15.9551 15.6384 15.9218 15.6512C15.8886 15.664 15.8527 15.6651 15.8209 15.6552L15.2275 17.5652ZM13.7165 17.0921L15.2254 17.5645L15.823 15.6559L14.3141 15.1835L13.7165 17.0921ZM12.7468 18.0124C13.4143 17.7432 14.0455 17.3792 14.6276 16.9284L13.403 15.3472C12.9627 15.6882 12.4912 15.9589 11.9986 16.1577L12.7468 18.0124ZM13 18.8433L13.348 17.3059L11.3974 16.8643L11.0494 18.4017L13 18.8433ZM10.9236 20.5C11.9125 20.5 12.7831 19.8088 13.0004 18.8416L11.049 18.4033C11.0444 18.4237 11.0311 18.4485 11.0044 18.4698C10.9777 18.4911 10.9487 18.5 10.9236 18.5V20.5ZM8.35605 20.5H10.9236V18.5H8.35605V20.5ZM6.27913 18.8395C6.49604 19.808 7.3662 20.5 8.35605 20.5V18.5C8.3309 18.5 8.3021 18.4911 8.27567 18.47C8.24924 18.4489 8.23561 18.424 8.23078 18.4024L6.27913 18.8395ZM5.93152 17.3062L6.2797 18.842L8.23021 18.3999L7.88203 16.864L5.93152 17.3062ZM4.65267 16.9289C5.23389 17.3783 5.86472 17.7429 6.53258 18.0124L7.28097 16.1577C6.78896 15.9592 6.31717 15.6877 5.87597 15.3466L4.65267 16.9289ZM4.05603 17.5644L5.56338 17.092L4.96526 15.1835L3.45791 15.6559L4.05603 17.5644ZM1.56021 16.5898C2.05682 17.4689 3.10719 17.8563 4.05099 17.566L3.46294 15.6544C3.42795 15.6651 3.39103 15.6633 3.35851 15.6508C3.32618 15.6383 3.30938 15.6199 3.30157 15.6061L1.56021 16.5898ZM0.285218 14.4008L1.56677 16.6012L3.29502 15.5947L2.01347 13.3942L0.285218 14.4008ZM0.677973 11.7765C-0.045248 12.4523 -0.207906 13.5278 0.278608 14.3893L2.02008 13.4058C1.98557 13.3447 1.99797 13.2803 2.04357 13.2377L0.677973 11.7765ZM1.85124 10.7056L0.686676 11.7684L2.03486 13.2457L3.19943 12.1829L1.85124 10.7056ZM1.4656 10.5C1.4656 10.8522 1.48896 11.2094 1.5328 11.5662L3.51787 11.3223C3.48317 11.04 3.4656 10.7644 3.4656 10.5H1.4656ZM1.53376 9.43164C1.48896 9.78984 1.4656 10.1477 1.4656 10.5H3.4656C3.4656 10.2356 3.48317 9.96074 3.5183 9.67981L1.53376 9.43164ZM0.69059 9.23464L1.85198 10.2944L3.20008 8.81704L2.03869 7.75727L0.69059 9.23464ZM0.276299 6.61461C-0.210187 7.47642 -0.0418823 8.55131 0.682445 9.22713L2.04684 7.76479C1.9946 7.71605 1.98785 7.65111 2.01796 7.59776L0.276299 6.61461ZM1.56981 4.39343L0.283002 6.60292L2.01126 7.60945L3.29807 5.39997L1.56981 4.39343ZM4.05034 3.43429C3.1143 3.14541 2.05865 3.52649 1.56292 4.40544L3.30495 5.38795C3.30925 5.38033 3.32314 5.36254 3.35705 5.34955C3.39113 5.33649 3.42831 5.3354 3.46055 5.34535L4.05034 3.43429ZM5.56311 3.90791L4.05423 3.4355L3.45666 5.34414L4.96553 5.81655L5.56311 3.90791ZM6.53258 2.98758C5.86472 3.25707 5.23389 3.62174 4.65267 4.0711L5.87597 5.65336C6.31717 5.31225 6.78896 5.04081 7.28097 4.84228L6.53258 2.98758ZM6.27965 2.15665L5.93147 3.69405L7.88207 4.13581L8.23025 2.59841L6.27965 2.15665ZM8.35605 0.5C7.36691 0.5 6.49652 1.19123 6.27927 2.15836L8.23064 2.5967C8.23524 2.57622 8.24851 2.55143 8.27521 2.53015C8.30185 2.5089 8.33086 2.5 8.35605 2.5V0.5ZM10.9236 0.5H8.35605V2.5H10.9236V0.5ZM13.0004 2.15933C12.7833 1.19151 11.9128 0.5 10.9236 0.5V2.5C10.9486 2.5 10.9776 2.50886 11.0042 2.53009C11.0308 2.55134 11.0442 2.57621 11.0489 2.59711L13.0004 2.15933ZM13.348 3.69404L13 2.15733L11.0494 2.59911L11.3974 4.13582L13.348 3.69404ZM14.627 4.0711C14.0457 3.62173 13.4149 3.25705 12.7468 2.98755L11.9986 4.84231C12.4907 5.04083 12.9625 5.31226 13.4037 5.65336L14.627 4.0711ZM15.2236 3.43558L13.7162 3.90799L14.3144 5.81646L15.8217 5.34405L15.2236 3.43558ZM17.719 4.40871C17.2229 3.532 16.1719 3.14185 15.2268 3.43459L15.8185 5.34504C15.8518 5.33474 15.888 5.33618 15.9209 5.34888C15.9538 5.36157 15.9708 5.38027 15.9784 5.39375L17.719 4.40871ZM18.9944 6.59854L17.7129 4.39798L15.9846 5.40448L17.2661 7.60504L18.9944 6.59854ZM18.6018 9.22342C19.3248 8.54743 19.4873 7.47231 19.0013 6.6106L17.2592 7.59299C17.2943 7.65522 17.2814 7.71993 17.2359 7.76245L18.6018 9.22342ZM17.4284 10.2944L18.5929 9.23158L17.2448 7.75429L16.0802 8.81708L17.4284 10.2944ZM17.814 10.5C17.814 10.1478 17.7907 9.79055 17.7468 9.43375L15.7618 9.67769C15.7964 9.96003 15.814 10.2356 15.814 10.5H17.814ZM17.7468 11.5662C17.7907 11.2094 17.814 10.8522 17.814 10.5H15.814C15.814 10.7644 15.7964 11.04 15.7618 11.3223L17.7468 11.5662ZM18.5898 11.7653L17.4283 10.7056L16.0803 12.183L17.2418 13.2428L18.5898 11.7653ZM9.64 12.363C8.59777 12.363 7.76 11.5211 7.76 10.5028H5.76C5.76 12.6387 7.50619 14.363 9.64 14.363V12.363ZM11.52 10.5028C11.52 11.5211 10.6822 12.363 9.64 12.363V14.363C11.7738 14.363 13.52 12.6387 13.52 10.5028H11.52ZM9.64 8.6425C10.6822 8.6425 11.52 9.48438 11.52 10.5028H13.52C13.52 8.36687 11.7738 6.6425 9.64 6.6425V8.6425ZM7.76 10.5028C7.76 9.48438 8.59777 8.6425 9.64 8.6425V6.6425C7.50619 6.6425 5.76 8.36686 5.76 10.5028H7.76Z" fill="#2F3441"/>
</svg>
