<svg width="32" height="32" viewBox="0 0 32 32" fill="#22242A" xmlns="http://www.w3.org/2000/svg">
<path fill-rule="evenodd" clip-rule="evenodd" d="M24.0363 17.7814C24.0369 17.7827 24.0383 17.7833 24.039 17.7841C24.3806 18.1034 24.4585 18.61 24.2297 19.016L23.0857 20.98C22.8595 21.38 22.3635 21.5721 21.9104 21.4313L20.5692 21.0114C20.1148 21.3633 19.6247 21.6454 19.1091 21.8534L18.7997 23.22C18.6983 23.6714 18.2868 24 17.821 24H15.5387C15.0728 24 14.6614 23.6714 14.56 23.2187L14.2505 21.8534C13.735 21.6454 13.2449 21.3627 12.7905 21.0114L11.4506 21.4313C10.9955 21.5713 10.5002 21.38 10.2719 20.976L9.13275 19.02C8.90118 18.61 8.97899 18.1034 9.32068 17.7841L10.3559 16.8394C10.321 16.5553 10.3028 16.2741 10.3028 16C10.3028 15.726 10.321 15.4447 10.3565 15.1607L9.32413 14.2186C8.97899 13.8966 8.90118 13.39 9.13078 12.9833L10.2746 11.0193C10.5002 10.6194 10.9976 10.4293 11.4493 10.5687L12.7905 10.9887C13.2449 10.6373 13.735 10.3546 14.2505 10.1466L14.56 8.78003C14.6614 8.32861 15.0728 8 15.5387 8H17.821C18.2868 8 18.6983 8.32861 18.7997 8.78064L19.1091 10.1466C19.6247 10.3546 20.1148 10.6373 20.5692 10.9887L21.9091 10.5687C22.3635 10.428 22.8595 10.62 23.0878 11.0233L24.227 12.9794C24.4585 13.39 24.3806 13.8966 24.039 14.216L23.0038 15.1607C23.0388 15.4447 23.0569 15.726 23.0569 16C23.0569 16.2741 23.0388 16.5553 23.0038 16.8394L24.0363 17.7814ZM14.1202 16.0027C14.1202 17.4046 15.2686 18.5451 16.6802 18.5451C18.0917 18.5451 19.2402 17.4046 19.2402 16.0027C19.2402 14.6008 18.0917 13.4602 16.6802 13.4602C15.2686 13.4602 14.1202 14.6008 14.1202 16.0027Z" />
</svg>
