<svg width="24" height="24" viewBox="0 0 24 24" fill="#D11F00" xmlns="http://www.w3.org/2000/svg">
<path d="M10.7087 13.5145L8.43398 9.72331C8.19103 9.31839 8.30894 8.79404 8.70184 8.5321C9.13181 8.24546 9.7149 8.38682 9.96586 8.83855L11.7142 11.9856C11.8906 12.3031 12.2252 12.5 12.5884 12.5H15.25C15.6642 12.5 16 12.8358 16 13.25C16 13.6642 15.6642 14 15.25 14H11.5662C11.2149 14 10.8894 13.8157 10.7087 13.5145Z" fill="#D11F00"/>
<path fill-rule="evenodd" clip-rule="evenodd" d="M21 12C21 16.9706 16.9706 21 12 21C7.02944 21 3 16.9706 3 12C3 7.02944 7.02944 3 12 3C16.9706 3 21 7.02944 21 12ZM19.5 12C19.5 15.866 15.866 19.5 12 19.5C8.13401 19.5 4.5 15.866 4.5 12C4.5 8.13401 8.13401 4.5 12 4.5C15.866 4.5 19.5 8.13401 19.5 12Z" fill="#D11F00"/>
<rect x="4.06738" y="4.04492" width="22.0755" height="2.03421" rx="1.0171" transform="rotate(36.6373 4.06738 4.04492)" fill="white"/>
<rect x="3.21387" y="5.06641" width="22.0755" height="2.03421" rx="1.0171" transform="rotate(36.6373 3.21387 5.06641)" fill="#D11F00"/>
</svg>
