<svg width="16" height="16" viewBox="0 0 16 16" fill="none" xmlns="http://www.w3.org/2000/svg">
<path fill-rule="evenodd" clip-rule="evenodd" d="M0 8C0 3.58172 3.58172 0 8 0C12.4183 0 16 3.58172 16 8C16 12.4183 12.4183 16 8 16C3.58172 16 0 12.4183 0 8ZM6.9244 10.9243C7.17329 11.1732 7.58218 11.1643 7.82218 10.9066L11.7511 6.6399C11.9644 6.3999 11.9466 6.03545 11.7155 5.82212C11.4844 5.60879 11.1111 5.61767 10.8977 5.85767L7.35107 9.71545L5.21773 7.58212C4.99551 7.3599 4.62218 7.3599 4.39995 7.58212C4.17773 7.80434 4.17773 8.17767 4.39995 8.3999L6.9244 10.9243Z" fill="#128238"/>
</svg>
