<svg width="24" height="24" viewBox="0 0 24 24" fill="#22242A" xmlns="http://www.w3.org/2000/svg">
<path d="M21.875 18.125L19.8334 16.5416C19.7501 16.4583 19.625 16.4583 19.5 16.4583L18.2917 16.75C19.2084 15.3333 19.7501 13.6666 19.7501 11.875C19.7501 6.99995 15.7917 3 10.8751 3C6.00002 3 2 6.95832 2 11.875C2 16.7917 5.95832 20.75 10.875 20.75C13.4999 20.75 15.875 19.5833 17.5 17.75L17.5417 19C17.5417 19.125 17.625 19.25 17.7083 19.3333L19.7499 20.9167C19.8332 20.9584 19.9165 21 19.9999 21C20.0833 21 20.1249 21 20.2083 20.9583C20.3333 20.875 20.4583 20.75 20.4166 20.5833L20.3749 19.2083L21.7082 18.9167C21.8749 18.875 21.9999 18.75 22.0416 18.5833C22.0833 18.4166 21.9999 18.2083 21.875 18.125ZM10.9167 19.9167C6.49998 19.9167 2.87499 16.3333 2.87499 11.875C2.87499 7.45836 6.45836 3.83337 10.9167 3.83337C15.3333 3.83337 18.9583 7.41674 18.9583 11.875C18.9583 13.5834 18.4166 15.125 17.5417 16.4167L16.0417 15.2501C16.7083 14.2918 17.0834 13.125 17.0834 11.8751C17.0834 8.50012 14.3334 5.75006 10.9584 5.75006C7.58344 5.75006 4.83345 8.50006 4.83345 11.8751C4.83345 15.2501 7.58344 18.0001 10.9584 18.0001C12.7917 18.0001 14.4168 17.2084 15.5417 15.9167L17.0417 17.0834C15.5 18.7917 13.3333 19.9167 10.9167 19.9167ZM12.4166 12.5C12.4999 12.2917 12.5416 12.0834 12.5416 11.875C12.5416 10.9583 11.7916 10.25 10.9167 10.25C9.99996 10.25 9.29167 11 9.29167 11.875C9.29167 12.7917 10.0417 13.5 10.9167 13.5C11.2917 13.5 11.625 13.375 11.9167 13.1667L12.8333 13.875C12.3334 14.3334 11.6667 14.6667 10.9167 14.6667C9.37499 14.6667 8.16666 13.4167 8.16666 11.9167C8.16666 10.4167 9.41668 9.12503 10.9167 9.12503C12.4583 9.12503 13.6666 10.3751 13.6666 11.9167C13.6666 12.4168 13.5416 12.875 13.3333 13.2501L12.4166 12.5ZM11.1667 11.5417C11 11.4167 10.7083 11.4167 10.5833 11.625C10.4583 11.7916 10.4583 12.0834 10.6666 12.2084L11.2083 12.625C11.125 12.6667 11.0417 12.6667 10.9167 12.6667C10.4583 12.6667 10.125 12.2917 10.125 11.875C10.125 11.4167 10.5 11.0833 10.9167 11.0833C11.375 11.0833 11.7083 11.4584 11.7083 11.875C11.7083 11.9167 11.7083 11.9167 11.7083 11.9583L11.1667 11.5417ZM10.9167 8.29166C8.91664 8.29166 7.33329 9.91664 7.33329 11.9166C7.33329 13.9167 8.95827 15.5 10.9167 15.5C11.9167 15.5 12.8333 15.0834 13.5 14.4167L14.8333 15.4584C13.875 16.5417 12.4583 17.2084 10.9167 17.2084C8.00002 17.2084 5.62506 14.8333 5.62506 11.9167C5.62506 9.00009 8.00009 6.62506 10.9167 6.62506C13.8333 6.62506 16.2084 9.00009 16.2084 11.9167C16.2084 12.9584 15.875 13.9583 15.3334 14.7917L14 13.75C14.3334 13.2084 14.5 12.5834 14.5 11.9167C14.4999 9.87502 12.875 8.29166 10.9167 8.29166ZM18.375 18.7917L18.3333 18.1667L19.4999 19.0834L19.5416 19.7084L18.375 18.7917ZM20.0416 18.375L18.875 17.4583L19.5 17.3333L20.6666 18.25L20.0416 18.375Z" fill="#22242A"/>
</svg>
