<svg width="32" height="32" viewBox="0 0 32 32" fill="#22242A" xmlns="http://www.w3.org/2000/svg">
<path d="M18.6236 13.0908L15.6817 16.0304L14.3334 14.6838L13.0908 15.9258L15.733 18.5454L19.909 14.3745L18.6236 13.0908Z" />
<path fill-rule="evenodd" clip-rule="evenodd" d="M9.9375 9H23.0625C23.5807 9 24 9.4193 24 9.9375V12.75V20.25V23.0625C24 23.5807 23.5807 24 23.0625 24H9.9375C9.4193 24 9 23.5807 9 23.0625V9.9375C9 9.4193 9.4193 9 9.9375 9ZM19.3125 19.3125H22.125V10.875H19.3125H13.6875H10.875V13.6875V19.3125H13.6875V22.125H19.3125V19.3125Z"/>
</svg>
