<svg width="16" height="16" viewBox="0 0 16 16" fill="none" xmlns="http://www.w3.org/2000/svg">
<path fill-rule="evenodd" clip-rule="evenodd" d="M8 0C3.58172 0 0 3.58172 0 8C0 12.4183 3.58172 16 8 16C12.4183 16 16 12.4183 16 8C16 3.58172 12.4183 0 8 0ZM8 4.00304C8.3191 4.00304 8.57778 4.26172 8.57778 4.58081V8.00304H11.5556C11.8747 8.00304 12.1333 8.26172 12.1333 8.58082C12.1333 8.89991 11.8747 9.15859 11.5556 9.15859H8C7.6809 9.15859 7.42222 8.89991 7.42222 8.58082V4.58081C7.42222 4.26172 7.6809 4.00304 8 4.00304Z" fill="#6FA3FF"/>
</svg>
