<svg width="24" height="24" viewBox="0 0 24 24" fill="none" xmlns="http://www.w3.org/2000/svg">
<path d="M20.5461 5.61257C20.5344 5.59147 20.518 5.57038 20.4992 5.55397C20.382 5.43678 20.1922 5.43678 20.075 5.55397L16.0367 9.59225L14.4453 8.00085L18.4859 3.96022C18.5047 3.94147 18.5187 3.92272 18.5328 3.90163C18.6172 3.75866 18.5703 3.57585 18.4273 3.49147C16.1258 2.1321 13.1117 2.44382 11.1312 4.42194C9.56093 5.99225 9.04062 8.21882 9.57265 10.2204L2.70546 17.0876C2.63515 17.1579 2.63984 17.2727 2.71249 17.3454L6.68984 21.3227C6.76249 21.3954 6.87968 21.4001 6.94765 21.3298L13.8125 14.4649C15.8164 14.9993 18.043 14.4813 19.6156 12.9087C21.5937 10.9282 21.9055 7.91413 20.5461 5.61257ZM18.4226 11.7133C17.0609 13.0751 15.0172 13.3376 13.393 12.5008L13.1867 12.7071L13.1844 12.7048L6.76249 19.129L4.90624 17.2727L10.2992 11.8798C10.2992 11.8798 10.2992 11.8821 10.3016 11.8821L11.5391 10.6446C10.7023 9.02038 10.9648 6.97663 12.3266 5.61491C12.7657 5.17533 13.2946 4.83574 13.8771 4.61934C14.4596 4.40293 15.0819 4.31481 15.7016 4.361L12.5867 7.4735C12.446 7.61435 12.367 7.80529 12.367 8.00436C12.367 8.20344 12.446 8.39437 12.5867 8.53522L15.5047 11.4532C15.6455 11.5939 15.8365 11.6729 16.0355 11.6729C16.2346 11.6729 16.4256 11.5939 16.5664 11.4532L19.6789 8.34069C19.7656 9.55475 19.3414 10.7969 18.4226 11.7133Z" fill="#22242A"/>
</svg>
