<svg width="18" height="18" viewBox="0 0 18 18" fill="#22242A" xmlns="http://www.w3.org/2000/svg">
<path fill-rule="evenodd" clip-rule="evenodd" d="M17 5H16V16C16 17.1046 15.1046 18 14 18H4C2.89543 18 2 17.1046 2 16V5H1C0.447715 5 0 4.55228 0 4C0 3.44772 0.447715 3 1 3H17C17.5523 3 18 3.44772 18 4C18 4.55228 17.5523 5 17 5ZM14 5H4V16H14V5ZM7 7C7.55228 7 8 7.44772 8 8V13C8 13.5523 7.55228 14 7 14C6.44772 14 6 13.5523 6 13V8C6 7.44772 6.44772 7 7 7ZM11 7C11.5523 7 12 7.44772 12 8V13C12 13.5523 11.5523 14 11 14C10.4477 14 10 13.5523 10 13V8C10 7.44772 10.4477 7 11 7ZM10 2H8C7.44772 2 7 1.55228 7 1C7 0.447715 7.44772 0 8 0H10C10.5523 0 11 0.447715 11 1C11 1.55228 10.5523 2 10 2Z" />
</svg>
