<svg width="24" height="24" viewBox="0 0 24 24" fill="#22242A" xmlns="http://www.w3.org/2000/svg">
<path d="M16.0029 7C16.0029 9.20914 14.2121 11 12.0029 11C9.79379 11 8.00293 9.20914 8.00293 7C8.00293 4.79086 9.79379 3 12.0029 3C14.2121 3 16.0029 4.79086 16.0029 7ZM9.49913 7C9.49913 8.38281 10.6201 9.5038 12.0029 9.5038C13.3857 9.5038 14.5067 8.38281 14.5067 7C14.5067 5.61719 13.3857 4.4962 12.0029 4.4962C10.6201 4.4962 9.49913 5.61719 9.49913 7Z" fill="#2F3441"/>
<path fill-rule="evenodd" clip-rule="evenodd" d="M4.00342 21C4.00338 20.8732 4.00258 20.7426 4.00177 20.6095C3.99617 19.6924 3.98976 18.6419 4.22262 17.7C4.48933 16.6212 4.99242 15.6152 5.69553 14.7546C6.39865 13.8941 7.2842 13.2006 8.28816 12.7242C9.29213 12.2478 10.3894 12.0004 11.5007 12C12.6119 11.9996 13.7094 12.2461 14.7137 12.7218C15.718 13.1975 16.6041 13.8904 17.3078 14.7504C18.0116 15.6104 18.5154 16.6161 18.7829 17.6947C19.0164 18.6361 19.0105 19.6905 19.0055 20.6084C19.0047 20.7421 19.004 20.8729 19.004 21H4.00342ZM17.4956 19.5C17.4808 18.9803 17.4368 18.52 17.3078 18C17.1032 17.1749 16.5414 16.1579 16.0031 15.5C15.4647 14.8421 14.7714 14.3639 14.0031 14C13.2348 13.6361 12.3532 13.4997 11.5031 13.5C10.653 13.5003 9.77112 13.6356 9.00308 14C8.23505 14.3644 7.54096 14.8417 7.00308 15.5C6.46521 16.1583 5.89956 17.2667 5.69553 18.0919C5.56943 18.602 5.52569 19.0194 5.51068 19.5H17.4956Z" fill="#2F3441"/>
</svg>
