<svg width="24" height="24" viewBox="0 0 24 24" fill="#22242A" xmlns="http://www.w3.org/2000/svg">
<path d="M17.4051 8.40005C17.4051 10.3883 15.7933 12 13.8051 12C11.8169 12 10.2051 10.3883 10.2051 8.40005C10.2051 6.41182 11.8169 4.80005 13.8051 4.80005C15.7933 4.80005 17.4051 6.41182 17.4051 8.40005ZM11.5517 8.40005C11.5517 9.64458 12.5605 10.6535 13.8051 10.6535C15.0496 10.6535 16.0585 9.64458 16.0585 8.40005C16.0585 7.15552 15.0496 6.14663 13.8051 6.14663C12.5605 6.14663 11.5517 7.15552 11.5517 8.40005Z" fill="#2F3441"/>
<path fill-rule="evenodd" clip-rule="evenodd" d="M6.60562 21C6.60558 20.8859 6.60486 20.7684 6.60413 20.6486C6.59909 19.8232 6.59332 18.8778 6.8029 18.03C7.04293 17.0591 7.49572 16.1537 8.12852 15.3792C8.76132 14.6047 9.55832 13.9805 10.4619 13.5518C11.3655 13.123 12.353 12.9004 13.3531 12.9C14.3533 12.8997 15.341 13.1215 16.2449 13.5496C17.1488 13.9777 17.9462 14.6013 18.5796 15.3754C19.2129 16.1494 19.6664 17.0545 19.9071 18.0252C20.1173 18.8725 20.112 19.8215 20.1075 20.6476C20.1068 20.7679 20.1061 20.8856 20.1062 21H6.60562ZM18.7486 19.65C18.7352 19.1823 18.6956 18.768 18.5796 18.3C18.3954 17.5574 17.8898 16.6422 17.4053 16.05C16.9208 15.4579 16.2968 15.0275 15.6053 14.7C14.9138 14.3725 14.1204 14.2497 13.3553 14.25C12.5902 14.2503 11.7965 14.372 11.1053 14.7C10.4141 15.028 9.78941 15.4575 9.30531 16.05C8.82122 16.6425 8.31214 17.64 8.12852 18.3828C8.01503 18.8418 7.97566 19.2175 7.96215 19.65H18.7486Z" fill="#2F3441"/>
<path fill-rule="evenodd" clip-rule="evenodd" d="M13.1339 4.50957C12.481 3.59572 11.4114 3 10.2026 3C8.21441 3 6.60264 4.61177 6.60264 6.6C6.60264 8.58822 8.21441 10.2 10.2026 10.2C10.3075 10.2 10.4113 10.1955 10.5139 10.1867C10.4239 9.97458 10.3096 9.78949 10.197 9.60724C10.0441 9.35977 9.89441 9.11755 9.81357 8.81996C8.75446 8.63563 7.94922 7.71185 7.94922 6.6C7.94922 5.35547 8.95811 4.34658 10.2026 4.34658C10.8467 4.34658 11.4276 4.61678 11.8383 5.05001C12.2725 4.77037 12.665 4.6311 13.1339 4.50957ZM10.7009 11.1669C10.3869 11.1223 10.0694 11.0999 9.7506 11.1C8.75047 11.1004 7.76291 11.323 6.85935 11.7517C5.95578 12.1805 5.15878 12.8047 4.52598 13.5792C3.89318 14.3537 3.44039 15.2591 3.20036 16.23C2.99078 17.0777 2.99655 18.0232 3.00159 18.8485C3.00232 18.9683 3.00304 19.0859 3.00308 19.2H6.55122C6.53664 18.7902 6.5314 18.2977 6.55955 17.85H4.35961C4.37312 17.4175 4.41249 17.0418 4.52598 16.5827C4.70961 15.84 5.21868 14.8425 5.70278 14.25C6.18687 13.6575 6.81155 13.228 7.50278 12.9C8.194 12.572 8.98767 12.4503 9.75278 12.45C9.95108 12.4499 10.1513 12.4581 10.3511 12.476C10.5698 12.0876 10.7024 11.6602 10.7009 11.1669Z" fill="#2F3441"/>
</svg>
