<svg width="18" height="18" viewBox="0 0 18 18" fill="#22242A" xmlns="http://www.w3.org/2000/svg">
<mask id="path-1-inside-1" fill="white">
<path fill-rule="evenodd" clip-rule="evenodd" d="M13.0877 1.58734L13.8281 2.43125L16.2687 0.301783C14.404 -0.314272 12.3361 0.00500759 10.818 1.33206C9.75525 2.26112 9.14634 3.52522 9.00096 4.86133C8.68642 4.24471 8.23833 3.66174 7.664 3.16038C6.34283 2.00703 4.69189 1.57242 3.28564 1.86638L5.40275 3.71806L5.90619 3.14279L5.75572 4.02679L7.16689 5.26101L7.66963 4.68574L7.51986 5.56974L7.66332 5.69524C6.71468 5.17075 5.62091 4.92328 4.48594 5.04361C2.46938 5.2574 0.819141 6.57882 0 8.38971L3.24 8.04652L3.12188 6.91076L3.78 7.98956L5.94 7.761L5.82188 6.62524L6.48 7.70403L8.44981 7.49461C7.36592 10.4951 6.94745 13.7942 7.31513 17.1461C7.36912 17.6383 7.79228 18.0006 8.28748 18.0006H9.43928C10.1186 18.0006 10.6007 17.337 10.4378 16.6774C9.67438 13.5864 9.69477 10.3515 10.499 7.26811L11.7105 7.5435L12.4791 6.55894L12.2344 7.66236L14.3318 8.13354L15.1003 7.14898L14.8556 8.25239L18 8.96338C17.4002 7.0892 15.9286 5.59899 13.9711 5.15594C12.528 4.82932 11.0842 5.13103 9.88975 5.88807L9.88278 5.88646L11.3904 4.56775L11.0557 3.36518L11.7961 4.20909L13.4217 2.78991L13.0877 1.58734Z"/>
</mask>
<path fill-rule="evenodd" clip-rule="evenodd" d="M13.0877 1.58734L13.8281 2.43125L16.2687 0.301783C14.404 -0.314272 12.3361 0.00500759 10.818 1.33206C9.75525 2.26112 9.14634 3.52522 9.00096 4.86133C8.68642 4.24471 8.23833 3.66174 7.664 3.16038C6.34283 2.00703 4.69189 1.57242 3.28564 1.86638L5.40275 3.71806L5.90619 3.14279L5.75572 4.02679L7.16689 5.26101L7.66963 4.68574L7.51986 5.56974L7.66332 5.69524C6.71468 5.17075 5.62091 4.92328 4.48594 5.04361C2.46938 5.2574 0.819141 6.57882 0 8.38971L3.24 8.04652L3.12188 6.91076L3.78 7.98956L5.94 7.761L5.82188 6.62524L6.48 7.70403L8.44981 7.49461C7.36592 10.4951 6.94745 13.7942 7.31513 17.1461C7.36912 17.6383 7.79228 18.0006 8.28748 18.0006H9.43928C10.1186 18.0006 10.6007 17.337 10.4378 16.6774C9.67438 13.5864 9.69477 10.3515 10.499 7.26811L11.7105 7.5435L12.4791 6.55894L12.2344 7.66236L14.3318 8.13354L15.1003 7.14898L14.8556 8.25239L18 8.96338C17.4002 7.0892 15.9286 5.59899 13.9711 5.15594C12.528 4.82932 11.0842 5.13103 9.88975 5.88807L9.88278 5.88646L11.3904 4.56775L11.0557 3.36518L11.7961 4.20909L13.4217 2.78991L13.0877 1.58734Z" fill="white"/>
<path d="M13.8281 2.43125L12.3247 3.75025L13.6401 5.24958L15.143 3.93824L13.8281 2.43125ZM13.0877 1.58734L14.5911 0.268346L11.1607 2.12253L13.0877 1.58734ZM16.2687 0.301783L17.5836 1.80877L20.2262 -0.497043L16.8961 -1.59726L16.2687 0.301783ZM10.818 1.33206L9.50172 -0.173706V-0.173706L10.818 1.33206ZM9.00096 4.86133L7.21936 5.77012L10.2643 11.7395L10.9892 5.07767L9.00096 4.86133ZM7.664 3.16038L6.34873 4.66704L6.34873 4.66704L7.664 3.16038ZM3.28564 1.86638L2.87641 -0.0913047L-1.05174 0.729834L1.96895 3.37181L3.28564 1.86638ZM5.40275 3.71806L4.08606 5.22349L5.59106 6.5398L6.9078 5.03519L5.40275 3.71806ZM5.90619 3.14279L7.87783 3.4784L9.06658 -3.50541L4.40114 1.82567L5.90619 3.14279ZM5.75572 4.02679L3.78408 3.69119L3.59619 4.79506L4.43905 5.53224L5.75572 4.02679ZM7.16689 5.26101L5.85022 6.76646L7.35626 8.08365L8.67286 6.5771L7.16689 5.26101ZM7.66963 4.68574L9.64153 5.01982L10.8247 -1.96383L6.16367 3.36966L7.66963 4.68574ZM7.51986 5.56974L5.54796 5.23566L5.36112 6.3385L6.20297 7.075L7.51986 5.56974ZM7.66332 5.69524L6.6956 7.44553L8.98021 4.18998L7.66332 5.69524ZM4.48594 5.04361L4.69679 7.03246L4.69679 7.03246L4.48594 5.04361ZM0 8.38971L-1.82224 7.56544L-3.26109 10.7463L0.210667 10.3786L0 8.38971ZM3.24 8.04652L3.45067 10.0354L5.43577 9.82513L5.22927 7.83963L3.24 8.04652ZM3.12188 6.91076L4.82924 5.86917L1.13261 7.11765L3.12188 6.91076ZM3.78 7.98956L2.07263 9.03114L2.73179 10.1116L3.99045 9.97845L3.78 7.98956ZM5.94 7.761L6.15045 9.7499L8.13579 9.53982L7.92927 7.5541L5.94 7.761ZM5.82188 6.62524L7.52924 5.58365L3.83261 6.83213L5.82188 6.62524ZM6.48 7.70403L4.77263 8.74562L5.43216 9.82671L6.69144 9.69283L6.48 7.70403ZM8.44981 7.49461L10.3308 8.17411L11.4168 5.16791L8.23837 5.50582L8.44981 7.49461ZM7.31513 17.1461L5.32705 17.3642L7.31513 17.1461ZM10.4378 16.6774L12.3794 16.1979L12.3794 16.1979L10.4378 16.6774ZM10.499 7.26811L10.9423 5.31785L9.05274 4.88835L8.56371 6.76336L10.499 7.26811ZM11.7105 7.5435L11.2672 9.49376L12.5057 9.77526L13.2871 8.77412L11.7105 7.5435ZM12.4791 6.55894L14.4316 6.99193L10.9025 5.32833L12.4791 6.55894ZM12.2344 7.66236L10.2818 7.22936L9.85001 9.17656L11.796 9.61372L12.2344 7.66236ZM14.3318 8.13354L13.8934 10.0849L15.1291 10.3625L15.9084 9.36416L14.3318 8.13354ZM15.1003 7.14898L17.0529 7.58197L13.5237 5.91836L15.1003 7.14898ZM14.8556 8.25239L12.9031 7.8194L12.4719 9.76387L14.4145 10.2031L14.8556 8.25239ZM18 8.96338L17.5589 10.9141L20.9711 11.6857L19.9048 8.35381L18 8.96338ZM13.9711 5.15594L14.4126 3.20528L13.9711 5.15594ZM9.88975 5.88807L9.439 7.83661L10.2539 8.02513L10.9604 7.57735L9.88975 5.88807ZM9.88278 5.88646L8.56602 4.38109L5.62437 6.95419L9.43203 7.835L9.88278 5.88646ZM11.3904 4.56775L12.7071 6.07312L13.6547 5.2443L13.3171 4.03151L11.3904 4.56775ZM11.0557 3.36518L12.5591 2.04618L9.12891 3.90142L11.0557 3.36518ZM11.7961 4.20909L10.2927 5.52808L11.6084 7.02782L13.1114 5.71573L11.7961 4.20909ZM13.4217 2.78991L14.737 4.29656L15.6858 3.46826L15.3488 2.25472L13.4217 2.78991ZM15.3315 1.11226L14.5911 0.268346L11.5843 2.90634L12.3247 3.75025L15.3315 1.11226ZM14.9537 -1.20521L12.5132 0.92426L15.143 3.93824L17.5836 1.80877L14.9537 -1.20521ZM12.1343 2.83782C13.0697 2.02013 14.3829 1.78511 15.6412 2.20083L16.8961 -1.59726C14.425 -2.41365 11.6024 -2.01011 9.50172 -0.173706L12.1343 2.83782ZM10.9892 5.07767C11.0841 4.20612 11.4746 3.41455 12.1343 2.83782L9.50172 -0.173706C8.0359 1.10769 7.20863 2.84432 7.0127 4.64498L10.9892 5.07767ZM6.34873 4.66704C6.73296 5.00246 7.02195 5.38312 7.21936 5.77012L10.7826 3.95253C10.3509 3.10631 9.7437 2.32102 8.97928 1.65371L6.34873 4.66704ZM3.69488 3.82406C4.42073 3.67233 5.44615 3.87912 6.34873 4.66704L8.97928 1.65371C7.23951 0.134942 4.96306 -0.527497 2.87641 -0.0913047L3.69488 3.82406ZM6.71945 2.21263L4.60234 0.360948L1.96895 3.37181L4.08606 5.22349L6.71945 2.21263ZM4.40114 1.82567L3.8977 2.40093L6.9078 5.03519L7.41124 4.45992L4.40114 1.82567ZM7.72736 4.36239L7.87783 3.4784L3.93455 2.80719L3.78408 3.69119L7.72736 4.36239ZM8.48357 3.75556L7.0724 2.52134L4.43905 5.53224L5.85022 6.76646L8.48357 3.75556ZM6.16367 3.36966L5.66093 3.94493L8.67286 6.5771L9.17559 6.00183L6.16367 3.36966ZM9.49176 5.90382L9.64153 5.01982L5.69773 4.35167L5.54796 5.23566L9.49176 5.90382ZM8.98021 4.18998L8.83675 4.06448L6.20297 7.075L6.34642 7.2005L8.98021 4.18998ZM8.63103 3.94495C7.34253 3.23255 5.83939 2.88891 4.27508 3.05475L4.69679 7.03246C5.40242 6.95765 6.08682 7.10895 6.6956 7.44553L8.63103 3.94495ZM4.27508 3.05475C1.47962 3.35112 -0.742287 5.17795 -1.82224 7.56544L1.82224 9.21399C2.38057 7.97969 3.45913 7.16367 4.69679 7.03246L4.27508 3.05475ZM0.210667 10.3786L3.45067 10.0354L3.02933 6.05765L-0.210667 6.40084L0.210667 10.3786ZM5.22927 7.83963L5.11115 6.70386L1.13261 7.11765L1.25073 8.25342L5.22927 7.83963ZM1.41451 7.95234L2.07263 9.03114L5.48737 6.94797L4.82924 5.86917L1.41451 7.95234ZM3.99045 9.97845L6.15045 9.7499L5.72955 5.7721L3.56955 6.00066L3.99045 9.97845ZM7.92927 7.5541L7.81114 6.41834L3.83261 6.83213L3.95073 7.96789L7.92927 7.5541ZM4.11451 7.66682L4.77263 8.74562L8.18737 6.66245L7.52924 5.58365L4.11451 7.66682ZM6.69144 9.69283L8.66125 9.4834L8.23837 5.50582L6.26856 5.71524L6.69144 9.69283ZM9.3032 16.928C8.96901 13.8813 9.35005 10.8892 10.3308 8.17411L6.56877 6.81512C5.3818 10.101 4.92589 13.707 5.32705 17.3642L9.3032 16.928ZM8.28748 16.0006C8.76314 16.0006 9.24067 16.3579 9.3032 16.928L5.32705 17.3642C5.49758 18.9188 6.82141 20.0006 8.28748 20.0006V16.0006ZM9.43928 16.0006H8.28748V20.0006H9.43928V16.0006ZM8.49613 17.157C8.37266 16.657 8.71729 16.0006 9.43928 16.0006V20.0006C11.52 20.0006 12.8287 18.0169 12.3794 16.1979L8.49613 17.157ZM8.56371 6.76336C7.67538 10.1693 7.65286 13.7425 8.49613 17.157L12.3794 16.1979C11.6959 13.4302 11.7142 10.5337 12.4342 7.77285L8.56371 6.76336ZM12.1538 5.59325L10.9423 5.31785L10.0557 9.21836L11.2672 9.49376L12.1538 5.59325ZM10.9025 5.32833L10.134 6.31289L13.2871 8.77412L14.0556 7.78956L10.9025 5.32833ZM14.1869 8.09535L14.4316 6.99193L10.5265 6.12595L10.2818 7.22936L14.1869 8.09535ZM14.7702 6.18217L12.6727 5.71099L11.796 9.61372L13.8934 10.0849L14.7702 6.18217ZM13.5237 5.91836L12.7552 6.90292L15.9084 9.36416L16.6769 8.37959L13.5237 5.91836ZM16.8082 8.68538L17.0529 7.58197L13.1477 6.71599L12.9031 7.8194L16.8082 8.68538ZM18.4411 7.01263L15.2967 6.30164L14.4145 10.2031L17.5589 10.9141L18.4411 7.01263ZM13.5296 7.1066C14.7236 7.37686 15.6876 8.29935 16.0952 9.57296L19.9048 8.35381C19.1129 5.87906 17.1336 3.82113 14.4126 3.20528L13.5296 7.1066ZM10.9604 7.57735C11.7399 7.08333 12.6435 6.90606 13.5296 7.1066L14.4126 3.20528C12.4125 2.75259 10.4285 3.17873 8.81909 4.19879L10.9604 7.57735ZM9.43203 7.835L9.439 7.83661L10.3405 3.93953L10.3335 3.93791L9.43203 7.835ZM10.0736 3.06238L8.56602 4.38109L11.1995 7.39183L12.7071 6.07312L10.0736 3.06238ZM9.12891 3.90142L9.4636 5.10399L13.3171 4.03151L12.9825 2.82894L9.12891 3.90142ZM13.2995 2.89009L12.5591 2.04618L9.55227 4.68417L10.2927 5.52808L13.2995 2.89009ZM12.1064 1.28327L10.4808 2.70245L13.1114 5.71573L14.737 4.29656L12.1064 1.28327ZM11.1607 2.12253L11.4946 3.32511L15.3488 2.25472L15.0148 1.05215L11.1607 2.12253Z" fill="#0024A0" mask="url(#path-1-inside-1)"/>
</svg>
