<svg width="18" height="18" viewBox="0 0 18 18" fill="#D11F00" xmlns="http://www.w3.org/2000/svg">
<path d="M7.7087 10.5145L5.43398 6.72331C5.19103 6.31839 5.30894 5.79404 5.70184 5.5321C6.13181 5.24546 6.7149 5.38682 6.96586 5.83855L8.71425 8.98564C8.89062 9.30311 9.22524 9.5 9.5884 9.5H12.25C12.6642 9.5 13 9.83579 13 10.25C13 10.6642 12.6642 11 12.25 11H8.56619C8.21493 11 7.88942 10.8157 7.7087 10.5145Z" fill="#D11F00"/>
<path fill-rule="evenodd" clip-rule="evenodd" d="M18 9C18 13.9706 13.9706 18 9 18C4.02944 18 0 13.9706 0 9C0 4.02944 4.02944 0 9 0C13.9706 0 18 4.02944 18 9ZM16.5 9C16.5 12.866 12.866 16.5 9 16.5C5.13401 16.5 1.5 12.866 1.5 9C1.5 5.13401 5.13401 1.5 9 1.5C12.866 1.5 16.5 5.13401 16.5 9Z" fill="#D11F00"/>
</svg>
