<svg xmlns="http://www.w3.org/2000/svg" width="375" viewBox="0 0 375 375" height="375" version="1.0">
    <defs>
        <clipPath id="a">
        <path d="M 258 142.683594 L 311.984375 142.683594 L 311.984375 158 L 258 158 Z M 258 142.683594"/>
    </clipPath>
        <clipPath id="b">
            <path d="M 251.234375 142.683594 L 257 142.683594 L 257 207.183594 L 251.234375 207.183594 Z M 251.234375 142.683594"/>
        </clipPath>
        <clipPath id="c">
            <path d="M 258 161 L 311.984375 161 L 311.984375 177 L 258 177 Z M 258 161"/>
        </clipPath><clipPath id="d">
        <path d="M 259 179 L 311.984375 179 L 311.984375 207.183594 L 259 207.183594 Z M 259 179"/>
    </clipPath>
    </defs>
    <g clip-path="url(#a)">
        <path fill="#7ACBCD" d="M 258.984375 155.761719 L 258.984375 144.625 C 258.984375 143.640625 259.792969 142.835938 260.773438 142.835938 L 309.679688 142.835938 C 310.660156 142.835938 311.46875 143.640625 311.46875 144.625 L 311.46875 155.761719 C 311.46875 156.746094 310.660156 157.554688 309.679688 157.554688 L 260.773438 157.554688 C 259.792969 157.554688 258.984375 156.746094 258.984375 155.761719 Z M 258.984375 155.761719"/>
    </g>
    <g clip-path="url(#b)">
        <path fill="#FFF" d="M 255.40625 207.785156 L 252.109375 207.785156 C 251.546875 207.785156 251.125 207.328125 251.125 206.800781 L 251.125 143.816406 C 251.125 143.253906 251.582031 142.835938 252.109375 142.835938 L 255.40625 142.835938 C 255.96875 142.835938 256.390625 143.289062 256.390625 143.816406 L 256.390625 206.800781 C 256.390625 207.363281 255.933594 207.785156 255.40625 207.785156 Z M 255.40625 207.785156"/>
    </g>
    <g clip-path="url(#c)">
        <path fill="#FFF" d="M 258.984375 174.554688 L 258.984375 163.417969 C 258.984375 162.4375 259.792969 161.628906 260.773438 161.628906 L 309.679688 161.628906 C 310.660156 161.628906 311.46875 162.4375 311.46875 163.417969 L 311.46875 174.554688 C 311.46875 175.539062 310.660156 176.347656 309.679688 176.347656 L 260.773438 176.347656 C 259.792969 176.3125 258.984375 175.539062 258.984375 174.554688 Z M 258.984375 174.554688"/>
    </g>
    <g clip-path="url(#d)">
        <path fill="#FFF" d="M 262.210938 206.519531 L 259.089844 195.84375 C 258.808594 194.894531 259.335938 193.910156 260.28125 193.628906 L 307.1875 179.789062 C 308.136719 179.507812 309.117188 180.035156 309.398438 180.984375 L 312.554688 191.664062 C 312.835938 192.609375 312.3125 193.59375 311.363281 193.875 L 264.421875 207.714844 C 263.476562 207.996094 262.492188 207.46875 262.210938 206.519531 Z M 262.210938 206.519531"/></g><g fill="#FFF"><g><g><path d="M 30.890625 -24.0625 C 31.265625 -24.0625 31.554688 -23.941406 31.765625 -23.703125 C 31.972656 -23.472656 32.078125 -23.1875 32.078125 -22.84375 C 32.078125 -22.632812 32.03125 -22.410156 31.9375 -22.171875 L 24.859375 -0.84375 C 24.773438 -0.570312 24.617188 -0.363281 24.390625 -0.21875 C 24.171875 -0.0703125 23.898438 0 23.578125 0 C 23.285156 0 23.019531 -0.0703125 22.78125 -0.21875 C 22.550781 -0.363281 22.410156 -0.570312 22.359375 -0.84375 L 16.375 -19.453125 L 10.5625 -0.84375 C 10.351562 -0.28125 9.941406 0 9.328125 0 C 9.035156 0 8.78125 -0.0703125 8.5625 -0.21875 C 8.34375 -0.363281 8.1875 -0.570312 8.09375 -0.84375 L 0.96875 -22.171875 C 0.90625 -22.523438 0.875 -22.757812 0.875 -22.875 C 0.875 -23.664062 1.242188 -24.0625 1.984375 -24.0625 C 2.242188 -24.0625 2.484375 -23.992188 2.703125 -23.859375 C 2.921875 -23.734375 3.09375 -23.539062 3.21875 -23.28125 L 9.421875 -4.53125 L 15.140625 -23.015625 C 15.222656 -23.335938 15.378906 -23.59375 15.609375 -23.78125 C 15.847656 -23.96875 16.128906 -24.0625 16.453125 -24.0625 C 17.097656 -24.0625 17.539062 -23.710938 17.78125 -23.015625 L 23.546875 -4.890625 L 29.65625 -23.28125 C 29.894531 -23.800781 30.304688 -24.0625 30.890625 -24.0625 Z M 30.890625 -24.0625" transform="translate(81.6 183.287)"/></g></g></g><g fill="#FFF"><g><g><path d="M 14.953125 -24.328125 C 17.242188 -24.328125 19.328125 -23.789062 21.203125 -22.71875 C 23.085938 -21.65625 24.5625 -20.179688 25.625 -18.296875 C 26.695312 -16.421875 27.234375 -14.328125 27.234375 -12.015625 L 27.234375 -1.3125 C 27.234375 -0.9375 27.113281 -0.625 26.875 -0.375 C 26.644531 -0.125 26.328125 0 25.921875 0 C 25.535156 0 25.21875 -0.125 24.96875 -0.375 C 24.71875 -0.625 24.59375 -0.9375 24.59375 -1.3125 L 24.59375 -4.75 C 23.625 -3.195312 22.296875 -1.972656 20.609375 -1.078125 C 18.921875 -0.179688 17.035156 0.265625 14.953125 0.265625 C 12.640625 0.265625 10.546875 -0.269531 8.671875 -1.34375 C 6.796875 -2.414062 5.320312 -3.890625 4.25 -5.765625 C 3.175781 -7.640625 2.640625 -9.722656 2.640625 -12.015625 C 2.640625 -14.328125 3.175781 -16.421875 4.25 -18.296875 C 5.320312 -20.179688 6.796875 -21.65625 8.671875 -22.71875 C 10.546875 -23.789062 12.640625 -24.328125 14.953125 -24.328125 Z M 14.953125 -2.203125 C 16.773438 -2.203125 18.421875 -2.625 19.890625 -3.46875 C 21.359375 -4.320312 22.507812 -5.492188 23.34375 -6.984375 C 24.175781 -8.484375 24.59375 -10.160156 24.59375 -12.015625 C 24.59375 -13.859375 24.175781 -15.523438 23.34375 -17.015625 C 22.507812 -18.515625 21.359375 -19.695312 19.890625 -20.5625 C 18.421875 -21.4375 16.773438 -21.875 14.953125 -21.875 C 13.140625 -21.875 11.5 -21.4375 10.03125 -20.5625 C 8.5625 -19.695312 7.398438 -18.515625 6.546875 -17.015625 C 5.703125 -15.523438 5.28125 -13.859375 5.28125 -12.015625 C 5.28125 -10.160156 5.703125 -8.484375 6.546875 -6.984375 C 7.398438 -5.492188 8.5625 -4.320312 10.03125 -3.46875 C 11.5 -2.625 13.140625 -2.203125 14.953125 -2.203125 Z M 14.953125 -2.203125" transform="translate(114.55 183.287)"/></g></g></g><g fill="#FFF"><g><g><path d="M 8.796875 0 C 7.128906 0 5.757812 -0.671875 4.6875 -2.015625 C 3.613281 -3.367188 3.078125 -5.117188 3.078125 -7.265625 L 3.078125 -33.046875 C 3.078125 -33.453125 3.203125 -33.769531 3.453125 -34 C 3.703125 -34.238281 4.019531 -34.359375 4.40625 -34.359375 C 4.8125 -34.359375 5.128906 -34.238281 5.359375 -34 C 5.597656 -33.769531 5.71875 -33.453125 5.71875 -33.046875 L 5.71875 -7.265625 C 5.71875 -5.910156 6.003906 -4.800781 6.578125 -3.9375 C 7.148438 -3.070312 7.890625 -2.640625 8.796875 -2.640625 L 9.90625 -2.640625 C 10.226562 -2.640625 10.488281 -2.519531 10.6875 -2.28125 C 10.894531 -2.050781 11 -1.726562 11 -1.3125 C 11 -0.9375 10.878906 -0.625 10.640625 -0.375 C 10.410156 -0.125 10.09375 0 9.6875 0 Z M 8.796875 0" transform="translate(144.42 183.287)"/></g></g></g><g fill="#FFF"><g><g><path d="M 8.796875 0 C 7.128906 0 5.757812 -0.671875 4.6875 -2.015625 C 3.613281 -3.367188 3.078125 -5.117188 3.078125 -7.265625 L 3.078125 -33.046875 C 3.078125 -33.453125 3.203125 -33.769531 3.453125 -34 C 3.703125 -34.238281 4.019531 -34.359375 4.40625 -34.359375 C 4.8125 -34.359375 5.128906 -34.238281 5.359375 -34 C 5.597656 -33.769531 5.71875 -33.453125 5.71875 -33.046875 L 5.71875 -7.265625 C 5.71875 -5.910156 6.003906 -4.800781 6.578125 -3.9375 C 7.148438 -3.070312 7.890625 -2.640625 8.796875 -2.640625 L 9.90625 -2.640625 C 10.226562 -2.640625 10.488281 -2.519531 10.6875 -2.28125 C 10.894531 -2.050781 11 -1.726562 11 -1.3125 C 11 -0.9375 10.878906 -0.625 10.640625 -0.375 C 10.410156 -0.125 10.09375 0 9.6875 0 Z M 8.796875 0" transform="translate(156.298 183.287)"/></g></g></g><g fill="#FFF"><g><g><path d="M 6.15625 0 C 5.78125 0 5.46875 -0.125 5.21875 -0.375 C 4.96875 -0.625 4.84375 -0.9375 4.84375 -1.3125 L 4.84375 -22.75 C 4.84375 -23.15625 4.96875 -23.472656 5.21875 -23.703125 C 5.46875 -23.941406 5.78125 -24.0625 6.15625 -24.0625 C 6.570312 -24.0625 6.894531 -23.941406 7.125 -23.703125 C 7.363281 -23.472656 7.484375 -23.15625 7.484375 -22.75 L 7.484375 -1.3125 C 7.484375 -0.9375 7.363281 -0.625 7.125 -0.375 C 6.894531 -0.125 6.570312 0 6.15625 0 Z M 6.109375 -29.125 C 5.523438 -29.125 5.039062 -29.320312 4.65625 -29.71875 C 4.269531 -30.113281 4.078125 -30.609375 4.078125 -31.203125 C 4.078125 -31.835938 4.28125 -32.332031 4.6875 -32.6875 C 5.101562 -33.039062 5.59375 -33.21875 6.15625 -33.21875 C 6.707031 -33.21875 7.179688 -33.039062 7.578125 -32.6875 C 7.972656 -32.332031 8.171875 -31.835938 8.171875 -31.203125 C 8.171875 -30.609375 7.972656 -30.113281 7.578125 -29.71875 C 7.179688 -29.320312 6.691406 -29.125 6.109375 -29.125 Z M 6.109375 -29.125" transform="translate(168.176 183.287)"/></g></g></g><g fill="#FFF"><g><g><path d="M 14.953125 -24.375 C 17.097656 -24.375 19.015625 -23.929688 20.703125 -23.046875 C 22.390625 -22.171875 23.707031 -20.890625 24.65625 -19.203125 C 25.613281 -17.515625 26.09375 -15.5 26.09375 -13.15625 L 26.09375 -1.3125 C 26.09375 -0.9375 25.96875 -0.625 25.71875 -0.375 C 25.46875 -0.125 25.148438 0 24.765625 0 C 24.390625 0 24.078125 -0.125 23.828125 -0.375 C 23.578125 -0.625 23.453125 -0.9375 23.453125 -1.3125 L 23.453125 -13.15625 C 23.453125 -15.945312 22.664062 -18.070312 21.09375 -19.53125 C 19.53125 -21 17.484375 -21.734375 14.953125 -21.734375 C 13.398438 -21.734375 11.984375 -21.429688 10.703125 -20.828125 C 9.429688 -20.234375 8.425781 -19.398438 7.6875 -18.328125 C 6.957031 -17.253906 6.59375 -16.070312 6.59375 -14.78125 L 6.59375 -1.3125 C 6.59375 -0.9375 6.472656 -0.625 6.234375 -0.375 C 6.003906 -0.125 5.6875 0 5.28125 0 C 4.894531 0 4.578125 -0.125 4.328125 -0.375 C 4.078125 -0.625 3.953125 -0.9375 3.953125 -1.3125 L 3.953125 -22.75 C 3.953125 -23.15625 4.078125 -23.472656 4.328125 -23.703125 C 4.578125 -23.941406 4.894531 -24.0625 5.28125 -24.0625 C 5.6875 -24.0625 6.003906 -23.941406 6.234375 -23.703125 C 6.472656 -23.472656 6.59375 -23.15625 6.59375 -22.75 L 6.59375 -20.453125 C 7.59375 -21.691406 8.8125 -22.65625 10.25 -23.34375 C 11.6875 -24.03125 13.253906 -24.375 14.953125 -24.375 Z M 14.953125 -24.375" transform="translate(180.494 183.287)"/></g></g></g><g fill="#FFF"><g><g><path d="M 22.125 -1.9375 C 22.332031 -1.695312 22.4375 -1.429688 22.4375 -1.140625 C 22.4375 -0.816406 22.273438 -0.507812 21.953125 -0.21875 C 21.660156 0.0078125 21.394531 0.125 21.15625 0.125 C 20.8125 0.125 20.503906 -0.046875 20.234375 -0.390625 L 10.6875 -12.0625 L 6.59375 -8.3125 L 6.59375 -1.3125 C 6.59375 -0.9375 6.472656 -0.625 6.234375 -0.375 C 6.003906 -0.125 5.6875 0 5.28125 0 C 4.894531 0 4.578125 -0.125 4.328125 -0.375 C 4.078125 -0.625 3.953125 -0.9375 3.953125 -1.3125 L 3.953125 -33.046875 C 3.953125 -33.453125 4.078125 -33.769531 4.328125 -34 C 4.578125 -34.238281 4.894531 -34.359375 5.28125 -34.359375 C 5.6875 -34.359375 6.003906 -34.238281 6.234375 -34 C 6.472656 -33.769531 6.59375 -33.453125 6.59375 -33.046875 L 6.59375 -11.53125 L 20.234375 -23.9375 C 20.535156 -24.164062 20.816406 -24.28125 21.078125 -24.28125 C 21.367188 -24.28125 21.644531 -24.132812 21.90625 -23.84375 C 22.175781 -23.582031 22.3125 -23.304688 22.3125 -23.015625 C 22.3125 -22.722656 22.164062 -22.441406 21.875 -22.171875 L 12.546875 -13.6875 Z M 22.125 -1.9375" transform="translate(210.1 183.287)"/></g></g></g></svg>
