<svg width="15" height="8" viewBox="0 0 15 8" fill="#22242A" xmlns="http://www.w3.org/2000/svg">
<path d="M1.67828 0.265196C1.27246 -0.109407 0.6398 -0.0841007 0.265196 0.32172C-0.109407 0.727541 -0.0841011 1.3602 0.32172 1.7348L1.67828 0.265196ZM7.5 7L6.82172 7.7348C7.20478 8.0884 7.79522 8.0884 8.17828 7.7348L7.5 7ZM14.6783 1.7348C15.0841 1.3602 15.1094 0.72754 14.7348 0.321719C14.3602 -0.0841013 13.7275 -0.109408 13.3217 0.265196L14.6783 1.7348ZM0.32172 1.7348L6.82172 7.7348L8.17828 6.2652L1.67828 0.265196L0.32172 1.7348ZM8.17828 7.7348L14.6783 1.7348L13.3217 0.265196L6.82172 6.2652L8.17828 7.7348Z" />
</svg>
