<svg width="30" height="30" viewBox="0 0 30 30" fill="none" xmlns="http://www.w3.org/2000/svg">
<path fill-rule="evenodd" clip-rule="evenodd" d="M30 15C30 6.71573 23.2843 -5.87108e-07 15 -1.31134e-06C6.71573 -1.28227e-07 2.03558e-06 6.71573 1.31134e-06 15C2.49446e-06 23.2843 6.71573 30 15 30C23.2843 30 30 23.2843 30 15ZM11.3562 22.3235C11.5728 22.5568 11.8562 22.6735 12.1561 22.6735C12.4228 22.6735 12.6728 22.5901 12.8895 22.3901L19.6228 15.8507C20.1395 15.384 20.1395 14.584 19.6228 14.1174L12.8561 7.6068C12.4061 7.2068 11.7228 7.24013 11.3228 7.67346C10.9228 8.12346 10.9395 8.8068 11.3895 9.2068L17.3456 14.9959L11.4228 20.7901C10.9895 21.1901 10.9562 21.8735 11.3562 22.3235Z" fill="white"/>
</svg>
