<svg width="24" height="24" viewBox="0 0 24 24" fill="#22242A" xmlns="http://www.w3.org/2000/svg">
<path d="M11.5424 18.1482C11.4124 18.2882 11.2424 18.3582 11.0624 18.3582C10.9024 18.3582 10.7524 18.3082 10.6224 18.1882L4.5824 12.6982C4.2724 12.4182 4.2724 11.9382 4.5824 11.6582L10.6224 6.16817C10.8924 5.92817 11.3024 5.94817 11.5424 6.20817C11.7824 6.47817 11.7724 6.88817 11.5024 7.12817L6.66676 11.5282H17.5624C17.9214 11.5282 18.2124 11.8192 18.2124 12.1782C18.2124 12.5372 17.9214 12.8282 17.5624 12.8282H6.66676L11.5024 17.2282C11.7624 17.4682 11.7824 17.8782 11.5424 18.1482Z" fill="#0062FF"/>
</svg>
