<svg width="18" height="12" viewBox="0 0 18 12" fill="#22242A" xmlns="http://www.w3.org/2000/svg">
    <path d="M17 6.9232C17.5523 6.9232 18 6.47548 18 5.9232C18 5.37091 17.5523 4.9232 17 4.9232V6.9232ZM1 5.9232L0.312989 5.19655C0.113202 5.38544 0 5.64826 0 5.9232C0 6.19814 0.113202 6.46096 0.312989 6.64985L1 5.9232ZM6.89411 1.72677C7.29543 1.34734 7.31317 0.714427 6.93375 0.313111C6.55432 -0.0882052 5.92141 -0.10595 5.52009 0.273475L6.89411 1.72677ZM5.52009 11.5729C5.92141 11.9523 6.55432 11.9346 6.93375 11.5333C7.31317 11.132 7.29543 10.4991 6.89411 10.1196L5.52009 11.5729ZM17 4.9232H1V6.9232H17V4.9232ZM1.68701 6.64985L6.89411 1.72677L5.52009 0.273475L0.312989 5.19655L1.68701 6.64985ZM0.312989 6.64985L5.52009 11.5729L6.89411 10.1196L1.68701 5.19655L0.312989 6.64985Z" fill="#ACB6C3"/>
</svg>
