<svg width="24" height="24" viewBox="0 0 24 24" fill="#0062FF" xmlns="http://www.w3.org/2000/svg">
<path d="M12.4571 5.85183C12.5871 5.71183 12.7571 5.64183 12.9371 5.64183C13.0971 5.64183 13.2471 5.69183 13.3771 5.81183L19.4171 11.3018C19.7271 11.5818 19.7271 12.0618 19.4171 12.3418L13.3771 17.8318C13.1071 18.0718 12.6971 18.0518 12.4571 17.7918C12.2171 17.5218 12.2271 17.1118 12.4971 16.8718L17.3328 12.4718L6.43711 12.4718C6.07812 12.4718 5.78711 12.1808 5.78711 11.8218C5.78711 11.4628 6.07813 11.1718 6.43711 11.1718L17.3328 11.1718L12.4971 6.77183C12.2371 6.53183 12.2171 6.12183 12.4571 5.85183Z" fill="#0062FF"/>
</svg>
