<svg width="12" height="18" viewBox="0 0 12 18" fill="#22242A" xmlns="http://www.w3.org/2000/svg">
    <path d="M4.99977 17C4.99977 17.5523 5.44749 18 5.99977 18C6.55206 18 6.99977 17.5523 6.99977 17L4.99977 17ZM5.99977 1L6.72642 0.312988C6.53753 0.113202 6.27472 -2.03176e-07 5.99977 -2.15195e-07C5.72483 -2.27213e-07 5.46202 0.113202 5.27313 0.312988L5.99977 1ZM10.1962 6.89411C10.5756 7.29543 11.2085 7.31317 11.6099 6.93375C12.0112 6.55432 12.0289 5.92141 11.6495 5.52009L10.1962 6.89411ZM0.350052 5.52009C-0.0293743 5.9214 -0.0116293 6.55432 0.389686 6.93375C0.791003 7.31317 1.42392 7.29543 1.80334 6.89411L0.350052 5.52009ZM6.99977 17L6.99977 1L4.99977 1L4.99977 17L6.99977 17ZM5.27313 1.68701L10.1962 6.89411L11.6495 5.52009L6.72642 0.312988L5.27313 1.68701ZM5.27313 0.312988L0.350052 5.52009L1.80334 6.89411L6.72642 1.68701L5.27313 0.312988Z" fill="#ACB6C3"/>
</svg>
