<svg width="16" height="18" viewBox="0 0 16 18" fill="#0062FF" xmlns="http://www.w3.org/2000/svg">
<path d="M5.52313 2.73955H4.68581L6.5 0L8.32195 2.74236H7.46912V5.47138C7.46912 5.47138 7.15607 5.73463 6.97293 5.92669C6.77239 6.137 6.5 6.50547 6.5 6.50547C6.5 6.50547 6.22865 6.1672 6.03482 5.94212C5.841 5.71704 5.52313 5.47138 5.52313 5.47138V2.73955Z" fill="#0062FF"/>
<path d="M1.79093 8.50247L2.11656 7.7462C2.11656 7.7462 2.72129 7.86967 3.59738 8.63365C4.47346 9.39764 4.69054 10.6015 4.69054 10.6015C4.69054 10.6015 4.86002 9.70442 5.07819 9.16613C5.25857 8.72109 5.65191 8.07803 5.65191 8.07803C5.65191 8.07803 4.98053 7.22418 4.4347 6.80472C3.88977 6.38595 2.89186 5.95584 2.89186 5.95584L3.20973 5.21501L0 5.79378L1.79093 8.50247Z" fill="#0062FF"/>
<path d="M6.20065 14H8.13889C8.13889 14 7.92956 12.1633 8.5498 10.5505C9.17003 8.93762 10.8834 8.41286 10.8834 8.41286L11.2091 9.16913L13 6.46817L9.80578 5.88939L10.1159 6.62251C10.1159 6.62251 8.65772 7.20601 7.9063 8.06559C7.08396 9.00631 6.62081 9.89262 6.33245 11.1061C6.07641 12.1836 6.20065 14 6.20065 14Z" fill="#0062FF"/>
<path d="M10.0708 12.0719C10.1655 11.9765 10.4051 11.9046 10.4998 12.0001L12.4998 14.0003L14.4685 12.0719C14.5632 11.9765 14.834 11.9765 14.9287 12.0719C15.0235 12.1673 15.0947 12.4046 15 12.5L13 14.5L15 16.5C15.0947 16.5954 14.986 16.8333 14.8913 16.9288C14.7965 17.0242 14.5947 17.0954 14.5 17L12.5 15L10.5 17C10.4053 17.0954 10.203 17.0242 10.1083 16.9288C10.0136 16.8333 9.90529 16.5954 10 16.5L12 14.5L9.99981 12.5C9.9051 12.4046 9.9761 12.1673 10.0708 12.0719Z" fill="#0062FF"/>
</svg>
