<svg width="24" height="24" fill="#22242A" viewBox="0 0 24 24" xmlns="http://www.w3.org/2000/svg">
<path fill-rule="evenodd" clip-rule="evenodd" d="M19 21H5C4.46957 21 3.96089 20.7893 3.58582 20.4142C3.21074 20.0391 3 19.5304 3 19V7C3 6.46957 3.21074 5.96089 3.58582 5.58582C3.96089 5.21074 4.46957 5 5 5H7V4C7 3.73478 7.10537 3.48044 7.29291 3.29291C7.48044 3.10537 7.73478 3 8 3C8.26522 3 8.51956 3.10537 8.70709 3.29291C8.89463 3.48044 9 3.73478 9 4V5H15V4C15 3.73478 15.1054 3.48044 15.2929 3.29291C15.4804 3.10537 15.7348 3 16 3C16.2652 3 16.5196 3.10537 16.7071 3.29291C16.8946 3.48044 17 3.73478 17 4V5H19C19.5304 5 20.0391 5.21074 20.4142 5.58582C20.7893 5.96089 21 6.46957 21 7V19C21 19.5304 20.7893 20.0391 20.4142 20.4142C20.0391 20.7893 19.5304 21 19 21ZM19 7H5V19H19V7ZM9 9C9.19778 9 9.39109 9.05864 9.55554 9.16852C9.71999 9.2784 9.8482 9.43458 9.92389 9.61731C9.99958 9.80004 10.0194 10.0011 9.98077 10.1951C9.94219 10.389 9.84694 10.5672 9.70709 10.7071C9.56724 10.8469 9.38905 10.9422 9.19507 10.9808C9.00109 11.0194 8.80004 10.9996 8.61731 10.9239C8.43458 10.8482 8.2784 10.72 8.16852 10.5555C8.05864 10.3911 8 10.1978 8 10C8 9.73478 8.10537 9.48044 8.29291 9.29291C8.48044 9.10537 8.73478 9 9 9ZM9 12C9.19778 12 9.39109 12.0586 9.55554 12.1685C9.71999 12.2784 9.8482 12.4346 9.92389 12.6173C9.99958 12.8 10.0194 13.0011 9.98077 13.1951C9.94219 13.389 9.84694 13.5672 9.70709 13.7071C9.56724 13.8469 9.38905 13.9422 9.19507 13.9808C9.00109 14.0194 8.80004 13.9996 8.61731 13.9239C8.43458 13.8482 8.2784 13.72 8.16852 13.5555C8.05864 13.3911 8 13.1978 8 13C8 12.7348 8.10537 12.4804 8.29291 12.2929C8.48044 12.1054 8.73478 12 9 12ZM9 15C9.19778 15 9.39109 15.0586 9.55554 15.1685C9.71999 15.2784 9.8482 15.4346 9.92389 15.6173C9.99958 15.8 10.0194 16.0011 9.98077 16.1951C9.94219 16.389 9.84694 16.5672 9.70709 16.7071C9.56724 16.8469 9.38905 16.9422 9.19507 16.9808C9.00109 17.0194 8.80004 16.9996 8.61731 16.9239C8.43458 16.8482 8.2784 16.72 8.16852 16.5555C8.05864 16.3911 8 16.1978 8 16C8 15.7348 8.10537 15.4804 8.29291 15.2929C8.48044 15.1054 8.73478 15 9 15ZM12 9C12.1978 9 12.3911 9.05864 12.5555 9.16852C12.72 9.2784 12.8482 9.43458 12.9239 9.61731C12.9996 9.80004 13.0194 10.0011 12.9808 10.1951C12.9422 10.389 12.8469 10.5672 12.7071 10.7071C12.5672 10.8469 12.389 10.9422 12.1951 10.9808C12.0011 11.0194 11.8 10.9996 11.6173 10.9239C11.4346 10.8482 11.2784 10.72 11.1685 10.5555C11.0586 10.3911 11 10.1978 11 10C11 9.73478 11.1054 9.48044 11.2929 9.29291C11.4804 9.10537 11.7348 9 12 9ZM12 12C12.1978 12 12.3911 12.0586 12.5555 12.1685C12.72 12.2784 12.8482 12.4346 12.9239 12.6173C12.9996 12.8 13.0194 13.0011 12.9808 13.1951C12.9422 13.389 12.8469 13.5672 12.7071 13.7071C12.5672 13.8469 12.389 13.9422 12.1951 13.9808C12.0011 14.0194 11.8 13.9996 11.6173 13.9239C11.4346 13.8482 11.2784 13.72 11.1685 13.5555C11.0586 13.3911 11 13.1978 11 13C11 12.7348 11.1054 12.4804 11.2929 12.2929C11.4804 12.1054 11.7348 12 12 12ZM12 15C12.1978 15 12.3911 15.0586 12.5555 15.1685C12.72 15.2784 12.8482 15.4346 12.9239 15.6173C12.9996 15.8 13.0194 16.0011 12.9808 16.1951C12.9422 16.389 12.8469 16.5672 12.7071 16.7071C12.5672 16.8469 12.389 16.9422 12.1951 16.9808C12.0011 17.0194 11.8 16.9996 11.6173 16.9239C11.4346 16.8482 11.2784 16.72 11.1685 16.5555C11.0586 16.3911 11 16.1978 11 16C11 15.7348 11.1054 15.4804 11.2929 15.2929C11.4804 15.1054 11.7348 15 12 15ZM15 9C15.1978 9 15.3911 9.05864 15.5555 9.16852C15.72 9.2784 15.8482 9.43458 15.9239 9.61731C15.9996 9.80004 16.0194 10.0011 15.9808 10.1951C15.9422 10.389 15.8469 10.5672 15.7071 10.7071C15.5672 10.8469 15.389 10.9422 15.1951 10.9808C15.0011 11.0194 14.8 10.9996 14.6173 10.9239C14.4346 10.8482 14.2784 10.72 14.1685 10.5555C14.0586 10.3911 14 10.1978 14 10C14 9.73478 14.1054 9.48044 14.2929 9.29291C14.4804 9.10537 14.7348 9 15 9ZM15 12C15.1978 12 15.3911 12.0586 15.5555 12.1685C15.72 12.2784 15.8482 12.4346 15.9239 12.6173C15.9996 12.8 16.0194 13.0011 15.9808 13.1951C15.9422 13.389 15.8469 13.5672 15.7071 13.7071C15.5672 13.8469 15.389 13.9422 15.1951 13.9808C15.0011 14.0194 14.8 13.9996 14.6173 13.9239C14.4346 13.8482 14.2784 13.72 14.1685 13.5555C14.0586 13.3911 14 13.1978 14 13C14 12.7348 14.1054 12.4804 14.2929 12.2929C14.4804 12.1054 14.7348 12 15 12ZM15 15C15.1978 15 15.3911 15.0586 15.5555 15.1685C15.72 15.2784 15.8482 15.4346 15.9239 15.6173C15.9996 15.8 16.0194 16.0011 15.9808 16.1951C15.9422 16.389 15.8469 16.5672 15.7071 16.7071C15.5672 16.8469 15.389 16.9422 15.1951 16.9808C15.0011 17.0194 14.8 16.9996 14.6173 16.9239C14.4346 16.8482 14.2784 16.72 14.1685 16.5555C14.0586 16.3911 14 16.1978 14 16C14 15.7348 14.1054 15.4804 14.2929 15.2929C14.4804 15.1054 14.7348 15 15 15Z" />
</svg>
