<svg width="16" height="16" fill="#22242A" viewBox="0 0 16 16" xmlns="http://www.w3.org/2000/svg">
<path d="M8 2.90909C8.40166 2.90909 8.72727 3.2347 8.72727 3.63636V8H11.6364C12.038 8 12.3636 8.32561 12.3636 8.72727C12.3636 9.12893 12.038 9.45455 11.6364 9.45455H7.27273V3.63636C7.27273 3.2347 7.59834 2.90909 8 2.90909Z" />
<path fill-rule="evenodd" clip-rule="evenodd" d="M16 8C16 12.4183 12.4183 16 8 16C3.58172 16 0 12.4183 0 8C0 3.58172 3.58172 0 8 0C12.4183 0 16 3.58172 16 8ZM14.5455 8C14.5455 11.615 11.615 14.5455 8 14.5455C4.38505 14.5455 1.45455 11.615 1.45455 8C1.45455 4.38505 4.38505 1.45455 8 1.45455C11.615 1.45455 14.5455 4.38505 14.5455 8Z" />
</svg>
