<svg width="17" height="18" viewBox="0 0 17 18" fill="#D11F00" xmlns="http://www.w3.org/2000/svg">
<path fill-rule="evenodd" clip-rule="evenodd" d="M15.4286 10.2857C15.4286 14.5462 11.9748 18 7.71429 18C3.4538 18 0 14.5462 0 10.2857C0 6.02523 3.4538 2.57143 7.71429 2.57143C11.9748 2.57143 15.4286 6.02523 15.4286 10.2857ZM14.1429 10.2857C14.1429 13.5994 11.028 16.7143 7.71429 16.7143C4.40058 16.7143 1.28571 13.5994 1.28571 10.2857C1.28571 6.97201 4.40058 3.85714 7.71429 3.85714C11.028 3.85714 14.1429 6.97201 14.1429 10.2857Z" fill="#D11F00"/>
<path d="M6 0.642857C6 0.287817 6.28782 0 6.64286 0H9.64286C9.9979 0 10.2857 0.287817 10.2857 0.642857C10.2857 0.997897 9.9979 1.28571 9.64286 1.28571H6.64286C6.28782 1.28571 6 0.997897 6 0.642857Z" fill="#D11F00"/>
<path d="M7.71429 5.14286C7.95098 5.14286 8.14286 5.33473 8.14286 5.57143V12.8571C8.14286 13.0938 7.95098 13.2857 7.71429 13.2857C7.47759 13.2857 7.28572 13.0938 7.28572 12.8571L7.28571 5.57143C7.28571 5.33474 7.47759 5.14286 7.71429 5.14286Z" fill="#D11F00"/>
<path d="M14.6804 3.00294C14.4563 2.72754 14.0514 2.68592 13.776 2.90999C13.5006 3.13406 13.459 3.53896 13.6831 3.81436L14.0888 4.31305L13.834 4.52038C13.7911 4.55524 13.7847 4.61822 13.8195 4.66106L14.5047 5.50325C14.5396 5.54609 14.6026 5.55256 14.6454 5.51771L14.9002 5.31038L15.3059 5.80901C15.53 6.08442 15.9349 6.12603 16.2103 5.90197C16.4857 5.6779 16.5273 5.273 16.3032 4.99759L14.6804 3.00294Z" fill="#D11F00"/>
<path d="M9.65847 7.48411C9.5283 7.40896 9.36182 7.45357 9.28666 7.58374C9.21158 7.71379 9.25612 7.88039 9.38629 7.95554C10.9833 8.87759 11.5325 10.9273 10.6104 12.5244C9.68823 14.1217 7.63856 14.6709 6.04152 13.7488C4.44402 12.8265 3.89492 10.7769 4.82251 9.16976C4.82592 9.16306 5.09459 8.65694 5.52058 8.2559L5.42721 8.91989C5.40639 9.06857 5.51018 9.20575 5.65876 9.22729C5.80768 9.24824 5.94528 9.14453 5.96623 8.99561L6.14785 7.70415C6.1491 7.69528 6.14746 7.68659 6.14798 7.67791C6.14795 7.6734 6.15046 7.66959 6.15043 7.66508C6.15044 7.6589 6.14831 7.65348 6.14807 7.64746C6.14706 7.63527 6.14555 7.6234 6.14314 7.61148C6.14051 7.59913 6.13732 7.58723 6.1331 7.5755C6.12936 7.56482 6.12491 7.55482 6.11987 7.54479C6.11413 7.53327 6.10763 7.52255 6.10016 7.51189C6.09391 7.50287 6.08733 7.49442 6.0799 7.48611C6.07113 7.47609 6.06144 7.4674 6.0512 7.45885C6.04612 7.45452 6.0423 7.44907 6.03683 7.44514C6.03331 7.44264 6.02906 7.44143 6.0253 7.4391C6.02137 7.43652 6.01816 7.43296 6.01398 7.43055C6.00678 7.42639 5.99826 7.42426 5.99054 7.42073C5.98071 7.4163 5.97114 7.4117 5.96094 7.40844C5.94822 7.4042 5.93542 7.40223 5.9221 7.40011C5.91128 7.3982 5.90076 7.3963 5.88973 7.39582C5.88536 7.39562 5.88131 7.39405 5.87704 7.39422L4.45587 7.39998C4.30578 7.40064 4.1846 7.52312 4.18508 7.67326C4.18567 7.82347 4.30861 7.94492 4.45852 7.94431L5.06478 7.94165C4.62187 8.38727 4.35773 8.88393 4.34582 8.90724C3.27353 10.7645 3.91211 13.1477 5.76948 14.22C7.62638 15.2921 10.0097 14.6536 11.082 12.7964C12.1541 10.9393 11.5154 8.5562 9.65847 7.48411Z" fill="#D11F00"/>
<path d="M9.42857 10.2857C9.42857 11.2325 8.66106 12 7.71429 12C6.76751 12 6 11.2325 6 10.2857C6 9.33894 6.76751 8.57143 7.71429 8.57143C8.66106 8.57143 9.42857 9.33894 9.42857 10.2857ZM6.52542 10.2857C6.52542 10.9423 7.05769 11.4746 7.71429 11.4746C8.37088 11.4746 8.90316 10.9423 8.90316 10.2857C8.90316 9.62912 8.37088 9.09684 7.71429 9.09684C7.05769 9.09684 6.52542 9.62912 6.52542 10.2857Z" fill="#D11F00"/>
<path d="M9 10.2857C9 10.9958 8.42437 11.5714 7.71429 11.5714C7.0042 11.5714 6.42857 10.9958 6.42857 10.2857C6.42857 9.57563 7.0042 9 7.71429 9C8.42437 9 9 9.57563 9 10.2857Z" fill="#D11F00"/>
</svg>
