<svg width="12" height="18" viewBox="0 0 12 18" fill="#22242A" xmlns="http://www.w3.org/2000/svg">
<path fill-rule="evenodd" clip-rule="evenodd" d="M6.47946 16.7449C7.04476 15.8126 7.76641 14.6224 8.44402 13.3448C10.0077 10.5517 11.5714 7.24138 11.4672 5.68966C11.4672 2.58621 8.96525 0 5.73359 0C2.60618 0 0 2.58621 0 5.68966C0 7.24138 1.45946 10.5517 3.02317 13.3448C3.39074 13.9749 3.74761 14.5836 4.08002 15.1507C4.78465 16.3527 5.37944 17.3674 5.73359 18C5.91602 17.6741 6.17508 17.2469 6.47946 16.7449ZM5.74577 2.52466C4.01082 2.52466 2.5498 3.97448 2.5498 5.69614C2.5498 7.50841 4.01082 8.95823 5.83709 8.95823C7.66335 8.95823 9.12437 7.50841 9.12437 5.69614C9.03305 3.97448 7.57204 2.52466 5.74577 2.52466Z" fill="#2F3441"/>
</svg>
