<svg width="24" height="24" viewBox="0 0 24 24" fill="#22242A" xmlns="http://www.w3.org/2000/svg">
<path fill-rule="evenodd" clip-rule="evenodd" d="M7.44185 4.56863C7.94953 4.06095 8.77264 4.06095 9.28032 4.56863L19.7527 15.041C20.1503 15.4386 20.4281 15.9399 20.5545 16.4877L20.954 18.2188C21.17 19.1549 20.3311 19.9939 19.395 19.7779L17.6639 19.3784C17.116 19.252 16.6147 18.9741 16.2171 18.5765L5.74479 8.10416C5.23711 7.59648 5.23711 6.77336 5.74479 6.26568L7.44185 4.56863ZM6.66403 7.18492L8.36108 5.48787L9.98222 7.109L8.28516 8.80606L6.66403 7.18492ZM18.8334 15.9602L10.9015 8.02824L9.2044 9.7253L17.1364 17.6573C17.3617 17.8826 17.6457 18.04 17.9562 18.1117L19.6873 18.5112L19.2878 16.7801C19.2162 16.4696 19.0587 16.1855 18.8334 15.9602Z" fill="#7B7E86"/>
<path d="M6.65293 20.0062C7.83392 20.0062 8.55466 19.3982 9.10725 18.932L9.13949 18.9048C9.70653 18.4268 10.1065 18.1093 10.7943 18.1093C12.0662 18.1093 12.6927 18.8881 13.1619 19.4713C13.2579 19.5906 13.3473 19.7017 13.4342 19.7962C13.6772 20.0605 14.0884 20.0777 14.3526 19.8347C14.6169 19.5917 14.6341 19.1805 14.3911 18.9163C14.3585 18.8808 14.3136 18.822 14.2557 18.7463C13.8437 18.2076 12.7744 16.8093 10.7943 16.8093C9.60739 16.8093 8.88459 17.419 8.33028 17.8866L8.30159 17.9108C7.73329 18.3899 7.33588 18.7062 6.65294 18.7062C5.26882 18.7062 4.66539 17.881 4.28567 17.3616C4.24849 17.3108 4.21346 17.2629 4.18005 17.2189C3.96269 16.9332 3.55488 16.8778 3.26918 17.0952C2.98347 17.3125 2.92806 17.7203 3.14541 18.0061C3.17032 18.0388 3.19943 18.0794 3.2331 18.1263C3.61451 18.6581 4.5814 20.0062 6.65293 20.0062Z" fill="#7B7E86"/>
</svg>
