<svg width="24" height="24" viewBox="0 0 24 24" fill="#22242A" xmlns="http://www.w3.org/2000/svg">
<path d="M4.10526 13.8684C2.94737 13.8684 2 14.8158 2 15.9737C2 17.1316 2.94737 18.0789 4.10526 18.0789C5.26316 18.0789 6.21053 17.1316 6.21053 15.9737C6.21053 15.5789 6.10526 15.2105 5.92105 14.8947L8.31579 12.5C8.63158 12.6842 9 12.7895 9.39474 12.7895C9.78947 12.7895 10.1579 12.6842 10.4737 12.5L12.8684 14.8947C12.6316 15.2105 12.5263 15.5789 12.5263 15.9737C12.5263 17.1316 13.4737 18.0789 14.6316 18.0789C15.7895 18.0789 16.7368 17.1316 16.7368 15.9737C16.7368 15.4474 16.5263 14.9474 16.2105 14.5789L19.2105 10.0789C19.4211 10.1579 19.6579 10.2105 19.8947 10.2105C21.0526 10.2105 22 9.26316 22 8.10526C22 6.94737 21.0526 6 19.8947 6C18.7368 6 17.7895 6.94737 17.7895 8.10526C17.7895 8.63158 18 9.13158 18.3158 9.5L15.3158 14C15.1053 13.9211 14.8684 13.8684 14.6316 13.8684C14.2368 13.8684 13.8684 13.9737 13.5526 14.1579L11.1579 11.7632C11.3421 11.4474 11.4474 11.0789 11.4474 10.6842C11.4474 9.52632 10.5 8.57895 9.34211 8.57895C8.18421 8.57895 7.23684 9.52632 7.23684 10.6842C7.23684 11.0789 7.34211 11.4474 7.52632 11.7632L5.13158 14.1579C4.86842 13.9737 4.5 13.8684 4.10526 13.8684ZM4.10526 17.0263C3.52632 17.0263 3.05263 16.5526 3.05263 15.9737C3.05263 15.3947 3.52632 14.9211 4.10526 14.9211C4.68421 14.9211 5.15789 15.3947 5.15789 15.9737C5.15789 16.5526 4.68421 17.0263 4.10526 17.0263ZM19.8947 7.02632C20.4737 7.02632 20.9474 7.5 20.9474 8.07895C20.9474 8.65789 20.4737 9.13158 19.8947 9.13158C19.3158 9.13158 18.8421 8.65789 18.8421 8.07895C18.8421 7.5 19.3158 7.02632 19.8947 7.02632ZM14.6316 14.9211C15.2105 14.9211 15.6842 15.3947 15.6842 15.9737C15.6842 16.5526 15.2105 17.0263 14.6316 17.0263C14.0526 17.0263 13.5789 16.5526 13.5789 15.9737C13.5789 15.3947 14.0526 14.9211 14.6316 14.9211ZM9.36842 9.65789C9.94737 9.65789 10.4211 10.1316 10.4211 10.7105C10.4211 11.2895 9.94737 11.7632 9.36842 11.7632C8.78947 11.7632 8.31579 11.2895 8.31579 10.7105C8.31579 10.1316 8.78947 9.65789 9.36842 9.65789Z" fill="#7B7E86"/>
</svg>
