<svg width="18" height="18" viewBox="0 0 18 18" fill="#0062FF" xmlns="http://www.w3.org/2000/svg">
<path fill-rule="evenodd" clip-rule="evenodd" d="M0 9C0 4.02944 4.02944 0 9 0C13.9706 0 18 4.02944 18 9C18 13.9706 13.9706 18 9 18C4.02944 18 0 13.9706 0 9ZM8.99999 4.25C9.41421 4.25 9.74999 4.58579 9.74999 5V10C9.74999 10.4142 9.41421 10.75 8.99999 10.75C8.58578 10.75 8.24999 10.4142 8.24999 10V5C8.24999 4.58579 8.58578 4.25 8.99999 4.25ZM8.99999 13.7C9.46944 13.7 9.84999 13.3195 9.84999 12.85C9.84999 12.3806 9.46944 12 8.99999 12C8.53055 12 8.14999 12.3806 8.14999 12.85C8.14999 13.3195 8.53055 13.7 8.99999 13.7Z" fill="#0062FF"/>
</svg>
