<svg width="24" height="24" fill="#22242A" viewBox="0 0 24 24" xmlns="http://www.w3.org/2000/svg">
<path fill-rule="evenodd" clip-rule="evenodd" d="M13.4492 11.9836L19.7004 18.2519C20.0999 18.6516 20.0999 19.2992 19.7004 19.6989C19.5108 19.8915 19.2518 20 18.9814 20C18.7111 20 18.452 19.8915 18.2624 19.6989L12.0012 13.4307L5.73997 19.6989C5.54839 19.8916 5.2878 20 5.01598 20C4.74416 20 4.48358 19.8916 4.292 19.6989C3.90267 19.295 3.90267 18.6558 4.292 18.2519L10.5532 11.9836L4.33194 5.74829C3.93236 5.34819 3.93236 4.70033 4.33194 4.30023C4.52181 4.10813 4.78074 4 5.05093 4C5.32112 4 5.58006 4.10813 5.76992 4.30023L12.0012 10.5366L18.2325 4.30023C18.4223 4.10813 18.6813 4 18.9515 4C19.2216 4 19.4806 4.10813 19.6704 4.30023C20.07 4.70033 20.07 5.34819 19.6704 5.74829L13.4492 11.9836Z" />
</svg>
