<svg width="24" height="24" viewBox="0 0 24 24" fill="#22242A" xmlns="http://www.w3.org/2000/svg">
<path d="M8.6809 6.99886C8.32178 6.99886 8.03066 7.28974 8.03066 7.64856C8.03066 8.00738 8.32178 8.29826 8.6809 8.29826H15.3833C15.7424 8.29826 16.0336 8.00738 16.0336 7.64856C16.0336 7.28974 15.7424 6.99886 15.3833 6.99886H8.6809Z" fill="#7B7E86"/>
<path d="M8.03066 10.6472C8.03066 10.2883 8.32178 9.99747 8.6809 9.99747H15.3833C15.7424 9.99747 16.0335 10.2883 16.0335 10.6472C16.0335 11.006 15.7424 11.2969 15.3833 11.2969H8.6809C8.32178 11.2969 8.03066 11.006 8.03066 10.6472Z" fill="#7B7E86"/>
<path d="M8.6809 12.9961C8.32178 12.9961 8.03066 13.287 8.03066 13.6458C8.03066 14.0046 8.32178 14.2955 8.6809 14.2955H11.8821C12.2412 14.2955 12.5323 14.0046 12.5323 13.6458C12.5323 13.287 12.2412 12.9961 11.8821 12.9961H8.6809Z" fill="#7B7E86"/>
<path fill-rule="evenodd" clip-rule="evenodd" d="M5.03711 19.3936C5.03711 20.6536 6.42745 21.4187 7.49318 20.7453L9.44655 19.511L11.0548 20.6909C11.6185 21.1045 12.3857 21.1045 12.9494 20.6909L14.5643 19.5061L16.5838 20.7581C17.65 21.4191 19.0282 20.6529 19.0282 19.3991L19.0371 5.59989C19.0371 4.16462 17.8726 3.0011 16.4362 3.0011H7.64697C6.21051 3.0011 5.04604 4.16462 5.04604 5.59989L5.03711 19.3936ZM7.64697 4.30049C6.92874 4.30049 6.3465 4.88226 6.3465 5.59989L6.33758 19.3936C6.33758 19.6299 6.59827 19.7733 6.79809 19.6471L9.0975 18.1941C9.34101 18.0402 9.65399 18.0511 9.88623 18.2215L11.8245 19.6435C11.9302 19.7211 12.074 19.7211 12.1797 19.6435L14.1215 18.2189C14.352 18.0498 14.6622 18.0377 14.9052 18.1883L17.2694 19.6539C17.4693 19.7779 17.7277 19.6342 17.7277 19.3991L17.7366 5.59989C17.7366 4.88225 17.1544 4.30049 16.4362 4.30049H7.64697Z" fill="#7B7E86"/>
</svg>
