<svg width="24" height="24" viewBox="0 0 24 24" fill="#22242A" xmlns="http://www.w3.org/2000/svg">
<path fill-rule="evenodd" clip-rule="evenodd" d="M14.82 4H19C19.5304 4 20.0391 4.21071 20.4142 4.58579C20.7893 4.96086 21 5.46957 21 6V20C21 20.5304 20.7893 21.0391 20.4142 21.4142C20.0391 21.7893 19.5304 22 19 22H5C4.46957 22 3.96086 21.7893 3.58579 21.4142C3.21071 21.0391 3 20.5304 3 20V6C3 5.46957 3.21071 4.96086 3.58579 4.58579C3.96086 4.21071 4.46957 4 5 4H9.18C9.6 2.84 10.7 2 12 2C13.3 2 14.4 2.84 14.82 4ZM12.7071 4.29289C12.5196 4.10536 12.2652 4 12 4C11.7348 4 11.4804 4.10536 11.2929 4.29289C11.1054 4.48043 11 4.73478 11 5C11 5.26522 11.1054 5.51957 11.2929 5.70711C11.4804 5.89464 11.7348 6 12 6C12.2652 6 12.5196 5.89464 12.7071 5.70711C12.8946 5.51957 13 5.26522 13 5C13 4.73478 12.8946 4.48043 12.7071 4.29289ZM17 5.5V8H7V5.5H4.5V20.5H19.5V5.5H17ZM14 5C14 5.17265 13.9781 5.34019 13.937 5.5H15.5V7H12H8.5V5.5H10.063C10.0219 5.34019 10 5.17265 10 5C10 3.89543 10.8954 3 12 3C13.1046 3 14 3.89543 14 5Z" fill="#2F3441"/>
<path d="M14.4041 11.1342C14.4041 12.3129 13.4486 13.2684 12.2699 13.2684C11.0913 13.2684 10.1357 12.3129 10.1357 11.1342C10.1357 9.95552 11.0913 9 12.2699 9C13.4486 9 14.4041 9.95552 14.4041 11.1342ZM10.934 11.1342C10.934 11.872 11.5321 12.4701 12.2699 12.4701C13.0077 12.4701 13.6058 11.872 13.6058 11.1342C13.6058 10.3964 13.0077 9.7983 12.2699 9.7983C11.5321 9.7983 10.934 10.3964 10.934 11.1342Z" fill="#2F3441"/>
<path fill-rule="evenodd" clip-rule="evenodd" d="M8.00183 18.6039C8.0018 18.5363 8.00138 18.4666 8.00094 18.3955C7.99796 17.9063 7.99453 17.3457 8.11878 16.8432C8.26108 16.2676 8.52951 15.7308 8.90465 15.2717C9.2798 14.8125 9.75229 14.4425 10.288 14.1883C10.8236 13.9341 11.4091 13.8022 12.002 13.8019C12.5949 13.8017 13.1805 13.9333 13.7163 14.1871C14.2522 14.4408 14.7249 14.8105 15.1004 15.2694C15.4759 15.7283 15.7447 16.2648 15.8874 16.8403C16.012 17.3427 16.0089 17.9052 16.0062 18.395C16.0058 18.4663 16.0054 18.5361 16.0054 18.6039H8.00183ZM15.2006 17.8036C15.1927 17.5263 15.1692 17.2807 15.1004 17.0032C14.9912 16.563 14.6915 16.0204 14.4043 15.6694C14.117 15.3183 13.7471 15.0632 13.3372 14.869C12.9272 14.6749 12.4569 14.6021 12.0033 14.6023C11.5497 14.6024 11.0792 14.6746 10.6694 14.869C10.2596 15.0635 9.88928 15.3181 9.6023 15.6694C9.31531 16.0206 9.01351 16.612 8.90465 17.0523C8.83737 17.3244 8.81403 17.5472 8.80602 17.8036H15.2006Z" fill="#2F3441"/>
</svg>
