<svg width="26" height="25" viewBox="0 0 26 25" fill="none" xmlns="http://www.w3.org/2000/svg">
<path d="M6.01511 9.8796C5.91571 9.63621 5.77362 9.41238 5.59674 9.21787C4.33065 7.82558 3.36548 6.30595 2.85645 5.10486C2.65183 4.62204 3.01264 4.12752 3.53687 4.11427C3.56107 4.11366 3.5855 4.11306 3.61013 4.11249C4.08326 4.10147 4.4488 3.68324 4.40154 3.21235C4.36124 2.81078 4.02563 2.50369 3.62215 2.51311C3.29231 2.52081 3.01235 2.53054 2.77688 2.53054C1.94929 2.55718 1 2.61045 1 3.54275C1 5.67896 3.63086 10.2611 7.43531 12.8786C7.49698 12.9211 7.57699 12.8458 7.52712 12.79C7.52467 12.7873 7.52232 12.7843 7.52029 12.7812C6.95426 11.9228 6.44673 10.9365 6.01511 9.8796Z" fill="#F59300" stroke="#F59300" stroke-linecap="round"/>
<path d="M23.199 2.53054C22.9635 2.51444 22.6836 2.50807 22.3538 2.50555C21.9502 2.50247 21.6146 2.81078 21.5743 3.21235C21.5271 3.68324 21.8926 4.10147 22.3657 4.11249C22.3933 4.11313 22.4206 4.1138 22.4477 4.11449C22.9706 4.12784 23.3338 4.61682 23.1358 5.10101C22.6372 6.32054 21.6638 7.88319 20.3734 9.30368C20.2002 9.49435 20.0602 9.71305 19.9613 9.95091C19.533 10.9812 19.044 11.9237 18.4769 12.7592C18.4192 12.8643 18.538 12.9737 18.6365 12.9054C22.4008 10.2944 25.0002 5.70922 25.0002 3.56939C25.0002 2.61045 24.0509 2.55718 23.199 2.53054Z" fill="#F59300" stroke="#F59300" stroke-linecap="round"/>
<path d="M17.7222 22.3752C16.46 22.2192 15.4021 21.3552 14.8618 20.1571C14.6729 19.7381 14.2838 19.4185 13.8241 19.4185H12.176C11.7164 19.4185 11.3273 19.7381 11.1383 20.1571C10.5981 21.3552 9.5402 22.2192 8.27798 22.3752C8.03457 22.4018 7.83984 22.6415 7.83984 22.9079V23.7337C7.83984 23.8935 7.93721 24 8.08325 24H17.8926C18.0386 24 18.136 23.8935 18.136 23.7337V22.9079C18.1603 22.6415 17.9656 22.4018 17.7222 22.3752Z" stroke="#F59300" stroke-width="2" stroke-linecap="round"/>
<path d="M16.4347 11.2882L16.4091 11.3256L16.3869 11.3652C16.0017 12.0538 15.6483 12.6168 15.3149 13.1478C15.1768 13.3678 15.0422 13.5822 14.9101 13.7979C14.4709 14.5153 14.0734 15.227 13.8088 16.0564C13.6407 16.5831 13.2682 16.8202 12.9957 16.8202C12.7219 16.8202 12.3451 16.5793 12.1761 16.0427C11.9159 15.2161 11.5208 14.5057 11.0838 13.7902C10.9499 13.571 10.8133 13.3531 10.6732 13.1296C10.3435 12.6037 9.99412 12.0464 9.61305 11.3652L9.58931 11.3228L9.56156 11.2829C7.99059 9.02203 6.8751 5.3264 6.71183 1H19.2638C19.1006 5.32604 17.986 9.02478 16.4347 11.2882Z" stroke="#F59300" stroke-width="2" stroke-linecap="round"/>
</svg>
