<svg xmlns="http://www.w3.org/2000/svg" width="124px" height="124px" viewBox="242 136 80 80" version="1.0">
    <defs>
        <clipPath id="a">
            <path d="M 258 142.683594 L 311.984375 142.683594 L 311.984375 158 L 258 158 Z M 258 142.683594"/>
        </clipPath>
        <clipPath id="b">
            <path d="M 251.234375 142.683594 L 257 142.683594 L 257 207.183594 L 251.234375 207.183594 Z M 251.234375 142.683594"/>
        </clipPath>
        <clipPath id="c">
            <path d="M 258 161 L 311.984375 161 L 311.984375 177 L 258 177 Z M 258 161"/>
        </clipPath>
        <clipPath id="d">
            <path d="M 259 179 L 311.984375 179 L 311.984375 207.183594 L 259 207.183594 Z M 259 179"/>
        </clipPath>
    </defs>
    <g clip-path="url(#a)">
        <path fill="#00BAFF" d="M 258.984375 155.761719 L 258.984375 144.625 C 258.984375 143.640625 259.792969 142.835938 260.773438 142.835938 L 309.679688 142.835938 C 310.660156 142.835938 311.46875 143.640625 311.46875 144.625 L 311.46875 155.761719 C 311.46875 156.746094 310.660156 157.554688 309.679688 157.554688 L 260.773438 157.554688 C 259.792969 157.554688 258.984375 156.746094 258.984375 155.761719 Z M 258.984375 155.761719"/>
    </g>
    <g clip-path="url(#b)">
        <path fill="#00BAFF" d="M 255.40625 207.785156 L 252.109375 207.785156 C 251.546875 207.785156 251.125 207.328125 251.125 206.800781 L 251.125 143.816406 C 251.125 143.253906 251.582031 142.835938 252.109375 142.835938 L 255.40625 142.835938 C 255.96875 142.835938 256.390625 143.289062 256.390625 143.816406 L 256.390625 206.800781 C 256.390625 207.363281 255.933594 207.785156 255.40625 207.785156 Z M 255.40625 207.785156"/>
    </g>
    <g clip-path="url(#c)">
        <path fill="#00BAFF" d="M 258.984375 174.554688 L 258.984375 163.417969 C 258.984375 162.4375 259.792969 161.628906 260.773438 161.628906 L 309.679688 161.628906 C 310.660156 161.628906 311.46875 162.4375 311.46875 163.417969 L 311.46875 174.554688 C 311.46875 175.539062 310.660156 176.347656 309.679688 176.347656 L 260.773438 176.347656 C 259.792969 176.3125 258.984375 175.539062 258.984375 174.554688 Z M 258.984375 174.554688"/>
    </g>
    <g clip-path="url(#d)">
        <path fill="#00BAFF" d="M 262.210938 206.519531 L 259.089844 195.84375 C 258.808594 194.894531 259.335938 193.910156 260.28125 193.628906 L 307.1875 179.789062 C 308.136719 179.507812 309.117188 180.035156 309.398438 180.984375 L 312.554688 191.664062 C 312.835938 192.609375 312.3125 193.59375 311.363281 193.875 L 264.421875 207.714844 C 263.476562 207.996094 262.492188 207.46875 262.210938 206.519531 Z M 262.210938 206.519531"/>
    </g>
</svg>
