<?xml version="1.0" standalone="no"?>
<!DOCTYPE svg PUBLIC "-//W3C//DTD SVG 20010904//EN"
 "http://www.w3.org/TR/2001/REC-SVG-20010904/DTD/svg10.dtd">
<svg version="1.0" xmlns="http://www.w3.org/2000/svg"
 width="700.000000pt" height="700.000000pt" viewBox="0 0 700.000000 700.000000"
 preserveAspectRatio="xMidYMid meet">
<metadata>
Created by potrace 1.14, written by Peter Selinger 2001-2017
</metadata>
<g transform="translate(0.000000,700.000000) scale(0.100000,-0.100000)"
fill="#000000" stroke="none">
<path d="M875 6399 c-21 -4 -44 -15 -52 -25 -10 -14 -13 -155 -13 -743 0 -626
0 -4310 0 -4719 l0 -142 223 2 222 3 3 2775 c1 1962 -1 2783 -9 2801 -5 15
-21 32 -33 39 -25 13 -274 20 -341 9z"/>
<path d="M1583 6388 c-100 -49 -99 -37 -97 -643 1 -569 -2 -547 71 -602 l36
-28 2186 0 2186 0 37 23 c21 13 45 40 57 65 19 40 20 62 20 547 0 285 -5 521
-10 542 -12 45 -66 95 -115 104 -20 4 -1004 7 -2186 8 -2025 1 -2152 0 -2185
-16z"/>
<path d="M1593 4748 c-44 -11 -100 -79 -105 -126 -1 -20 -3 -263 -2 -539 l0
-501 25 -36 c13 -20 42 -45 65 -56 40 -20 61 -20 2222 -18 l2181 3 27 21 c15
11 37 33 48 48 21 27 21 39 23 556 2 525 2 529 -20 572 -13 25 -37 51 -57 63
-35 20 -46 20 -2205 21 -1193 0 -2184 -3 -2202 -8z"/>
<path d="M5689 3163 c-30 -7 -90 -25 -134 -38 -44 -13 -165 -49 -270 -80 -104
-31 -226 -67 -270 -80 -297 -88 -584 -173 -795 -235 -135 -39 -281 -82 -325
-96 -91 -27 -238 -71 -405 -119 -155 -45 -648 -190 -735 -217 -150 -45 -201
-60 -535 -158 -190 -56 -376 -110 -415 -122 -38 -11 -81 -24 -95 -28 -14 -5
-51 -16 -82 -25 -71 -19 -124 -68 -134 -122 -4 -23 -1 -60 8 -97 16 -64 102
-361 140 -481 11 -38 29 -99 39 -135 44 -164 92 -317 105 -337 14 -22 20 -23
172 -23 l158 0 290 85 c159 47 359 106 444 131 85 25 191 56 235 69 170 51
491 147 505 150 8 2 76 22 150 44 74 21 212 62 307 90 95 28 232 68 305 90 73
22 171 51 218 65 125 36 352 102 375 109 11 3 65 19 120 36 55 16 163 48 240
71 77 23 178 53 225 67 102 30 174 51 215 63 98 27 314 92 338 102 15 6 31 18
35 27 5 9 7 88 7 176 -2 156 -3 163 -44 300 -22 77 -48 160 -56 185 -8 25 -30
99 -49 165 -93 321 -94 323 -154 358 -42 25 -68 27 -133 10z"/>
</g>
</svg>
