<svg width="24" height="24" viewBox="0 0 24 24" fill="#22242A" xmlns="http://www.w3.org/2000/svg">
<path d="M12.7502 21C12.5512 21 12.3605 20.921 12.2198 20.7803C12.0792 20.6397 12.0002 20.4489 12.0002 20.25C12.0002 20.0511 12.0792 19.8603 12.2198 19.7197C12.3605 19.579 12.5512 19.5 12.7502 19.5C14.4298 19.5003 16.0609 18.9367 17.3821 17.8996C18.7034 16.8625 19.6382 15.412 20.0369 13.7803C20.4357 12.1487 20.2751 10.4304 19.5811 8.90091C18.887 7.37137 17.6996 6.11908 16.2092 5.34469C14.7187 4.5703 13.0114 4.31864 11.3609 4.63003C9.71035 4.94142 8.21212 5.79784 7.10626 7.06206C6.00039 8.32628 5.3509 9.92513 5.26186 11.6024C5.17281 13.2797 5.64937 14.9383 6.61516 16.3125C6.72903 16.4748 6.77401 16.6756 6.74028 16.8709C6.70655 17.0663 6.59685 17.2403 6.43516 17.355C6.35455 17.4126 6.26334 17.4536 6.16679 17.4757C6.07024 17.4978 5.97027 17.5006 5.87265 17.4838C5.77503 17.4671 5.68168 17.4312 5.59801 17.3782C5.51434 17.3252 5.442 17.2561 5.38516 17.175C4.22628 15.5261 3.65441 13.5359 3.76118 11.5233C3.86794 9.51065 4.64716 7.59211 5.97398 6.07503C7.30081 4.55795 9.09845 3.53013 11.0789 3.15624C13.0594 2.78234 15.108 3.08402 16.8966 4.01293C18.6852 4.94184 20.1103 6.44423 20.9435 8.27938C21.7767 10.1145 21.9698 12.1762 21.4918 14.1342C21.0139 16.0922 19.8926 17.833 18.3076 19.0779C16.7226 20.3228 14.7656 20.9996 12.7502 21Z" fill="black"/>
<path d="M6.75 18H3C2.80109 18 2.61032 17.921 2.46967 17.7803C2.32902 17.6397 2.25 17.4489 2.25 17.25C2.25 17.0511 2.32902 16.8603 2.46967 16.7197C2.61032 16.579 2.80109 16.5 3 16.5H6V13.5C6 13.3011 6.07902 13.1103 6.21967 12.9697C6.36032 12.829 6.55109 12.75 6.75 12.75C6.94891 12.75 7.13968 12.829 7.28033 12.9697C7.42098 13.1103 7.5 13.3011 7.5 13.5V17.25C7.5 17.4489 7.42098 17.6397 7.28033 17.7803C7.13968 17.921 6.94891 18 6.75 18Z" fill="black"/>
<path d="M10.5 15C10.4012 15.0006 10.3034 14.9817 10.212 14.9443C10.1206 14.907 10.0375 14.852 9.96745 14.7825C9.89716 14.7128 9.84136 14.6298 9.80329 14.5384C9.76521 14.447 9.74561 14.349 9.74561 14.25C9.74561 14.151 9.76521 14.053 9.80329 13.9616C9.84136 13.8702 9.89716 13.7872 9.96745 13.7175L12 11.6925V8.25C12 8.05109 12.079 7.86032 12.2196 7.71967C12.3603 7.57902 12.551 7.5 12.75 7.5C12.9489 7.5 13.1396 7.57902 13.2803 7.71967C13.4209 7.86032 13.4999 8.05109 13.4999 8.25V12C13.5005 12.0987 13.4816 12.1966 13.4443 12.2879C13.407 12.3793 13.352 12.4624 13.2824 12.5325L11.0325 14.7825C10.9624 14.852 10.8793 14.907 10.7879 14.9443C10.6965 14.9817 10.5987 15.0006 10.5 15Z" fill="black"/>
</svg>
