<svg width="24" height="24" viewBox="0 0 24 24" fill="#0B43DA" xmlns="http://www.w3.org/2000/svg">
<path d="M18.3548 13.7018L18.0138 13.4275C17.9221 13.3541 17.8481 13.261 17.7972 13.1551C17.7463 13.0493 17.7199 12.9334 17.7198 12.8159V9.64863C17.7194 8.28749 17.2467 6.96867 16.3824 5.91713C15.5182 4.86558 14.3159 4.14645 12.9806 3.88239C12.9155 3.62986 12.7683 3.40614 12.5622 3.24641C12.356 3.08668 12.1026 3 11.8418 3C11.5811 3 11.3277 3.08668 11.1215 3.24641C10.9154 3.40614 10.7682 3.62986 10.7031 3.88239C9.36711 4.14565 8.1639 4.86444 7.29887 5.91606C6.43383 6.96768 5.96061 8.28694 5.95997 9.64863V12.8159C5.9599 12.9334 5.93344 13.0493 5.88256 13.1551C5.83167 13.261 5.75765 13.3541 5.66598 13.4275L5.32494 13.7018C4.91307 14.0311 4.58024 14.4485 4.35095 14.9234C4.12166 15.3983 4.00174 15.9185 4 16.4458V17.0965C4 17.5124 4.1652 17.9112 4.45925 18.2052C4.7533 18.4993 5.15212 18.6645 5.56798 18.6645H8.80585C8.98257 19.3339 9.37582 19.926 9.92429 20.3484C10.4728 20.7709 11.1456 21 11.8379 21C12.5302 21 13.2031 20.7709 13.7516 20.3484C14.3 19.926 14.6933 19.3339 14.87 18.6645H18.1118C18.5277 18.6645 18.9265 18.4993 19.2205 18.2052C19.5146 17.9112 19.6798 17.5124 19.6798 17.0965V16.4536C19.6792 15.925 19.5599 15.4033 19.3305 14.9269C19.1012 14.4506 18.7677 14.032 18.3548 13.7018ZM11.8399 19.4485C11.5663 19.4468 11.2978 19.3736 11.0613 19.2361C10.8247 19.0985 10.6282 18.9015 10.4914 18.6645H13.1923C13.0551 18.9021 12.8581 19.0995 12.6207 19.237C12.3834 19.3746 12.1142 19.4475 11.8399 19.4485ZM18.1118 17.0965H5.56798V16.4536C5.5684 16.1599 5.63484 15.87 5.7624 15.6054C5.88996 15.3407 6.07538 15.1082 6.30493 14.9249L6.64596 14.6505C6.92099 14.4303 7.14304 14.1511 7.2957 13.8336C7.44836 13.516 7.52773 13.1683 7.52795 12.8159V9.64863C7.52795 8.50503 7.98224 7.40827 8.79089 6.59962C9.59953 5.79098 10.6963 5.33669 11.8399 5.33669C12.9835 5.33669 14.0802 5.79098 14.8889 6.59962C15.6975 7.40827 16.1518 8.50503 16.1518 9.64863V12.8159C16.1515 13.1689 16.2305 13.5175 16.3832 13.8357C16.5359 14.154 16.7583 14.4338 17.0338 14.6544L17.3749 14.9288C17.6039 15.1117 17.789 15.3436 17.9165 15.6075C18.0441 15.8714 18.1108 16.1606 18.1118 16.4536V17.0965Z" fill="#0B43DA"/>
</svg>
