<svg width="32" height="32" viewBox="0 0 32 32" fill="#22242A" xmlns="http://www.w3.org/2000/svg">
<path d="M10.375 15.5C10.7532 15.5 11.0955 15.3483 11.3484 15.1046L12.736 15.7983C12.729 15.8549 12.7188 15.9104 12.7188 15.9688C12.7188 16.7441 13.3496 17.375 14.125 17.375C14.9004 17.375 15.5312 16.7441 15.5312 15.9688C15.5312 15.7523 15.478 15.5497 15.3903 15.3663L17.2726 13.484C17.4559 13.5718 17.6586 13.625 17.875 13.625C18.6504 13.625 19.2812 12.9941 19.2812 12.2188C19.2812 12.0728 19.2526 11.9347 19.2111 11.8022L20.8466 10.5759C21.0697 10.725 21.3372 10.8125 21.625 10.8125C22.4004 10.8125 23.0312 10.1816 23.0312 9.40625C23.0312 8.63086 22.4004 8 21.625 8C20.8496 8 20.2188 8.63086 20.2188 9.40625C20.2188 9.55225 20.2474 9.69031 20.2889 9.82275L18.6534 11.0491C18.4303 10.9 18.1628 10.8125 17.875 10.8125C17.0996 10.8125 16.4688 11.4434 16.4688 12.2188C16.4688 12.4352 16.522 12.6378 16.6097 12.8212L14.7274 14.7035C14.5441 14.6157 14.3414 14.5625 14.125 14.5625C13.7468 14.5625 13.4045 14.7142 13.1516 14.9579L11.764 14.2642C11.771 14.2076 11.7812 14.1521 11.7812 14.0938C11.7812 13.3184 11.1504 12.6875 10.375 12.6875C9.59961 12.6875 8.96875 13.3184 8.96875 14.0938C8.96875 14.8691 9.59961 15.5 10.375 15.5Z" />
<path d="M23.5312 23.0625H23.0312V13.1562C23.0312 12.8972 22.8215 12.6875 22.5625 12.6875H20.6875C20.4285 12.6875 20.2188 12.8972 20.2188 13.1562V23.0625H19.2812V15.9688C19.2812 15.7097 19.0715 15.5 18.8125 15.5H16.9375C16.6785 15.5 16.4688 15.7097 16.4688 15.9688V23.0625H15.5312V19.7188C15.5312 19.4597 15.3215 19.25 15.0625 19.25H13.1875C12.9285 19.25 12.7188 19.4597 12.7188 19.7188V23.0625H11.7812V17.8438C11.7812 17.5847 11.5715 17.375 11.3125 17.375H9.4375C9.17847 17.375 8.96875 17.5847 8.96875 17.8438V23.0625H8.46875C8.20972 23.0625 8 23.2722 8 23.5312C8 23.7903 8.20972 24 8.46875 24H23.5312C23.7903 24 24 23.7903 24 23.5312C24 23.2722 23.7903 23.0625 23.5312 23.0625Z" />
</svg>
