<svg width="24" height="24" viewBox="0 0 24 24" fill="#22242A" xmlns="http://www.w3.org/2000/svg">
<path fill-rule="evenodd" clip-rule="evenodd" d="M11.6165 17.0795C10.3095 18.4125 8.1945 18.4125 6.8895 17.0795C5.5825 15.7495 5.5825 13.5975 6.8895 12.2675L12.6495 6.40014C13.3955 5.63956 14.6065 5.63956 15.3525 6.40014C16.0965 7.15871 16.0965 8.39114 15.3525 9.1487L9.5905 15.0171C9.4035 15.2072 9.1025 15.2072 8.9145 15.0171C8.7275 14.8259 8.7275 14.5191 8.9145 14.3289L11.9755 11.2121C12.3665 10.8157 12.3665 10.202 11.9945 9.8288C11.6255 9.44951 11.0265 9.44951 10.6555 9.8288C10.6475 9.83484 7.5655 12.9556 7.5655 12.9556C6.6335 13.9044 6.6335 15.4426 7.5655 16.3923C8.4965 17.3411 10.0065 17.3411 10.9405 16.3923L16.7005 10.527C18.1705 9.00383 18.1645 6.50075 16.6785 4.98763C15.1965 3.47653 12.7935 3.9031 11.3015 4.90916L5.5375 10.8328C3.4875 12.9204 3.4875 16.337 5.5375 18.4256C7.5885 20.5142 10.9145 20.5293 12.9655 18.4407L18.7055 12.6035C19.0985 12.2101 19.0965 11.6015 18.7255 11.2242C18.3565 10.8469 17.7585 10.8469 17.3875 11.2242C17.3795 11.2323 11.6165 17.0795 11.6165 17.0795Z" />
</svg>
