<svg width="73" height="79" viewBox="0 0 73 79" fill="#DCE0EB" xmlns="http://www.w3.org/2000/svg">
<path d="M16.5 18.0305C16.7222 19.817 17.5 22.5305 17.5 22.5305C17.5 22.5305 16.8087 22.7218 16.5 23.0305C16.0634 23.4671 16 23.5305 16 24.5305C16 25.5305 17.6441 33.1755 18 33.5305C18.3559 33.8855 18.5647 34.064 19 34.0305C19.5507 33.9881 20 33.0305 20 33.0305C20 33.0305 21.6504 36.1964 23 38.0305C24.067 39.4805 26 41.5305 26 41.5305C26 41.5305 26.8991 45.9489 26 48.5305C25.3942 50.2701 24.8006 51.2259 23.5 52.5305C21.6504 54.3857 19.9493 54.6011 17.5 55.5305C14.3117 56.7403 9 57.5305 9 57.5305L0 60.5305C0 60.5305 3.95661 65.4248 7 68.0305C9.87996 70.4962 11.622 71.8092 15 73.5305C18.8512 75.4929 21.2687 76.148 25.5 77.0305C29.5323 77.8715 31.881 78.0128 36 78.0305C40.3134 78.049 42.787 77.956 47 77.0305C51.0412 76.1427 53.2893 75.3607 57 73.5305C60.5459 71.7816 62.4283 70.5198 65.5 68.0305C68.5036 65.5965 72.5 61.0305 72.5 61.0305C72.5 61.0305 66.1803 58.6292 62 57.5305C58.1482 56.5181 52 55.5305 52 55.5305L48 52.5305C48 52.5305 46.1552 50.2521 45.5 48.5305C44.5252 45.9691 45 42.0305 45 41.5305C45 41.0305 46.9865 39.5183 48 38.0305C49.229 36.2262 50.5 33.0305 50.5 33.0305C50.5 33.0305 50.6256 33.8059 51 34.0305C51.2832 34.2004 51.5 34.5305 52.5 33.5305C53.5 32.5305 55 25.5305 55 24.5305C55 23.5305 54.6145 23.1449 54.5 23.0305C54.3855 22.916 53 22.5305 53 22.5305C53 22.5305 54.2222 18.9297 54.5 16.5305C54.7471 14.3969 54.8694 13.1464 54.5 11.0305C54.1814 9.20568 54.0861 8.03114 53 6.53049C52.1059 5.29505 51.2778 4.86298 50 4.03049C47.7213 2.54588 46.1305 2.22133 43.5 1.53049C41.016 0.878114 37.5 0.530519 37 0.530492C36.5 0.530465 32.4299 -0.1501 29.5 0.030492C27.129 0.176634 25.6549 0.030919 23.5 1.03049C21.1169 2.1359 19.9171 3.31848 18.5 5.53049C17.0674 7.76681 16.8702 9.40057 16.5 12.0305C16.1734 14.3508 16.2109 15.7053 16.5 18.0305Z" fill="#DCE0EB"/>
</svg>
