<svg width="24" height="24" viewBox="0 0 24 24" fill="#22242A" xmlns="http://www.w3.org/2000/svg">
<path fill-rule="evenodd" clip-rule="evenodd" d="M11.4701 3.152C11.7944 2.94933 12.2058 2.94933 12.5301 3.152L20.5301 8.152C20.9084 8.38844 21.0843 8.84686 20.9613 9.27568C20.8383 9.7045 20.4462 10 20.0001 10H4.00008C3.55397 10 3.16182 9.7045 3.03884 9.27568C2.91585 8.84686 3.09178 8.38844 3.47009 8.152L11.4701 3.152ZM7.48688 8H16.5133L12.0001 5.17925L7.48688 8Z" />
<path fill-rule="evenodd" clip-rule="evenodd" d="M7 17C6.44772 17 6 16.5523 6 16L6 13C6 12.4477 6.44772 12 7 12C7.55228 12 8 12.4477 8 13L8 16C8 16.5523 7.55228 17 7 17Z" />
<path fill-rule="evenodd" clip-rule="evenodd" d="M12 17C11.4477 17 11 16.5523 11 16L11 13C11 12.4477 11.4477 12 12 12C12.5523 12 13 12.4477 13 13L13 16C13 16.5523 12.5523 17 12 17Z" />
<path fill-rule="evenodd" clip-rule="evenodd" d="M17 17C16.4477 17 16 16.5523 16 16L16 13C16 12.4477 16.4477 12 17 12C17.5523 12 18 12.4477 18 13L18 16C18 16.5523 17.5523 17 17 17Z" />
<path fill-rule="evenodd" clip-rule="evenodd" d="M20 20C20 20.5523 19.5523 21 19 21L5 21C4.44772 21 4 20.5523 4 20C4 19.4477 4.44772 19 5 19L19 19C19.5523 19 20 19.4477 20 20Z" />
</svg>
