<svg width="17" height="16" viewBox="0 0 17 16" fill="#0B43DA" xmlns="http://www.w3.org/2000/svg">
<path d="M1.00775 14.5079L4.11111 11.5L2.37404 9.76293C1.7989 9.18779 2.11445 8.20315 2.91676 8.06943L3.66667 7.94444L5.75276 7.59676C6.13194 7.53357 6.48461 7.36248 6.76905 7.1039L8.77778 5.27778L10.9982 3.25922C11.1443 3.12642 11.2478 2.95335 11.2957 2.76182L11.6667 1.27778L11.6827 1.21346C11.8713 0.459369 12.8104 0.199255 13.36 0.748885L15.856 3.24493C16.3693 3.75816 16.1423 4.63393 15.4444 4.83333L14.138 5.20659C13.9746 5.25328 13.8258 5.34084 13.7057 5.46101L11.4444 7.72222L9.45321 9.71346C9.15845 10.0082 8.96316 10.3877 8.89463 10.7989L8.55556 12.8333L8.43057 13.5833C8.29685 14.3856 7.31221 14.7011 6.73707 14.126L5 12.3889L1.99213 15.4922C1.72159 15.7714 1.27487 15.7749 1 15.5C0.72513 15.2251 0.72862 14.7784 1.00775 14.5079Z" fill="#0B43DA"/>
</svg>
