<svg width="22" height="19" viewBox="0 0 22 19" fill="#0024A0" xmlns="http://www.w3.org/2000/svg">
<path fill-rule="evenodd" clip-rule="evenodd" d="M4 0C4.55228 0 5 0.447715 5 1V3L7 3C7.55228 3 8 3.44772 8 4C8 4.55228 7.55228 5 7 5H5V7C5 7.55228 4.55228 8 4 8C3.44771 8 3 7.55228 3 7V5H1C0.447715 5 0 4.55228 0 4C0 3.44771 0.447715 3 1 3L3 3V1C3 0.447715 3.44772 0 4 0ZM9 4C9 3.44772 9.44772 3 10 3H12.7583H15.9995V3.00378L18.6773 3.00929L18.6773 3.01319C20.1335 3.01441 21.1813 4.31118 21.1813 5.63635V7.615C21.6715 8.00958 21.9995 8.60992 21.9995 9.31811V11.7726C21.9995 12.2782 21.8273 12.7259 21.507 13.0766C21.4055 13.1877 21.2953 13.2824 21.1813 13.3636V15.4544C21.1813 16.9092 19.9997 18.0907 18.545 18.0907H4.63589C3.1811 18.0907 1.99951 16.9091 1.99951 15.4544V10C1.99951 9.44772 2.44723 9 2.99951 9C3.5518 9 3.99951 9.44772 3.99951 10V15.4544C3.99951 15.8045 4.28567 16.0907 4.63589 16.0907H18.545C18.8952 16.0907 19.1813 15.8046 19.1813 15.4544V14H16.9086C15.9584 14 15.013 13.6352 14.2981 13.0587C13.5847 12.4834 12.9995 11.6075 12.9995 10.5454C12.9995 9.47982 13.6019 8.58654 14.3046 7.9983C15.0111 7.40695 15.959 7 16.9086 7H19.1813V5.63635C19.1813 5.24644 18.8665 5.01319 18.6752 5.01319V4.00929L18.6732 5.00928L14.1578 5H12.7583H10C9.44772 5 9 4.55228 9 4ZM19.4888 9H16.9086C16.5047 9 15.9981 9.18897 15.5884 9.53193C15.1749 9.87799 14.9995 10.2574 14.9995 10.5454C14.9995 10.8367 15.1645 11.1881 15.5535 11.5018C15.941 11.8143 16.4502 12 16.9086 12H19.3336L19.8455 11.8175C19.9183 11.7915 19.9674 11.7676 19.9986 11.749L19.9995 11.7485V9.31811C19.9995 9.27274 19.9866 9.23979 19.9658 9.21173C19.9426 9.18057 19.903 9.14773 19.8455 9.1272L19.4888 9Z" fill="#0024A0"/>
</svg>
