<svg width="24" height="24" viewBox="0 0 24 24" fill="#7B7E86" xmlns="http://www.w3.org/2000/svg">
<path fill-rule="evenodd" clip-rule="evenodd" d="M8.97963 12.6502C8.23065 12.6502 7.62963 13.2512 7.62963 14.0002V15.3202C7.62963 16.0692 8.23065 16.6702 8.97963 16.6702H11.2996C12.0486 16.6702 12.6496 16.0692 12.6496 15.3202V14.0002C12.6496 13.2512 12.0486 12.6502 11.2996 12.6502H8.97963ZM8.92963 14.0002C8.92963 13.9814 8.93594 13.9706 8.943 13.9636C8.95007 13.9565 8.96083 13.9502 8.97963 13.9502H11.2996C11.3184 13.9502 11.3292 13.9565 11.3363 13.9636C11.3433 13.9706 11.3496 13.9814 11.3496 14.0002V15.3202C11.3496 15.339 11.3433 15.3498 11.3363 15.3568C11.3292 15.3639 11.3184 15.3702 11.2996 15.3702H8.97963C8.96082 15.3702 8.95007 15.3639 8.943 15.3568C8.93594 15.3498 8.92963 15.339 8.92963 15.3202V14.0002Z" fill="#7B7E86"/>
<path fill-rule="evenodd" clip-rule="evenodd" d="M8.88959 2.6002C8.88959 2.24121 8.59857 1.9502 8.23959 1.9502C7.8806 1.9502 7.58959 2.24121 7.58959 2.6002V3.9902H7.09961C5.43961 3.9902 4.09961 5.3302 4.09961 6.9902V17.1202C4.09961 18.7802 5.43961 20.1202 7.09961 20.1202H17.0996C18.7596 20.1202 20.0996 18.7802 20.0996 17.1202V6.9902C20.0996 5.3302 18.7496 3.9902 17.0996 3.9902H16.5996V2.6002C16.5996 2.24121 16.3086 1.9502 15.9496 1.9502C15.5906 1.9502 15.2996 2.24121 15.2996 2.6002V3.9902H12.7496V2.6002C12.7496 2.24121 12.4586 1.9502 12.0996 1.9502C11.7406 1.9502 11.4496 2.24121 11.4496 2.6002V3.9902H8.88959V2.6002ZM7.58959 5.2902V6.8602C7.58959 7.21918 7.8806 7.5102 8.23959 7.5102C8.59857 7.5102 8.88959 7.21918 8.88959 6.8602V5.2902H11.4496V6.8602C11.4496 7.21918 11.7406 7.5102 12.0996 7.5102C12.4586 7.5102 12.7496 7.21918 12.7496 6.8602V5.2902H15.2996V6.8602C15.2996 7.21918 15.5906 7.5102 15.9496 7.5102C16.3086 7.5102 16.5996 7.21918 16.5996 6.8602V5.2902H17.0996C18.0396 5.2902 18.7996 6.0502 18.7996 6.9902V9.35021H5.39961V6.9902C5.39961 6.0502 6.15961 5.2902 7.09961 5.2902H7.58959ZM5.39961 10.6502H18.7996V17.1202C18.7996 18.0602 18.0396 18.8202 17.0996 18.8202H7.09961C6.15961 18.8202 5.39961 18.0602 5.39961 17.1202V10.6502Z" fill="#7B7E86"/>
</svg>
