<svg width="24" height="24" viewBox="0 0 24 24" fill="#7B7E86" xmlns="http://www.w3.org/2000/svg">
<path d="M15.7131 13.12C15.9561 12.8557 15.9388 12.4445 15.6746 12.2015C15.4103 11.9586 14.9991 11.9758 14.7561 12.2401L11.6832 15.5826L10.0381 13.9376C9.78431 13.6838 9.37275 13.6838 9.11891 13.9376C8.86507 14.1914 8.86507 14.603 9.11891 14.8568L11.022 16.76C11.4041 17.142 12.0275 17.1289 12.3931 16.7312L15.7131 13.12Z" fill="#7B7E86"/>
<path fill-rule="evenodd" clip-rule="evenodd" d="M8.13998 1.9502C8.49896 1.9502 8.78998 2.24121 8.78998 2.6002V3.9902H11.35V2.6002C11.35 2.24121 11.641 1.9502 12 1.9502C12.359 1.9502 12.65 2.24121 12.65 2.6002V3.9902H15.2V2.6002C15.2 2.24121 15.491 1.9502 15.85 1.9502C16.209 1.9502 16.5 2.24121 16.5 2.6002V3.9902H17C18.65 3.9902 20 5.3302 20 6.9902V17.1202C20 18.7802 18.66 20.1202 17 20.1202H7C5.34 20.1202 4 18.7802 4 17.1202V6.9902C4 5.3302 5.34 3.9902 7 3.9902H7.48998V2.6002C7.48998 2.24121 7.78099 1.9502 8.13998 1.9502ZM7.48998 6.8602V5.2902H7C6.06 5.2902 5.3 6.0502 5.3 6.9902V9.35021H18.7V6.9902C18.7 6.0502 17.94 5.2902 17 5.2902H16.5V6.8602C16.5 7.21918 16.209 7.5102 15.85 7.5102C15.491 7.5102 15.2 7.21918 15.2 6.8602V5.2902H12.65V6.8602C12.65 7.21918 12.359 7.5102 12 7.5102C11.641 7.5102 11.35 7.21918 11.35 6.8602V5.2902H8.78998V6.8602C8.78998 7.21918 8.49896 7.5102 8.13998 7.5102C7.78099 7.5102 7.48998 7.21918 7.48998 6.8602ZM18.7 10.6502H5.3V17.1202C5.3 18.0602 6.06 18.8202 7 18.8202H17C17.94 18.8202 18.7 18.0602 18.7 17.1202V10.6502Z" fill="#7B7E86"/>
</svg>
