<svg width="20" height="18" viewBox="0 0 20 18" fill="white" xmlns="http://www.w3.org/2000/svg">
<path fill-rule="evenodd" clip-rule="evenodd" d="M0 3.75C0 3.75 0 2.5 1.25 2.5H3.88245C4.26122 2.5 4.60591 2.28605 4.8024 1.96223C5.24823 1.22748 6.12411 0 7 0H13C13.8759 0 14.7518 1.22748 15.1976 1.96223C15.3941 2.28605 15.7388 2.5 16.1175 2.5H18.75C20 2.5 20 3.75 20 3.75V16.25C20 17.5 18.75 17.5 18.75 17.5H1.25C1.25 17.5 0 17.5 0 16.25V3.75ZM1.5 5.01185C1.5 5.01185 1.5 3.99995 2.13542 3.99995H4.71632C5.17666 3.99995 5.57585 3.68524 5.72669 3.25032C5.98209 2.51389 6.43612 1.49995 7 1.49995H13C13.6248 1.49995 14.0544 2.47584 14.2888 3.20817C14.4341 3.66216 14.8424 3.99995 15.3191 3.99995H17.8646C18.5 3.99995 18.5 4.70233 18.5 4.70233V14.9881C18.5 15.9999 17.8646 15.9999 17.8646 15.9999H2.13542C2.13542 15.9999 1.5 15.9999 1.5 15.2381V5.01185Z" fill="white"/>
<path d="M14.999 9C14.999 11.7614 12.7604 14 9.99902 14C7.2376 14 4.99902 11.7614 4.99902 9C4.99902 6.23858 7.2376 4 9.99902 4C12.7604 4 14.999 6.23858 14.999 9ZM6.613 9C6.613 10.87 8.12898 12.386 9.99902 12.386C11.8691 12.386 13.385 10.87 13.385 9C13.385 7.12995 11.8691 5.61398 9.99902 5.61398C8.12898 5.61398 6.613 7.12995 6.613 9Z" fill="white"/>
</svg>
