<svg width="24" height="24" viewBox="0 0 24 24" fill="#0062FF" xmlns="http://www.w3.org/2000/svg">
    <path d="M10.79 15.29C11.07 15.57 11.53 15.56 11.8 15.27L16.22 10.47C16.46 10.2 16.44 9.79001 16.18 9.55001C15.92 9.31001 15.5 9.32001 15.26 9.59001L11.27 13.93L8.87001 11.53C8.62001 11.28 8.20001 11.28 7.95001 11.53C7.70001 11.78 7.70001 12.2 7.95001 12.45L10.79 15.29Z" fill="#0062FF"/>
    <path fill-rule="evenodd" clip-rule="evenodd" d="M12 3C7.02944 3 3 7.02944 3 12C3 16.9706 7.02944 21 12 21C16.9706 21 21 16.9706 21 12C21 7.02944 16.9706 3 12 3ZM4.3 12C4.3 7.74741 7.74741 4.3 12 4.3C16.2526 4.3 19.7 7.74741 19.7 12C19.7 16.2526 16.2526 19.7 12 19.7C7.74741 19.7 4.3 16.2526 4.3 12Z" fill="#0062FF"/>
</svg>
