<svg width="32" height="32" viewBox="0 0 32 32" fill="#22242A" xmlns="http://www.w3.org/2000/svg">
<path d="M16.911 20.2775C15.9243 19.9362 14.9021 19.8944 14.6 19V17.75C14.885 17.6106 15.6995 16.6531 15.7856 15.905C15.8363 15.7281 15.8755 15.0956 15.8755 14.9531C15.8755 14.1725 15.8635 12.5587 16.3588 11.2956C16.1859 10.4469 15.7343 9.73188 14.7659 9.6375C14.5069 9.21437 13.8432 9 12.9799 9C9.52763 9.05875 9.17487 11.4206 9.86773 14.1337C9.73347 14.21 9.5118 14.4525 9.56753 14.8825C9.6714 15.6844 10.0235 15.8875 10.2477 15.9044C10.3332 16.6531 11.1483 17.6106 11.4333 17.75V19C10.8 20.875 7 19 7 24H14.6C14.6 21.7825 15.8603 20.8269 16.911 20.2775Z" />
<path d="M15.8667 24C15.8667 20.875 19.0334 21.5 19.6667 19.8081V19.0112C17.3734 19.0112 16.7369 18.0794 16.7369 18.0794C17.9352 17.0956 15.6691 10.25 19.749 10.25C19.749 10.25 20.3 9.625 21.0119 9.625C26 9.625 23.7492 17.0581 25.0393 18.1031C25.0393 18.1031 24.5047 19.0031 22.2 19.0031V19.8081C22.8334 21.5 26 20.875 26 24H15.8667Z" />
</svg>
