<svg width="16" height="16" viewBox="0 0 16 16" fill="#ACB6C3" xmlns="http://www.w3.org/2000/svg">
<path fill-rule="evenodd" clip-rule="evenodd" d="M9.32391 8.00012L15.7257 1.59834C16.0917 1.23228 16.0917 0.640599 15.7257 0.274543C15.3596 -0.0915142 14.767 -0.0915142 14.4019 0.274543L8.00012 6.67632L1.59834 0.274543C1.23228 -0.0915142 0.640599 -0.0915142 0.274543 0.274543C-0.0915142 0.640599 -0.0915142 1.23228 0.274543 1.59834L6.67632 8.00012L0.274543 14.4019C-0.0915142 14.768 -0.0915142 15.3596 0.274543 15.7257C0.457103 15.9083 0.696772 16 0.93644 16C1.17611 16 1.41578 15.9083 1.59834 15.7257L8.00012 9.32391L14.4019 15.7257C14.5845 15.9083 14.8241 16 15.0638 16C15.3035 16 15.5431 15.9083 15.7257 15.7257C16.0917 15.3596 16.0917 14.768 15.7257 14.4019L9.32391 8.00012Z" fill="#ACB6C3"/>
</svg>
