<svg width="18" height="18" viewBox="0 0 18 18" fill="#7B7E86" xmlns="http://www.w3.org/2000/svg">
<path d="M13 6.00003C13.2538 5.74619 13.2539 5.33463 13 5.08079C12.7462 4.82695 12.3346 4.82695 12.0808 5.08079L9.00003 8.08081L6 5.08079C5.74616 4.82695 5.3346 4.82695 5.08076 5.08079C4.82692 5.33463 4.82692 5.74619 5.08076 6.00003L8.0808 9.00005L5.08079 12.0808C4.82695 12.3346 4.82695 12.7462 5.08079 13C5.33463 13.2539 5.74619 13.2539 6.00003 13L9.00003 9.91929L12 13C12.2539 13.2539 12.6654 13.2539 12.9193 13C13.1731 12.7462 13.1731 12.3346 12.9193 12.0808L9.91927 9.00005L13 6.00003Z" fill="#7B7E86"/>
<path fill-rule="evenodd" clip-rule="evenodd" d="M0 9C0 4.02944 4.02944 0 9 0C13.9706 0 18 4.02944 18 9C18 13.9706 13.9706 18 9 18C4.02944 18 0 13.9706 0 9ZM9 1.3C4.74741 1.3 1.3 4.74741 1.3 9C1.3 13.2526 4.74741 16.7 9 16.7C13.2526 16.7 16.7 13.2526 16.7 9C16.7 4.74741 13.2526 1.3 9 1.3Z" fill="#7B7E86"/>
</svg>
