<svg width="24" height="24" viewBox="0 0 24 24" fill="none" xmlns="http://www.w3.org/2000/svg">
<g clip-path="url(#clip0)">
<path d="M14.99 8.65487H14.5836C13.4803 8.68391 12.7545 7 11.9125 7L5.35111 7C4.53819 7 4.36399 8.21938 4.39302 8.74197C4.39302 8.74197 3.37687 9.2065 3.8414 11.0646C3.78333 11.0936 3.26074 11.5872 3.26074 12.5453C3.26074 13.5034 3.81237 13.9679 3.81237 13.9679C3.81237 13.9679 3.26074 14.5776 3.26074 15.4776C3.26074 16.3776 4.04463 16.8712 4.85755 16.8712H7.26728C9.35764 16.8712 9.18344 18.0035 9.18344 18.0035C9.18344 18.0035 9.41571 20.9358 10.1706 22.3003C11.0996 23.9842 12.9577 23.4326 12.2609 21.2261C11.7383 19.6003 14.09 17.1615 14.961 16.3486M15.7739 17.4514L20.1579 17.4514C20.9708 17.4514 20.9998 16.8417 20.9998 16.0578V9.00281C20.9998 8.24796 20.9708 7.60923 20.1579 7.60923L15.7739 7.60923C14.961 7.60923 14.9319 8.21892 14.9319 9.00281L14.9319 16.0578C14.9319 16.8126 14.961 17.4514 15.7739 17.4514Z" stroke="inherit" stroke-width="1.5"/>
</g>
<defs>
<clipPath id="clip0">
<rect width="24" height="24" fill="white" transform="translate(24 24) rotate(-180)"/>
</clipPath>
</defs>
</svg>
