<svg width="24" height="24" viewBox="0 0 24 24" fill="#22242A" xmlns="http://www.w3.org/2000/svg">
<path fill-rule="evenodd" clip-rule="evenodd" d="M17.65 3.35004C19.3069 3.35004 20.65 4.69318 20.65 6.35004V16.35C20.65 18.0069 19.3069 19.35 17.65 19.35H9.65C7.99314 19.35 6.65 18.0069 6.65 16.35V6.35004C6.65 4.69318 7.99314 3.35004 9.65 3.35004H17.65ZM9.65 4.65004H17.65C18.5889 4.65004 19.35 5.41115 19.35 6.35004V16.35C19.35 17.2889 18.5889 18.05 17.65 18.05H9.65C8.71112 18.05 7.95 17.2889 7.95 16.35V6.35004C7.95 5.41115 8.71112 4.65004 9.65 4.65004ZM4 9.35004C4 8.99105 4.29101 8.70004 4.65 8.70004C5.00898 8.70004 5.3 8.99105 5.3 9.35004V18.75C5.3 19.827 6.17304 20.7 7.25 20.7H15.65C16.009 20.7 16.3 20.9911 16.3 21.35C16.3 21.709 16.009 22 15.65 22H7.25C5.45507 22 4 20.545 4 18.75V9.35004ZM13.8209 14.123C13.5509 14.413 13.0909 14.423 12.8109 14.143L10.4359 11.7568C10.1859 11.5068 10.1859 11.0868 10.4359 10.8368C10.6859 10.5868 11.1059 10.5868 11.3559 10.8368L13.2909 12.783L16.5277 9.27654C16.7677 9.00654 17.1877 8.99654 17.4477 9.23654C17.7077 9.47654 17.7277 9.88654 17.4877 10.1565L13.8209 14.123Z" fill="#22242A"/>
</svg>
