<svg width="24" height="24" viewBox="0 0 24 24" fill="#0024A0" xmlns="http://www.w3.org/2000/svg">
<path d="M8.5 7.75C8.08579 7.75 7.75 8.08579 7.75 8.5C7.75 8.91421 8.08579 9.25 8.5 9.25H14.5667C14.9809 9.25 15.3167 8.91421 15.3167 8.5C15.3167 8.08579 14.9809 7.75 14.5667 7.75H8.5Z" fill="#0024A0"/>
<path d="M8.5 10.75C8.08579 10.75 7.75 11.0858 7.75 11.5C7.75 11.9142 8.08579 12.25 8.5 12.25H14.5667C14.9809 12.25 15.3167 11.9142 15.3167 11.5C15.3167 11.0858 14.9809 10.75 14.5667 10.75H8.5Z" fill="#0024A0"/>
<path d="M8.5 13.75C8.08579 13.75 7.75 14.0858 7.75 14.5C7.75 14.9142 8.08579 15.25 8.5 15.25H12.5444C12.9587 15.25 13.2944 14.9142 13.2944 14.5C13.2944 14.0858 12.9587 13.75 12.5444 13.75H8.5Z" fill="#0024A0"/>
<path fill-rule="evenodd" clip-rule="evenodd" d="M5 6C5 4.34315 6.34315 3 8 3H15C16.6569 3 18 4.34315 18 6V18C18 19.6569 16.6569 21 15 21H8C6.34315 21 5 19.6569 5 18V6ZM6.5 6C6.5 5 7 4.5 8 4.5H15C16 4.5 16.5 5 16.5 6V18C16.5 19 16 19.5 15 19.5H8C7 19.5 6.5 19 6.5 18V6Z" fill="#0024A0"/>
</svg>
