<svg width="24" height="24" viewBox="0 0 24 24" fill="#0062FF" xmlns="http://www.w3.org/2000/svg">
<path d="M6.21885 11.2522C6.21885 11.0722 6.28885 10.9022 6.42885 10.7722C6.69885 10.5322 7.10885 10.5522 7.34885 10.8122L11.351 14.6386L11.351 4.65C11.351 4.29101 11.642 4 12.001 4C12.36 4 12.651 4.29101 12.651 4.65V14.5752L16.2988 10.7322C16.5388 10.4622 16.9488 10.4522 17.2188 10.6922C17.4788 10.9322 17.4988 11.3422 17.2588 11.6122L12.521 16.63C12.241 16.94 11.761 16.94 11.481 16.63L6.38885 11.6922C6.26885 11.5622 6.21885 11.4122 6.21885 11.2522Z" fill="#0062FF"/>
<path d="M5.0001 18.85C4.64111 18.85 4.3501 19.141 4.3501 19.5C4.3501 19.859 4.64111 20.15 5.0001 20.15H19.0001C19.3591 20.15 19.6501 19.859 19.6501 19.5C19.6501 19.141 19.3591 18.85 19.0001 18.85H5.0001Z" fill="#0062FF"/>
</svg>
