<svg width="24" height="24" viewBox="0 0 24 24" fill="#22242A" xmlns="http://www.w3.org/2000/svg">
<path d="M3.99384 11.8613L7.32717 6.86132C7.37354 6.79178 7.4516 6.75 7.53518 6.75H20C20.1381 6.75 20.25 6.86193 20.25 7V17C20.25 17.1381 20.1381 17.25 20 17.25H7.53518C7.4516 17.25 7.37354 17.2082 7.32717 17.1387L3.99384 12.1387C3.93785 12.0547 3.93785 11.9453 3.99384 11.8613Z" fill-opacity="0" stroke="#2F3441" stroke-width="1.5"/>
<path d="M8.12314 12.448H8.41114C8.46714 12.448 8.52314 12.4453 8.57914 12.44C8.63781 12.4347 8.69647 12.4227 8.75514 12.404C8.81381 12.3853 8.87114 12.36 8.92714 12.328C8.98314 12.296 9.03514 12.2533 9.08314 12.2C9.16847 12.1067 9.22181 12.0067 9.24314 11.9C9.26714 11.7933 9.27914 11.6933 9.27914 11.6C9.27914 11.5573 9.27647 11.5093 9.27114 11.456C9.26581 11.4 9.25381 11.344 9.23514 11.288C9.21914 11.2293 9.19514 11.172 9.16314 11.116C9.13381 11.06 9.09381 11.008 9.04314 10.96C8.98981 10.9093 8.91247 10.8627 8.81114 10.82C8.70981 10.7747 8.57647 10.752 8.41114 10.752H8.12314V12.448ZM7.37914 10.2H8.39514C8.49914 10.2 8.60981 10.204 8.72714 10.212C8.84714 10.22 8.96581 10.2387 9.08314 10.268C9.20047 10.2947 9.31381 10.336 9.42314 10.392C9.53514 10.448 9.63647 10.5227 9.72714 10.616C9.79647 10.688 9.85114 10.764 9.89114 10.844C9.93381 10.924 9.96581 11.0067 9.98714 11.092C10.0111 11.1747 10.0271 11.2587 10.0351 11.344C10.0431 11.4267 10.0471 11.508 10.0471 11.588C10.0471 11.668 10.0418 11.7533 10.0311 11.844C10.0231 11.932 10.0045 12.0213 9.97514 12.112C9.94847 12.2027 9.90847 12.2933 9.85514 12.384C9.80447 12.472 9.73514 12.5547 9.64714 12.632C9.55381 12.7147 9.45114 12.7813 9.33914 12.832C9.22981 12.88 9.11914 12.9173 9.00714 12.944C8.89781 12.968 8.78981 12.984 8.68314 12.992C8.57647 12.9973 8.48047 13 8.39514 13H7.37914V10.2ZM10.4564 10.916H11.1124V11.3H11.1204C11.1764 11.172 11.2538 11.068 11.3524 10.988C11.4511 10.908 11.5844 10.868 11.7524 10.868C11.7818 10.868 11.8151 10.8693 11.8524 10.872C11.8924 10.8747 11.9351 10.8813 11.9804 10.892V11.492C11.9484 11.484 11.9124 11.4787 11.8724 11.476C11.8324 11.4707 11.7938 11.468 11.7564 11.468C11.5484 11.468 11.3991 11.5267 11.3084 11.644C11.2204 11.7613 11.1764 11.92 11.1764 12.12V13H10.4564V10.916ZM12.8005 13.048C12.6965 13.048 12.5965 13.0347 12.5005 13.008C12.4072 12.9813 12.3245 12.9413 12.2525 12.888C12.1832 12.8347 12.1272 12.768 12.0845 12.688C12.0418 12.6053 12.0205 12.5093 12.0205 12.4C12.0205 12.2533 12.0498 12.1333 12.1085 12.04C12.1698 11.9467 12.2498 11.8747 12.3485 11.824C12.4498 11.7707 12.5645 11.7347 12.6925 11.716C12.8232 11.6973 12.9578 11.688 13.0965 11.688H13.4325C13.4352 11.624 13.4218 11.5707 13.3925 11.528C13.3658 11.4853 13.3285 11.4507 13.2805 11.424C13.2352 11.3973 13.1832 11.3787 13.1245 11.368C13.0658 11.3547 13.0072 11.348 12.9485 11.348C12.8472 11.348 12.7418 11.36 12.6325 11.384C12.5232 11.4053 12.4058 11.448 12.2805 11.512V11.016C12.3898 10.9707 12.5112 10.9347 12.6445 10.908C12.7805 10.8813 12.9325 10.868 13.1005 10.868C13.2365 10.868 13.3658 10.884 13.4885 10.916C13.6112 10.948 13.7178 10.9987 13.8085 11.068C13.8992 11.1373 13.9712 11.2267 14.0245 11.336C14.0778 11.4453 14.1045 11.5773 14.1045 11.732V13H13.4685V12.672H13.4605C13.3912 12.792 13.2992 12.8853 13.1845 12.952C13.0725 13.016 12.9445 13.048 12.8005 13.048ZM12.9845 12.568C13.0512 12.568 13.1112 12.5547 13.1645 12.528C13.2178 12.5013 13.2632 12.4653 13.3005 12.42C13.3378 12.3747 13.3672 12.3213 13.3885 12.26C13.4098 12.1987 13.4245 12.1333 13.4325 12.064H13.1525C13.0005 12.064 12.8858 12.084 12.8085 12.124C12.7312 12.164 12.6925 12.236 12.6925 12.34C12.6925 12.4173 12.7232 12.4747 12.7845 12.512C12.8458 12.5493 12.9125 12.568 12.9845 12.568ZM14.8022 11.42H14.3782V10.916H14.8022V10.788C14.8022 10.7453 14.8035 10.6987 14.8062 10.648C14.8088 10.5947 14.8168 10.5413 14.8302 10.488C14.8435 10.432 14.8635 10.376 14.8902 10.32C14.9195 10.264 14.9582 10.212 15.0062 10.164C15.0515 10.1187 15.1008 10.0827 15.1542 10.056C15.2102 10.0267 15.2662 10.0053 15.3222 9.992C15.3782 9.976 15.4342 9.96533 15.4902 9.96C15.5488 9.95467 15.6035 9.952 15.6542 9.952C15.7502 9.952 15.8288 9.95733 15.8902 9.968C15.9515 9.976 16.0048 9.984 16.0502 9.992V10.496C16.0048 10.4827 15.9648 10.4733 15.9302 10.468C15.8955 10.46 15.8528 10.456 15.8022 10.456C15.7728 10.456 15.7382 10.46 15.6982 10.468C15.6608 10.4733 15.6275 10.492 15.5982 10.524C15.5635 10.5613 15.5422 10.604 15.5342 10.652C15.5262 10.7 15.5222 10.7453 15.5222 10.788V10.916H16.0342V11.42H15.5222V13H14.8022V11.42ZM17.3675 13.048C17.0795 13.048 16.8715 12.9867 16.7435 12.864C16.6182 12.7387 16.5555 12.54 16.5555 12.268V11.42H16.1435V10.916H16.5555V10.448L17.2755 10.228V10.916H17.7795V11.42H17.2755V12.188C17.2755 12.3347 17.2982 12.4347 17.3435 12.488C17.3888 12.5413 17.4622 12.568 17.5635 12.568C17.6142 12.568 17.6595 12.5653 17.6995 12.56C17.7395 12.552 17.7755 12.5427 17.8075 12.532V13.008C17.7302 13.0213 17.6528 13.0307 17.5755 13.036C17.4982 13.044 17.4288 13.048 17.3675 13.048Z" fill="black"/>
</svg>
