<svg width="24" height="24" viewBox="0 0 24 24" fill="#22242A" xmlns="http://www.w3.org/2000/svg">
<path d="M16.0029 7C16.0029 9.20914 14.2121 11 12.0029 11C9.79379 11 8.00293 9.20914 8.00293 7C8.00293 4.79086 9.79379 3 12.0029 3C14.2121 3 16.0029 4.79086 16.0029 7ZM9.49913 7C9.49913 8.38281 10.6201 9.5038 12.0029 9.5038C13.3857 9.5038 14.5067 8.38281 14.5067 7C14.5067 5.61719 13.3857 4.4962 12.0029 4.4962C10.6201 4.4962 9.49913 5.61719 9.49913 7Z" fill="#2F3441"/>
<path d="M13.8776 15.8738C13.815 15.8738 13.7227 15.8295 13.6001 15.7455C13.3059 15.5342 12.5026 14.9597 11.19 14.0271L13.6132 12.2752C13.7264 12.1902 13.815 12.1482 13.8777 12.1482C14.0105 12.1482 14.0769 12.2269 14.0781 12.3871L13.8126 13.4675H20.8866L20.8853 14.5049H13.7903L14.078 15.651C14.078 15.7984 14.0103 15.8719 13.8776 15.8738ZM18.1991 19.8518C18.2619 19.8518 18.3521 19.8094 18.4661 19.7248L20.8853 17.9723C19.5741 17.0392 18.7707 16.465 18.4794 16.2538C18.3554 16.1704 18.262 16.1264 18.1991 16.1264C18.0666 16.1278 18.0012 16.2004 18.0012 16.3478L18.2893 17.4944H11.192L11.1906 18.5321L18.2653 18.5321L18.0012 19.6129C18.0012 19.7729 18.0667 19.8518 18.1991 19.8518Z" fill="#2F3441"/>
<path d="M12.5703 12.0763C12.217 12.0255 11.8595 11.9999 11.5007 12C10.3894 12.0004 9.29213 12.2478 8.28816 12.7242C7.2842 13.2006 6.39865 13.8941 5.69553 14.7546C4.99242 15.6152 4.48933 16.6212 4.22262 17.7C3.98976 18.6419 3.99617 19.6924 4.00177 20.6095C4.00258 20.7426 4.00338 20.8732 4.00342 21H11.5278C11.1293 20.5548 10.7964 20.0498 10.544 19.5H5.51068C5.52569 19.0194 5.56943 18.602 5.69553 18.0919C5.89956 17.2667 6.46521 16.1583 7.00308 15.5C7.54096 14.8417 8.23505 14.3644 9.00308 14C9.656 13.6902 10.3912 13.546 11.1192 13.5096C11.5177 12.9533 12.0089 12.468 12.5703 12.0763Z" fill="#2F3441"/>
</svg>
