<svg width="24" height="24" viewBox="0 0 24 24" fill="#7E7E7E" xmlns="http://www.w3.org/2000/svg">
<g clip-path="url(#clip0)">
<path d="M17.8838 3.88369C17.3761 3.37601 16.553 3.37601 16.0453 3.88369L14.9126 5.01638C14.6418 5.28718 14.6389 5.72532 14.9061 5.9997L16.9244 8.07252C17.1967 8.35211 17.645 8.3551 17.9209 8.07915L19.0404 6.95964C19.5481 6.45196 19.5481 5.62884 19.0404 5.12116L17.8838 3.88369Z" fill="#7E7E7E"/>
<path d="M16.0116 9.98843C16.2824 9.71763 16.2853 9.27949 16.0182 9.00511L13.9998 6.93229C13.7276 6.6527 13.2793 6.64972 13.0033 6.92566L5.57294 14.3561C5.17537 14.7536 4.89752 15.2549 4.77109 15.8028L4.3716 17.5339C4.15558 18.47 4.45413 18.8494 5.39022 18.6333L7.12132 18.2339C7.66918 18.1074 8.17049 17.8296 8.56807 17.432L16.0116 9.98843Z" fill="#7E7E7E"/>
</g>
<defs>
<clipPath id="clip0">
<rect width="24" height="24" fill="white"/>
</clipPath>
</defs>
</svg>
