<svg width="48" height="48" viewBox="0 0 48 48" fill="#0062FF" xmlns="http://www.w3.org/2000/svg">
<path d="M16.8929 15H12.8029V22H14.1929V19.06H16.7629V17.9H14.1929V16.16H16.8929V15Z" />
<path fill-rule="evenodd" clip-rule="evenodd" d="M21.1255 15H19.5555L17.0055 22H18.4555L18.9655 20.46H21.6555L22.1655 22H23.6855L21.1255 15ZM21.2855 19.35H19.3355L20.3055 16.49H20.3255L21.2855 19.35Z" />
<path fill-rule="evenodd" clip-rule="evenodd" d="M25.8371 21.84C26.2504 22.0133 26.7204 22.1 27.2471 22.1C27.4537 22.1 27.6337 22.0867 27.7871 22.06L28.9371 23.29H30.5271L28.9571 21.7C29.4771 21.4133 29.8704 20.9967 30.1371 20.45C30.4104 19.8967 30.5471 19.2467 30.5471 18.5C30.5471 17.96 30.4737 17.47 30.3271 17.03C30.1804 16.59 29.9671 16.2133 29.6871 15.9C29.4071 15.58 29.0604 15.3333 28.6471 15.16C28.2404 14.9867 27.7737 14.9 27.2471 14.9C26.7271 14.9 26.2604 14.9867 25.8471 15.16C25.4404 15.3267 25.0937 15.5667 24.8071 15.88C24.5271 16.1933 24.3137 16.5733 24.1671 17.02C24.0204 17.46 23.9471 17.9533 23.9471 18.5C23.9471 19.04 24.0204 19.5333 24.1671 19.98C24.3137 20.42 24.5271 20.7967 24.8071 21.11C25.0871 21.4233 25.4304 21.6667 25.8371 21.84ZM28.0471 20.73C27.8204 20.8567 27.5537 20.92 27.2471 20.92C26.9404 20.92 26.6704 20.8567 26.4371 20.73C26.2104 20.6033 26.0171 20.4333 25.8571 20.22C25.7037 20 25.5871 19.7433 25.5071 19.45C25.4337 19.1567 25.3971 18.84 25.3971 18.5C25.3971 18.1733 25.4337 17.8633 25.5071 17.57C25.5871 17.2767 25.7037 17.02 25.8571 16.8C26.0171 16.58 26.2104 16.4067 26.4371 16.28C26.6704 16.1467 26.9404 16.08 27.2471 16.08C27.5471 16.08 27.8104 16.1433 28.0371 16.27C28.2704 16.39 28.4637 16.56 28.6171 16.78C28.7771 17 28.8937 17.2567 28.9671 17.55C29.0471 17.8433 29.0871 18.16 29.0871 18.5C29.0871 18.8333 29.0471 19.1467 28.9671 19.44C28.8937 19.7333 28.7804 19.99 28.6271 20.21C28.4737 20.43 28.2804 20.6033 28.0471 20.73Z" />
<path fill-rule="evenodd" clip-rule="evenodd" d="M11.85 7.2C8.61913 7.2 6 9.88354 6 13.1939V34.5978C6 36.7757 8.45878 37.9865 10.1186 36.626L16.7683 31.1754H31.35C34.5809 31.1754 37.2 28.4919 37.2 25.1816V13.1939C37.2 9.88354 34.5809 7.2 31.35 7.2H11.85ZM15.879 28.5781L8.535 34.5978L8.535 13.1939C8.535 11.318 10.0192 9.79733 11.85 9.79733H31.35C33.1808 9.79733 34.665 11.318 34.665 13.1939V25.1816C34.665 27.0574 33.1808 28.5781 31.35 28.5781H15.879Z"/>
<path d="M39.465 38.9978V18.8613C39.465 18.1613 40.0325 17.5938 40.7325 17.5938C41.4325 17.5938 42 18.1613 42 18.8613V38.9978C42 41.1757 39.5412 42.3865 37.8814 41.026L31.2317 35.5754H17.9487C17.2314 35.5754 16.65 34.994 16.65 34.2767C16.65 33.5595 17.2314 32.9781 17.9487 32.9781H32.121L39.465 38.9978Z" />
</svg>
