<svg width="18" height="18" viewBox="0 0 18 18" fill="#0024A0" xmlns="http://www.w3.org/2000/svg">
<path d="M17.8798 0.114912C17.7902 0.0249203 17.67 -0.00903125 17.5531 0.00201322H0.449356C0.332417 -0.0086222 0.212616 0.0253293 0.123072 0.114912C0.0862731 0.151727 0.0596961 0.194678 0.04007 0.240083C0.0159462 0.292442 0 0.34971 0 0.411068C0 0.530512 0.0527451 0.635639 0.134521 0.710086L6.13316 9.11166V17.5635C6.12989 17.6257 6.13929 17.6879 6.16464 17.746C6.22556 17.8949 6.37112 18 6.54204 18C6.66593 18 6.77305 17.9419 6.84828 17.8552L11.7466 12.9658C11.8394 12.8729 11.8722 12.7477 11.8574 12.6271V9.1137L17.8798 0.694133C18.0401 0.534193 18.0401 0.274853 17.8798 0.114912ZM10.5 8.5C10.4145 8.58549 10.4943 8.99958 10.5 9.11166V12L7.5 15.5V9.1137C7.50572 9.00203 7.58546 8.58549 7.5 8.5L2.5 1.5H15.5L10.5 8.5Z" fill="#0024A0"/>
</svg>
