<svg width="32" height="32" viewBox="0 0 32 32" fill="#22242A" xmlns="http://www.w3.org/2000/svg">
<path fill-rule="evenodd" clip-rule="evenodd" d="M23.0059 13.0736L17.3502 8.54159C16.7398 7.81947 15.6352 7.81947 15.0248 8.54159L9.36913 13.0736C8.52185 14.076 9.22697 15.6208 10.5317 15.6208H10.9508C10.9499 15.6441 10.9473 15.667 10.9473 15.6906V21.2389C10.9473 22.2115 11.7279 23 12.6909 23H14.188V19.3461C14.188 18.3734 14.9686 17.5849 15.9315 17.5849H16.4988C17.4618 17.5849 18.2423 18.3734 18.2423 19.3461V23H19.6842C20.647 23 21.4277 22.2115 21.4277 21.2389V15.6906C21.4277 15.667 21.425 15.6441 21.4242 15.6208H21.8432C23.148 15.6208 23.8532 14.076 23.0059 13.0736Z" />
</svg>
