<svg width="16" height="16" viewBox="0 0 16 16" fill="none" xmlns="http://www.w3.org/2000/svg">
<path fill-rule="evenodd" clip-rule="evenodd" d="M0 8C0 3.58172 3.58172 0 8 0C12.4183 0 16 3.58172 16 8C16 12.4183 12.4183 16 8 16C3.58172 16 0 12.4183 0 8ZM7.99999 3.77778C8.36818 3.77778 8.66666 4.07625 8.66666 4.44444V8.88889C8.66666 9.25708 8.36818 9.55556 7.99999 9.55556C7.6318 9.55556 7.33333 9.25708 7.33333 8.88889V4.44444C7.33333 4.07625 7.6318 3.77778 7.99999 3.77778ZM7.99999 12.1778C8.41728 12.1778 8.75555 11.8395 8.75555 11.4222C8.75555 11.005 8.41728 10.6667 7.99999 10.6667C7.58271 10.6667 7.24444 11.005 7.24444 11.4222C7.24444 11.8395 7.58271 12.1778 7.99999 12.1778Z" fill="#3A85FF"/>
</svg>
