<svg width="24" height="24" viewBox="0 0 24 24" fill="none" xmlns="http://www.w3.org/2000/svg">
<path d="M7.24536 20.8529C6.70153 20.8529 6.16819 20.7494 5.65982 20.5443C5.42644 20.4501 5.36499 20.1482 5.54295 19.9703L7.47846 18.0348C7.69403 17.8195 7.81268 17.5327 7.81268 17.2283C7.81268 16.9232 7.69403 16.6371 7.47846 16.4212C7.04695 15.9897 6.29597 15.9897 5.86451 16.4212L3.90836 18.3779C3.73246 18.5538 3.43443 18.4961 3.337 18.2671C3.11341 17.7412 3 17.1837 3 16.6082C3 14.2672 4.90468 12.3629 7.24536 12.3629C7.74565 12.3629 8.2337 12.4492 8.69991 12.6198L12.7301 8.58934C12.5837 8.15329 12.5096 7.70211 12.5096 7.24503C12.5096 4.9043 14.4143 3 16.755 3C17.3153 3 17.8609 3.10849 18.377 3.32231C18.6082 3.41812 18.6679 3.71815 18.4909 3.89512L16.5215 5.86424C16.3059 6.0798 16.1873 6.36666 16.1873 6.67138C16.1873 6.9761 16.3059 7.26295 16.5215 7.47852C16.953 7.90932 17.7046 7.90932 18.1354 7.47852L20.1047 5.50921C20.2816 5.33231 20.5815 5.3919 20.6774 5.623C20.8912 6.13979 21 6.68542 21 7.24503C21 9.58577 19.0957 11.4901 16.755 11.4901C16.2547 11.4901 15.7666 11.4037 15.3 11.2331L11.2695 15.2636C11.4163 15.6996 11.4903 16.1508 11.4903 16.6083C11.4904 18.9486 9.58609 20.8529 7.24536 20.8529ZM6.44702 20.0587C6.70825 20.1198 6.97539 20.1507 7.24503 20.1507C9.1985 20.1507 10.7879 18.5621 10.7879 16.6082C10.7879 16.1624 10.7032 15.7235 10.5361 15.3032L10.4512 15.0887L15.1351 10.4051L15.3538 10.4996C15.7986 10.6913 16.2698 10.7882 16.7546 10.7882C18.7081 10.7882 20.2975 9.19883 20.2975 7.24536C20.2975 6.96135 20.2638 6.68187 20.1978 6.40943L18.6316 7.97531C18.2836 8.32324 17.8206 8.51493 17.3283 8.51493C16.8365 8.51493 16.3731 8.32357 16.0247 7.97531C15.6765 7.62705 15.4848 7.16396 15.4848 6.67171C15.4848 6.17945 15.6765 5.71641 16.0247 5.3681L17.5906 3.80222C17.3185 3.73623 17.039 3.70253 16.7547 3.70253C14.8012 3.70253 13.2115 5.29189 13.2115 7.24536C13.2115 7.69091 13.2961 8.12975 13.4629 8.55L13.5478 8.76453L8.86428 13.4477L8.64555 13.3537C8.20071 13.1617 7.72992 13.0651 7.24503 13.0651C5.29157 13.0651 3.70182 14.6544 3.70182 16.6083C3.70182 16.906 3.73831 17.1988 3.81064 17.4818L5.36805 15.9244C5.71598 15.5761 6.17906 15.3848 6.67127 15.3848C7.16347 15.3848 7.62656 15.5761 7.97487 15.9244C8.32313 16.2726 8.51482 16.7357 8.51482 17.228C8.51482 17.7202 8.32313 18.1833 7.97487 18.5309L6.44702 20.0587Z" fill="#22242A" stroke="#22242A" stroke-width="0.3"/>
</svg>
