<svg width="24" height="24" viewBox="0 0 24 24" fill="#22242A" xmlns="http://www.w3.org/2000/svg">
<path d="M13.2994 9.33712C13.1025 9.21056 12.873 9.17624 12.6609 9.2235C12.4511 9.27018 12.2588 9.39674 12.1333 9.59194C12.0073 9.78824 11.973 10.0166 12.0197 10.2276C12.0658 10.4385 12.1924 10.632 12.3881 10.7574C13.2021 11.2789 13.6875 12.1643 13.6875 13.125C13.6875 13.8765 13.395 14.5824 12.864 15.1134L9.48903 18.4884C8.95747 19.02 8.25097 19.3125 7.50003 19.3125C5.94921 19.3125 4.68753 18.0508 4.68753 16.5C4.68753 15.7485 4.98003 15.0426 5.51103 14.5116L7.11191 12.9101C7.28065 12.7414 7.36279 12.5192 7.35941 12.2981C7.35547 12.0872 7.27335 11.8779 7.11191 11.7171C6.94709 11.5522 6.73109 11.4696 6.51568 11.4696C6.29968 11.4696 6.08368 11.5517 5.91944 11.7171L4.31856 13.3185C3.468 14.1679 3 15.2979 3 16.5C3 18.9812 5.01882 21 7.5 21C8.70206 21 9.83212 20.532 10.6821 19.6815L14.0571 16.3065C14.907 15.4577 15.375 14.3271 15.375 13.125C15.375 11.5866 14.5993 10.1708 13.2994 9.33712ZM16.5 3C15.2979 3 14.1679 3.468 13.3179 4.3185L9.94294 7.6935C9.093 8.54229 8.625 9.67294 8.625 10.8744C8.625 12.4129 9.40071 13.8292 10.7006 14.6629C10.8975 14.7889 11.127 14.8232 11.3391 14.7759C11.5489 14.7298 11.7412 14.6033 11.8667 14.4081C11.9927 14.2112 12.027 13.9828 11.9803 13.7719C11.9342 13.5609 11.8076 13.3674 11.6119 13.2426C10.7985 12.7206 10.3125 11.8352 10.3125 10.8744C10.3125 10.1229 10.605 9.417 11.136 8.886L14.511 5.511C15.0426 4.98 15.7491 4.6875 16.5 4.6875C18.0508 4.6875 19.3125 5.94918 19.3125 7.49944C19.3125 8.25094 19.02 8.95688 18.489 9.48788L16.8881 11.0888C16.7194 11.2575 16.6372 11.4797 16.6406 11.7008C16.6446 11.9117 16.7267 12.121 16.8881 12.2818C17.0529 12.4466 17.2689 12.5288 17.4849 12.5288C17.7009 12.5288 17.9169 12.4466 18.0812 12.2818L19.6821 10.6804C20.532 9.83212 21 8.7015 21 7.49944C21 5.01882 18.9812 3 16.5 3Z" fill="#2F3441"/>
</svg>
