<svg width="24" height="24" viewBox="0 0 24 24" fill="#7B7E86" xmlns="http://www.w3.org/2000/svg">
<path fill-rule="evenodd" clip-rule="evenodd" d="M7.84979 10.1002C7.84979 7.80818 9.70781 5.95016 11.9998 5.95016C14.2918 5.95016 16.1498 7.80818 16.1498 10.1002C16.1498 12.3921 14.2918 14.2502 11.9998 14.2502C9.70781 14.2502 7.84979 12.3921 7.84979 10.1002ZM11.9998 7.25016C10.4258 7.25016 9.14979 8.52615 9.14979 10.1002C9.14979 11.6742 10.4258 12.9502 11.9998 12.9502C13.5738 12.9502 14.8498 11.6742 14.8498 10.1002C14.8498 8.52615 13.5738 7.25016 11.9998 7.25016Z" fill="#7B7E86"/>
<path fill-rule="evenodd" clip-rule="evenodd" d="M11.6234 3.1301C14.8959 2.93247 18.372 4.83997 18.8885 9.06727C18.9248 9.36495 18.9468 9.64179 18.9503 9.89106C18.9691 11.2374 18.5412 12.5996 17.9291 13.8586C17.3147 15.122 16.4959 16.32 15.6867 17.3493C14.876 18.3804 14.0649 19.255 13.457 19.8714C13.1239 20.2092 12.7863 20.5435 12.4313 20.8585C12.1853 21.0764 11.8146 21.0758 11.5686 20.8579C11.6132 20.8085 11.5688 20.858 11.5686 20.8579C11.2144 20.5425 10.8765 20.209 10.5436 19.8714C9.93575 19.255 9.12463 18.3804 8.31397 17.3493C7.50474 16.32 6.68593 15.122 6.07161 13.8585C5.45949 12.5996 5.03155 11.2374 5.0504 9.89106C5.10997 5.63761 8.35235 3.32764 11.6234 3.1301ZM12.0003 19.4832C11.8529 19.3416 11.673 19.1653 11.4693 18.9587C10.8853 18.3664 10.1087 17.5288 9.33595 16.5458C8.56174 15.561 7.80133 14.443 7.24073 13.2901C6.67795 12.1327 6.33531 10.9783 6.35028 9.90926C6.39836 6.47577 8.96127 4.59324 11.7017 4.42774C14.4406 4.26234 17.1822 5.82127 17.5981 9.22492C17.6306 9.4915 17.6478 9.71973 17.6504 9.90926C17.6654 10.9783 17.3227 12.1327 16.7599 13.2901C16.1993 14.443 15.4389 15.561 14.6647 16.5458C13.8919 17.5288 13.1153 18.3664 12.5314 18.9587C12.3276 19.1653 12.1478 19.3416 12.0003 19.4832Z" fill="#7B7E86"/>
</svg>
