<svg width="24" height="24" viewBox="0 0 24 24" fill="#7B7E86" xmlns="http://www.w3.org/2000/svg">
<path d="M12.65 13.6416C12.65 13.2826 12.359 12.9916 12 12.9916C11.641 12.9916 11.35 13.2826 11.35 13.6416V15.3581C11.35 15.7171 11.641 16.0081 12 16.0081C12.359 16.0081 12.65 15.7171 12.65 15.3581V13.6416Z" fill="#7B7E86"/>
<path fill-rule="evenodd" clip-rule="evenodd" d="M8.0156 7.08411L8.01561 8.99984H8C6.34315 8.99984 5 10.343 5 11.9998V16.9998C5 18.6567 6.34315 19.9998 8 19.9998H16C17.6569 19.9998 19 18.6567 19 16.9998V11.9998C19 10.343 17.6569 8.99984 16 8.99984H15.9602L15.9602 7.0841C15.9602 4.89027 14.1817 3.11182 11.9879 3.11182C9.79406 3.11182 8.0156 4.89028 8.0156 7.08411ZM11.9879 4.44182C10.5286 4.44182 9.3456 5.62481 9.3456 7.08411L9.34561 8.99984H14.6302L14.6302 7.0841C14.6302 5.62481 13.4472 4.44182 11.9879 4.44182ZM16 10.2998H8C7.06112 10.2998 6.3 11.061 6.3 11.9998V16.9998C6.3 17.9387 7.06112 18.6998 8 18.6998H16C16.9389 18.6998 17.7 17.9387 17.7 16.9998V11.9998C17.7 11.061 16.9389 10.2998 16 10.2998Z" fill="#7B7E86"/>
</svg>
