<svg width="19" height="21" viewBox="0 0 19 21" fill="#22242A" xmlns="http://www.w3.org/2000/svg">
<g id="Group 6663">
<path id="Vector 22" d="M0.207043 16.3633C0.707043 15.8636 3.20704 13.3633 3.20704 13.3633C3.20704 13.3633 2.95628 14.3339 3.20704 14.8633C3.50843 15.4995 4.20705 15.8633 4.70704 15.8633C5.20703 15.8633 6.31264 15.184 6.70704 15.3633C7.10144 15.5425 7.20704 15.8633 7.20704 15.8633C7.20704 15.8633 4.20703 19.3633 3.70704 19.8633C3.03253 20.5378 2.34614 18.92 2.24405 17.9716C2.20704 17.6277 2.20704 17.3633 2.20704 17.3633H0.707043C0.207394 17.3633 -0.292957 16.8629 0.207043 16.3633Z" fill="#2F3441"/>
<path id="Vector 23" d="M18.0028 16.3646C17.5026 15.8647 15.0016 13.3633 15.0016 13.3633C15.0016 13.3633 15.2525 14.3343 15.0016 14.8639C14.7001 15.5005 14.0012 15.8644 13.501 15.8644C13.0008 15.8644 11.8947 15.1848 11.5002 15.3641C11.1056 15.5435 11 15.8644 11 15.8644C11 15.8644 14.0012 19.3659 14.5014 19.8661C15.1762 20.5409 15.8629 18.9224 15.965 17.9736C16.002 17.6296 16.002 17.365 16.002 17.365H17.5026C18.0025 17.365 18.503 16.8644 18.0028 16.3646Z" fill="#2F3441"/>
<g id="Group 6662">
<path id="Subtract" fill-rule="evenodd" clip-rule="evenodd" d="M9.79125 0.388926C9.39092 -0.129642 8.60842 -0.129642 8.2081 0.388926L7.35898 1.48886C7.10729 1.81489 6.68144 1.95326 6.28619 1.83743L4.95271 1.44667C4.32404 1.26244 3.69098 1.72238 3.67192 2.37722L3.63149 3.76618C3.61951 4.17789 3.35632 4.54013 2.96847 4.67875L1.65998 5.14642C1.04308 5.3669 0.801275 6.1111 1.17076 6.65208L1.95446 7.79954C2.18676 8.13966 2.18676 8.58742 1.95446 8.92754L1.17076 10.075C0.801275 10.616 1.04308 11.3602 1.65998 11.5807L2.96847 12.0483C3.35632 12.1869 3.61951 12.5492 3.63149 12.9609L3.67192 14.3499C3.69098 15.0047 4.32404 15.4646 4.95271 15.2804L6.28619 14.8896C6.68144 14.7738 7.10729 14.9122 7.35898 15.2382L8.2081 16.3381C8.60842 16.8567 9.39092 16.8567 9.79125 16.3381L10.6404 15.2382C10.8921 14.9122 11.3179 14.7738 11.7132 14.8896L13.0466 15.2804C13.6753 15.4646 14.3084 15.0047 14.3274 14.3499L14.3679 12.9609C14.3798 12.5492 14.643 12.1869 15.0309 12.0483L16.3394 11.5807C16.9563 11.3602 17.1981 10.616 16.8286 10.075L16.0449 8.92754C15.8126 8.58742 15.8126 8.13966 16.0449 7.79954L16.8286 6.65208C17.1981 6.1111 16.9563 5.3669 16.3394 5.14641L15.0309 4.67875C14.643 4.54013 14.3798 4.17789 14.3679 3.76618L14.3274 2.37722C14.3084 1.72238 13.6753 1.26244 13.0466 1.44667L11.7132 1.83743C11.3179 1.95326 10.8921 1.81489 10.6404 1.48886L9.79125 0.388926ZM8.99967 14.3635C12.3134 14.3635 14.9997 11.6772 14.9997 8.36354C14.9997 5.04983 12.3134 2.36354 8.99967 2.36354C5.68596 2.36354 2.99967 5.04983 2.99967 8.36354C2.99967 11.6772 5.68596 14.3635 8.99967 14.3635Z" fill="#2F3441"/>
<path id="Subtract_2" fill-rule="evenodd" clip-rule="evenodd" d="M9 13.3633C11.7614 13.3633 14 11.1247 14 8.36328C14 5.60186 11.7614 3.36328 9 3.36328C6.23858 3.36328 4 5.60186 4 8.36328C4 11.1247 6.23858 13.3633 9 13.3633ZM9 11.3633C10.6569 11.3633 12 10.0201 12 8.36328C12 6.70643 10.6569 5.36328 9 5.36328C7.34315 5.36328 6 6.70643 6 8.36328C6 10.0201 7.34315 11.3633 9 11.3633Z" fill="#2F3441"/>
</g>
</g>
</svg>
