<svg width="24" height="24" viewBox="0 0 24 24" fill="#22242A" xmlns="http://www.w3.org/2000/svg">
<path fill-rule="evenodd" clip-rule="evenodd" d="M8.98012 12.6502C8.23114 12.6502 7.63012 13.2512 7.63012 14.0002V15.3202C7.63012 16.0692 8.23114 16.6702 8.98012 16.6702H11.3001C12.0491 16.6702 12.6501 16.0692 12.6501 15.3202V14.0002C12.6501 13.2512 12.0491 12.6502 11.3001 12.6502H8.98012ZM8.93012 14.0002C8.93012 13.9814 8.93642 13.9706 8.94349 13.9636C8.95056 13.9565 8.96131 13.9502 8.98012 13.9502H11.3001C11.3189 13.9502 11.3297 13.9565 11.3368 13.9636C11.3438 13.9706 11.3501 13.9814 11.3501 14.0002V15.3202C11.3501 15.339 11.3438 15.3498 11.3368 15.3568C11.3297 15.3639 11.3189 15.3702 11.3001 15.3702H8.98012C8.96131 15.3702 8.95056 15.3639 8.94349 15.3568C8.93642 15.3498 8.93012 15.339 8.93012 15.3202V14.0002Z" fill="#2F3441"/>
<path fill-rule="evenodd" clip-rule="evenodd" d="M8.89007 2.6002C8.89007 2.24121 8.59906 1.9502 8.24007 1.9502C7.88109 1.9502 7.59007 2.24121 7.59007 2.6002V3.9902H7.1001C5.4401 3.9902 4.1001 5.3302 4.1001 6.9902V17.1202C4.1001 18.7802 5.4401 20.1202 7.1001 20.1202H17.1001C18.7601 20.1202 20.1001 18.7802 20.1001 17.1202V6.9902C20.1001 5.3302 18.7501 3.9902 17.1001 3.9902H16.6001V2.6002C16.6001 2.24121 16.3091 1.9502 15.9501 1.9502C15.5911 1.9502 15.3001 2.24121 15.3001 2.6002V3.9902H12.7501V2.6002C12.7501 2.24121 12.4591 1.9502 12.1001 1.9502C11.7411 1.9502 11.4501 2.24121 11.4501 2.6002V3.9902H8.89007V2.6002ZM7.59007 5.2902V6.8602C7.59007 7.21918 7.88109 7.5102 8.24007 7.5102C8.59906 7.5102 8.89007 7.21918 8.89007 6.8602V5.2902H11.4501V6.8602C11.4501 7.21918 11.7411 7.5102 12.1001 7.5102C12.4591 7.5102 12.7501 7.21918 12.7501 6.8602V5.2902H15.3001V6.8602C15.3001 7.21918 15.5911 7.5102 15.9501 7.5102C16.3091 7.5102 16.6001 7.21918 16.6001 6.8602V5.2902H17.1001C18.0401 5.2902 18.8001 6.0502 18.8001 6.9902V9.35021H5.4001V6.9902C5.4001 6.0502 6.1601 5.2902 7.1001 5.2902H7.59007ZM5.4001 10.6502H18.8001V17.1202C18.8001 18.0602 18.0401 18.8202 17.1001 18.8202H7.1001C6.1601 18.8202 5.4001 18.0602 5.4001 17.1202V10.6502Z" fill="#2F3441"/>
</svg>
