<svg width="24" height="24" viewBox="0 0 24 24" fill="#22242A" xmlns="http://www.w3.org/2000/svg">
<mask id="path-2-inside-1" fill="white">
<path fill-rule="evenodd" clip-rule="evenodd" d="M16.0877 4.58734L16.8281 5.43125L19.2687 3.30178C17.404 2.68573 15.3361 3.00501 13.818 4.33206C12.7552 5.26112 12.1463 6.52522 12.001 7.86133C11.6864 7.24471 11.2383 6.66174 10.664 6.16038C9.34283 5.00703 7.69189 4.57242 6.28564 4.86638L8.40275 6.71806L8.90619 6.14279L8.75572 7.02679L10.1669 8.26101L10.6696 7.68574L10.5199 8.56974L10.6633 8.69524C9.71468 8.17075 8.62091 7.92328 7.48594 8.04361C5.46938 8.2574 3.81914 9.57882 3 11.3897L6.24 11.0465L6.12188 9.91076L6.78 10.9896L8.94 10.761L8.82188 9.62524L9.48 10.704L11.4498 10.4946C10.3659 13.4951 9.94745 16.7942 10.3151 20.1461C10.3691 20.6383 10.7923 21.0006 11.2875 21.0006H12.4393C13.1186 21.0006 13.6007 20.337 13.4378 19.6774C12.6744 16.5864 12.6948 13.3515 13.499 10.2681L14.7105 10.5435L15.4791 9.55894L15.2344 10.6624L17.3318 11.1335L18.1003 10.149L17.8556 11.2524L21 11.9634C20.4002 10.0892 18.9286 8.59899 16.9711 8.15594C15.528 7.82932 14.0842 8.13103 12.8898 8.88807L12.8828 8.88646L14.3904 7.56775L14.0557 6.36518L14.7961 7.20909L16.4217 5.78991L16.0877 4.58734Z"/>
</mask>
<path fill-rule="evenodd" clip-rule="evenodd" d="M16.0877 4.58734L16.8281 5.43125L19.2687 3.30178C17.404 2.68573 15.3361 3.00501 13.818 4.33206C12.7552 5.26112 12.1463 6.52522 12.001 7.86133C11.6864 7.24471 11.2383 6.66174 10.664 6.16038C9.34283 5.00703 7.69189 4.57242 6.28564 4.86638L8.40275 6.71806L8.90619 6.14279L8.75572 7.02679L10.1669 8.26101L10.6696 7.68574L10.5199 8.56974L10.6633 8.69524C9.71468 8.17075 8.62091 7.92328 7.48594 8.04361C5.46938 8.2574 3.81914 9.57882 3 11.3897L6.24 11.0465L6.12188 9.91076L6.78 10.9896L8.94 10.761L8.82188 9.62524L9.48 10.704L11.4498 10.4946C10.3659 13.4951 9.94745 16.7942 10.3151 20.1461C10.3691 20.6383 10.7923 21.0006 11.2875 21.0006H12.4393C13.1186 21.0006 13.6007 20.337 13.4378 19.6774C12.6744 16.5864 12.6948 13.3515 13.499 10.2681L14.7105 10.5435L15.4791 9.55894L15.2344 10.6624L17.3318 11.1335L18.1003 10.149L17.8556 11.2524L21 11.9634C20.4002 10.0892 18.9286 8.59899 16.9711 8.15594C15.528 7.82932 14.0842 8.13103 12.8898 8.88807L12.8828 8.88646L14.3904 7.56775L14.0557 6.36518L14.7961 7.20909L16.4217 5.78991L16.0877 4.58734Z" fill="white"/>
<path d="M16.8281 5.43125L15.3247 6.75025L16.6401 8.24958L18.143 6.93824L16.8281 5.43125ZM16.0877 4.58734L17.5911 3.26835L14.1607 5.12253L16.0877 4.58734ZM19.2687 3.30178L20.5836 4.80877L23.2262 2.50296L19.8961 1.40274L19.2687 3.30178ZM13.818 4.33206L12.5017 2.82629V2.82629L13.818 4.33206ZM12.001 7.86133L10.2194 8.77012L13.2643 14.7395L13.9892 8.07767L12.001 7.86133ZM10.664 6.16038L9.34873 7.66704L9.34873 7.66704L10.664 6.16038ZM6.28564 4.86638L5.87641 2.9087L1.94826 3.72983L4.96895 6.37181L6.28564 4.86638ZM8.40275 6.71806L7.08606 8.22349L8.59106 9.5398L9.9078 8.03519L8.40275 6.71806ZM8.90619 6.14279L10.8778 6.4784L12.0666 -0.505414L7.40114 4.82567L8.90619 6.14279ZM8.75572 7.02679L6.78408 6.69119L6.59619 7.79506L7.43905 8.53224L8.75572 7.02679ZM10.1669 8.26101L8.85022 9.76646L10.3563 11.0836L11.6729 9.5771L10.1669 8.26101ZM10.6696 7.68574L12.6415 8.01982L13.8247 1.03617L9.16367 6.36966L10.6696 7.68574ZM10.5199 8.56974L8.54796 8.23566L8.36112 9.3385L9.20297 10.075L10.5199 8.56974ZM10.6633 8.69524L9.6956 10.4455L11.9802 7.18998L10.6633 8.69524ZM7.48594 8.04361L7.69679 10.0325L7.69679 10.0325L7.48594 8.04361ZM3 11.3897L1.17776 10.5654L-0.261089 13.7463L3.21067 13.3786L3 11.3897ZM6.24 11.0465L6.45067 13.0354L8.43577 12.8251L8.22927 10.8396L6.24 11.0465ZM6.12188 9.91076L7.82924 8.86917L4.13261 10.1177L6.12188 9.91076ZM6.78 10.9896L5.07263 12.0311L5.73179 13.1116L6.99045 12.9785L6.78 10.9896ZM8.94 10.761L9.15045 12.7499L11.1358 12.5398L10.9293 10.5541L8.94 10.761ZM8.82188 9.62524L10.5292 8.58365L6.83261 9.83213L8.82188 9.62524ZM9.48 10.704L7.77263 11.7456L8.43216 12.8267L9.69144 12.6928L9.48 10.704ZM11.4498 10.4946L13.3308 11.1741L14.4168 8.16791L11.2384 8.50582L11.4498 10.4946ZM10.3151 20.1461L8.32705 20.3642L10.3151 20.1461ZM13.4378 19.6774L15.3794 19.1979L15.3794 19.1979L13.4378 19.6774ZM13.499 10.2681L13.9423 8.31785L12.0527 7.88835L11.5637 9.76336L13.499 10.2681ZM14.7105 10.5435L14.2672 12.4938L15.5057 12.7753L16.2871 11.7741L14.7105 10.5435ZM15.4791 9.55894L17.4316 9.99193L13.9025 8.32833L15.4791 9.55894ZM15.2344 10.6624L13.2818 10.2294L12.85 12.1766L14.796 12.6137L15.2344 10.6624ZM17.3318 11.1335L16.8934 13.0849L18.1291 13.3625L18.9084 12.3642L17.3318 11.1335ZM18.1003 10.149L20.0529 10.582L16.5237 8.91836L18.1003 10.149ZM17.8556 11.2524L15.9031 10.8194L15.4719 12.7639L17.4145 13.2031L17.8556 11.2524ZM21 11.9634L20.5589 13.9141L23.9711 14.6857L22.9048 11.3538L21 11.9634ZM16.9711 8.15594L17.4126 6.20528L16.9711 8.15594ZM12.8898 8.88807L12.439 10.8366L13.2539 11.0251L13.9604 10.5774L12.8898 8.88807ZM12.8828 8.88646L11.566 7.38109L8.62437 9.95419L12.432 10.835L12.8828 8.88646ZM14.3904 7.56775L15.7071 9.07312L16.6547 8.2443L16.3171 7.03151L14.3904 7.56775ZM14.0557 6.36518L15.5591 5.04618L12.1289 6.90142L14.0557 6.36518ZM14.7961 7.20909L13.2927 8.52808L14.6084 10.0278L16.1114 8.71573L14.7961 7.20909ZM16.4217 5.78991L17.737 7.29656L18.6858 6.46826L18.3488 5.25472L16.4217 5.78991ZM18.3315 4.11226L17.5911 3.26835L14.5843 5.90634L15.3247 6.75025L18.3315 4.11226ZM17.9537 1.79479L15.5132 3.92426L18.143 6.93824L20.5836 4.80877L17.9537 1.79479ZM15.1343 5.83782C16.0697 5.02013 17.3829 4.78511 18.6412 5.20083L19.8961 1.40274C17.425 0.586348 14.6024 0.989886 12.5017 2.82629L15.1343 5.83782ZM13.9892 8.07767C14.0841 7.20612 14.4746 6.41455 15.1343 5.83782L12.5017 2.82629C11.0359 4.10769 10.2086 5.84432 10.0127 7.64498L13.9892 8.07767ZM9.34873 7.66704C9.73296 8.00246 10.022 8.38312 10.2194 8.77012L13.7826 6.95253C13.3509 6.10631 12.7437 5.32102 11.9793 4.65371L9.34873 7.66704ZM6.69488 6.82406C7.42073 6.67233 8.44615 6.87912 9.34873 7.66704L11.9793 4.65371C10.2395 3.13494 7.96306 2.4725 5.87641 2.9087L6.69488 6.82406ZM9.71945 5.21263L7.60234 3.36095L4.96895 6.37181L7.08606 8.22349L9.71945 5.21263ZM7.40114 4.82567L6.8977 5.40093L9.9078 8.03519L10.4112 7.45992L7.40114 4.82567ZM10.7274 7.36239L10.8778 6.4784L6.93455 5.80719L6.78408 6.69119L10.7274 7.36239ZM11.4836 6.75556L10.0724 5.52134L7.43905 8.53224L8.85022 9.76646L11.4836 6.75556ZM9.16367 6.36966L8.66093 6.94493L11.6729 9.5771L12.1756 9.00183L9.16367 6.36966ZM12.4918 8.90382L12.6415 8.01982L8.69773 7.35167L8.54796 8.23566L12.4918 8.90382ZM11.9802 7.18998L11.8368 7.06448L9.20297 10.075L9.34642 10.2005L11.9802 7.18998ZM11.631 6.94495C10.3425 6.23255 8.83939 5.88891 7.27508 6.05475L7.69679 10.0325C8.40242 9.95765 9.08682 10.1089 9.6956 10.4455L11.631 6.94495ZM7.27508 6.05475C4.47962 6.35112 2.25771 8.17795 1.17776 10.5654L4.82224 12.214C5.38057 10.9797 6.45913 10.1637 7.69679 10.0325L7.27508 6.05475ZM3.21067 13.3786L6.45067 13.0354L6.02933 9.05765L2.78933 9.40084L3.21067 13.3786ZM8.22927 10.8396L8.11115 9.70386L4.13261 10.1177L4.25073 11.2534L8.22927 10.8396ZM4.41451 10.9523L5.07263 12.0311L8.48737 9.94797L7.82924 8.86917L4.41451 10.9523ZM6.99045 12.9785L9.15045 12.7499L8.72955 8.7721L6.56955 9.00066L6.99045 12.9785ZM10.9293 10.5541L10.8111 9.41834L6.83261 9.83213L6.95073 10.9679L10.9293 10.5541ZM7.11451 10.6668L7.77263 11.7456L11.1874 9.66245L10.5292 8.58365L7.11451 10.6668ZM9.69144 12.6928L11.6612 12.4834L11.2384 8.50582L9.26856 8.71524L9.69144 12.6928ZM12.3032 19.928C11.969 16.8813 12.35 13.8892 13.3308 11.1741L9.56877 9.81512C8.3818 13.101 7.92589 16.707 8.32705 20.3642L12.3032 19.928ZM11.2875 19.0006C11.7631 19.0006 12.2407 19.3579 12.3032 19.928L8.32705 20.3642C8.49758 21.9188 9.82141 23.0006 11.2875 23.0006V19.0006ZM12.4393 19.0006H11.2875V23.0006H12.4393V19.0006ZM11.4961 20.157C11.3727 19.657 11.7173 19.0006 12.4393 19.0006V23.0006C14.52 23.0006 15.8287 21.0169 15.3794 19.1979L11.4961 20.157ZM11.5637 9.76336C10.6754 13.1693 10.6529 16.7425 11.4961 20.157L15.3794 19.1979C14.6959 16.4302 14.7142 13.5337 15.4342 10.7729L11.5637 9.76336ZM15.1538 8.59325L13.9423 8.31785L13.0557 12.2184L14.2672 12.4938L15.1538 8.59325ZM13.9025 8.32833L13.134 9.31289L16.2871 11.7741L17.0556 10.7896L13.9025 8.32833ZM17.1869 11.0953L17.4316 9.99193L13.5265 9.12595L13.2818 10.2294L17.1869 11.0953ZM17.7702 9.18217L15.6727 8.71099L14.796 12.6137L16.8934 13.0849L17.7702 9.18217ZM16.5237 8.91836L15.7552 9.90292L18.9084 12.3642L19.6769 11.3796L16.5237 8.91836ZM19.8082 11.6854L20.0529 10.582L16.1477 9.71599L15.9031 10.8194L19.8082 11.6854ZM21.4411 10.0126L18.2967 9.30164L17.4145 13.2031L20.5589 13.9141L21.4411 10.0126ZM16.5296 10.1066C17.7236 10.3769 18.6876 11.2993 19.0952 12.573L22.9048 11.3538C22.1129 8.87906 20.1336 6.82113 17.4126 6.20528L16.5296 10.1066ZM13.9604 10.5774C14.7399 10.0833 15.6435 9.90606 16.5296 10.1066L17.4126 6.20528C15.4125 5.75259 13.4285 6.17873 11.8191 7.19879L13.9604 10.5774ZM12.432 10.835L12.439 10.8366L13.3405 6.93953L13.3335 6.93791L12.432 10.835ZM13.0736 6.06238L11.566 7.38109L14.1995 10.3918L15.7071 9.07312L13.0736 6.06238ZM12.1289 6.90142L12.4636 8.10399L16.3171 7.03151L15.9825 5.82894L12.1289 6.90142ZM16.2995 5.89009L15.5591 5.04618L12.5523 7.68417L13.2927 8.52808L16.2995 5.89009ZM15.1064 4.28327L13.4808 5.70245L16.1114 8.71573L17.737 7.29656L15.1064 4.28327ZM14.1607 5.12253L14.4946 6.32511L18.3488 5.25472L18.0148 4.05215L14.1607 5.12253Z" fill="#0024A0" mask="url(#path-2-inside-1)"/>
</svg>
