<svg width="24" height="24" viewBox="0 0 24 24" fill="#22242A" xmlns="http://www.w3.org/2000/svg">
<path d="M19 3H5C3.9 3 3 3.9 3 5V19C3 20.1 3.9 21 5 21H19C20.1 21 21 20.1 21 19V5C21 3.9 20.1 3 19 3ZM19.5 4.5V19.5H4.5V4.5H19.5Z" fill="#2F3441"/>
<path d="M16.2426 7.75735C15.1094 6.62411 13.6027 6 12.0001 6H11.9999C10.3973 6 8.89059 6.62411 7.75735 7.75735C6.62411 8.89059 6 10.3974 6 12C6 13.6026 6.62411 15.1094 7.75735 16.2426C8.89059 17.3759 10.3974 18 12 18C13.6026 18 15.1094 17.3759 16.2426 16.2426C17.3759 15.1094 18 13.6026 18 12C18 10.3974 17.3759 8.89059 16.2426 7.75735ZM16.6346 14.5621H14.8785C15.1138 13.8727 15.2555 13.1263 15.2886 12.3516H17.2849C17.2324 13.1492 17.0026 13.899 16.6346 14.5621ZM12 17.2449C11.2516 16.7996 10.631 16.1093 10.1846 15.2652H13.8154C13.369 16.1093 12.7484 16.7996 12 17.2449ZM9.86682 14.5621C9.60828 13.8838 9.45154 13.1348 9.41528 12.3516H14.5847C14.5485 13.1348 14.3916 13.8838 14.1331 14.5621H9.86682ZM6.71512 12.3516H8.71143C8.74448 13.1263 8.8862 13.8727 9.12149 14.5621H7.36542C6.99738 13.899 6.76758 13.1492 6.71512 12.3516ZM7.36542 9.4379H9.12149C8.8862 10.1273 8.74448 10.8737 8.71143 11.6484H6.71512C6.76758 10.8508 6.99738 10.101 7.36542 9.4379ZM12 6.75513C12.7484 7.20044 13.369 7.89066 13.8154 8.73477H10.1846C10.631 7.89066 11.2516 7.20044 12 6.75513ZM14.1332 9.4379C14.3917 10.1162 14.5485 10.8652 14.5847 11.6484H9.41528C9.45154 10.8652 9.60837 10.1162 9.86691 9.4379H14.1332ZM17.2849 11.6484H15.2886C15.2555 10.8737 15.1138 10.1273 14.8785 9.4379H16.6346C17.0026 10.101 17.2324 10.8508 17.2849 11.6484ZM14.597 8.73477C14.2628 8.01297 13.8182 7.37512 13.2845 6.86096C14.443 7.15063 15.4518 7.82254 16.168 8.73477H14.597ZM10.7155 6.86096C10.1818 7.37512 9.73718 8.01297 9.40302 8.73477H7.83197C8.54819 7.82254 9.55701 7.15063 10.7155 6.86096ZM9.40302 15.2652C9.73718 15.987 10.1818 16.6249 10.7155 17.139C9.55701 16.8494 8.54819 16.1775 7.83197 15.2652H9.40302ZM13.2845 17.139C13.8182 16.6249 14.2628 15.9869 14.597 15.2652H16.168C15.4518 16.1775 14.443 16.8494 13.2845 17.139Z" fill="#2F3441"/>
</svg>
