<svg width="24" height="24" viewBox="0 0 24 24" fill="#22242A" xmlns="http://www.w3.org/2000/svg">
<path fill-rule="evenodd" clip-rule="evenodd" d="M7.56408 7.96802C7.26317 5.32002 9.33448 3 11.9995 3C14.6646 3 16.7359 5.32002 16.435 7.96803L16.1729 10.274C15.9317 12.3966 14.1358 14 11.9995 14C9.86328 14 8.06732 12.3966 7.82612 10.274L7.56408 7.96802ZM15.1433 7.82124L14.8813 10.1272C14.7147 11.5928 13.4746 12.7 11.9995 12.7C10.5245 12.7 9.28435 11.5928 9.1178 10.1272L8.85576 7.82124C8.64248 5.94439 10.1106 4.3 11.9995 4.3C13.8885 4.3 15.3566 5.94439 15.1433 7.82124Z" fill="#22242A"/>
<path fill-rule="evenodd" clip-rule="evenodd" d="M4.28877 19.6984C4.89882 16.9532 7.3337 15 10.1459 15H13.8532C16.6654 15 19.1002 16.9532 19.7103 19.6984L19.8102 20.1481C19.9074 20.5853 19.5747 21 19.1269 21H4.87216C4.42434 21 4.09168 20.5853 4.18883 20.1481L4.28877 19.6984ZM13.8532 16.3C15.959 16.3 17.7948 17.6982 18.3699 19.7H5.62917C6.20425 17.6982 8.04002 16.3 10.1459 16.3H13.8532Z" fill="#22242A"/>
</svg>
