<svg width="19" height="19" viewBox="0 0 19 19" fill="#22242A" xmlns="http://www.w3.org/2000/svg">
<path fill-rule="evenodd" clip-rule="evenodd" d="M13.8327 18.1501H13.8167C10.4715 18.1501 7.29531 15.5522 5.22147 13.3725C3.26256 11.5498 0.877885 8.70339 0.879884 5.72462C0.953843 2.6547 2.2931 1.82679 3.3685 1.16579L3.63735 1.0171C3.87942 0.925178 4.1376 0.87861 4.39793 0.879909C4.88793 0.877769 5.36168 1.04847 5.72918 1.35958C6.22891 1.77306 8.17582 3.63899 8.3967 3.85389C9.19861 4.47298 9.34453 5.59096 8.72651 6.38081C8.46466 6.71754 8.02691 7.19722 7.63912 7.60494L7.6671 7.65578C8.33412 8.74759 9.18832 9.72352 10.1937 10.5425C10.7377 10.947 11.3116 11.3131 11.9107 11.638C12.3105 11.2927 12.7972 10.884 13.1391 10.6394C13.4593 10.4045 13.8504 10.2759 14.2534 10.2729C14.8678 10.2962 15.4436 10.5667 15.8396 11.0183C15.9995 11.166 17.9484 13.0329 18.3821 13.5126C18.8797 14.0644 19.0164 14.836 18.7369 15.5148L18.583 15.7709C17.583 17.3495 15.7536 18.2657 13.8327 18.1501ZM4.41089 2.80082C3.54937 3.33134 2.92971 3.74098 2.88074 5.74602C2.88074 7.52561 4.221 9.76761 6.65864 12.0374C8.1758 13.6299 11.0642 16.2307 13.8167 16.2307C15.8975 16.1847 16.3153 15.5861 16.878 14.7543C16.5082 14.3706 14.939 12.8625 14.3584 12.306C14.3293 12.276 14.2986 12.2475 14.2664 12.2207C13.7827 12.5795 12.9771 13.2923 12.7313 13.51L12.4424 13.7671H12.0496C11.417 13.7671 9.0573 12.1276 8.91738 12.0192C7.72313 11.0502 6.70923 9.89341 5.91905 8.59816L5.19645 7.29537L5.68218 6.79651C6.30484 6.15662 6.80956 5.60691 7.06441 5.29129C7.05042 5.2769 7.03643 5.26059 7.02344 5.24908C6.38679 4.64181 4.78268 3.11645 4.40589 2.80274L4.41089 2.80082Z" fill="#2F3441"/>
</svg>
