<svg width="32" height="28" viewBox="0 0 32 28" fill="#0B43DA" xmlns="http://www.w3.org/2000/svg">
<path fill-rule="evenodd" clip-rule="evenodd" d="M0 6C0 6 0 4 2 4H6.58328C6.96206 4 7.30624 3.78744 7.49505 3.45908C8.12325 2.3666 9.66162 0 11.2 0H20.8C22.3384 0 23.8768 2.3666 24.5049 3.45908C24.6938 3.78744 25.0379 4 25.4167 4H30C32 4 32 6 32 6V26C32 28 30 28 30 28H2C2 28 0 28 0 26V6ZM2.4 8.019C2.4 8.019 2.4 6.39995 3.41667 6.39995H8.01775C8.47809 6.39995 8.87754 6.08614 9.01538 5.64693C9.37907 4.48809 10.1764 2.39995 11.2 2.39995H20.8C21.9422 2.39995 22.6767 4.43839 23.0035 5.60491C23.1321 6.06392 23.5418 6.39995 24.0185 6.39995H28.5833C29.6 6.39995 29.6 7.52376 29.6 7.52376V23.981C29.6 25.5999 28.5833 25.5999 28.5833 25.5999H3.41667C3.41667 25.5999 2.4 25.5999 2.4 24.381V8.019Z" fill="#0B43DA"/>
<path d="M23.9984 14.4C23.9984 18.8183 20.4167 22.4 15.9984 22.4C11.5801 22.4 7.99841 18.8183 7.99841 14.4C7.99841 9.98175 11.5801 6.40002 15.9984 6.40002C20.4167 6.40002 23.9984 9.98175 23.9984 14.4ZM10.5808 14.4C10.5808 17.3921 13.0063 19.8177 15.9984 19.8177C18.9905 19.8177 21.416 17.3921 21.416 14.4C21.416 11.4079 18.9905 8.98239 15.9984 8.98239C13.0063 8.98239 10.5808 11.4079 10.5808 14.4Z" fill="#0B43DA"/>
</svg>
