<svg width="83" height="45" viewBox="0 0 83 45" fill="#8AAAEA" xmlns="http://www.w3.org/2000/svg">
<path d="M41.1791 9.71556C41.3827 9.53575 41.5751 9.36063 41.7123 9.19503C41.6909 9.628 41.7013 10.106 41.7013 10.6265V14.8837H43.8467V6.83845H41.9056L39.1232 9.09085L40.2589 10.4821L41.1791 9.71556Z" fill="#8AAAEA"/>
<path d="M64.6907 16.4068C64.9509 16.2625 65.2088 16.1891 65.4644 16.1891C65.7128 16.1891 65.9044 16.2483 66.0417 16.3714C66.1789 16.4944 66.2476 16.66 66.2476 16.8706C66.2476 17.041 66.2144 17.2018 66.1458 17.358C66.0796 17.5118 65.9565 17.6987 65.7838 17.914C65.6086 18.1294 65.2691 18.5339 64.7037 19.1255L62.7528 21.127V22.5266H68.5186V20.7835H65.5687V20.7059C66.3732 19.8991 67.0226 19.3525 67.2969 19.0638C67.5714 18.7751 67.7778 18.5007 67.9434 18.2404C68.1114 17.9801 68.224 17.7152 68.3045 17.4454C68.3825 17.1756 68.4187 16.8799 68.4187 16.5628C68.4187 16.1392 68.3031 15.756 68.076 15.4129C67.8488 15.0698 67.5284 14.8072 67.1167 14.6226C66.7051 14.4381 66.236 14.3457 65.7108 14.3457C65.2921 14.3457 64.9155 14.3883 64.5819 14.4735C64.2483 14.5586 63.9382 14.6817 63.6543 14.8426C63.3704 15.0035 63.0201 15.2709 62.6013 15.6447L63.8056 17.0525C64.1347 16.7687 64.4304 16.5534 64.6907 16.4068Z" fill="#8AAAEA"/>
<path d="M79.7389 34.0582H78.8433V14.0502C78.8433 10.8513 76.2655 8.17932 73.0641 8.17932H58.2857C56.9702 8.17932 55.7803 8.68631 54.8417 9.42687V6.77208C54.8417 3.04794 51.7483 0 48.0241 0H35.148C31.4237 0 28.4265 3.04794 28.4265 6.77208V15.5052C27.3538 14.6061 25.9085 14.0792 24.3895 14.0792H10.6095C7.13371 14.0792 4.29079 16.8942 4.29079 20.3723V33.9227C4.29079 33.9583 4.30635 34.0582 4.30863 34.0582H3.26757C1.48837 34.0582 0 35.4796 0 37.2588V40.8954C0 42.6772 1.48837 44.1147 3.26757 44.1147H79.7389C81.5182 44.1147 83 42.6772 83 40.8931V37.2565C83 35.4772 81.5181 34.0582 79.7389 34.0582ZM80.7205 40.8955C80.7205 41.4065 80.2499 41.8352 79.7389 41.8352H3.26757C2.75643 41.8352 2.27948 41.4065 2.27948 40.8955V37.2588C2.27948 36.7478 2.75657 36.3376 3.26757 36.3376H5.63368C5.98619 36.3376 6.32221 36.1712 6.53984 35.8921C6.75746 35.6129 6.81418 35.2493 6.7289 34.9038C6.63437 34.5253 6.57027 34.2137 6.57027 33.9227V20.3723C6.57027 18.1624 8.40432 16.3586 10.6118 16.3586H24.3894C26.597 16.3586 28.3928 18.1584 28.3928 20.3684C28.3928 21.0025 28.9152 21.5203 29.5493 21.5203C30.1834 21.5203 30.706 21.0065 30.706 20.3724V6.77208C30.706 4.31613 32.6919 2.27948 35.148 2.27948H48.0241C50.4801 2.27948 52.4281 4.31372 52.4281 6.77208V14.0525C52.4281 14.6866 52.9696 15.2024 53.6037 15.2024C54.2378 15.2024 54.7663 14.71 54.7663 14.0759C54.7663 12.1428 56.3526 10.5929 58.2857 10.5929H73.0641C74.9973 10.5929 76.5638 12.1195 76.5638 14.0525V34.4219C76.5638 34.6184 76.5377 34.8029 76.507 34.9898C76.4502 35.3234 76.546 35.6672 76.7636 35.9275C76.9812 36.1853 77.3042 36.3375 77.6425 36.3375H79.7389C80.2499 36.3375 80.7205 36.7477 80.7205 37.2587V40.8955Z" fill="#8AAAEA"/>
<path d="M16.6809 28.6417C17.7408 28.6417 18.5714 28.4263 19.1676 27.9934C19.7639 27.5604 20.097 26.9688 20.0994 26.2093C20.0994 25.0996 19.4428 24.4608 18.1019 24.2904V24.2573C18.6383 24.094 19.0915 23.8314 19.3991 23.4718C19.7043 23.1122 19.8418 22.6792 19.8418 22.1776C19.8418 21.5933 19.5947 21.1366 19.1191 20.8029C18.6435 20.4693 17.9816 20.3037 17.1417 20.3037C16.5596 20.3037 16.0442 20.3676 15.5946 20.4931C15.145 20.6184 14.704 20.8291 14.2757 21.1248L15.1838 22.5894C15.7398 22.2416 16.2743 22.0689 16.7924 22.0689C17.0693 22.0689 17.2892 22.1209 17.4548 22.2251C17.6181 22.3269 17.7009 22.5077 17.7009 22.7231C17.7009 23.2934 17.1448 23.5996 16.0327 23.5996H15.5541V25.2087H16.0183C16.43 25.2087 16.7613 25.2359 17.0167 25.2974C17.2699 25.359 17.4568 25.4471 17.5704 25.5677C17.6864 25.6884 17.7431 25.8579 17.7431 26.0804C17.7431 26.369 17.6342 26.5792 17.4142 26.7141C17.1941 26.8489 16.8439 26.9173 16.3636 26.9173C16.0536 26.9173 15.6882 26.8747 15.3215 26.7871C14.9548 26.6996 14.6154 26.567 14.2131 26.3847V28.2043C14.7495 28.3699 15.073 28.4835 15.4446 28.5474C15.8161 28.6114 16.2455 28.6417 16.6809 28.6417Z" fill="#8AAAEA"/>
<path d="M68.3959 33.9241H54.4394V18.929C54.4394 18.276 53.8856 17.7459 53.2326 17.7459C52.5796 17.7459 52.0258 18.276 52.0258 18.929V33.9241H30.706V25.4357C30.706 24.7827 30.2192 24.2527 29.5662 24.2527C28.9132 24.2527 28.4265 24.7827 28.4265 25.4357V33.9241H15.1736C14.672 33.9241 14.2626 34.3611 14.2626 34.8627C14.2626 35.3643 14.672 35.8013 15.1736 35.8013H68.3959C68.8975 35.8013 69.3069 35.3643 69.3069 34.8627C69.3069 34.3611 68.8975 33.9241 68.3959 33.9241Z" fill="#8AAAEA"/>
</svg>
