<svg width="24" height="24" viewBox="0 0 24 24" fill="#0062FF" xmlns="http://www.w3.org/2000/svg">
<path d="M8.8 3.00586C7.72304 3.00586 6.85 3.8789 6.85 4.95586V6.05457C6.85 6.41356 7.14102 6.70457 7.5 6.70457C7.85898 6.70457 8.15 6.41356 8.15 6.05457V4.95586C8.15 4.59687 8.44102 4.30586 8.8 4.30586H15.2C15.559 4.30586 15.85 4.59688 15.85 4.95586V6.05457C15.85 6.41356 16.141 6.70457 16.5 6.70457C16.859 6.70457 17.15 6.41356 17.15 6.05457V4.95586C17.15 3.8789 16.277 3.00586 15.2 3.00586H8.8Z" fill="#0062FF"/>
<path d="M18.6957 11.4808C18.6957 12.0331 18.248 12.4808 17.6957 12.4808C17.1434 12.4808 16.6957 12.0331 16.6957 11.4808C16.6957 10.9285 17.1434 10.4808 17.6957 10.4808C18.248 10.4808 18.6957 10.9285 18.6957 11.4808Z" fill="#0062FF"/>
<path fill-rule="evenodd" clip-rule="evenodd" d="M17 19.7C17 20.4179 16.418 21 15.7 21H8.3C7.58203 21 7 20.4179 7 19.7L7 18H6C4.34315 18 3 16.6568 3 15V11C3 9.34312 4.34315 7.99998 6 7.99998H18C19.6569 7.99998 21 9.34312 21 11V15C21 16.6568 19.6569 18 18 18H17V19.7ZM15.7 19.7L8.3 19.7L8.3 14.3L15.7 14.3L15.7 19.7ZM17 16.7H18C18.9389 16.7 19.7 15.9389 19.7 15V11C19.7 10.0611 18.9389 9.29998 18 9.29998H6C5.06112 9.29998 4.3 10.0611 4.3 11V15C4.3 15.9389 5.06112 16.7 6 16.7H7L7 13.7C7 13.3134 7.3134 13 7.7 13L16.3 13C16.6866 13 17 13.3134 17 13.7V16.7Z" fill="#0062FF"/>
</svg>
