<svg width="16" height="16" viewBox="0 0 16 16" fill="#22242A" xmlns="http://www.w3.org/2000/svg">
<g clip-path="url(#clip0)">
<path d="M7.78401 0C10.5516 0 13.2764 1.27461 13.2764 4.32337C13.2764 7.13487 10.0546 8.21609 9.36273 9.23201C8.8433 9.98769 9.01678 11.0495 7.5896 11.0495C6.65992 11.0495 6.2058 10.2933 6.2058 9.60143C6.2058 7.02669 9.98881 6.44398 9.98881 4.32388C9.98881 3.15693 9.21221 2.46503 7.91413 2.46503C5.14651 2.46503 6.22723 5.31837 4.13111 5.31837C3.37441 5.31837 2.72485 4.86424 2.72485 3.99987C2.72434 1.87926 5.14549 0 7.78401 0ZM7.67635 12.4532C8.64787 12.4532 9.44948 13.2523 9.44948 14.2269C9.44948 15.2015 8.6494 16.0005 7.67635 16.0005C6.70329 16.0005 5.90271 15.2025 5.90271 14.2269C5.90271 13.2528 6.70329 12.4532 7.67635 12.4532Z" />
</g>
<defs>
<clipPath id="clip0">
<path d="M0 0H16V16H0V0Z" fill="white"/>
</clipPath>
</defs>
</svg>
