<svg width="16" height="16" viewBox="0 0 16 16" fill="#22242A" xmlns="http://www.w3.org/2000/svg">
<g clip-path="url(#clip0)">
<path d="M13.6919 0.411067C13.4487 0.299006 13.1621 0.342613 12.9631 0.52188L11.9134 1.45131C11.8849 1.47673 11.8418 1.47657 11.8134 1.45101L10.3852 0.173594C10.1269 -0.0578648 9.7358 -0.0578648 9.47749 0.173594L8.05053 1.44984C8.02183 1.47548 7.97845 1.47548 7.94974 1.44984L6.52264 0.173594C6.26433 -0.057827 5.87327 -0.057827 5.61495 0.173594L4.18653 1.45101C4.15793 1.47657 4.11474 1.47669 4.086 1.45127L3.03536 0.52188C2.75662 0.274007 2.32971 0.299006 2.08184 0.57774C1.97068 0.702736 1.90987 0.864531 1.91115 1.03177V14.9683C1.90866 15.3419 2.20948 15.6467 2.58307 15.6492C2.75042 15.6504 2.91221 15.5894 3.03725 15.4782L4.08695 14.5487C4.1155 14.5233 4.15858 14.5235 4.18698 14.549L5.61522 15.8264C5.87353 16.0579 6.26459 16.0579 6.5229 15.8264L7.95001 14.5502C7.97871 14.5246 8.02209 14.5246 8.0508 14.5502L9.4779 15.8264C9.73625 16.0578 10.1273 16.0578 10.3856 15.8264L11.8141 14.549C11.8427 14.5234 11.8859 14.5233 11.9146 14.5487L12.9653 15.4781C13.2441 15.7259 13.671 15.7007 13.9187 15.4218C14.0297 15.297 14.0904 15.1354 14.0892 14.9683V1.03177C14.0928 0.764042 13.9365 0.519913 13.6919 0.411067ZM4.41511 5.42825H8.18147C8.34856 5.42825 8.48403 5.56372 8.48403 5.73081C8.48403 5.8979 8.34856 6.03337 8.18147 6.03337H4.41511C4.24802 6.03337 4.11255 5.8979 4.11255 5.73081C4.11255 5.56372 4.24802 5.42825 4.41511 5.42825ZM11.5853 10.5718H4.41511C4.24802 10.5718 4.11255 10.4363 4.11255 10.2692C4.11255 10.1021 4.24802 9.96667 4.41511 9.96667H11.5853C11.7524 9.96667 11.8878 10.1021 11.8878 10.2692C11.8878 10.4363 11.7524 10.5718 11.5853 10.5718ZM11.5853 8.30258H4.41511C4.24802 8.30258 4.11255 8.16711 4.11255 8.00002C4.11255 7.83293 4.24802 7.69746 4.41511 7.69746H11.5853C11.7524 7.69746 11.8878 7.83293 11.8878 8.00002C11.8878 8.16711 11.7524 8.30258 11.5853 8.30258Z" />
</g>
<defs>
<clipPath id="clip0">
<path d="M0 0H16V16H0V0Z" fill="white"/>
</clipPath>
</defs>
</svg>
