<svg width="14" height="16" viewBox="0 0 14 16" fill="#0062FF" xmlns="http://www.w3.org/2000/svg">
<path d="M7.05 6.31337C7.34256 6.3245 7.57385 6.56516 7.57335 6.85794L7.56821 9.85121L8.72659 8.59465C8.93447 8.37692 9.27622 8.38075 9.49396 8.58863C9.70337 8.79622 9.70786 9.13826 9.49998 9.356L7.37297 11.5458C7.13059 11.7957 6.73084 11.7814 6.50686 11.515L4.44235 9.18166C4.34627 9.06983 4.30908 8.94343 4.31383 8.81018C4.31917 8.66027 4.38251 8.52077 4.50295 8.41666C4.73493 8.2248 5.07579 8.25362 5.26795 8.47726L6.48526 9.81853C6.48526 9.81853 6.47719 8.27261 6.48655 6.85113C6.48857 6.54485 6.74394 6.30174 7.05 6.31337Z" fill="#0062FF"/>
<path fill-rule="evenodd" clip-rule="evenodd" d="M0.333313 3C0.333313 1.61929 1.4526 0.5 2.83331 0.5H8.23358C8.86873 0.5 9.48007 0.741752 9.94344 1.17616L12.8765 3.9259C13.3806 4.39852 13.6666 5.05872 13.6666 5.74975V13C13.6666 14.3807 12.5474 15.5 11.1666 15.5H2.83331C1.4526 15.5 0.333313 14.3807 0.333313 13V3ZM2.83331 1.58333L8.23358 1.58333C8.39665 1.58333 8.55695 1.61145 8.70794 1.66511V3.8771C8.70794 4.77457 9.43548 5.5021 10.3329 5.5021L12.5615 5.5021C12.5759 5.58327 12.5833 5.66611 12.5833 5.74975L12.5833 13C12.5833 13.7824 11.949 14.4167 11.1666 14.4167H2.83331C2.05091 14.4167 1.41665 13.7824 1.41665 13L1.41665 3C1.41665 2.2176 2.05091 1.58333 2.83331 1.58333ZM11.8183 4.41876L9.79128 2.51847V3.8771C9.79128 4.17626 10.0338 4.41877 10.3329 4.41877L11.8183 4.41876Z" fill="#0062FF"/>
</svg>
