<svg width="24" height="24" viewBox="0 0 24 24" fill="#22242A" xmlns="http://www.w3.org/2000/svg">
<path d="M4.24008 3H15.489C17.1464 3 18.736 3.65842 19.908 4.83042C21.08 6.00241 21.7384 7.59198 21.7384 9.24943C21.7384 10.9069 21.08 12.4964 19.908 13.6684C18.736 14.8404 17.1464 15.4989 15.489 15.4989L5.9901 15.5L8.72773 18.2376C9.12213 18.632 9.05711 19.2887 8.59302 19.5981C8.24245 19.8318 7.77602 19.7855 7.4761 19.4896C5.43515 17.4758 3.14009 15.3539 3.14009 15.3539C3.13405 15.3458 3.12737 15.3383 3.12009 15.3314C3.10456 15.3141 3.09035 15.2958 3.0776 15.2764L3.0626 15.2514L3.0301 15.1914V15.1614C3.0226 15.1389 3.0101 15.1189 3.0101 15.0989C2.99663 15.0329 2.99663 14.9649 3.0101 14.8989C3.0151 14.8789 3.0301 14.8589 3.0301 14.8364V14.8064L3.0626 14.7464L3.0776 14.7214C3.08974 14.7024 3.10399 14.6848 3.12009 14.6689L3.14009 14.6439L7.94754 9.83649C8.30182 9.48221 8.89346 9.54907 9.15974 9.97347C9.35305 10.2816 9.30775 10.6823 9.05058 10.9395L5.9901 14H15.4901C16.8824 14 18.0056 13.4845 18.9901 12.5C19.9746 11.5155 20.3446 10.5379 20.3446 9.14569C20.3446 7.75343 19.9746 6.98448 18.9901 6C18.0056 5.01552 16.8824 4.5 15.4901 4.5H4.24008C3.82588 4.5 3.49009 4.16423 3.49008 3.75002C3.49007 3.3358 3.82586 3 4.24008 3Z" fill="#2F3441"/>
</svg>
