<svg width="24" height="24" viewBox="0 0 24 24" fill="#22242A" xmlns="http://www.w3.org/2000/svg">
<path d="M10.222 6.38058C11.0108 6.01792 11.8885 5.81001 12.8205 5.81001C16.2321 5.81001 19.0105 8.57961 19.0105 12C19.0105 15.421 16.2415 18.19 12.8205 18.19C9.40131 18.19 6.64046 15.4129 6.64046 12C6.64046 11.8907 6.64328 11.782 6.64889 11.674L7.74046 12.84C7.87046 12.98 8.05046 13.05 8.22046 13.05C8.38046 13.05 8.53046 13 8.64046 12.87C8.90046 12.62 8.92046 12.21 8.67046 11.95L6.48046 9.60001C6.21046 9.30001 5.74046 9.30001 5.46046 9.60001L3.27046 11.95C3.02046 12.21 3.04046 12.62 3.30046 12.87C3.56046 13.12 3.97046 13.1 4.22046 12.84L5.34925 11.6343C5.34339 11.7557 5.34046 11.8777 5.34046 12C5.34046 16.1271 8.67962 19.49 12.8205 19.49C16.9594 19.49 20.3105 16.139 20.3105 12C20.3105 7.86041 16.9488 4.51001 12.8205 4.51001C11.6925 4.51001 10.6302 4.7621 9.67894 5.19944C9.35277 5.3494 9.20993 5.73537 9.35989 6.06154C9.50985 6.3877 9.89583 6.53054 10.222 6.38058Z" fill="#22242A"/>
</svg>
