<svg width="20" height="20" viewBox="0 0 20 20" fill="#7B7E86" xmlns="http://www.w3.org/2000/svg">
<path fill-rule="evenodd" clip-rule="evenodd" d="M3.33325 9.16683C3.33325 5.94183 5.94159 3.3335 9.16658 3.3335C12.3916 3.3335 14.9999 5.94183 14.9999 9.16683C14.9999 10.6353 14.4592 11.9758 13.5656 13.0006L16.4834 15.926C16.6947 16.1378 16.6942 16.4808 16.4824 16.692C16.2706 16.9033 15.9277 16.9028 15.7164 16.691L12.781 13.7479C11.7877 14.5323 10.5324 15.0002 9.16658 15.0002C5.94159 15.0002 3.33325 12.3918 3.33325 9.16683ZM13.9166 9.16683C13.9166 6.55016 11.7833 4.41683 9.16658 4.41683C6.54992 4.41683 4.41659 6.55016 4.41659 9.16683C4.41659 11.7835 6.54992 13.9168 9.16658 13.9168C11.7833 13.9168 13.9166 11.7835 13.9166 9.16683Z" fill="#7B7E86"/>
</svg>
