<svg width="24" height="24" viewBox="0 0 24 24" fill="#22242A" xmlns="http://www.w3.org/2000/svg">
<path d="M7.50871 9.4489C7.20434 9.16794 6.72985 9.18692 6.4489 9.49129C6.16794 9.79566 6.18692 10.2702 6.49129 10.5511L7.50871 9.4489ZM11.875 14.5L11.3663 15.0511C11.6536 15.3163 12.0964 15.3163 12.3837 15.0511L11.875 14.5ZM17.2587 10.5511C17.5631 10.2702 17.5821 9.79566 17.3011 9.49129C17.0202 9.18693 16.5457 9.16795 16.2413 9.4489L17.2587 10.5511ZM6.49129 10.5511L11.3663 15.0511L12.3837 13.9489L7.50871 9.4489L6.49129 10.5511ZM12.3837 15.0511L17.2587 10.5511L16.2413 9.4489L11.3663 13.9489L12.3837 15.0511Z" fill="#2F3441"/>
</svg>
