<svg width="16" height="16" viewBox="0 0 16 16" fill="#22242A" xmlns="http://www.w3.org/2000/svg">
<path d="M14.8769 5.69946H14.4387V10.516C14.4387 11.266 14.0021 11.9441 13.1267 11.9441H4.55029V12.1731C4.55029 12.8361 5.30442 13.5054 6.07884 13.5054H12.6359L15.1445 14.9802L14.7807 13.5054H14.8769C15.6508 13.5054 16.0001 12.8376 16.0001 12.1731V6.84284C16.0001 6.17982 15.6508 5.69946 14.8769 5.69946Z" />
<path d="M11.8464 2.35303H1.88505C1.00862 2.35303 0 3.13159 0 3.88204V9.919C0 10.6101 0.85457 11.1092 1.67427 11.1862L1.14081 13.2112L4.55909 11.2003H11.8464C12.7228 11.2003 13.5316 10.6689 13.5316 9.919V5.03479V3.88204C13.5316 3.13159 12.7223 2.35303 11.8464 2.35303ZM3.40475 7.44905C2.90772 7.44905 2.5049 7.04624 2.5049 6.54923C2.5049 6.05223 2.90772 5.64941 3.40475 5.64941C3.90125 5.64941 4.3046 6.05223 4.3046 6.54923C4.3046 7.04624 3.90125 7.44905 3.40475 7.44905ZM6.76578 7.44905C6.26875 7.44905 5.86593 7.04624 5.86593 6.54923C5.86593 6.05223 6.26875 5.64941 6.76578 5.64941C7.2628 5.64941 7.66563 6.05223 7.66563 6.54923C7.66563 7.04624 7.2628 7.44905 6.76578 7.44905ZM10.1273 7.44905C9.6303 7.44905 9.22696 7.04624 9.22696 6.54923C9.22696 6.05223 9.6303 5.64941 10.1273 5.64941C10.6233 5.64941 11.0272 6.05223 11.0272 6.54923C11.0272 7.04624 10.6233 7.44905 10.1273 7.44905Z" />
</svg>
