<svg width="18" height="19" viewBox="0 0 18 19" fill="#F59300" xmlns="http://www.w3.org/2000/svg">
<path d="M14.0012 18.4954C13.8569 18.496 13.7147 18.4602 13.5863 18.3912L8.98647 15.8629L4.38664 18.3912C4.23728 18.4736 4.06887 18.5105 3.90057 18.4974C3.73227 18.4844 3.57083 18.4221 3.43459 18.3175C3.29836 18.213 3.1928 18.0704 3.12991 17.906C3.06702 17.7415 3.04933 17.5619 3.07885 17.3875L3.98077 12.0563L0.264833 8.26863C0.148897 8.14716 0.0666537 7.99484 0.0269293 7.82802C-0.012795 7.6612 -0.00850089 7.48616 0.0393509 7.32171C0.0916265 7.15342 0.187787 7.00388 0.316919 6.89006C0.446052 6.77625 0.602986 6.70271 0.769912 6.6778L5.9109 5.89186L8.17474 1.03417C8.24859 0.87407 8.3639 0.739052 8.50747 0.644579C8.65103 0.550106 8.81704 0.5 8.98647 0.5C9.1559 0.5 9.32191 0.550106 9.46547 0.644579C9.60904 0.739052 9.72435 0.87407 9.79821 1.03417L12.0891 5.88239L17.2301 6.66833C17.397 6.69324 17.5539 6.76678 17.6831 6.88059C17.8122 6.99441 17.9084 7.14395 17.9606 7.31224C18.0085 7.47669 18.0128 7.65173 17.9731 7.81855C17.9333 7.98537 17.8511 8.13769 17.7352 8.25916L14.0192 12.0468L14.9212 17.378C14.9534 17.5555 14.9365 17.739 14.8726 17.9068C14.8086 18.0746 14.7003 18.2197 14.5604 18.3249C14.3971 18.4451 14.2004 18.505 14.0012 18.4954ZM8.98647 13.8554C9.13105 13.8516 9.27407 13.8875 9.40136 13.9596L12.8016 15.8534L12.1522 11.8669C12.127 11.7147 12.1377 11.5583 12.1833 11.4114C12.2289 11.2645 12.308 11.1316 12.4138 11.0242L15.1196 8.24969L11.3315 7.6626C11.1926 7.63324 11.0622 7.56992 10.9509 7.4778C10.8397 7.38567 10.7507 7.26731 10.6911 7.13232L8.98647 3.58138L7.28183 7.13232C7.21657 7.2684 7.12101 7.38594 7.00324 7.47496C6.88548 7.56398 6.749 7.62185 6.60538 7.64366L2.81729 8.23075L5.52307 11.0052C5.62884 11.1126 5.70798 11.2456 5.75357 11.3925C5.79916 11.5394 5.80982 11.6958 5.78463 11.848L5.13524 15.7872L8.53551 13.8933C8.67959 13.8371 8.83571 13.824 8.98647 13.8554Z" fill="#F59300"/>
</svg>
