<svg width="18" height="18" viewBox="0 0 18 18" fill="#F59300" xmlns="http://www.w3.org/2000/svg">
<path d="M17.9766 6.88892C17.926 6.73953 17.7789 6.46603 17.3054 6.39248L12.0192 5.62251L9.71163 0.956836C9.48868 0.510966 9.21518 0.43512 8.99223 0.43512C8.54633 0.43512 8.29811 0.88099 8.24757 0.956836L5.93998 5.62254L0.727292 6.36721C0.380246 6.41778 0.106722 6.61543 0.0331702 6.88892C-0.0656538 7.18772 0.0584425 7.48419 0.354944 7.78299L4.0783 11.3823L3.20954 16.5214C3.18427 16.6455 3.11072 17.0431 3.35894 17.3167C3.55659 17.5649 3.90596 17.6155 4.27828 17.4408C4.27828 17.4408 4.30355 17.4408 4.30355 17.4155L8.99453 14.9333L13.6855 17.4155C13.8602 17.5143 14.0325 17.5649 14.1819 17.5649C14.3796 17.5649 14.529 17.4914 14.6531 17.3673C14.7519 17.2684 14.8508 17.0685 14.8025 16.6962L13.9062 11.3823L17.7031 7.68416C18.0248 7.3601 18.0248 7.0889 17.9766 6.88892ZM13.0856 10.9111C12.9868 11.0099 12.9362 11.1593 12.9615 11.3087L13.8556 16.4708L9.21286 14.0392C9.08873 13.9656 8.91406 13.9656 8.78996 14.0392L4.14727 16.4708L5.04133 11.3087C5.0666 11.1593 5.01606 11.0099 4.91721 10.9111L1.14559 7.26127L6.33302 6.5166C6.48241 6.49133 6.60651 6.39248 6.68006 6.26838L8.98764 1.57741L11.2952 6.26838C11.3687 6.39251 11.4928 6.49133 11.6422 6.5166L16.8297 7.26127L13.0856 10.9111Z" fill="#F59300"/>
</svg>
