<svg width="24" height="24" viewBox="0 0 24 24" fill="#22242A" xmlns="http://www.w3.org/2000/svg">
<path d="M12 4.97004L13.92 8.87004L14.22 9.48004L14.9 9.58004L19.2 10.21L16.09 13.25L15.6 13.73L15.72 14.4L16.46 18.69L12.61 16.67L12 16.34L11.4 16.66L7.54998 18.68L8.28998 14.39L8.40998 13.72L7.91998 13.24L4.80998 10.2L9.10998 9.57004L9.78998 9.47004L10.09 8.86004L12 4.97004ZM12 2.92004C11.75 2.92004 11.5 3.05004 11.37 3.31004L8.90998 8.30004L3.39998 9.10004C2.82998 9.18004 2.59998 9.89004 3.00998 10.29L6.99998 14.17L6.05998 19.65C5.97998 20.1 6.33998 20.47 6.74998 20.47C6.85998 20.47 6.96998 20.44 7.07998 20.39L12 17.81L16.92 20.4C17.03 20.46 17.14 20.48 17.25 20.48C17.66 20.48 18.02 20.11 17.94 19.66L17 14.17L20.98 10.29C21.4 9.89004 21.17 9.18004 20.59 9.10004L15.08 8.30004L12.62 3.31004C12.5 3.05004 12.25 2.92004 12 2.92004Z" fill="#242424" stroke="#242424" stroke-width="0.4"/>
</svg>
