<svg width="24" height="24" viewBox="0 0 24 24" fill="#0062FF" xmlns="http://www.w3.org/2000/svg">
<path d="M12 4.96992L13.92 8.86992L14.22 9.47992L14.9 9.57992L19.2 10.2099L16.09 13.2499L15.6 13.7299L15.72 14.3999L16.46 18.6899L12.61 16.6699L12 16.3399L11.4 16.6599L7.55004 18.6799L8.29004 14.3899L8.41004 13.7199L7.92004 13.2399L4.81004 10.1999L9.11004 9.56992L9.79004 9.46992L10.09 8.85992L12 4.96992ZM12 2.91992C11.75 2.91992 11.5 3.04992 11.37 3.30992L8.91004 8.29992L3.40004 9.09992C2.83004 9.17992 2.60004 9.88992 3.01004 10.2899L7.00004 14.1699L6.06004 19.6499C5.98004 20.0999 6.34004 20.4699 6.75004 20.4699C6.86004 20.4699 6.97004 20.4399 7.08004 20.3899L12 17.8099L16.92 20.3999C17.03 20.4599 17.14 20.4799 17.25 20.4799C17.66 20.4799 18.02 20.1099 17.94 19.6599L17 14.1699L20.98 10.2899C21.4 9.88992 21.17 9.17992 20.59 9.09992L15.08 8.29992L12.62 3.30992C12.5 3.04992 12.25 2.91992 12 2.91992Z" fill="#0062FF"/>
</svg>
