<svg width="18" height="18" viewBox="0 0 18 18" fill="white" xmlns="http://www.w3.org/2000/svg">
<path fill-rule="evenodd" clip-rule="evenodd" d="M9 18C13.9706 18 18 13.9706 18 9C18 4.02944 13.9706 0 9 0C4.02944 0 0 4.02944 0 9C0 13.9706 4.02944 18 9 18ZM9 16.4642C4.87766 16.4642 1.53585 13.1223 1.53585 9C1.53585 4.87766 4.87766 1.53585 9 1.53585C13.1223 1.53585 16.4642 4.87766 16.4642 9C16.4642 13.1223 13.1223 16.4642 9 16.4642ZM4.75 8C4.33579 8 4 8.33579 4 8.75C4 9.16421 4.33579 9.5 4.75 9.5H13.25C13.6642 9.5 14 9.16421 14 8.75C14 8.33579 13.6642 8 13.25 8H4.75Z" fill="white"/>
</svg>
