<svg width="18" height="18" viewBox="0 0 18 18" fill="#7B7E86" xmlns="http://www.w3.org/2000/svg">
<path d="M6.79854 4.55029C7.0705 4.78462 7.10101 5.19504 6.86668 5.467L5.29324 7.29316C5.17798 7.42693 5.01326 7.50805 4.83695 7.51787C4.66065 7.52769 4.48794 7.46536 4.35854 7.34521L3.17846 6.24952C2.91538 6.00526 2.90013 5.59398 3.14439 5.33091C3.38865 5.06784 3.79993 5.05259 4.063 5.29685L4.74872 5.93353L5.88183 4.61844C6.11615 4.34648 6.52658 4.31597 6.79854 4.55029Z" fill="#7B7E86"/>
<path d="M8.41009 5.95579C8.41009 6.31477 8.70111 6.60579 9.06009 6.60579L11.35 6.60578C11.709 6.60578 12 6.31476 12 5.95578C12 5.5968 11.709 5.30578 11.35 5.30578L9.06009 5.30579C8.70111 5.30579 8.41009 5.5968 8.41009 5.95579Z" fill="#7B7E86"/>
<path d="M9.06009 12.7242C8.70111 12.7242 8.41009 12.4332 8.41009 12.0742C8.41009 11.7152 8.70111 11.4242 9.06009 11.4242L11.35 11.4242C11.709 11.4242 12 11.7152 12 12.0742C12 12.4331 11.709 12.7242 11.35 12.7242L9.06009 12.7242Z" fill="#7B7E86"/>
<path fill-rule="evenodd" clip-rule="evenodd" d="M2.99744 11.3742C2.99744 10.6562 3.57947 10.0742 4.29744 10.0742H5.69744C6.41541 10.0742 6.99744 10.6562 6.99744 11.3742V12.7742C6.99744 13.4921 6.41541 14.0742 5.69744 14.0742H4.29744C3.57947 14.0742 2.99744 13.4921 2.99744 12.7742V11.3742ZM4.29744 11.3742H5.69744V12.7742H4.29744V11.3742Z" fill="#7B7E86"/>
<path fill-rule="evenodd" clip-rule="evenodd" d="M16.39 5.82513C17.2283 5.82513 17.2283 4.52513 16.39 4.52513H15V3.03516C15 1.37516 13.66 0.0351562 12 0.0351562H3C1.34 0.0351562 0 1.37516 0 3.03516V15.0002C0 16.6602 1.34 18.0002 3 18.0002H12C13.66 18.0002 15 16.6502 15 15.0002V13.5002H16.39C16.749 13.5002 17.04 13.2092 17.04 12.8502C17.04 12.4912 16.749 12.2002 16.39 12.2002H15V5.82513H16.39ZM12 1.33516C12.94 1.33516 13.7 2.09516 13.7 3.03516L13.7 15.0002C13.7 15.9402 12.94 16.7002 12 16.7002H3C2.06 16.7002 1.3 15.9402 1.3 15.0002L1.3 3.03516C1.3 2.09516 2.06 1.33516 3 1.33516L12 1.33516Z" fill="#7B7E86"/>
</svg>
