<svg width="24" height="24" viewBox="0 0 24 24" fill="#22242A" xmlns="http://www.w3.org/2000/svg">
<path d="M14.4799 9.12021C14.4799 8.76123 14.1889 8.47021 13.8299 8.47021C13.4709 8.47021 13.1799 8.76123 13.1799 9.12021V15.4702C13.1799 15.8292 13.4709 16.1202 13.8299 16.1202C14.1889 16.1202 14.4799 15.8292 14.4799 15.4702V9.12021Z" fill="#7E7E7E"/>
<path d="M10.1799 8.47021C10.5389 8.47021 10.8299 8.76123 10.8299 9.12021V15.4702C10.8299 15.8292 10.5389 16.1202 10.1799 16.1202C9.82092 16.1202 9.52991 15.8292 9.52991 15.4702V9.12021C9.52991 8.76123 9.82092 8.47021 10.1799 8.47021Z" fill="#7E7E7E"/>
<path fill-rule="evenodd" clip-rule="evenodd" d="M12 2.02002C12.359 2.02002 12.65 2.31103 12.65 2.67002V4.65015H19.6799C20.0389 4.65015 20.3299 4.94116 20.3299 5.30015C20.3299 5.65913 20.0389 5.95015 19.6799 5.95015H18.8958L18.1199 17.4401C18.0299 19.0201 16.7099 20.2501 15.1299 20.2501H8.76994C7.18994 20.2501 5.87994 19.0201 5.77994 17.4401L5.02256 5.95015H4.32993C3.97095 5.95015 3.67993 5.65913 3.67993 5.30015C3.67993 4.94116 3.97095 4.65015 4.32993 4.65015H11.35V2.67002C11.35 2.31103 11.641 2.02002 12 2.02002ZM6.37766 5.95015L7.07994 17.3501C7.13994 18.2501 7.87994 18.9501 8.77994 18.9501H15.1399C16.0399 18.9501 16.7799 18.2501 16.8399 17.3601L17.5422 5.95015H6.37766Z" fill="#7E7E7E"/>
</svg>
