<svg width="24" height="24" viewBox="0 0 24 24" fill="#7A7E88" xmlns="http://www.w3.org/2000/svg">
<path d="M12.6498 14.1217C12.6498 14.4807 12.3587 14.7717 11.9998 14.7717C11.6408 14.7717 11.3498 14.4807 11.3498 14.1217V8.97548C11.3498 8.61649 11.6408 8.32548 11.9998 8.32548C12.3587 8.32548 12.6498 8.61649 12.6498 8.97548V14.1217Z" fill="#7A7E88"/>
<path d="M12.7498 16.8755C12.7498 17.2897 12.414 17.6255 11.9998 17.6255C11.5855 17.6255 11.2498 17.2897 11.2498 16.8755C11.2498 16.4613 11.5855 16.1255 11.9998 16.1255C12.414 16.1255 12.7498 16.4613 12.7498 16.8755Z" fill="#7A7E88"/>
<path fill-rule="evenodd" clip-rule="evenodd" d="M18.838 21.0001H5.16189C2.86012 21.0001 1.41582 18.515 2.55527 16.515L9.39331 4.51295C10.5441 2.49308 13.4558 2.49308 14.6066 4.51295L21.4446 16.515C22.584 18.515 21.1397 21.0001 18.838 21.0001ZM18.838 19.7001H5.16189C3.85756 19.7001 3.03911 18.2919 3.6848 17.1585L10.5228 5.15649C11.175 4.0119 12.8249 4.0119 13.477 5.15649L20.3151 17.1586C20.9607 18.2919 20.1423 19.7001 18.838 19.7001Z" fill="#7A7E88"/>
</svg>
