<svg width="24" height="24" viewBox="0 0 24 24" fill="#FFAA3D" xmlns="http://www.w3.org/2000/svg">
<mask id="mask0" mask-type="alpha" maskUnits="userSpaceOnUse" x="3" y="1" width="18" height="18">
<circle cx="12" cy="10" r="8.5" fill="#FFAA3D" stroke="white"/>
</mask>
<g mask="url(#mask0)">
<path d="M11.9097 11.9284C12.8615 11.9284 13.6857 11.5871 14.3592 10.9135C15.0326 10.2401 15.374 9.41606 15.374 8.46411C15.374 7.51249 15.0326 6.68838 14.3591 6.01472C13.6855 5.34139 12.8614 5 11.9097 5C10.9577 5 10.1337 5.34139 9.46025 6.01483C8.78681 6.68827 8.44531 7.51238 8.44531 8.46411C8.44531 9.41606 8.78681 10.2402 9.46036 10.9136C10.1339 11.5869 10.958 11.9284 11.9097 11.9284Z" fill="white"/>
<path d="M17.9709 16.0598C17.9515 15.7796 17.9122 15.4738 17.8544 15.151C17.796 14.8257 17.7208 14.5183 17.6308 14.2372C17.5379 13.9468 17.4115 13.6599 17.2552 13.385C17.093 13.0997 16.9025 12.8513 16.6888 12.6469C16.4652 12.433 16.1916 12.261 15.8751 12.1356C15.5597 12.0108 15.2102 11.9476 14.8363 11.9476C14.6895 11.9476 14.5475 12.0079 14.2733 12.1864C14.1045 12.2965 13.9071 12.4238 13.6867 12.5645C13.4983 12.6846 13.2431 12.7971 12.9278 12.8989C12.6202 12.9984 12.3079 13.0489 11.9997 13.0489C11.6914 13.0489 11.3792 12.9984 11.0713 12.8989C10.7564 12.7972 10.5011 12.6847 10.3129 12.5647C10.0947 12.4252 9.89714 12.2979 9.72584 12.1863C9.45195 12.0078 9.30984 11.9475 9.16301 11.9475C8.78903 11.9475 8.43964 12.0108 8.12437 12.1357C7.80811 12.2609 7.53432 12.4329 7.31057 12.647C7.09691 12.8515 6.9063 13.0998 6.74433 13.385C6.58818 13.6599 6.46177 13.9467 6.36871 14.2373C6.27884 14.5184 6.20367 14.8257 6.14529 15.151C6.08746 15.4734 6.04817 15.7792 6.02875 16.0602C6.00966 16.3354 6 16.621 6 16.9095C6 17.6603 6.23867 18.2681 6.70933 18.7164C7.17417 19.1587 7.78923 19.3831 8.53719 19.3831H15.4628C16.2108 19.3831 16.8256 19.1589 17.2906 18.7164C17.7613 18.2685 18 17.6605 18 16.9094C17.9999 16.6196 17.9901 16.3337 17.9709 16.0598Z" fill="white"/>
</g>
</svg>
