<svg width="24" height="24" viewBox="0 0 24 24" fill="#22242A" xmlns="http://www.w3.org/2000/svg">
<path d="M16.5006 16.5617L12.0006 19.3659L7.50056 16.5617V13.9581C7.50056 13.7349 7.38476 13.5277 7.19466 13.4107C6.76634 13.1471 6.21484 13.4552 6.21484 13.9581V16.8396C6.21484 17.1849 6.39295 17.5057 6.68597 17.6883L11.4717 20.6706C11.7954 20.8723 12.2057 20.8723 12.5294 20.6706L17.3151 17.6883C17.6082 17.5057 17.7863 17.1849 17.7863 16.8396V13.9581C17.7863 13.4552 17.2348 13.1471 16.8065 13.4107C16.6164 13.5277 16.5006 13.7349 16.5006 13.9581V16.5617Z" fill="#2F3441"/>
<path d="M12.4981 3.28613C12.1897 3.10895 11.8103 3.10895 11.5019 3.28613L3.5019 7.88161C3.19143 8.05996 3 8.39068 3 8.74873V8.84564C3 9.19288 3.18014 9.51527 3.47586 9.69727L11.4759 14.6209C11.7973 14.8187 12.2027 14.8187 12.5241 14.6209L19.7143 10.1957V13.486C19.7143 13.8411 20.0021 14.1289 20.3571 14.1289C20.7122 14.1289 21 13.8411 21 13.486V8.74873C21 8.39068 20.8086 8.05996 20.4981 7.88161L12.4981 3.28613ZM18.4286 9.35762L17.1429 10.1489L12 13.3143L6.85714 10.1489L5.57143 9.35762L4.68031 8.80915L12 4.60446L19.3197 8.80915L18.4286 9.35762Z" fill="#2F3441"/>
</svg>
