<svg width="24" height="24" viewBox="0 0 24 24" fill="none" xmlns="http://www.w3.org/2000/svg">
<path fill-rule="evenodd" clip-rule="evenodd" d="M3 7C3 5.34315 4.34315 4 6 4H18C19.6569 4 21 5.34315 21 7V14.0022C21 15.659 19.6569 17.0022 18 17.0022H14V18.7H15.3512C15.7102 18.7 16.0012 18.991 16.0012 19.35C16.0012 19.7089 15.7102 20 15.3512 20H8.64876C8.28978 20 7.99876 19.7089 7.99876 19.35C7.99876 18.991 8.28978 18.7 8.64876 18.7H10V17.0022H6C4.34315 17.0022 3 15.659 3 14.0022V7ZM6 5.3H18C18.9389 5.3 19.7 6.06112 19.7 7V13.0999H4.3V7C4.3 6.06112 5.06112 5.3 6 5.3ZM4.34677 14.3999C4.52581 15.1469 5.19806 15.7022 6 15.7022H18C18.8019 15.7022 19.4742 15.1469 19.6532 14.3999H4.34677ZM12.7 17.3V18.7H11.3V17.3H12.7Z" fill="#626F84"/>
</svg>
