<svg width="24" height="25" viewBox="0 0 24 25" fill="none" xmlns="http://www.w3.org/2000/svg">
<path d="M4.99961 19.848C4.64062 19.848 4.34961 20.1391 4.34961 20.498C4.34961 20.857 4.64062 21.148 4.99961 21.148H18.9996C19.3586 21.148 19.6496 20.857 19.6496 20.498C19.6496 20.1391 19.3586 19.848 18.9996 19.848H4.99961Z" fill="#626F84"/>
<path d="M6.21797 10.6084C6.21797 10.7884 6.28797 10.9584 6.42797 11.0884C6.69797 11.3284 7.10797 11.3084 7.34797 11.0484L11.3501 7.222L11.3501 17.2105C11.3501 17.5695 11.6411 17.8605 12.0001 17.8605C12.3591 17.8605 12.6501 17.5695 12.6501 17.2105V7.28533L16.298 11.1284C16.538 11.3984 16.948 11.4084 17.218 11.1684C17.478 10.9284 17.498 10.5184 17.258 10.2484L12.5201 5.23055C12.2401 4.92055 11.7601 4.92055 11.4801 5.23055L6.38797 10.1684C6.26797 10.2984 6.21797 10.4484 6.21797 10.6084Z" fill="#626F84"/>
</svg>
