<svg width="24" height="24" viewBox="0 0 24 24" fill="none" xmlns="http://www.w3.org/2000/svg">
<path fill-rule="evenodd" clip-rule="evenodd" d="M21 10.6463C21 11.0329 20.6866 11.3463 20.3 11.3463H13.3522C12.9656 11.3463 12.6522 11.0329 12.6522 10.6463V3.7C12.6522 3.3134 12.9656 3 13.3522 3H18C19.6569 3 21 4.34315 21 6V10.6463ZM15.1811 7.38737C15.1811 7.02838 15.4721 6.73737 15.8311 6.73737H17.8311C18.1901 6.73737 18.4811 7.02838 18.4811 7.38737C18.4811 7.74635 18.1901 8.03737 17.8311 8.03737H15.8311C15.4721 8.03737 15.1811 7.74635 15.1811 7.38737Z" fill="#626F84"/>
<path fill-rule="evenodd" clip-rule="evenodd" d="M13.3522 21C12.9656 21 12.6522 20.6866 12.6522 20.3V13.3463C12.6522 12.9597 12.9656 12.6463 13.3522 12.6463H20.3C20.6866 12.6463 21 12.9597 21 13.3463V18C21 19.6569 19.6569 21 18 21H13.3522ZM15.8311 15.0262C15.4721 15.0262 15.1811 15.3173 15.1811 15.6762C15.1811 16.0352 15.4721 16.3262 15.8311 16.3262H17.8311C18.1901 16.3262 18.4811 16.0352 18.4811 15.6762C18.4811 15.3173 18.1901 15.0262 17.8311 15.0262H15.8311ZM15.1811 17.7124C15.1811 17.3534 15.4721 17.0624 15.8311 17.0624H17.8311C18.1901 17.0624 18.4811 17.3534 18.4811 17.7124C18.4811 18.0714 18.1901 18.3624 17.8311 18.3624H15.8311C15.4721 18.3624 15.1811 18.0714 15.1811 17.7124Z" fill="#626F84"/>
<path fill-rule="evenodd" clip-rule="evenodd" d="M10.6522 21C11.0388 21 11.3522 20.6866 11.3522 20.3V13.3463C11.3522 12.9597 11.0388 12.6463 10.6522 12.6463H3.7C3.3134 12.6463 3 12.9597 3 13.3463V18C3 19.6569 4.34315 21 6 21H10.6522ZM8.70918 18.2573C8.45534 18.5111 8.04378 18.5111 7.78994 18.2573L7.18885 17.6562L6.58781 18.2572C6.33397 18.511 5.92241 18.511 5.66857 18.2572C5.41473 18.0034 5.41473 17.5918 5.66857 17.338L6.26961 16.7369L5.66862 16.1359C5.41478 15.8821 5.41478 15.4705 5.66862 15.2167C5.92246 14.9629 6.33402 14.9629 6.58786 15.2167L7.18885 15.8177L7.78989 15.2166C8.04373 14.9628 8.45529 14.9628 8.70913 15.2166C8.96297 15.4705 8.96297 15.882 8.70913 16.1359L8.10809 16.7369L8.70918 17.338C8.96302 17.5919 8.96302 18.0034 8.70918 18.2573Z" fill="#626F84"/>
<path fill-rule="evenodd" clip-rule="evenodd" d="M3.7 11.3463C3.3134 11.3463 3 11.0329 3 10.6463V6C3 5.89645 3.00525 5.79412 3.01549 5.69327C3.16912 4.1805 4.4467 3 6 3H10.6522C11.0388 3 11.3522 3.3134 11.3522 3.7V10.6463C11.3522 11.0329 11.0388 11.3463 10.6522 11.3463H3.7ZM6.5389 8.88737C6.5389 9.24635 6.82991 9.53737 7.1889 9.53737C7.54788 9.53737 7.8389 9.24635 7.8389 8.88737V8.03729H8.6889C9.04788 8.03729 9.3389 7.74628 9.3389 7.38729C9.3389 7.02831 9.04788 6.73729 8.6889 6.73729H7.8389V5.88737C7.8389 5.52838 7.54788 5.23737 7.1889 5.23737C6.82991 5.23737 6.5389 5.52838 6.5389 5.88737V6.73729H5.6889C5.32991 6.73729 5.0389 7.02831 5.0389 7.38729C5.0389 7.74628 5.32991 8.03729 5.6889 8.03729H6.5389V8.88737Z" fill="#626F84"/>
</svg>
