<svg width="24" height="25" viewBox="0 0 24 25" fill="none" xmlns="http://www.w3.org/2000/svg">
<path d="M7.86938 11.1824C7.51039 11.1824 7.21938 10.8914 7.21938 10.5324V9.68226H6.36938C6.01039 9.68226 5.71938 9.39125 5.71938 9.03226C5.71938 8.67328 6.01039 8.38226 6.36938 8.38226H7.21938V7.53237C7.21938 7.17339 7.51039 6.88237 7.86938 6.88237C8.22836 6.88237 8.51938 7.17339 8.51938 7.53237V8.38226H9.36938C9.72836 8.38226 10.0194 8.67328 10.0194 9.03226C10.0194 9.39125 9.72836 9.68226 9.36938 9.68226H8.51938V10.5324C8.51938 10.8914 8.22836 11.1824 7.86938 11.1824Z" fill="#626F84"/>
<path d="M9.38966 18.6747C9.13582 18.9285 8.72426 18.9285 8.47042 18.6747L7.86931 18.0736L7.26828 18.6746C7.01444 18.9284 6.60288 18.9284 6.34904 18.6746C6.0952 18.4207 6.0952 18.0092 6.34904 17.7553L6.95007 17.1543L6.3491 16.5533C6.09526 16.2995 6.09526 15.8879 6.3491 15.6341C6.60294 15.3803 7.0145 15.3803 7.26834 15.6341L7.86931 16.2351L8.47036 15.634C8.7242 15.3802 9.13576 15.3802 9.3896 15.634C9.64344 15.8879 9.64344 16.2994 9.3896 16.5533L8.78855 17.1543L9.38966 17.7554C9.6435 18.0093 9.6435 18.4208 9.38966 18.6747Z" fill="#626F84"/>
<path d="M15.2561 15.4525C14.8971 15.4525 14.6061 15.7435 14.6061 16.1025C14.6061 16.4614 14.8971 16.7525 15.2561 16.7525H17.2561C17.6151 16.7525 17.9061 16.4614 17.9061 16.1025C17.9061 15.7435 17.6151 15.4525 17.2561 15.4525H15.2561Z" fill="#626F84"/>
<path d="M14.6061 18.1386C14.6061 17.7796 14.8971 17.4886 15.2561 17.4886H17.2561C17.6151 17.4886 17.9061 17.7796 17.9061 18.1386C17.9061 18.4976 17.6151 18.7886 17.2561 18.7886H15.2561C14.8971 18.7886 14.6061 18.4976 14.6061 18.1386Z" fill="#626F84"/>
<path d="M14.6061 9.03232C14.6061 8.67334 14.8971 8.38232 15.2561 8.38232H17.2561C17.6151 8.38232 17.9061 8.67334 17.9061 9.03232C17.9061 9.39131 17.6151 9.68232 17.2561 9.68232H15.2561C14.8971 9.68232 14.6061 9.39131 14.6061 9.03232Z" fill="#626F84"/>
<path fill-rule="evenodd" clip-rule="evenodd" d="M18 21.998C19.6569 21.998 21 20.6549 21 18.998V6.99805C21 5.34119 19.6569 3.99805 18 3.99805H6C4.4467 3.99805 3.16912 5.17855 3.01549 6.69131C3.00525 6.79217 3 6.89449 3 6.99805V18.998C3 20.6549 4.34315 21.998 6 21.998H18ZM4.3 6.99805C4.3 6.05916 5.06112 5.29805 6 5.29805L11.3522 5.29805V12.3443H4.3V6.99805ZM4.3 13.6443V18.998C4.3 19.9369 5.06112 20.698 6 20.698H11.3522V13.6443H4.3ZM12.6522 20.698H18C18.9389 20.698 19.7 19.9369 19.7 18.998V13.6443H12.6522V20.698ZM19.7 12.3443V6.99805C19.7 6.05916 18.9389 5.29805 18 5.29805H12.6522V12.3443H19.7Z" fill="#626F84"/>
</svg>
