<svg width="16" height="4" viewBox="0 0 16 4" fill="#22242A" xmlns="http://www.w3.org/2000/svg">
<path d="M15.4142 0.585786C16.1953 1.36683 16.1953 2.63317 15.4142 3.41422C14.6332 4.19526 13.3668 4.19526 12.5858 3.41422C11.8047 2.63317 11.8047 1.36683 12.5858 0.585786C13.3668 -0.195262 14.6332 -0.195262 15.4142 0.585786Z" fill="#2F3441"/>
<path d="M9.4142 0.585786C10.1952 1.36683 10.1952 2.63317 9.4142 3.41422C8.63316 4.19526 7.36683 4.19526 6.58578 3.41422C5.80474 2.63317 5.80474 1.36683 6.58578 0.585786C7.36683 -0.195262 8.63316 -0.195262 9.4142 0.585786Z" fill="#2F3441"/>
<path d="M3.41421 0.585786C4.19525 1.36683 4.19525 2.63317 3.41421 3.41422C2.63316 4.19526 1.36683 4.19526 0.585784 3.41422C-0.195261 2.63317 -0.195261 1.36683 0.585784 0.585786C1.36683 -0.195262 2.63316 -0.195262 3.41421 0.585786Z" fill="#2F3441"/>
</svg>
