<svg width="24" height="24" viewBox="0 0 24 24" fill="none" xmlns="http://www.w3.org/2000/svg">
<path d="M12.998 17.4383C12.998 17.8967 12.689 18.2829 12.268 18.4C12.1827 18.4237 12.0928 18.4364 12 18.4364C11.9072 18.4364 11.8173 18.4237 11.732 18.4C11.3109 18.2829 11.002 17.8967 11.002 17.4383C11.002 16.8871 11.4488 16.4403 12 16.4403C12.5512 16.4403 12.998 16.8871 12.998 17.4383Z" fill="#626F84"/>
<path fill-rule="evenodd" clip-rule="evenodd" d="M9 3L8.98463 3.00004C8.15766 3.00419 7.40983 3.34293 6.86957 3.88782C6.33203 4.42998 6 5.17621 6 6V18C6 19.6569 7.34315 21 9 21H15C16.6569 21 18 19.6569 18 18V6C18 5.07118 17.5779 4.24097 16.9151 3.69069C16.3992 3.26239 15.7375 3.00367 15.0154 3.00004L15 3H9ZM10.2904 4.3H13.7096V4.943C13.7096 5.30198 13.4186 5.593 13.0596 5.593H10.9404C10.5814 5.593 10.2904 5.30198 10.2904 4.943V4.3ZM15.0096 4.943C15.0096 4.98677 15.0082 5.0302 15.0053 5.07325C14.9383 6.08947 14.0928 6.893 13.0596 6.893H10.9404C9.9072 6.893 9.06168 6.08947 8.99467 5.07324C8.99183 5.03019 8.99039 4.98676 8.99039 4.943V4.30003C8.93499 4.30033 8.88021 4.30329 8.82618 4.30878C8.3702 4.35509 7.96748 4.58161 7.69039 4.91599C7.44656 5.21024 7.3 5.588 7.3 6V18C7.3 18.9389 8.06112 19.7 9 19.7H15C15.9389 19.7 16.7 18.9389 16.7 18V6C16.7 5.588 16.5534 5.21024 16.3096 4.916C15.9997 4.54199 15.5326 4.30292 15.0096 4.30003V4.943Z" fill="#626F84"/>
</svg>
