<svg width="24" height="25" viewBox="0 0 24 25" fill="none" xmlns="http://www.w3.org/2000/svg">
<path d="M12.125 9.46417C12.125 9.04996 11.7892 8.71417 11.375 8.71417C10.9608 8.71417 10.625 9.04996 10.625 9.46417C10.625 9.87839 10.9608 10.2142 11.375 10.2142C11.7892 10.2142 12.125 9.87839 12.125 9.46417Z" fill="#626F84"/>
<path d="M12.025 12.218C12.025 11.859 11.734 11.568 11.375 11.568C11.016 11.568 10.725 11.859 10.725 12.218V16.0642C10.725 17.1411 11.598 18.0142 12.6749 18.0142L12.725 18.0142C13.084 18.0142 13.375 17.7232 13.375 17.3642C13.375 17.0052 13.084 16.7142 12.725 16.7142L12.675 16.7142C12.316 16.7142 12.025 16.4232 12.025 16.0642V12.218Z" fill="#626F84"/>
<path fill-rule="evenodd" clip-rule="evenodd" d="M4 6.99805C4 5.34119 5.34315 3.99805 7 3.99805H13.4803C14.2425 3.99805 14.9761 4.28815 15.5321 4.80943L19.0518 8.10913C19.6568 8.67627 20 9.46852 20 10.2977V18.998C20 20.6549 18.6569 21.998 17 21.998H7C5.34315 21.998 4 20.6549 4 18.998V6.99805ZM7 5.29805L13.4803 5.29805C13.676 5.29805 13.8684 5.33179 14.0496 5.39618V8.05057C14.0496 9.12753 14.9226 10.0006 15.9996 10.0006L18.6738 10.0006C18.6911 10.098 18.7 10.1974 18.7 10.2977L18.7 18.998C18.7 19.9369 17.9389 20.698 17 20.698H7C6.06112 20.698 5.3 19.9369 5.3 18.998L5.3 6.99805C5.3 6.05916 6.06112 5.29805 7 5.29805ZM17.7819 8.70056L15.3496 6.42021V8.05057C15.3496 8.40955 15.6406 8.70057 15.9996 8.70057L17.7819 8.70056Z" fill="#626F84"/>
</svg>
