<svg width="24" height="24" viewBox="0 0 24 24" fill="#22242A" xmlns="http://www.w3.org/2000/svg">
<path fill-rule="evenodd" clip-rule="evenodd" d="M15.8462 5H8C7.44772 5 7 5.44772 7 6V18C7 18.5523 7.44772 19 8 19H15.8462C16.3984 19 16.8462 18.5523 16.8462 18V6C16.8462 5.44771 16.3984 5 15.8462 5ZM8 3C6.34315 3 5 4.34315 5 6V18C5 19.6569 6.34314 21 8 21H15.8462C17.503 21 18.8462 19.6569 18.8462 18V6C18.8462 4.34315 17.503 3 15.8462 3H8ZM7.96148 7.84615C7.96148 7.57001 8.18534 7.34615 8.46148 7.34615H15.3846C15.6607 7.34615 15.8846 7.57001 15.8846 7.84615C15.8846 8.1223 15.6607 8.34615 15.3846 8.34615H8.46148C8.18534 8.34615 7.96148 8.1223 7.96148 7.84615ZM8.46148 10.1154C8.18534 10.1154 7.96148 10.3393 7.96148 10.6154C7.96148 10.8916 8.18534 11.1154 8.46148 11.1154H15.3846C15.6607 11.1154 15.8846 10.8916 15.8846 10.6154C15.8846 10.3393 15.6607 10.1154 15.3846 10.1154H8.46148ZM7.96148 13.3846C7.96148 13.1085 8.18534 12.8846 8.46148 12.8846H15.3846C15.6607 12.8846 15.8846 13.1085 15.8846 13.3846C15.8846 13.6607 15.6607 13.8846 15.3846 13.8846H8.46148C8.18534 13.8846 7.96148 13.6607 7.96148 13.3846ZM8.46148 15.6538C8.18534 15.6538 7.96148 15.8777 7.96148 16.1538C7.96148 16.43 8.18534 16.6538 8.46148 16.6538H11.923C12.1992 16.6538 12.423 16.43 12.423 16.1538C12.423 15.8777 12.1992 15.6538 11.923 15.6538H8.46148Z" fill="#2F3441"/>
</svg>
