<svg width="24" height="24" viewBox="0 0 24 24" fill="none" xmlns="http://www.w3.org/2000/svg">
<path fill-rule="evenodd" clip-rule="evenodd" d="M13.296 3.09264C12.5854 2.99015 12 3.58205 12 4.30002V10.7C12 11.418 12.582 12 13.3 12H19.7C20.418 12 21.0099 11.4146 20.9074 10.704C20.3401 6.77071 17.2293 3.65989 13.296 3.09264Z" fill="#626F84"/>
<path d="M10.7 4.5399C10.7 3.74785 9.99238 3.13389 9.23846 3.37668C5.61888 4.54235 3 7.93788 3 11.9451C3 16.9156 7.02944 20.9451 12 20.9451C15.9844 20.9451 19.3641 18.3559 20.5483 14.7683C20.7976 14.0131 20.1829 13.3 19.3877 13.3H12C11.282 13.3 10.7 12.718 10.7 12V4.5399Z" fill="#626F84"/>
</svg>
