<svg width="24" height="24" viewBox="0 0 24 24" fill="none" xmlns="http://www.w3.org/2000/svg">
<path fill-rule="evenodd" clip-rule="evenodd" d="M13.296 3.09264C12.5854 2.99015 12 3.58205 12 4.30002V10.7C12 11.418 12.582 12 13.3 12H19.7C20.418 12 21.0099 11.4146 20.9074 10.704C20.3401 6.77071 17.2293 3.65989 13.296 3.09264ZM13.3 10.7V4.40909C16.5099 4.95432 19.0457 7.49011 19.5909 10.7H13.3Z" fill="#626F84"/>
<path d="M20.5558 14.8004C20.6881 14.396 20.3719 14 19.9465 14C19.6464 14 19.3865 14.2028 19.2896 14.4868C18.2554 17.5191 15.3824 19.7 12 19.7C7.74741 19.7 4.3 16.2526 4.3 12C4.3 8.61761 6.48089 5.7446 9.51318 4.71042C9.79722 4.61355 10 4.35365 10 4.05356C10 3.62807 9.60399 3.31194 9.19958 3.44422C5.60014 4.62162 3 8.00716 3 12C3 16.9706 7.02944 21 12 21C15.9928 21 19.3784 18.3999 20.5558 14.8004Z" fill="#626F84"/>
</svg>
