<svg width="25" height="24" viewBox="0 0 25 24" fill="none" xmlns="http://www.w3.org/2000/svg">
<path d="M10.8465 3C10.8288 3.08543 10.8195 3.17392 10.8195 3.26457V4.90525C10.8195 5.62322 11.4016 6.20525 12.1195 6.20525C12.8375 6.20525 13.4195 5.62322 13.4195 4.90525V3.26457C13.4195 3.17392 13.4103 3.08543 13.3926 3H16.055C17.7118 3 19.055 4.34315 19.055 6V11.4169C19.055 11.8072 18.7318 12.1145 18.3507 12.1988C18.292 12.2118 18.2333 12.2265 18.1747 12.2431L12.7818 13.7699C12.3405 13.7699 12.1316 13.2696 12.6279 12.9372C14.1007 11.9863 14.234 9.93648 13.284 8.51158C12.2918 7.02325 10.3021 6.58267 8.77433 7.51302L6.24815 9.05132C5.78168 9.33538 5.18408 8.99961 5.18408 8.45345V6C5.18408 4.34315 6.52723 3 8.18408 3H10.8465Z" fill="#626F84"/>
<path d="M3.92807 11.9862C2.89544 12.6151 2.34118 13.8023 2.5222 14.9977L2.75375 16.5268C2.94388 17.7824 3.90395 18.7823 5.15078 19.0232L10.9897 20.1514C11.5963 20.2687 12.2243 20.1957 12.7879 19.9426L19.7395 16.8207C20.5604 16.452 20.9755 15.5272 20.7053 14.6688C20.4171 13.753 19.4528 13.2324 18.5289 13.4939L13.1361 15.0207C12.6864 15.148 12.2132 15.1685 11.7542 15.0806L10.2511 14.7925C9.99829 14.7441 9.78829 14.5687 9.69555 14.3285C9.5797 14.0285 9.66917 13.6879 9.91756 13.4836L11.8021 11.9333C12.6091 11.2694 12.7821 10.1022 12.2025 9.23267C11.597 8.32446 10.3828 8.05562 9.45057 8.62333L3.92807 11.9862Z" fill="#626F84"/>
</svg>
