<svg width="24" height="24" viewBox="0 0 24 24" fill="none" xmlns="http://www.w3.org/2000/svg">
<path fill-rule="evenodd" clip-rule="evenodd" d="M5.00301 6.6373C5.00301 4.62147 6.63717 2.9873 8.65301 2.9873H15.3449C17.3607 2.9873 18.9949 4.62147 18.9949 6.6373V11.0001C18.9949 11.3591 18.7039 11.6501 18.3449 11.6501C17.9859 11.6501 17.6949 11.3591 17.6949 11.0001V6.6373C17.6949 5.33944 16.6427 4.2873 15.3449 4.2873H13.2989V5.66267C13.2989 6.38064 12.7169 6.96267 11.9989 6.96267C11.2809 6.96267 10.6989 6.38064 10.6989 5.66267V4.2873H8.65301C7.35514 4.2873 6.30301 5.33944 6.30301 6.6373V7.5001C6.30301 7.85908 6.012 8.1501 5.65301 8.1501C5.29403 8.1501 5.00301 7.85908 5.00301 7.5001V6.6373ZM10.0191 9.33862C10.6258 8.96922 11.4158 9.14415 11.8097 9.7351C12.1869 10.3009 12.0743 11.0603 11.5492 11.4923L9.72113 12.9962C9.26379 13.3725 9.09904 13.9995 9.31236 14.5519C9.48311 14.9942 9.86978 15.3171 10.3353 15.4063L11.7725 15.6817C12.331 15.7887 12.9067 15.7638 13.4538 15.6089L18.6647 14.1336C19.2225 13.9757 19.8048 14.29 19.9789 14.8431C20.142 15.3614 19.8914 15.9198 19.3957 16.1424L12.6782 19.1592C12.2367 19.3575 11.7447 19.4146 11.2696 19.3228L5.69562 18.2458C4.71893 18.057 3.96688 17.2738 3.81794 16.2903L3.61177 14.9287C3.46998 13.9923 3.90414 13.0623 4.71304 12.5698L10.0191 9.33862ZM12.8914 9.01399C12.1107 7.84291 10.5451 7.49625 9.343 8.22828L4.0369 11.4594C2.78053 12.2245 2.10619 13.669 2.32642 15.1234L2.5326 16.4849C2.76392 18.0125 3.93201 19.229 5.44898 19.5222L11.0229 20.5992C11.761 20.7418 12.525 20.6531 13.2107 20.3451L19.9282 17.3283C21.0253 16.8356 21.5799 15.5999 21.2189 14.4528C20.8337 13.2289 19.5451 12.5333 18.3106 12.8828L13.0996 14.3581C12.7474 14.4578 12.3767 14.4739 12.0172 14.405L10.58 14.1295C10.555 14.1248 10.5343 14.1074 10.5251 14.0837C10.5136 14.054 10.5225 14.0204 10.547 14.0002L12.3751 12.4963C13.4157 11.6402 13.6388 10.1352 12.8914 9.01399Z" fill="#626F84"/>
</svg>
