<svg width="24" height="24" viewBox="0 0 24 24" fill="none" xmlns="http://www.w3.org/2000/svg">
<path d="M2.7174 10.2408C1.78237 9.76145 1.7729 8.42837 2.70102 7.93574L10.5935 3.74656C11.4731 3.27971 12.527 3.27971 13.4065 3.74656L21.299 7.93574C21.6791 8.13747 21.9019 8.48014 21.9684 8.84741C21.9889 8.91071 22 8.97828 22 9.04844L22.0282 15.3469C22.0282 15.7059 21.7371 15.9969 21.3782 15.9969C21.0192 15.9969 20.7282 15.7059 20.7282 15.3469L20.7067 10.5361L13.3687 14.2983C12.5094 14.7388 11.4906 14.7388 10.6313 14.2983L2.7174 10.2408Z" fill="#626F84"/>
<path d="M5.33002 13.5321C5.33002 13.3078 5.56725 13.1628 5.76689 13.2651L10.0382 15.4551C11.2699 16.0865 12.7302 16.0865 13.9618 15.4551L18.1931 13.2857C18.3928 13.1833 18.63 13.3283 18.63 13.5526V15.8656C18.63 16.7695 18.2294 17.627 17.5361 18.207C14.3205 20.8971 9.63957 20.8971 6.42395 18.207C5.73063 17.627 5.33002 16.7695 5.33002 15.8656V13.5321Z" fill="#626F84"/>
</svg>
