<svg width="24" height="24" viewBox="0 0 24 24" fill="none" xmlns="http://www.w3.org/2000/svg">
<path fill-rule="evenodd" clip-rule="evenodd" d="M8.88002 12.65C8.13104 12.65 7.53002 13.251 7.53002 14V15.32C7.53002 16.069 8.13104 16.67 8.88002 16.67H11.2C11.949 16.67 12.55 16.069 12.55 15.32V14C12.55 13.251 11.949 12.65 11.2 12.65H8.88002ZM8.83002 14C8.83002 13.9812 8.83633 13.9704 8.84339 13.9634C8.85046 13.9563 8.86122 13.95 8.88002 13.95H11.2C11.2188 13.95 11.2296 13.9563 11.2367 13.9634C11.2437 13.9704 11.25 13.9812 11.25 14V15.32C11.25 15.3388 11.2437 15.3496 11.2367 15.3566C11.2296 15.3637 11.2188 15.37 11.2 15.37H8.88002C8.86122 15.37 8.85046 15.3637 8.84339 15.3566C8.83633 15.3496 8.83002 15.3388 8.83002 15.32V14Z" fill="#626F84"/>
<path fill-rule="evenodd" clip-rule="evenodd" d="M8.78998 2.59998C8.78998 2.241 8.49896 1.94998 8.13998 1.94998C7.78099 1.94998 7.48998 2.241 7.48998 2.59998V3.98999H7C5.34 3.98999 4 5.32999 4 6.98999V17.12C4 18.78 5.34 20.12 7 20.12H17C18.66 20.12 20 18.78 20 17.12V6.98999C20 5.32999 18.65 3.98999 17 3.98999H16.5V2.59998C16.5 2.241 16.209 1.94998 15.85 1.94998C15.491 1.94998 15.2 2.241 15.2 2.59998V3.98999H12.65V2.59998C12.65 2.241 12.359 1.94998 12 1.94998C11.641 1.94998 11.35 2.241 11.35 2.59998V3.98999H8.78998V2.59998ZM7.48998 5.28999V6.85998C7.48998 7.21897 7.78099 7.50998 8.13998 7.50998C8.49896 7.50998 8.78998 7.21897 8.78998 6.85998V5.28999H11.35V6.85998C11.35 7.21897 11.641 7.50998 12 7.50998C12.359 7.50998 12.65 7.21897 12.65 6.85998V5.28999H15.2V6.85998C15.2 7.21897 15.491 7.50998 15.85 7.50998C16.209 7.50998 16.5 7.21897 16.5 6.85998V5.28999H17C17.94 5.28999 18.7 6.04999 18.7 6.98999V9.35H5.3V6.98999C5.3 6.04999 6.06 5.28999 7 5.28999H7.48998ZM5.3 10.65H18.7V17.12C18.7 18.06 17.94 18.82 17 18.82H7C6.06 18.82 5.3 18.06 5.3 17.12V10.65Z" fill="#626F84"/>
</svg>
