<svg width="24" height="25" viewBox="0 0 24 25" fill="none" xmlns="http://www.w3.org/2000/svg">
<path d="M5 10.998C6.10457 10.998 7 11.8935 7 12.998C7 14.1026 6.10457 14.998 5 14.998C3.89543 14.998 3 14.1026 3 12.998C3 11.8935 3.89543 10.998 5 10.998Z" fill="#626F84"/>
<path d="M19 10.998C20.1046 10.998 21 11.8935 21 12.998C21 14.1026 20.1046 14.998 19 14.998C17.8954 14.998 17 14.1026 17 12.998C17 11.8935 17.8954 10.998 19 10.998Z" fill="#626F84"/>
<path d="M14 12.998C14 11.8935 13.1046 10.998 12 10.998C10.8954 10.998 10 11.8935 10 12.998C10 14.1026 10.8954 14.998 12 14.998C13.1046 14.998 14 14.1026 14 12.998Z" fill="#626F84"/>
</svg>
