<svg width="24" height="24" viewBox="0 0 24 24" fill="none" xmlns="http://www.w3.org/2000/svg">
<path fill-rule="evenodd" clip-rule="evenodd" d="M14 5.99841C14 6.84401 13.4752 7.56704 12.7336 7.8596C12.7444 7.8712 12.7551 7.88312 12.7655 7.89536L14.6512 10.1067C15.0832 10.6135 15.8283 10.7117 16.377 10.3344L18.2826 9.02391C18.1031 8.72405 18 8.37328 18 7.99841C18 6.89384 18.8954 5.99841 20 5.99841C21.1046 5.99841 22 6.89384 22 7.99841C22 9.06299 21.1682 9.9333 20.1191 9.99492L19.1694 16.2074C19.0724 16.8421 18.5265 17.3109 17.8844 17.3109H6.11712C5.47501 17.3109 4.92908 16.8421 4.83205 16.2074L3.88239 9.99501C2.83256 9.93414 2 9.0635 2 7.99841C2 6.89384 2.89543 5.99841 4 5.99841C5.10457 5.99841 6 6.89384 6 7.99841C6 8.36994 5.8987 8.71781 5.7222 9.0159L7.65502 10.3362C8.20565 10.7123 8.95159 10.6108 9.38172 10.1013L11.2404 7.89917C11.2511 7.88653 11.262 7.87422 11.2732 7.86225C10.528 7.57143 10 6.84658 10 5.99841C10 4.89384 10.8954 3.99841 12 3.99841C13.1046 3.99841 14 4.89384 14 5.99841ZM12 6.69841C12.3866 6.69841 12.7 6.38501 12.7 5.99841C12.7 5.61181 12.3866 5.29841 12 5.29841C11.6134 5.29841 11.3 5.61181 11.3 5.99841C11.3 6.38501 11.6134 6.69841 12 6.69841ZM18.7616 10.2722L17.1137 11.4055C16.0163 12.1602 14.5261 11.9637 13.6619 10.9502L12.0058 9.00792L10.3751 10.9398C9.51489 11.9589 8.02301 12.1619 6.92174 11.4097L5.23792 10.2594L6.11712 16.0109L17.8844 16.0109L18.7616 10.2722ZM4.7 7.99841C4.7 8.38501 4.3866 8.69841 4 8.69841C3.6134 8.69841 3.3 8.38501 3.3 7.99841C3.3 7.61181 3.6134 7.29841 4 7.29841C4.3866 7.29841 4.7 7.61181 4.7 7.99841ZM20 8.69841C20.3866 8.69841 20.7 8.38501 20.7 7.99841C20.7 7.61181 20.3866 7.29841 20 7.29841C19.6134 7.29841 19.3 7.61181 19.3 7.99841C19.3 8.38501 19.6134 8.69841 20 8.69841Z" fill="#626F84"/>
<path d="M18.35 20.0015C18.709 20.0015 19 19.7105 19 19.3515C19 18.9925 18.709 18.7015 18.35 18.7015H5.65C5.29101 18.7015 5 18.9925 5 19.3515C5 19.7105 5.29101 20.0015 5.65 20.0015H18.35Z" fill="#626F84"/>
</svg>
