<svg width="24" height="24" viewBox="0 0 24 24" fill="none" xmlns="http://www.w3.org/2000/svg">
<path d="M19 19.3492C19 19.7082 18.709 19.9992 18.35 19.9992H5.65C5.29101 19.9992 5 19.7082 5 19.3492C5 18.9902 5.29101 18.6992 5.65 18.6992H18.35C18.709 18.6992 19 18.9902 19 19.3492Z" fill="#626F84"/>
<path d="M14 6C14 6.8211 13.5052 7.52662 12.7975 7.83467L15.0257 10.1668C15.48 10.6423 16.2179 10.7036 16.7444 10.3097L18.34 9.11595C18.1253 8.7972 18 8.41323 18 8C18 6.89543 18.8954 6 20 6C21.1046 6 22 6.89543 22 8C22 9.06824 21.1625 9.94087 20.1083 9.99712L19.1723 15.9639C19.0731 16.5964 18.5282 17.0625 17.888 17.0625H6.11197C5.47178 17.0625 4.92689 16.5964 4.82768 15.9639L3.89171 9.99712C2.83749 9.94087 2 9.06824 2 8C2 6.89543 2.89543 6 4 6C5.10457 6 6 6.89543 6 8C6 8.41762 5.872 8.80535 5.65309 9.12609L7.21584 10.3063C7.74015 10.7023 8.47751 10.6448 8.93411 10.1724L11.1961 7.83185C10.4918 7.52234 10 6.8186 10 6C10 4.89543 10.8954 4 12 4C13.1046 4 14 4.89543 14 6Z" fill="#626F84"/>
</svg>
