<svg width="24" height="24" viewBox="0 0 24 24" fill="none" xmlns="http://www.w3.org/2000/svg">
<path fill-rule="evenodd" clip-rule="evenodd" d="M15.9998 12C15.9998 14.2092 14.209 16 11.9998 16C9.79071 16 7.99985 14.2092 7.99985 12C7.99985 9.79087 9.79071 8.00001 11.9998 8.00001C14.209 8.00001 15.9998 9.79087 15.9998 12ZM14.6998 12C14.6998 13.4912 13.491 14.7 11.9998 14.7C10.5087 14.7 9.29985 13.4912 9.29985 12C9.29985 10.5088 10.5087 9.30001 11.9998 9.30001C13.491 9.30001 14.6998 10.5088 14.6998 12Z" fill="#626F84"/>
<path fill-rule="evenodd" clip-rule="evenodd" d="M10.9829 3.00494C10.0972 3.00494 9.34712 3.65809 9.22535 4.5354C9.07434 5.6234 7.93962 6.27853 6.92187 5.86531C6.10122 5.53211 5.16054 5.85512 4.71768 6.62217L3.76095 8.27928C3.32346 9.03703 3.50364 10.0006 4.18538 10.549C5.06698 11.2583 5.05247 12.6261 4.14737 13.3307C3.44849 13.8748 3.25788 14.851 3.70074 15.618L4.65747 17.2751C5.09496 18.0329 6.0195 18.3586 6.83534 18.0424C7.89037 17.6336 9.06765 18.33 9.22535 19.4662C9.34712 20.3435 10.0972 20.9966 10.9829 20.9966H12.8964C13.7713 20.9966 14.5157 20.3588 14.6498 19.4942C14.8322 18.3184 16.0549 17.6125 17.1644 18.0424C17.9802 18.3586 18.9047 18.0329 19.3422 17.2751L20.299 15.618C20.7418 14.851 20.5512 13.8748 19.8523 13.3307C18.9472 12.6261 18.9327 11.2583 19.8143 10.549C20.4961 10.0006 20.6762 9.03703 20.2387 8.27929L19.282 6.62217C18.8392 5.85512 17.8985 5.53211 17.0778 5.86531C16.015 6.29682 14.8232 5.62549 14.6498 4.50738C14.5157 3.64275 13.7713 3.00494 12.8964 3.00494H10.9829ZM10.513 4.71413C10.5456 4.47957 10.7461 4.30494 10.9829 4.30494L12.8964 4.30494C13.1303 4.30494 13.3293 4.47547 13.3652 4.70663C13.6695 6.66888 15.7415 7.81096 17.5669 7.06981C17.7863 6.98073 18.0378 7.06709 18.1562 7.27217L19.1129 8.92928C19.2299 9.13187 19.1817 9.38948 18.9994 9.53612C17.4523 10.7808 17.4992 13.1462 19.0537 14.3565C19.2406 14.502 19.2915 14.7629 19.1731 14.968L18.2164 16.6251C18.0994 16.8277 17.8522 16.9148 17.6341 16.8303C15.7506 16.1003 13.6748 17.2988 13.3652 19.295C13.3293 19.5261 13.1303 19.6966 12.8964 19.6966H10.9829C10.7461 19.6966 10.5456 19.522 10.513 19.2875C10.2421 17.336 8.21711 16.1127 6.36558 16.8303C6.14745 16.9148 5.90027 16.8277 5.78331 16.6251L4.82657 14.968C4.70817 14.7629 4.75913 14.502 4.94598 14.3565C6.50054 13.1462 6.54743 10.7808 5.00026 9.53612C4.81799 9.38948 4.76981 9.13187 4.88678 8.92928L5.84352 7.27217C5.96192 7.06709 6.21342 6.98073 6.43283 7.06981C8.23557 7.80175 10.2455 6.64132 10.513 4.71413Z" fill="#626F84"/>
</svg>
