<svg width="18" height="18" viewBox="0 0 18 18" fill="#22242A" xmlns="http://www.w3.org/2000/svg">
<path fill-rule="evenodd" clip-rule="evenodd" d="M2 0H6C6.53043 0 7.03911 0.210743 7.41418 0.585815C7.78926 0.960888 8 1.46957 8 2V6C8 6.53043 7.78926 7.03911 7.41418 7.41418C7.03911 7.78926 6.53043 8 6 8H2C1.46957 8 0.960888 7.78926 0.585815 7.41418C0.210743 7.03911 0 6.53043 0 6V2C0 1.46957 0.210743 0.960888 0.585815 0.585815C0.960888 0.210743 1.46957 0 2 0ZM2 2H6V6H2V2ZM12 0H16C16.5304 0 17.0391 0.210743 17.4142 0.585815C17.7893 0.960888 18 1.46957 18 2V6C18 6.53043 17.7893 7.03911 17.4142 7.41418C17.0391 7.78926 16.5304 8 16 8H12C11.4696 8 10.9609 7.78926 10.5858 7.41418C10.2107 7.03911 10 6.53043 10 6V2C10 1.46957 10.2107 0.960888 10.5858 0.585815C10.9609 0.210743 11.4696 0 12 0ZM12 2H16V6H12V2ZM2 10H6C6.53043 10 7.03911 10.2107 7.41418 10.5858C7.78926 10.9609 8 11.4696 8 12V16C8 16.5304 7.78926 17.0391 7.41418 17.4142C7.03911 17.7893 6.53043 18 6 18H2C1.46957 18 0.960888 17.7893 0.585815 17.4142C0.210743 17.0391 0 16.5304 0 16V12C0 11.4696 0.210743 10.9609 0.585815 10.5858C0.960888 10.2107 1.46957 10 2 10ZM2 12H6V16H2V12ZM12 10H16C16.5304 10 17.0391 10.2107 17.4142 10.5858C17.7893 10.9609 18 11.4696 18 12V16C18 16.5304 17.7893 17.0391 17.4142 17.4142C17.0391 17.7893 16.5304 18 16 18H12C11.4696 18 10.9609 17.7893 10.5858 17.4142C10.2107 17.0391 10 16.5304 10 16V12C10 11.4696 10.2107 10.9609 10.5858 10.5858C10.9609 10.2107 11.4696 10 12 10ZM12 12H16V16H12V12Z" />
</svg>
